solid OpenSCAD_Model
  facet normal 1 0 0
    outer loop
      vertex -0.5 18.1 12.9
      vertex -0.5 22.1 4
      vertex -0.5 22.1 17.1
    endloop
  endfacet
  facet normal 1 0 0
    outer loop
      vertex -0.5 18.1 4
      vertex -0.5 22.1 4
      vertex -0.5 18.1 12.9
    endloop
  endfacet
  facet normal 0 0 1
    outer loop
      vertex -0.5 18.1 4
      vertex 22.1 -0.5 4
      vertex -0.5 22.1 4
    endloop
  endfacet
  facet normal 0.707107 0.707107 0
    outer loop
      vertex -0.5 22.1 0
      vertex -0.5 22.1 4
      vertex 22.1 -0.5 0
    endloop
  endfacet
  facet normal 0.707107 0.707107 0
    outer loop
      vertex -0.5 22.1 4
      vertex 22.1 -0.5 4
      vertex 22.1 -0.5 0
    endloop
  endfacet
  facet normal 0 0 -1
    outer loop
      vertex -0.5 5 0
      vertex -0.5 22.1 0
      vertex 22.1 -0.5 0
    endloop
  endfacet
  facet normal 0 0 -1
    outer loop
      vertex -0.5 5 0
      vertex 22.1 -0.5 0
      vertex 5 -0.5 0
    endloop
  endfacet
  facet normal -0.707107 -0.707107 0
    outer loop
      vertex -0.5 5 0
      vertex 5 -0.5 0
      vertex -0.5 5 4
    endloop
  endfacet
  facet normal 1 0 0
    outer loop
      vertex -0.5 5 17.1
      vertex -0.5 9 12.9
      vertex -0.5 22.1 17.1
    endloop
  endfacet
  facet normal 1 0 0
    outer loop
      vertex -0.5 5 17.1
      vertex -0.5 9 4
      vertex -0.5 9 12.9
    endloop
  endfacet
  facet normal 1 0 0
    outer loop
      vertex -0.5 5 4
      vertex -0.5 9 4
      vertex -0.5 5 17.1
    endloop
  endfacet
  facet normal -0.707107 -0.707107 0
    outer loop
      vertex -0.5 5 4
      vertex 5 -0.5 0
      vertex 5 -0.5 4
    endloop
  endfacet
  facet normal 0 0 1
    outer loop
      vertex -0.5 5 4
      vertex 5 -0.5 4
      vertex -0.5 9 4
    endloop
  endfacet
  facet normal 1 0 0
    outer loop
      vertex -0.5 9 12.9
      vertex -0.5 18.1 12.9
      vertex -0.5 22.1 17.1
    endloop
  endfacet
  facet normal 0 0 1
    outer loop
      vertex -0.5 9 4
      vertex 18.1 -0.5 4
      vertex 22.1 -0.5 4
    endloop
  endfacet
  facet normal 0 0 1
    outer loop
      vertex -0.5 9 4
      vertex 18.1 -5.5 4
      vertex 18.1 -0.5 4
    endloop
  endfacet
  facet normal 0 0 1
    outer loop
      vertex -0.5 9 4
      vertex 22.1 -0.5 4
      vertex -0.5 18.1 4
    endloop
  endfacet
  facet normal 0 0 1
    outer loop
      vertex -0.5 9 4
      vertex 5 -0.5 4
      vertex 9 -0.5 4
    endloop
  endfacet
  facet normal 0 0 1
    outer loop
      vertex -0.5 9 4
      vertex 9 -0.5 4
      vertex 18.1 -5.5 4
    endloop
  endfacet
  facet normal 2.22045e-16 1 4.93038e-32
    outer loop
      vertex -14.4 11.313 8.107
      vertex -14.4 11.313 8.593
      vertex -9.4 11.313 8.593
    endloop
  endfacet
  facet normal 1.68884e-16 0.976428 0.215842
    outer loop
      vertex -14.4 11.313 8.107
      vertex -9.4 11.313 8.107
      vertex -14.4 11.418 7.632
    endloop
  endfacet
  facet normal 2.22045e-16 1 4.93038e-32
    outer loop
      vertex -14.4 11.313 8.107
      vertex -9.4 11.313 8.593
      vertex -9.4 11.313 8.107
    endloop
  endfacet
  facet normal 2.64737e-16 0.976428 -0.215842
    outer loop
      vertex -14.4 11.313 8.593
      vertex -14.4 11.418 9.068
      vertex -9.4 11.313 8.593
    endloop
  endfacet
  facet normal 1.68884e-16 0.976428 0.215842
    outer loop
      vertex -14.4 11.418 7.632
      vertex -9.4 11.313 8.107
      vertex -9.4 11.418 7.632
    endloop
  endfacet
  facet normal 1.08558e-16 0.907959 0.419058
    outer loop
      vertex -14.4 11.418 7.632
      vertex -9.4 11.418 7.632
      vertex -14.4 11.622 7.19
    endloop
  endfacet
  facet normal 2.94657e-16 0.907959 -0.419058
    outer loop
      vertex -14.4 11.418 9.068
      vertex -14.4 11.622 9.51
      vertex -9.4 11.418 9.068
    endloop
  endfacet
  facet normal 2.64737e-16 0.976428 -0.215842
    outer loop
      vertex -14.4 11.418 9.068
      vertex -9.4 11.418 9.068
      vertex -9.4 11.313 8.593
    endloop
  endfacet
  facet normal 1.08558e-16 0.907959 0.419058
    outer loop
      vertex -14.4 11.622 7.19
      vertex -9.4 11.418 7.632
      vertex -9.4 11.622 7.19
    endloop
  endfacet
  facet normal 4.198e-17 0.79529 0.606229
    outer loop
      vertex -14.4 11.622 7.19
      vertex -9.4 11.622 7.19
      vertex -14.4 11.917 6.803
    endloop
  endfacet
  facet normal 3.112e-16 0.79529 -0.606229
    outer loop
      vertex -14.4 11.622 9.51
      vertex -14.4 11.917 9.897
      vertex -9.4 11.622 9.51
    endloop
  endfacet
  facet normal 2.94657e-16 0.907959 -0.419058
    outer loop
      vertex -14.4 11.622 9.51
      vertex -9.4 11.622 9.51
      vertex -9.4 11.418 9.068
    endloop
  endfacet
  facet normal 4.198e-17 0.79529 0.606229
    outer loop
      vertex -14.4 11.917 6.803
      vertex -9.4 11.622 7.19
      vertex -9.4 11.917 6.803
    endloop
  endfacet
  facet normal -2.51323e-17 0.648246 0.761431
    outer loop
      vertex -14.4 11.917 6.803
      vertex -9.4 11.917 6.803
      vertex -14.4 12.287 6.488
    endloop
  endfacet
  facet normal -1 0 0
    outer loop
      vertex -14.4 11.917 9.897
      vertex -14.4 11.959 9.941
      vertex -14.4 11.963 9.937
    endloop
  endfacet
  facet normal 3.13257e-16 0.656179 -0.754606
    outer loop
      vertex -14.4 11.917 9.897
      vertex -14.4 11.963 9.937
      vertex -9.4 11.917 9.897
    endloop
  endfacet
  facet normal 3.112e-16 0.79529 -0.606229
    outer loop
      vertex -14.4 11.917 9.897
      vertex -9.4 11.917 9.897
      vertex -9.4 11.622 9.51
    endloop
  endfacet
  facet normal 3.14018e-16 0.707107 -0.707107
    outer loop
      vertex -14.4 11.959 9.941
      vertex -14.4 12.618 10.6
      vertex -9.4 11.959 9.941
    endloop
  endfacet
  facet normal 0 0.707107 0.707107
    outer loop
      vertex -14.4 11.959 9.941
      vertex -9.4 11.959 9.941
      vertex -14.4 11.963 9.937
    endloop
  endfacet
  facet normal 0 0.707107 0.707107
    outer loop
      vertex -14.4 11.963 9.937
      vertex -9.4 11.959 9.941
      vertex -9.4 11.963 9.937
    endloop
  endfacet
  facet normal 3.13257e-16 0.656179 -0.754606
    outer loop
      vertex -14.4 11.963 9.937
      vertex -9.4 11.963 9.937
      vertex -9.4 11.917 9.897
    endloop
  endfacet
  facet normal -1 0 0
    outer loop
      vertex -14.4 12.287 6.488
      vertex -14.4 12.717 6.26
      vertex -14.4 22.1 0
    endloop
  endfacet
  facet normal -2.51323e-17 0.648246 0.761431
    outer loop
      vertex -14.4 12.287 6.488
      vertex -9.4 11.917 6.803
      vertex -9.4 12.287 6.488
    endloop
  endfacet
  facet normal -9.2156e-17 0.468454 0.883488
    outer loop
      vertex -14.4 12.287 6.488
      vertex -9.4 12.287 6.488
      vertex -14.4 12.717 6.26
    endloop
  endfacet
  facet normal 2.22045e-16 -4.93038e-32 -1
    outer loop
      vertex -14.4 12.618 10.6
      vertex -14.4 14.482 10.6
      vertex -9.4 12.618 10.6
    endloop
  endfacet
  facet normal 3.14018e-16 0.707107 -0.707107
    outer loop
      vertex -14.4 12.618 10.6
      vertex -9.4 12.618 10.6
      vertex -9.4 11.959 9.941
    endloop
  endfacet
  facet normal -1 0 0
    outer loop
      vertex -14.4 12.717 6.26
      vertex -14.4 13.186 6.13
      vertex -14.4 22.1 0
    endloop
  endfacet
  facet normal -9.2156e-17 0.468454 0.883488
    outer loop
      vertex -14.4 12.717 6.26
      vertex -9.4 12.287 6.488
      vertex -9.4 12.717 6.26
    endloop
  endfacet
  facet normal -1.54665e-16 0.267114 0.963665
    outer loop
      vertex -14.4 12.717 6.26
      vertex -9.4 12.717 6.26
      vertex -14.4 13.186 6.13
    endloop
  endfacet
  facet normal -1 0 0
    outer loop
      vertex -14.4 13.186 6.13
      vertex -14.4 13.672 6.103
      vertex -14.4 22.1 0
    endloop
  endfacet
  facet normal -1.54665e-16 0.267114 0.963665
    outer loop
      vertex -14.4 13.186 6.13
      vertex -9.4 12.717 6.26
      vertex -9.4 13.186 6.13
    endloop
  endfacet
  facet normal -2.09386e-16 0.05547 0.99846
    outer loop
      vertex -14.4 13.186 6.13
      vertex -9.4 13.186 6.13
      vertex -14.4 13.672 6.103
    endloop
  endfacet
  facet normal -1 0 0
    outer loop
      vertex -14.4 13.672 6.103
      vertex -14.4 14.152 6.182
      vertex -14.4 22.1 0
    endloop
  endfacet
  facet normal -2.09386e-16 0.05547 0.99846
    outer loop
      vertex -14.4 13.672 6.103
      vertex -9.4 13.186 6.13
      vertex -9.4 13.672 6.103
    endloop
  endfacet
  facet normal -2.55157e-16 -0.162399 0.986725
    outer loop
      vertex -14.4 13.672 6.103
      vertex -9.4 13.672 6.103
      vertex -14.4 14.152 6.182
    endloop
  endfacet
  facet normal -1 0 0
    outer loop
      vertex -14.4 14.152 6.182
      vertex -14.4 14.604 6.362
      vertex -14.4 22.1 0
    endloop
  endfacet
  facet normal -2.55157e-16 -0.162399 0.986725
    outer loop
      vertex -14.4 14.152 6.182
      vertex -9.4 13.672 6.103
      vertex -9.4 14.152 6.182
    endloop
  endfacet
  facet normal -2.88439e-16 -0.369973 0.929043
    outer loop
      vertex -14.4 14.152 6.182
      vertex -9.4 14.152 6.182
      vertex -14.4 14.604 6.362
    endloop
  endfacet
  facet normal 0 -0.707107 -0.707107
    outer loop
      vertex -14.4 14.482 10.6
      vertex -14.4 15.141 9.941
      vertex -9.4 14.482 10.6
    endloop
  endfacet
  facet normal -1 0 0
    outer loop
      vertex -14.4 14.482 10.6
      vertex -14.4 22.1 17.1
      vertex -14.4 15.141 9.941
    endloop
  endfacet
  facet normal 2.22045e-16 -4.93038e-32 -1
    outer loop
      vertex -14.4 14.482 10.6
      vertex -9.4 14.482 10.6
      vertex -9.4 12.618 10.6
    endloop
  endfacet
  facet normal -1 0 0
    outer loop
      vertex -14.4 14.604 6.362
      vertex -14.4 15.007 6.635
      vertex -14.4 22.1 0
    endloop
  endfacet
  facet normal -2.88439e-16 -0.369973 0.929043
    outer loop
      vertex -14.4 14.604 6.362
      vertex -9.4 14.152 6.182
      vertex -9.4 14.604 6.362
    endloop
  endfacet
  facet normal -3.08368e-16 -0.560848 0.827919
    outer loop
      vertex -14.4 14.604 6.362
      vertex -9.4 14.604 6.362
      vertex -14.4 15.007 6.635
    endloop
  endfacet
  facet normal -1 0 0
    outer loop
      vertex -14.4 15.007 6.635
      vertex -14.4 15.341 6.988
      vertex -14.4 22.1 0
    endloop
  endfacet
  facet normal -3.08368e-16 -0.560848 0.827919
    outer loop
      vertex -14.4 15.007 6.635
      vertex -9.4 14.604 6.362
      vertex -9.4 15.007 6.635
    endloop
  endfacet
  facet normal -3.13898e-16 -0.726385 0.687288
    outer loop
      vertex -14.4 15.007 6.635
      vertex -9.4 15.007 6.635
      vertex -14.4 15.341 6.988
    endloop
  endfacet
  facet normal -1 0 0
    outer loop
      vertex -14.4 15.132 9.932
      vertex -14.4 15.141 9.941
      vertex -14.4 15.341 9.712
    endloop
  endfacet
  facet normal -8.04911e-18 -0.724999 -0.688749
    outer loop
      vertex -14.4 15.132 9.932
      vertex -14.4 15.341 9.712
      vertex -9.4 15.132 9.932
    endloop
  endfacet
  facet normal -3.14018e-16 -0.707107 0.707107
    outer loop
      vertex -14.4 15.132 9.932
      vertex -9.4 15.132 9.932
      vertex -14.4 15.141 9.941
    endloop
  endfacet
  facet normal -1 0 0
    outer loop
      vertex -14.4 15.141 9.941
      vertex -14.4 22.1 17.1
      vertex -14.4 15.341 9.712
    endloop
  endfacet
  facet normal -3.14018e-16 -0.707107 0.707107
    outer loop
      vertex -14.4 15.141 9.941
      vertex -9.4 15.132 9.932
      vertex -9.4 15.141 9.941
    endloop
  endfacet
  facet normal 0 -0.707107 -0.707107
    outer loop
      vertex -14.4 15.141 9.941
      vertex -9.4 15.141 9.941
      vertex -9.4 14.482 10.6
    endloop
  endfacet
  facet normal -1 0 0
    outer loop
      vertex -14.4 15.341 6.988
      vertex -14.4 15.592 7.405
      vertex -14.4 22.1 17.1
    endloop
  endfacet
  facet normal -1 0 0
    outer loop
      vertex -14.4 15.341 6.988
      vertex -14.4 22.1 17.1
      vertex -14.4 22.1 0
    endloop
  endfacet
  facet normal -3.13898e-16 -0.726385 0.687288
    outer loop
      vertex -14.4 15.341 6.988
      vertex -9.4 15.007 6.635
      vertex -9.4 15.341 6.988
    endloop
  endfacet
  facet normal -3.0475e-16 -0.856767 0.515704
    outer loop
      vertex -14.4 15.341 6.988
      vertex -9.4 15.341 6.988
      vertex -14.4 15.592 7.405
    endloop
  endfacet
  facet normal -7.57312e-17 -0.856767 -0.515704
    outer loop
      vertex -14.4 15.341 9.712
      vertex -14.4 15.592 9.295
      vertex -9.4 15.341 9.712
    endloop
  endfacet
  facet normal -1 0 0
    outer loop
      vertex -14.4 15.341 9.712
      vertex -14.4 22.1 17.1
      vertex -14.4 15.592 9.295
    endloop
  endfacet
  facet normal -8.04911e-18 -0.724999 -0.688749
    outer loop
      vertex -14.4 15.341 9.712
      vertex -9.4 15.341 9.712
      vertex -9.4 15.132 9.932
    endloop
  endfacet
  facet normal -1 0 0
    outer loop
      vertex -14.4 15.592 7.405
      vertex -14.4 15.747 7.866
      vertex -14.4 22.1 17.1
    endloop
  endfacet
  facet normal -3.0475e-16 -0.856767 0.515704
    outer loop
      vertex -14.4 15.592 7.405
      vertex -9.4 15.341 6.988
      vertex -9.4 15.592 7.405
    endloop
  endfacet
  facet normal -2.81231e-16 -0.947858 0.318694
    outer loop
      vertex -14.4 15.592 7.405
      vertex -9.4 15.592 7.405
      vertex -14.4 15.747 7.866
    endloop
  endfacet
  facet normal -1.39702e-16 -0.947858 -0.318694
    outer loop
      vertex -14.4 15.592 9.295
      vertex -14.4 15.747 8.834
      vertex -9.4 15.592 9.295
    endloop
  endfacet
  facet normal -1 0 0
    outer loop
      vertex -14.4 15.592 9.295
      vertex -14.4 22.1 17.1
      vertex -14.4 15.747 8.834
    endloop
  endfacet
  facet normal -7.57312e-17 -0.856767 -0.515704
    outer loop
      vertex -14.4 15.592 9.295
      vertex -9.4 15.592 9.295
      vertex -9.4 15.341 9.712
    endloop
  endfacet
  facet normal -1 0 0
    outer loop
      vertex -14.4 15.747 7.866
      vertex -14.4 15.8 8.35
      vertex -14.4 22.1 17.1
    endloop
  endfacet
  facet normal -2.81231e-16 -0.947858 0.318694
    outer loop
      vertex -14.4 15.747 7.866
      vertex -9.4 15.592 7.405
      vertex -9.4 15.747 7.866
    endloop
  endfacet
  facet normal -2.44895e-16 -0.994058 0.108853
    outer loop
      vertex -14.4 15.747 7.866
      vertex -9.4 15.747 7.866
      vertex -14.4 15.8 8.35
    endloop
  endfacet
  facet normal -1.96555e-16 -0.994058 -0.108853
    outer loop
      vertex -14.4 15.747 8.834
      vertex -14.4 15.8 8.35
      vertex -9.4 15.747 8.834
    endloop
  endfacet
  facet normal -1 0 0
    outer loop
      vertex -14.4 15.747 8.834
      vertex -14.4 22.1 17.1
      vertex -14.4 15.8 8.35
    endloop
  endfacet
  facet normal -1.39702e-16 -0.947858 -0.318694
    outer loop
      vertex -14.4 15.747 8.834
      vertex -9.4 15.747 8.834
      vertex -9.4 15.592 9.295
    endloop
  endfacet
  facet normal -2.44895e-16 -0.994058 0.108853
    outer loop
      vertex -14.4 15.8 8.35
      vertex -9.4 15.747 7.866
      vertex -9.4 15.8 8.35
    endloop
  endfacet
  facet normal -1.96555e-16 -0.994058 -0.108853
    outer loop
      vertex -14.4 15.8 8.35
      vertex -9.4 15.8 8.35
      vertex -9.4 15.747 8.834
    endloop
  endfacet
  facet normal 0 0 -1
    outer loop
      vertex -14.4 22.1 0
      vertex -0.5 22.1 0
      vertex -0.5 5 0
    endloop
  endfacet
  facet normal 0 1 0
    outer loop
      vertex -14.4 22.1 0
      vertex -14.4 22.1 17.1
      vertex -0.5 22.1 0
    endloop
  endfacet
  facet normal 0 1 0
    outer loop
      vertex -14.4 22.1 17.1
      vertex -0.5 22.1 17.1
      vertex -0.5 22.1 4
    endloop
  endfacet
  facet normal 0 1 0
    outer loop
      vertex -14.4 22.1 17.1
      vertex -0.5 22.1 4
      vertex -0.5 22.1 0
    endloop
  endfacet
  facet normal 0 0 1
    outer loop
      vertex -14.4 22.1 17.1
      vertex -0.5 5 17.1
      vertex -0.5 22.1 17.1
    endloop
  endfacet
  facet normal 0 -1 0
    outer loop
      vertex -14.4 5 0
      vertex -0.5 5 0
      vertex -14.4 5 17.1
    endloop
  endfacet
  facet normal -1 0 0
    outer loop
      vertex -14.4 5 0
      vertex -14.4 11.313 8.107
      vertex -14.4 11.418 7.632
    endloop
  endfacet
  facet normal -1 0 0
    outer loop
      vertex -14.4 5 0
      vertex -14.4 11.313 8.593
      vertex -14.4 11.313 8.107
    endloop
  endfacet
  facet normal -1 0 0
    outer loop
      vertex -14.4 5 0
      vertex -14.4 11.418 7.632
      vertex -14.4 11.622 7.19
    endloop
  endfacet
  facet normal -1 0 0
    outer loop
      vertex -14.4 5 0
      vertex -14.4 11.622 7.19
      vertex -14.4 11.917 6.803
    endloop
  endfacet
  facet normal -1 0 0
    outer loop
      vertex -14.4 5 0
      vertex -14.4 11.917 6.803
      vertex -14.4 12.287 6.488
    endloop
  endfacet
  facet normal -1 0 0
    outer loop
      vertex -14.4 5 0
      vertex -14.4 12.287 6.488
      vertex -14.4 22.1 0
    endloop
  endfacet
  facet normal 0 0 -1
    outer loop
      vertex -14.4 5 0
      vertex -14.4 22.1 0
      vertex -0.5 5 0
    endloop
  endfacet
  facet normal -1 0 0
    outer loop
      vertex -14.4 5 0
      vertex -14.4 5 17.1
      vertex -14.4 11.313 8.593
    endloop
  endfacet
  facet normal 0 -1 0
    outer loop
      vertex -14.4 5 17.1
      vertex -0.5 5 0
      vertex -0.5 5 4
    endloop
  endfacet
  facet normal 0 0 1
    outer loop
      vertex -14.4 5 17.1
      vertex -0.5 5 17.1
      vertex -14.4 22.1 17.1
    endloop
  endfacet
  facet normal 0 -1 0
    outer loop
      vertex -14.4 5 17.1
      vertex -0.5 5 4
      vertex -0.5 5 17.1
    endloop
  endfacet
  facet normal -1 0 0
    outer loop
      vertex -14.4 5 17.1
      vertex -14.4 11.418 9.068
      vertex -14.4 11.313 8.593
    endloop
  endfacet
  facet normal -1 0 0
    outer loop
      vertex -14.4 5 17.1
      vertex -14.4 11.622 9.51
      vertex -14.4 11.418 9.068
    endloop
  endfacet
  facet normal -1 0 0
    outer loop
      vertex -14.4 5 17.1
      vertex -14.4 11.917 9.897
      vertex -14.4 11.622 9.51
    endloop
  endfacet
  facet normal -1 0 0
    outer loop
      vertex -14.4 5 17.1
      vertex -14.4 11.959 9.941
      vertex -14.4 11.917 9.897
    endloop
  endfacet
  facet normal -1 0 0
    outer loop
      vertex -14.4 5 17.1
      vertex -14.4 12.618 10.6
      vertex -14.4 11.959 9.941
    endloop
  endfacet
  facet normal -1 0 0
    outer loop
      vertex -14.4 5 17.1
      vertex -14.4 14.482 10.6
      vertex -14.4 12.618 10.6
    endloop
  endfacet
  facet normal -1 0 0
    outer loop
      vertex -14.4 5 17.1
      vertex -14.4 22.1 17.1
      vertex -14.4 14.482 10.6
    endloop
  endfacet
  facet normal 1 0 0
    outer loop
      vertex -5.4 11.5 11.9007
      vertex -5.4 15.6 11.9007
      vertex -5.4 18.1 12.9
    endloop
  endfacet
  facet normal 1 0 0
    outer loop
      vertex -5.4 15.6 11.9007
      vertex -5.4 17.65 8.35
      vertex -5.4 18.1 12.9
    endloop
  endfacet
  facet normal 1 0 0
    outer loop
      vertex -5.4 15.6 4.7993
      vertex -5.4 18.1 4
      vertex -5.4 17.65 8.35
    endloop
  endfacet
  facet normal 1 0 0
    outer loop
      vertex -5.4 17.65 8.35
      vertex -5.4 18.1 4
      vertex -5.4 18.1 12.9
    endloop
  endfacet
  facet normal 0 0 -1
    outer loop
      vertex -5.4 18.1 12.9
      vertex -0.5 18.1 12.9
      vertex -0.5 9 12.9
    endloop
  endfacet
  facet normal 0 -1 0
    outer loop
      vertex -5.4 18.1 12.9
      vertex -0.5 18.1 4
      vertex -0.5 18.1 12.9
    endloop
  endfacet
  facet normal 0 -1 0
    outer loop
      vertex -5.4 18.1 4
      vertex -0.5 18.1 4
      vertex -5.4 18.1 12.9
    endloop
  endfacet
  facet normal 0 0 1
    outer loop
      vertex -5.4 18.1 4
      vertex -0.5 9 4
      vertex -0.5 18.1 4
    endloop
  endfacet
  facet normal 0 1 0
    outer loop
      vertex -5.4 9 12.9
      vertex -0.5 9 12.9
      vertex -0.5 9 4
    endloop
  endfacet
  facet normal 1 0 0
    outer loop
      vertex -5.4 9 12.9
      vertex -5.4 11.5 11.9007
      vertex -5.4 18.1 12.9
    endloop
  endfacet
  facet normal 0 0 -1
    outer loop
      vertex -5.4 9 12.9
      vertex -5.4 18.1 12.9
      vertex -0.5 9 12.9
    endloop
  endfacet
  facet normal 1 0 0
    outer loop
      vertex -5.4 9 12.9
      vertex -5.4 9.45 8.35
      vertex -5.4 11.5 11.9007
    endloop
  endfacet
  facet normal 0 0 1
    outer loop
      vertex -5.4 9 4
      vertex -0.5 9 4
      vertex -5.4 18.1 4
    endloop
  endfacet
  facet normal 1 0 0
    outer loop
      vertex -5.4 9 4
      vertex -5.4 11.5 4.7993
      vertex -5.4 9.45 8.35
    endloop
  endfacet
  facet normal 1 0 0
    outer loop
      vertex -5.4 9 4
      vertex -5.4 15.6 4.7993
      vertex -5.4 11.5 4.7993
    endloop
  endfacet
  facet normal 1 0 0
    outer loop
      vertex -5.4 9 4
      vertex -5.4 18.1 4
      vertex -5.4 15.6 4.7993
    endloop
  endfacet
  facet normal 0 1 0
    outer loop
      vertex -5.4 9 4
      vertex -5.4 9 12.9
      vertex -0.5 9 4
    endloop
  endfacet
  facet normal 1 0 0
    outer loop
      vertex -5.4 9 4
      vertex -5.4 9.45 8.35
      vertex -5.4 9 12.9
    endloop
  endfacet
  facet normal 1 -2.22045e-16 2.22045e-16
    outer loop
      vertex -9.4 11.5 11.9007
      vertex -9.4 12.618 10.6
      vertex -9.4 15.6 11.9007
    endloop
  endfacet
  facet normal 2.22045e-16 -4.93038e-32 -1
    outer loop
      vertex -9.4 11.5 11.9007
      vertex -9.4 15.6 11.9007
      vertex -5.4 11.5 11.9007
    endloop
  endfacet
  facet normal -2.22045e-16 4.93038e-32 1
    outer loop
      vertex -9.4 11.5 4.7993
      vertex -5.4 11.5 4.7993
      vertex -9.4 15.6 4.7993
    endloop
  endfacet
  facet normal 8.1274e-17 0.866025 0.5
    outer loop
      vertex -9.4 11.5 4.7993
      vertex -5.4 9.45 8.35
      vertex -5.4 11.5 4.7993
    endloop
  endfacet
  facet normal 1 -2.22045e-16 2.22045e-16
    outer loop
      vertex -9.4 11.5 4.7993
      vertex -9.4 12.717 6.26
      vertex -9.4 12.287 6.488
    endloop
  endfacet
  facet normal 1 -2.22045e-16 2.22045e-16
    outer loop
      vertex -9.4 11.5 4.7993
      vertex -9.4 13.186 6.13
      vertex -9.4 12.717 6.26
    endloop
  endfacet
  facet normal 1 -2.22045e-16 2.22045e-16
    outer loop
      vertex -9.4 11.5 4.7993
      vertex -9.4 15.6 4.7993
      vertex -9.4 13.186 6.13
    endloop
  endfacet
  facet normal 1 -2.22045e-16 2.22045e-16
    outer loop
      vertex -9.4 11.917 9.897
      vertex -9.4 11.963 9.937
      vertex -9.4 11.959 9.941
    endloop
  endfacet
  facet normal 1 -2.22045e-16 2.22045e-16
    outer loop
      vertex -9.4 12.618 10.6
      vertex -9.4 14.482 10.6
      vertex -9.4 15.6 11.9007
    endloop
  endfacet
  facet normal 1 -2.22045e-16 2.22045e-16
    outer loop
      vertex -9.4 13.186 6.13
      vertex -9.4 15.6 4.7993
      vertex -9.4 13.672 6.103
    endloop
  endfacet
  facet normal 1 -2.22045e-16 2.22045e-16
    outer loop
      vertex -9.4 13.672 6.103
      vertex -9.4 15.6 4.7993
      vertex -9.4 14.152 6.182
    endloop
  endfacet
  facet normal 1 -2.22045e-16 2.22045e-16
    outer loop
      vertex -9.4 14.152 6.182
      vertex -9.4 15.6 4.7993
      vertex -9.4 14.604 6.362
    endloop
  endfacet
  facet normal 1 -2.22045e-16 2.22045e-16
    outer loop
      vertex -9.4 14.482 10.6
      vertex -9.4 15.141 9.941
      vertex -9.4 17.65 8.35
    endloop
  endfacet
  facet normal 1 -2.22045e-16 2.22045e-16
    outer loop
      vertex -9.4 14.482 10.6
      vertex -9.4 17.65 8.35
      vertex -9.4 15.6 11.9007
    endloop
  endfacet
  facet normal 1 -2.22045e-16 2.22045e-16
    outer loop
      vertex -9.4 14.604 6.362
      vertex -9.4 15.6 4.7993
      vertex -9.4 15.007 6.635
    endloop
  endfacet
  facet normal 1 -2.22045e-16 2.22045e-16
    outer loop
      vertex -9.4 15.007 6.635
      vertex -9.4 15.6 4.7993
      vertex -9.4 15.341 6.988
    endloop
  endfacet
  facet normal 1 -2.22045e-16 2.22045e-16
    outer loop
      vertex -9.4 15.132 9.932
      vertex -9.4 15.341 9.712
      vertex -9.4 17.65 8.35
    endloop
  endfacet
  facet normal 1 -2.22045e-16 2.22045e-16
    outer loop
      vertex -9.4 15.132 9.932
      vertex -9.4 17.65 8.35
      vertex -9.4 15.141 9.941
    endloop
  endfacet
  facet normal 1 -2.22045e-16 2.22045e-16
    outer loop
      vertex -9.4 15.341 6.988
      vertex -9.4 15.6 4.7993
      vertex -9.4 15.592 7.405
    endloop
  endfacet
  facet normal 1 -2.22045e-16 2.22045e-16
    outer loop
      vertex -9.4 15.341 9.712
      vertex -9.4 15.592 9.295
      vertex -9.4 17.65 8.35
    endloop
  endfacet
  facet normal 1 -2.22045e-16 2.22045e-16
    outer loop
      vertex -9.4 15.592 7.405
      vertex -9.4 15.6 4.7993
      vertex -9.4 15.747 7.866
    endloop
  endfacet
  facet normal 1 -2.22045e-16 2.22045e-16
    outer loop
      vertex -9.4 15.592 9.295
      vertex -9.4 15.747 8.834
      vertex -9.4 17.65 8.35
    endloop
  endfacet
  facet normal 2.22045e-16 -4.93038e-32 -1
    outer loop
      vertex -9.4 15.6 11.9007
      vertex -5.4 15.6 11.9007
      vertex -5.4 11.5 11.9007
    endloop
  endfacet
  facet normal -8.1274e-17 -0.866025 -0.5
    outer loop
      vertex -9.4 15.6 11.9007
      vertex -9.4 17.65 8.35
      vertex -5.4 15.6 11.9007
    endloop
  endfacet
  facet normal -2.22045e-16 4.93038e-32 1
    outer loop
      vertex -9.4 15.6 4.7993
      vertex -5.4 11.5 4.7993
      vertex -5.4 15.6 4.7993
    endloop
  endfacet
  facet normal -3.03319e-16 -0.866025 0.5
    outer loop
      vertex -9.4 15.6 4.7993
      vertex -5.4 15.6 4.7993
      vertex -5.4 17.65 8.35
    endloop
  endfacet
  facet normal -3.03319e-16 -0.866025 0.5
    outer loop
      vertex -9.4 15.6 4.7993
      vertex -5.4 17.65 8.35
      vertex -9.4 17.65 8.35
    endloop
  endfacet
  facet normal 1 -2.22045e-16 2.22045e-16
    outer loop
      vertex -9.4 15.6 4.7993
      vertex -9.4 15.8 8.35
      vertex -9.4 15.747 7.866
    endloop
  endfacet
  facet normal 1 -2.22045e-16 2.22045e-16
    outer loop
      vertex -9.4 15.6 4.7993
      vertex -9.4 17.65 8.35
      vertex -9.4 15.8 8.35
    endloop
  endfacet
  facet normal 1 -2.22045e-16 2.22045e-16
    outer loop
      vertex -9.4 15.747 8.834
      vertex -9.4 15.8 8.35
      vertex -9.4 17.65 8.35
    endloop
  endfacet
  facet normal -8.1274e-17 -0.866025 -0.5
    outer loop
      vertex -9.4 17.65 8.35
      vertex -5.4 17.65 8.35
      vertex -5.4 15.6 11.9007
    endloop
  endfacet
  facet normal 3.03319e-16 0.866025 -0.5
    outer loop
      vertex -9.4 9.45 8.35
      vertex -5.4 11.5 11.9007
      vertex -5.4 9.45 8.35
    endloop
  endfacet
  facet normal 8.1274e-17 0.866025 0.5
    outer loop
      vertex -9.4 9.45 8.35
      vertex -5.4 9.45 8.35
      vertex -9.4 11.5 4.7993
    endloop
  endfacet
  facet normal 1 -2.22045e-16 2.22045e-16
    outer loop
      vertex -9.4 9.45 8.35
      vertex -9.4 11.313 8.107
      vertex -9.4 11.313 8.593
    endloop
  endfacet
  facet normal 1 -2.22045e-16 2.22045e-16
    outer loop
      vertex -9.4 9.45 8.35
      vertex -9.4 11.313 8.593
      vertex -9.4 11.418 9.068
    endloop
  endfacet
  facet normal 1 -2.22045e-16 2.22045e-16
    outer loop
      vertex -9.4 9.45 8.35
      vertex -9.4 11.418 7.632
      vertex -9.4 11.313 8.107
    endloop
  endfacet
  facet normal 1 -2.22045e-16 2.22045e-16
    outer loop
      vertex -9.4 9.45 8.35
      vertex -9.4 11.418 9.068
      vertex -9.4 11.622 9.51
    endloop
  endfacet
  facet normal 3.03319e-16 0.866025 -0.5
    outer loop
      vertex -9.4 9.45 8.35
      vertex -9.4 11.5 11.9007
      vertex -5.4 11.5 11.9007
    endloop
  endfacet
  facet normal 1 -2.22045e-16 2.22045e-16
    outer loop
      vertex -9.4 9.45 8.35
      vertex -9.4 11.5 4.7993
      vertex -9.4 12.287 6.488
    endloop
  endfacet
  facet normal 1 -2.22045e-16 2.22045e-16
    outer loop
      vertex -9.4 9.45 8.35
      vertex -9.4 11.622 7.19
      vertex -9.4 11.418 7.632
    endloop
  endfacet
  facet normal 1 -2.22045e-16 2.22045e-16
    outer loop
      vertex -9.4 9.45 8.35
      vertex -9.4 11.622 9.51
      vertex -9.4 11.917 9.897
    endloop
  endfacet
  facet normal 1 -2.22045e-16 2.22045e-16
    outer loop
      vertex -9.4 9.45 8.35
      vertex -9.4 11.917 6.803
      vertex -9.4 11.622 7.19
    endloop
  endfacet
  facet normal 1 -2.22045e-16 2.22045e-16
    outer loop
      vertex -9.4 9.45 8.35
      vertex -9.4 11.917 9.897
      vertex -9.4 11.959 9.941
    endloop
  endfacet
  facet normal 1 -2.22045e-16 2.22045e-16
    outer loop
      vertex -9.4 9.45 8.35
      vertex -9.4 11.959 9.941
      vertex -9.4 12.618 10.6
    endloop
  endfacet
  facet normal 1 -2.22045e-16 2.22045e-16
    outer loop
      vertex -9.4 9.45 8.35
      vertex -9.4 12.287 6.488
      vertex -9.4 11.917 6.803
    endloop
  endfacet
  facet normal 1 -2.22045e-16 2.22045e-16
    outer loop
      vertex -9.4 9.45 8.35
      vertex -9.4 12.618 10.6
      vertex -9.4 11.5 11.9007
    endloop
  endfacet
  facet normal 1 0 0
    outer loop
      vertex 11.313 -14.5 8.307
      vertex 11.313 -9.5 8.307
      vertex 11.313 -14.5 8.793
    endloop
  endfacet
  facet normal 0.976428 4.79266e-17 0.215842
    outer loop
      vertex 11.313 -14.5 8.307
      vertex 11.418 -14.5 7.832
      vertex 11.313 -9.5 8.307
    endloop
  endfacet
  facet normal 1 0 0
    outer loop
      vertex 11.313 -14.5 8.793
      vertex 11.313 -9.5 8.307
      vertex 11.313 -9.5 8.793
    endloop
  endfacet
  facet normal 0.976428 -4.79266e-17 -0.215842
    outer loop
      vertex 11.313 -14.5 8.793
      vertex 11.313 -9.5 8.793
      vertex 11.418 -14.5 9.268
    endloop
  endfacet
  facet normal 0.976428 4.79266e-17 0.215842
    outer loop
      vertex 11.313 -9.5 8.307
      vertex 11.418 -14.5 7.832
      vertex 11.418 -9.5 7.832
    endloop
  endfacet
  facet normal 0 1 -2.22045e-16
    outer loop
      vertex 11.313 -9.5 8.307
      vertex 11.418 -9.5 7.832
      vertex 11.5 -9.5 4.9993
    endloop
  endfacet
  facet normal 0.976428 -4.79266e-17 -0.215842
    outer loop
      vertex 11.313 -9.5 8.793
      vertex 11.418 -9.5 9.268
      vertex 11.418 -14.5 9.268
    endloop
  endfacet
  facet normal 0 1 -2.22045e-16
    outer loop
      vertex 11.313 -9.5 8.793
      vertex 11.5 -9.5 12.1007
      vertex 11.418 -9.5 9.268
    endloop
  endfacet
  facet normal 0.907959 9.30496e-17 0.419058
    outer loop
      vertex 11.418 -14.5 7.832
      vertex 11.622 -14.5 7.39
      vertex 11.418 -9.5 7.832
    endloop
  endfacet
  facet normal 0.907959 -9.30496e-17 -0.419058
    outer loop
      vertex 11.418 -14.5 9.268
      vertex 11.418 -9.5 9.268
      vertex 11.622 -14.5 9.71
    endloop
  endfacet
  facet normal 0.907959 9.30496e-17 0.419058
    outer loop
      vertex 11.418 -9.5 7.832
      vertex 11.622 -14.5 7.39
      vertex 11.622 -9.5 7.39
    endloop
  endfacet
  facet normal 0 1 -2.22045e-16
    outer loop
      vertex 11.418 -9.5 7.832
      vertex 11.622 -9.5 7.39
      vertex 11.5 -9.5 4.9993
    endloop
  endfacet
  facet normal 0 1 -2.22045e-16
    outer loop
      vertex 11.418 -9.5 9.268
      vertex 11.5 -9.5 12.1007
      vertex 11.622 -9.5 9.71
    endloop
  endfacet
  facet normal 0.907959 -9.30496e-17 -0.419058
    outer loop
      vertex 11.418 -9.5 9.268
      vertex 11.622 -9.5 9.71
      vertex 11.622 -14.5 9.71
    endloop
  endfacet
  facet normal 0 -2.22045e-16 -1
    outer loop
      vertex 11.5 -5.5 12.1007
      vertex 15.6 -5.5 12.1007
      vertex 15.6 -9.5 12.1007
    endloop
  endfacet
  facet normal 0 1 0
    outer loop
      vertex 11.5 -5.5 4.9993
      vertex 15.6 -5.5 4.9993
      vertex 18.1 -5.5 4
    endloop
  endfacet
  facet normal 0 2.22045e-16 1
    outer loop
      vertex 11.5 -5.5 4.9993
      vertex 15.6 -9.5 4.9993
      vertex 15.6 -5.5 4.9993
    endloop
  endfacet
  facet normal 0 -2.22045e-16 -1
    outer loop
      vertex 11.5 -9.5 12.1007
      vertex 11.5 -5.5 12.1007
      vertex 15.6 -9.5 12.1007
    endloop
  endfacet
  facet normal 0 1 -2.22045e-16
    outer loop
      vertex 11.5 -9.5 12.1007
      vertex 11.917 -9.5 10.097
      vertex 11.622 -9.5 9.71
    endloop
  endfacet
  facet normal 0 1 -2.22045e-16
    outer loop
      vertex 11.5 -9.5 12.1007
      vertex 11.959 -9.5 10.141
      vertex 11.917 -9.5 10.097
    endloop
  endfacet
  facet normal 0 1 -2.22045e-16
    outer loop
      vertex 11.5 -9.5 12.1007
      vertex 12.618 -9.5 10.8
      vertex 11.959 -9.5 10.141
    endloop
  endfacet
  facet normal 0 1 -2.22045e-16
    outer loop
      vertex 11.5 -9.5 12.1007
      vertex 14.482 -9.5 10.8
      vertex 12.618 -9.5 10.8
    endloop
  endfacet
  facet normal 0 1 -2.22045e-16
    outer loop
      vertex 11.5 -9.5 12.1007
      vertex 15.6 -9.5 12.1007
      vertex 14.482 -9.5 10.8
    endloop
  endfacet
  facet normal 0 1 -2.22045e-16
    outer loop
      vertex 11.5 -9.5 4.9993
      vertex 11.622 -9.5 7.39
      vertex 11.917 -9.5 7.003
    endloop
  endfacet
  facet normal 0 1 -2.22045e-16
    outer loop
      vertex 11.5 -9.5 4.9993
      vertex 11.917 -9.5 7.003
      vertex 12.287 -9.5 6.688
    endloop
  endfacet
  facet normal 0 1 -2.22045e-16
    outer loop
      vertex 11.5 -9.5 4.9993
      vertex 12.287 -9.5 6.688
      vertex 12.717 -9.5 6.46
    endloop
  endfacet
  facet normal 0 1 -2.22045e-16
    outer loop
      vertex 11.5 -9.5 4.9993
      vertex 12.717 -9.5 6.46
      vertex 15.6 -9.5 4.9993
    endloop
  endfacet
  facet normal 0 2.22045e-16 1
    outer loop
      vertex 11.5 -9.5 4.9993
      vertex 15.6 -9.5 4.9993
      vertex 11.5 -5.5 4.9993
    endloop
  endfacet
  facet normal 0.79529 1.3461e-16 0.606229
    outer loop
      vertex 11.622 -14.5 7.39
      vertex 11.917 -14.5 7.003
      vertex 11.622 -9.5 7.39
    endloop
  endfacet
  facet normal 0.79529 -1.3461e-16 -0.606229
    outer loop
      vertex 11.622 -14.5 9.71
      vertex 11.622 -9.5 9.71
      vertex 11.917 -14.5 10.097
    endloop
  endfacet
  facet normal 0.79529 1.3461e-16 0.606229
    outer loop
      vertex 11.622 -9.5 7.39
      vertex 11.917 -14.5 7.003
      vertex 11.917 -9.5 7.003
    endloop
  endfacet
  facet normal 0.79529 -1.3461e-16 -0.606229
    outer loop
      vertex 11.622 -9.5 9.71
      vertex 11.917 -9.5 10.097
      vertex 11.917 -14.5 10.097
    endloop
  endfacet
  facet normal 0.656179 -1.67556e-16 -0.754606
    outer loop
      vertex 11.917 -14.5 10.097
      vertex 11.917 -9.5 10.097
      vertex 11.963 -14.5 10.137
    endloop
  endfacet
  facet normal 0.648246 1.69072e-16 0.761431
    outer loop
      vertex 11.917 -14.5 7.003
      vertex 12.287 -14.5 6.688
      vertex 11.917 -9.5 7.003
    endloop
  endfacet
  facet normal 0 1 -2.22045e-16
    outer loop
      vertex 11.917 -9.5 10.097
      vertex 11.959 -9.5 10.141
      vertex 11.963 -9.5 10.137
    endloop
  endfacet
  facet normal 0.656179 -1.67556e-16 -0.754606
    outer loop
      vertex 11.917 -9.5 10.097
      vertex 11.963 -9.5 10.137
      vertex 11.963 -14.5 10.137
    endloop
  endfacet
  facet normal 0.648246 1.69072e-16 0.761431
    outer loop
      vertex 11.917 -9.5 7.003
      vertex 12.287 -14.5 6.688
      vertex 12.287 -9.5 6.688
    endloop
  endfacet
  facet normal 0.707107 -1.57009e-16 -0.707107
    outer loop
      vertex 11.959 -14.5 10.141
      vertex 11.959 -9.5 10.141
      vertex 12.618 -14.5 10.8
    endloop
  endfacet
  facet normal 0.707107 1.57009e-16 0.707107
    outer loop
      vertex 11.959 -14.5 10.141
      vertex 11.963 -14.5 10.137
      vertex 11.959 -9.5 10.141
    endloop
  endfacet
  facet normal 0.707107 1.57009e-16 0.707107
    outer loop
      vertex 11.959 -9.5 10.141
      vertex 11.963 -14.5 10.137
      vertex 11.963 -9.5 10.137
    endloop
  endfacet
  facet normal 0.707107 -1.57009e-16 -0.707107
    outer loop
      vertex 11.959 -9.5 10.141
      vertex 12.618 -9.5 10.8
      vertex 12.618 -14.5 10.8
    endloop
  endfacet
  facet normal 0.468454 1.96174e-16 0.883488
    outer loop
      vertex 12.287 -14.5 6.688
      vertex 12.717 -14.5 6.46
      vertex 12.287 -9.5 6.688
    endloop
  endfacet
  facet normal 0.468454 1.96174e-16 0.883488
    outer loop
      vertex 12.287 -9.5 6.688
      vertex 12.717 -14.5 6.46
      vertex 12.717 -9.5 6.46
    endloop
  endfacet
  facet normal 0 -2.22045e-16 -1
    outer loop
      vertex 12.618 -14.5 10.8
      vertex 12.618 -9.5 10.8
      vertex 14.482 -14.5 10.8
    endloop
  endfacet
  facet normal 0 -1 0
    outer loop
      vertex 12.618 -14.5 10.8
      vertex 14.482 -14.5 10.8
      vertex 22.1 -14.5 17.1
    endloop
  endfacet
  facet normal 0 -2.22045e-16 -1
    outer loop
      vertex 12.618 -9.5 10.8
      vertex 14.482 -9.5 10.8
      vertex 14.482 -14.5 10.8
    endloop
  endfacet
  facet normal 0.267114 2.13977e-16 0.963665
    outer loop
      vertex 12.717 -14.5 6.46
      vertex 13.186 -14.5 6.33
      vertex 12.717 -9.5 6.46
    endloop
  endfacet
  facet normal 0.267114 2.13977e-16 0.963665
    outer loop
      vertex 12.717 -9.5 6.46
      vertex 13.186 -14.5 6.33
      vertex 13.186 -9.5 6.33
    endloop
  endfacet
  facet normal 0 1 -2.22045e-16
    outer loop
      vertex 12.717 -9.5 6.46
      vertex 13.186 -9.5 6.33
      vertex 15.6 -9.5 4.9993
    endloop
  endfacet
  facet normal 0.05547 2.21703e-16 0.99846
    outer loop
      vertex 13.186 -14.5 6.33
      vertex 13.672 -14.5 6.303
      vertex 13.186 -9.5 6.33
    endloop
  endfacet
  facet normal 0.05547 2.21703e-16 0.99846
    outer loop
      vertex 13.186 -9.5 6.33
      vertex 13.672 -14.5 6.303
      vertex 13.672 -9.5 6.303
    endloop
  endfacet
  facet normal 0 1 -2.22045e-16
    outer loop
      vertex 13.186 -9.5 6.33
      vertex 13.672 -9.5 6.303
      vertex 15.6 -9.5 4.9993
    endloop
  endfacet
  facet normal -0.162399 2.19097e-16 0.986725
    outer loop
      vertex 13.672 -14.5 6.303
      vertex 14.152 -14.5 6.382
      vertex 13.672 -9.5 6.303
    endloop
  endfacet
  facet normal 0 -1 0
    outer loop
      vertex 13.672 -14.5 6.303
      vertex 22.1 -14.5 0
      vertex 14.152 -14.5 6.382
    endloop
  endfacet
  facet normal -0.162399 2.19097e-16 0.986725
    outer loop
      vertex 13.672 -9.5 6.303
      vertex 14.152 -14.5 6.382
      vertex 14.152 -9.5 6.382
    endloop
  endfacet
  facet normal 0 1 -2.22045e-16
    outer loop
      vertex 13.672 -9.5 6.303
      vertex 14.152 -9.5 6.382
      vertex 15.6 -9.5 4.9993
    endloop
  endfacet
  facet normal -0.369973 2.06289e-16 0.929043
    outer loop
      vertex 14.152 -14.5 6.382
      vertex 14.604 -14.5 6.562
      vertex 14.152 -9.5 6.382
    endloop
  endfacet
  facet normal 0 -1 0
    outer loop
      vertex 14.152 -14.5 6.382
      vertex 22.1 -14.5 0
      vertex 14.604 -14.5 6.562
    endloop
  endfacet
  facet normal -0.369973 2.06289e-16 0.929043
    outer loop
      vertex 14.152 -9.5 6.382
      vertex 14.604 -14.5 6.562
      vertex 14.604 -9.5 6.562
    endloop
  endfacet
  facet normal 0 1 -2.22045e-16
    outer loop
      vertex 14.152 -9.5 6.382
      vertex 14.604 -9.5 6.562
      vertex 15.6 -9.5 4.9993
    endloop
  endfacet
  facet normal -0.707107 -1.57009e-16 -0.707107
    outer loop
      vertex 14.482 -14.5 10.8
      vertex 14.482 -9.5 10.8
      vertex 15.141 -14.5 10.141
    endloop
  endfacet
  facet normal 0 -1 0
    outer loop
      vertex 14.482 -14.5 10.8
      vertex 15.141 -14.5 10.141
      vertex 22.1 -14.5 17.1
    endloop
  endfacet
  facet normal -0.707107 -1.57009e-16 -0.707107
    outer loop
      vertex 14.482 -9.5 10.8
      vertex 15.141 -9.5 10.141
      vertex 15.141 -14.5 10.141
    endloop
  endfacet
  facet normal 0 1 -2.22045e-16
    outer loop
      vertex 14.482 -9.5 10.8
      vertex 15.6 -9.5 12.1007
      vertex 15.141 -9.5 10.141
    endloop
  endfacet
  facet normal -0.560848 1.83835e-16 0.827919
    outer loop
      vertex 14.604 -14.5 6.562
      vertex 15.007 -14.5 6.835
      vertex 14.604 -9.5 6.562
    endloop
  endfacet
  facet normal 0 -1 0
    outer loop
      vertex 14.604 -14.5 6.562
      vertex 22.1 -14.5 0
      vertex 15.007 -14.5 6.835
    endloop
  endfacet
  facet normal -0.560848 1.83835e-16 0.827919
    outer loop
      vertex 14.604 -9.5 6.562
      vertex 15.007 -14.5 6.835
      vertex 15.007 -9.5 6.835
    endloop
  endfacet
  facet normal 0 1 -2.22045e-16
    outer loop
      vertex 14.604 -9.5 6.562
      vertex 15.007 -9.5 6.835
      vertex 15.6 -9.5 4.9993
    endloop
  endfacet
  facet normal -0.726385 1.52609e-16 0.687288
    outer loop
      vertex 15.007 -14.5 6.835
      vertex 15.341 -14.5 7.188
      vertex 15.007 -9.5 6.835
    endloop
  endfacet
  facet normal 0 -1 0
    outer loop
      vertex 15.007 -14.5 6.835
      vertex 22.1 -14.5 0
      vertex 15.341 -14.5 7.188
    endloop
  endfacet
  facet normal -0.726385 1.52609e-16 0.687288
    outer loop
      vertex 15.007 -9.5 6.835
      vertex 15.341 -14.5 7.188
      vertex 15.341 -9.5 7.188
    endloop
  endfacet
  facet normal 0 1 -2.22045e-16
    outer loop
      vertex 15.007 -9.5 6.835
      vertex 15.341 -9.5 7.188
      vertex 17.65 -9.5 8.55
    endloop
  endfacet
  facet normal 0 1 -2.22045e-16
    outer loop
      vertex 15.007 -9.5 6.835
      vertex 17.65 -9.5 8.55
      vertex 15.6 -9.5 4.9993
    endloop
  endfacet
  facet normal -0.724999 -1.52933e-16 -0.688749
    outer loop
      vertex 15.132 -14.5 10.132
      vertex 15.132 -9.5 10.132
      vertex 15.341 -14.5 9.912
    endloop
  endfacet
  facet normal -0.707107 1.57009e-16 0.707107
    outer loop
      vertex 15.132 -14.5 10.132
      vertex 15.141 -14.5 10.141
      vertex 15.132 -9.5 10.132
    endloop
  endfacet
  facet normal 0 -1 0
    outer loop
      vertex 15.132 -14.5 10.132
      vertex 15.341 -14.5 9.912
      vertex 15.141 -14.5 10.141
    endloop
  endfacet
  facet normal -0.707107 1.57009e-16 0.707107
    outer loop
      vertex 15.132 -9.5 10.132
      vertex 15.141 -14.5 10.141
      vertex 15.141 -9.5 10.141
    endloop
  endfacet
  facet normal 0 1 -2.22045e-16
    outer loop
      vertex 15.132 -9.5 10.132
      vertex 15.141 -9.5 10.141
      vertex 15.341 -9.5 9.912
    endloop
  endfacet
  facet normal -0.724999 -1.52933e-16 -0.688749
    outer loop
      vertex 15.132 -9.5 10.132
      vertex 15.341 -9.5 9.912
      vertex 15.341 -14.5 9.912
    endloop
  endfacet
  facet normal 0 -1 0
    outer loop
      vertex 15.141 -14.5 10.141
      vertex 15.341 -14.5 9.912
      vertex 22.1 -14.5 17.1
    endloop
  endfacet
  facet normal 0 1 -2.22045e-16
    outer loop
      vertex 15.141 -9.5 10.141
      vertex 15.6 -9.5 12.1007
      vertex 15.341 -9.5 9.912
    endloop
  endfacet
  facet normal -0.856767 1.14509e-16 0.515704
    outer loop
      vertex 15.341 -14.5 7.188
      vertex 15.592 -14.5 7.605
      vertex 15.341 -9.5 7.188
    endloop
  endfacet
  facet normal 0 -1 0
    outer loop
      vertex 15.341 -14.5 7.188
      vertex 22.1 -14.5 0
      vertex 15.592 -14.5 7.605
    endloop
  endfacet
  facet normal -0.856767 -1.14509e-16 -0.515704
    outer loop
      vertex 15.341 -14.5 9.912
      vertex 15.341 -9.5 9.912
      vertex 15.592 -14.5 9.495
    endloop
  endfacet
  facet normal 0 -1 0
    outer loop
      vertex 15.341 -14.5 9.912
      vertex 15.592 -14.5 9.495
      vertex 22.1 -14.5 0
    endloop
  endfacet
  facet normal 0 -1 0
    outer loop
      vertex 15.341 -14.5 9.912
      vertex 22.1 -14.5 0
      vertex 22.1 -14.5 17.1
    endloop
  endfacet
  facet normal -0.856767 1.14509e-16 0.515704
    outer loop
      vertex 15.341 -9.5 7.188
      vertex 15.592 -14.5 7.605
      vertex 15.592 -9.5 7.605
    endloop
  endfacet
  facet normal 0 1 -2.22045e-16
    outer loop
      vertex 15.341 -9.5 7.188
      vertex 15.592 -9.5 7.605
      vertex 17.65 -9.5 8.55
    endloop
  endfacet
  facet normal -0.856767 -1.14509e-16 -0.515704
    outer loop
      vertex 15.341 -9.5 9.912
      vertex 15.592 -9.5 9.495
      vertex 15.592 -14.5 9.495
    endloop
  endfacet
  facet normal 0 1 -2.22045e-16
    outer loop
      vertex 15.341 -9.5 9.912
      vertex 15.6 -9.5 12.1007
      vertex 17.65 -9.5 8.55
    endloop
  endfacet
  facet normal 0 1 -2.22045e-16
    outer loop
      vertex 15.341 -9.5 9.912
      vertex 17.65 -9.5 8.55
      vertex 15.592 -9.5 9.495
    endloop
  endfacet
  facet normal -0.947858 7.07643e-17 0.318694
    outer loop
      vertex 15.592 -14.5 7.605
      vertex 15.747 -14.5 8.066
      vertex 15.592 -9.5 7.605
    endloop
  endfacet
  facet normal 0 -1 0
    outer loop
      vertex 15.592 -14.5 7.605
      vertex 22.1 -14.5 0
      vertex 15.747 -14.5 8.066
    endloop
  endfacet
  facet normal -0.947858 -7.07643e-17 -0.318694
    outer loop
      vertex 15.592 -14.5 9.495
      vertex 15.592 -9.5 9.495
      vertex 15.747 -14.5 9.034
    endloop
  endfacet
  facet normal 0 -1 0
    outer loop
      vertex 15.592 -14.5 9.495
      vertex 15.747 -14.5 9.034
      vertex 22.1 -14.5 0
    endloop
  endfacet
  facet normal -0.947858 7.07643e-17 0.318694
    outer loop
      vertex 15.592 -9.5 7.605
      vertex 15.747 -14.5 8.066
      vertex 15.747 -9.5 8.066
    endloop
  endfacet
  facet normal 0 1 -2.22045e-16
    outer loop
      vertex 15.592 -9.5 7.605
      vertex 15.747 -9.5 8.066
      vertex 17.65 -9.5 8.55
    endloop
  endfacet
  facet normal -0.947858 -7.07643e-17 -0.318694
    outer loop
      vertex 15.592 -9.5 9.495
      vertex 15.747 -9.5 9.034
      vertex 15.747 -14.5 9.034
    endloop
  endfacet
  facet normal 0 1 -2.22045e-16
    outer loop
      vertex 15.592 -9.5 9.495
      vertex 17.65 -9.5 8.55
      vertex 15.747 -9.5 9.034
    endloop
  endfacet
  facet normal -0.866025 -1.11022e-16 -0.5
    outer loop
      vertex 15.6 -5.5 12.1007
      vertex 17.65 -5.5 8.55
      vertex 17.65 -9.5 8.55
    endloop
  endfacet
  facet normal 0 1 0
    outer loop
      vertex 15.6 -5.5 12.1007
      vertex 18.1 -5.5 13.1
      vertex 17.65 -5.5 8.55
    endloop
  endfacet
  facet normal 0 1 0
    outer loop
      vertex 15.6 -5.5 4.9993
      vertex 17.65 -5.5 8.55
      vertex 18.1 -5.5 4
    endloop
  endfacet
  facet normal -0.866025 1.11022e-16 0.5
    outer loop
      vertex 15.6 -5.5 4.9993
      vertex 17.65 -9.5 8.55
      vertex 17.65 -5.5 8.55
    endloop
  endfacet
  facet normal -0.866025 -1.11022e-16 -0.5
    outer loop
      vertex 15.6 -9.5 12.1007
      vertex 15.6 -5.5 12.1007
      vertex 17.65 -9.5 8.55
    endloop
  endfacet
  facet normal -0.866025 1.11022e-16 0.5
    outer loop
      vertex 15.6 -9.5 4.9993
      vertex 17.65 -9.5 8.55
      vertex 15.6 -5.5 4.9993
    endloop
  endfacet
  facet normal -0.994058 2.41703e-17 0.108853
    outer loop
      vertex 15.747 -14.5 8.066
      vertex 15.8 -14.5 8.55
      vertex 15.747 -9.5 8.066
    endloop
  endfacet
  facet normal 0 -1 0
    outer loop
      vertex 15.747 -14.5 8.066
      vertex 22.1 -14.5 0
      vertex 15.8 -14.5 8.55
    endloop
  endfacet
  facet normal -0.994058 -2.41703e-17 -0.108853
    outer loop
      vertex 15.747 -14.5 9.034
      vertex 15.747 -9.5 9.034
      vertex 15.8 -14.5 8.55
    endloop
  endfacet
  facet normal 0 -1 0
    outer loop
      vertex 15.747 -14.5 9.034
      vertex 15.8 -14.5 8.55
      vertex 22.1 -14.5 0
    endloop
  endfacet
  facet normal -0.994058 2.41703e-17 0.108853
    outer loop
      vertex 15.747 -9.5 8.066
      vertex 15.8 -14.5 8.55
      vertex 15.8 -9.5 8.55
    endloop
  endfacet
  facet normal 0 1 -2.22045e-16
    outer loop
      vertex 15.747 -9.5 8.066
      vertex 15.8 -9.5 8.55
      vertex 17.65 -9.5 8.55
    endloop
  endfacet
  facet normal -0.994058 -2.41703e-17 -0.108853
    outer loop
      vertex 15.747 -9.5 9.034
      vertex 15.8 -9.5 8.55
      vertex 15.8 -14.5 8.55
    endloop
  endfacet
  facet normal 0 1 -2.22045e-16
    outer loop
      vertex 15.747 -9.5 9.034
      vertex 17.65 -9.5 8.55
      vertex 15.8 -9.5 8.55
    endloop
  endfacet
  facet normal 0 1 0
    outer loop
      vertex 17.65 -5.5 8.55
      vertex 18.1 -5.5 13.1
      vertex 18.1 -5.5 4
    endloop
  endfacet
  facet normal 0 1 0
    outer loop
      vertex 18.1 -0.5 13.1
      vertex 22.1 -0.5 17.1
      vertex 22.1 -0.5 4
    endloop
  endfacet
  facet normal 0 1 0
    outer loop
      vertex 18.1 -0.5 4
      vertex 18.1 -0.5 13.1
      vertex 22.1 -0.5 4
    endloop
  endfacet
  facet normal -1 0 0
    outer loop
      vertex 18.1 -5.5 13.1
      vertex 18.1 -0.5 13.1
      vertex 18.1 -0.5 4
    endloop
  endfacet
  facet normal -1 0 0
    outer loop
      vertex 18.1 -5.5 4
      vertex 18.1 -5.5 13.1
      vertex 18.1 -0.5 4
    endloop
  endfacet
  facet normal 1 0 0
    outer loop
      vertex 22.1 -14.5 0
      vertex 22.1 -0.5 0
      vertex 22.1 -14.5 17.1
    endloop
  endfacet
  facet normal 1 0 0
    outer loop
      vertex 22.1 -14.5 17.1
      vertex 22.1 -0.5 0
      vertex 22.1 -0.5 4
    endloop
  endfacet
  facet normal 1 0 0
    outer loop
      vertex 22.1 -14.5 17.1
      vertex 22.1 -0.5 4
      vertex 22.1 -0.5 17.1
    endloop
  endfacet
  facet normal 0 0 -1
    outer loop
      vertex 5 -0.5 0
      vertex 22.1 -0.5 0
      vertex 22.1 -14.5 0
    endloop
  endfacet
  facet normal 0 1 0
    outer loop
      vertex 5 -0.5 17.1
      vertex 18.1 -0.5 13.1
      vertex 9 -0.5 13.1
    endloop
  endfacet
  facet normal 0 1 0
    outer loop
      vertex 5 -0.5 17.1
      vertex 22.1 -0.5 17.1
      vertex 18.1 -0.5 13.1
    endloop
  endfacet
  facet normal 0 0 1
    outer loop
      vertex 5 -0.5 17.1
      vertex 22.1 -14.5 17.1
      vertex 22.1 -0.5 17.1
    endloop
  endfacet
  facet normal 0 1 0
    outer loop
      vertex 5 -0.5 17.1
      vertex 9 -0.5 13.1
      vertex 9 -0.5 4
    endloop
  endfacet
  facet normal 0 1 0
    outer loop
      vertex 5 -0.5 4
      vertex 5 -0.5 17.1
      vertex 9 -0.5 4
    endloop
  endfacet
  facet normal 0 -1 0
    outer loop
      vertex 5 -14.5 0
      vertex 11.313 -14.5 8.307
      vertex 5 -14.5 17.1
    endloop
  endfacet
  facet normal 0 -1 0
    outer loop
      vertex 5 -14.5 0
      vertex 11.418 -14.5 7.832
      vertex 11.313 -14.5 8.307
    endloop
  endfacet
  facet normal 0 -1 0
    outer loop
      vertex 5 -14.5 0
      vertex 11.622 -14.5 7.39
      vertex 11.418 -14.5 7.832
    endloop
  endfacet
  facet normal 0 -1 0
    outer loop
      vertex 5 -14.5 0
      vertex 11.917 -14.5 7.003
      vertex 11.622 -14.5 7.39
    endloop
  endfacet
  facet normal 0 -1 0
    outer loop
      vertex 5 -14.5 0
      vertex 12.287 -14.5 6.688
      vertex 11.917 -14.5 7.003
    endloop
  endfacet
  facet normal 0 -1 0
    outer loop
      vertex 5 -14.5 0
      vertex 12.717 -14.5 6.46
      vertex 12.287 -14.5 6.688
    endloop
  endfacet
  facet normal 0 -1 0
    outer loop
      vertex 5 -14.5 0
      vertex 13.186 -14.5 6.33
      vertex 12.717 -14.5 6.46
    endloop
  endfacet
  facet normal 0 -1 0
    outer loop
      vertex 5 -14.5 0
      vertex 13.672 -14.5 6.303
      vertex 13.186 -14.5 6.33
    endloop
  endfacet
  facet normal 0 -1 0
    outer loop
      vertex 5 -14.5 0
      vertex 22.1 -14.5 0
      vertex 13.672 -14.5 6.303
    endloop
  endfacet
  facet normal 0 0 -1
    outer loop
      vertex 5 -14.5 0
      vertex 5 -0.5 0
      vertex 22.1 -14.5 0
    endloop
  endfacet
  facet normal -1 0 0
    outer loop
      vertex 5 -14.5 0
      vertex 5 -14.5 17.1
      vertex 5 -0.5 0
    endloop
  endfacet
  facet normal 0 -1 0
    outer loop
      vertex 5 -14.5 17.1
      vertex 11.313 -14.5 8.307
      vertex 11.313 -14.5 8.793
    endloop
  endfacet
  facet normal 0 -1 0
    outer loop
      vertex 5 -14.5 17.1
      vertex 11.313 -14.5 8.793
      vertex 11.418 -14.5 9.268
    endloop
  endfacet
  facet normal 0 -1 0
    outer loop
      vertex 5 -14.5 17.1
      vertex 11.418 -14.5 9.268
      vertex 11.622 -14.5 9.71
    endloop
  endfacet
  facet normal 0 -1 0
    outer loop
      vertex 5 -14.5 17.1
      vertex 11.622 -14.5 9.71
      vertex 11.917 -14.5 10.097
    endloop
  endfacet
  facet normal 0 -1 0
    outer loop
      vertex 5 -14.5 17.1
      vertex 11.917 -14.5 10.097
      vertex 11.963 -14.5 10.137
    endloop
  endfacet
  facet normal 0 -1 0
    outer loop
      vertex 5 -14.5 17.1
      vertex 11.959 -14.5 10.141
      vertex 12.618 -14.5 10.8
    endloop
  endfacet
  facet normal 0 -1 0
    outer loop
      vertex 5 -14.5 17.1
      vertex 11.963 -14.5 10.137
      vertex 11.959 -14.5 10.141
    endloop
  endfacet
  facet normal 0 -1 0
    outer loop
      vertex 5 -14.5 17.1
      vertex 12.618 -14.5 10.8
      vertex 22.1 -14.5 17.1
    endloop
  endfacet
  facet normal 0 0 1
    outer loop
      vertex 5 -14.5 17.1
      vertex 22.1 -14.5 17.1
      vertex 5 -0.5 17.1
    endloop
  endfacet
  facet normal -1 0 0
    outer loop
      vertex 5 -14.5 17.1
      vertex 5 -0.5 17.1
      vertex 5 -0.5 4
    endloop
  endfacet
  facet normal -1 0 0
    outer loop
      vertex 5 -14.5 17.1
      vertex 5 -0.5 4
      vertex 5 -0.5 0
    endloop
  endfacet
  facet normal 0 0 -1
    outer loop
      vertex 9 -0.5 13.1
      vertex 18.1 -0.5 13.1
      vertex 18.1 -5.5 13.1
    endloop
  endfacet
  facet normal 0 1 0
    outer loop
      vertex 9 -5.5 13.1
      vertex 11.5 -5.5 12.1007
      vertex 9.45 -5.5 8.55
    endloop
  endfacet
  facet normal 0 1 0
    outer loop
      vertex 9 -5.5 13.1
      vertex 15.6 -5.5 12.1007
      vertex 11.5 -5.5 12.1007
    endloop
  endfacet
  facet normal 0 1 0
    outer loop
      vertex 9 -5.5 13.1
      vertex 18.1 -5.5 13.1
      vertex 15.6 -5.5 12.1007
    endloop
  endfacet
  facet normal 0 0 -1
    outer loop
      vertex 9 -5.5 13.1
      vertex 9 -0.5 13.1
      vertex 18.1 -5.5 13.1
    endloop
  endfacet
  facet normal 1 0 0
    outer loop
      vertex 9 -5.5 13.1
      vertex 9 -0.5 4
      vertex 9 -0.5 13.1
    endloop
  endfacet
  facet normal 0 1 0
    outer loop
      vertex 9 -5.5 4
      vertex 11.5 -5.5 4.9993
      vertex 18.1 -5.5 4
    endloop
  endfacet
  facet normal 0 0 1
    outer loop
      vertex 9 -5.5 4
      vertex 18.1 -5.5 4
      vertex 9 -0.5 4
    endloop
  endfacet
  facet normal 1 0 0
    outer loop
      vertex 9 -5.5 4
      vertex 9 -0.5 4
      vertex 9 -5.5 13.1
    endloop
  endfacet
  facet normal 0 1 0
    outer loop
      vertex 9 -5.5 4
      vertex 9 -5.5 13.1
      vertex 9.45 -5.5 8.55
    endloop
  endfacet
  facet normal 0 1 0
    outer loop
      vertex 9 -5.5 4
      vertex 9.45 -5.5 8.55
      vertex 11.5 -5.5 4.9993
    endloop
  endfacet
  facet normal 0.866025 -1.11022e-16 -0.5
    outer loop
      vertex 9.45 -5.5 8.55
      vertex 11.5 -5.5 12.1007
      vertex 11.5 -9.5 12.1007
    endloop
  endfacet
  facet normal 0.866025 1.11022e-16 0.5
    outer loop
      vertex 9.45 -5.5 8.55
      vertex 11.5 -9.5 4.9993
      vertex 11.5 -5.5 4.9993
    endloop
  endfacet
  facet normal 0 1 -2.22045e-16
    outer loop
      vertex 9.45 -9.5 8.55
      vertex 11.313 -9.5 8.307
      vertex 11.5 -9.5 4.9993
    endloop
  endfacet
  facet normal 0 1 -2.22045e-16
    outer loop
      vertex 9.45 -9.5 8.55
      vertex 11.313 -9.5 8.793
      vertex 11.313 -9.5 8.307
    endloop
  endfacet
  facet normal 0 1 -2.22045e-16
    outer loop
      vertex 9.45 -9.5 8.55
      vertex 11.5 -9.5 12.1007
      vertex 11.313 -9.5 8.793
    endloop
  endfacet
  facet normal 0.866025 1.11022e-16 0.5
    outer loop
      vertex 9.45 -9.5 8.55
      vertex 11.5 -9.5 4.9993
      vertex 9.45 -5.5 8.55
    endloop
  endfacet
  facet normal 0.866025 -1.11022e-16 -0.5
    outer loop
      vertex 9.45 -9.5 8.55
      vertex 9.45 -5.5 8.55
      vertex 11.5 -9.5 12.1007
    endloop
  endfacet
endsolid OpenSCAD_Model
