solid OpenSCAD_Model
  facet normal 0.173648 0.984808 0
    outer loop
      vertex -1.2206 5.08587 0
      vertex -1.2206 5.08587 5
      vertex 0.423908 4.7959 0
    endloop
  endfacet
  facet normal 0 0 -1
    outer loop
      vertex -1.2206 5.08587 0
      vertex 0.423908 4.7959 0
      vertex 17.91 0 0
    endloop
  endfacet
  facet normal 0.173648 0.984808 0
    outer loop
      vertex -1.2206 5.08587 5
      vertex 0.423908 4.7959 5
      vertex 0.423908 4.7959 0
    endloop
  endfacet
  facet normal 0.173648 -0.984808 0
    outer loop
      vertex -1.2206 9.31413 0
      vertex 0.423908 9.6041 0
      vertex -1.2206 9.31413 5
    endloop
  endfacet
  facet normal 0.173648 -0.984808 0
    outer loop
      vertex -1.2206 9.31413 5
      vertex 0.423908 9.6041 0
      vertex 0.423908 9.6041 5
    endloop
  endfacet
  facet normal 0 0 1
    outer loop
      vertex -1.2206 9.31413 5
      vertex 0.423908 9.6041 5
      vertex 2.025 10.7074 5
    endloop
  endfacet
  facet normal -0.05547 -2.1491e-16 0.99846
    outer loop
      vertex -10.332 0 4.953
      vertex -9.846 0 4.98
      vertex -10.332 5 4.953
    endloop
  endfacet
  facet normal -0.05547 -2.1491e-16 0.99846
    outer loop
      vertex -10.332 5 4.953
      vertex -9.846 0 4.98
      vertex -9.846 5 4.98
    endloop
  endfacet
  facet normal 1.22465e-16 1 2.22045e-16
    outer loop
      vertex -10.332 5 4.953
      vertex -9.846 5 4.98
      vertex -8.16 5 3.6493
    endloop
  endfacet
  facet normal 0.162399 -2.38985e-16 0.986725
    outer loop
      vertex -10.812 0 5.032
      vertex -10.332 0 4.953
      vertex -10.812 5 5.032
    endloop
  endfacet
  facet normal 0.162399 -2.38985e-16 0.986725
    outer loop
      vertex -10.812 5 5.032
      vertex -10.332 0 4.953
      vertex -10.332 5 4.953
    endloop
  endfacet
  facet normal 1.22465e-16 1 2.22045e-16
    outer loop
      vertex -10.812 5 5.032
      vertex -10.332 5 4.953
      vertex -8.16 5 3.6493
    endloop
  endfacet
  facet normal 2.71926e-32 2.22045e-16 -1
    outer loop
      vertex -11.142 0 9.45
      vertex -11.142 5 9.45
      vertex -9.278 0 9.45
    endloop
  endfacet
  facet normal 0 -1 0
    outer loop
      vertex -11.142 0 9.45
      vertex -9.278 0 9.45
      vertex 17.91 0 11.4
    endloop
  endfacet
  facet normal 2.71926e-32 2.22045e-16 -1
    outer loop
      vertex -11.142 5 9.45
      vertex -9.278 5 9.45
      vertex -9.278 0 9.45
    endloop
  endfacet
  facet normal 0.369973 -2.51597e-16 0.929043
    outer loop
      vertex -11.264 0 5.212
      vertex -10.812 0 5.032
      vertex -11.264 5 5.212
    endloop
  endfacet
  facet normal 0.369973 -2.51597e-16 0.929043
    outer loop
      vertex -11.264 5 5.212
      vertex -10.812 0 5.032
      vertex -10.812 5 5.032
    endloop
  endfacet
  facet normal 1.22465e-16 1 2.22045e-16
    outer loop
      vertex -11.264 5 5.212
      vertex -10.812 5 5.032
      vertex -8.16 5 3.6493
    endloop
  endfacet
  facet normal 0.560848 -2.52519e-16 0.827919
    outer loop
      vertex -11.667 0 5.485
      vertex -11.264 0 5.212
      vertex -11.667 5 5.485
    endloop
  endfacet
  facet normal 0.560848 -2.52519e-16 0.827919
    outer loop
      vertex -11.667 5 5.485
      vertex -11.264 0 5.212
      vertex -11.264 5 5.212
    endloop
  endfacet
  facet normal 0.707107 -2.43605e-16 0.707107
    outer loop
      vertex -11.801 0 8.791
      vertex -11.792 0 8.782
      vertex -11.801 5 8.791
    endloop
  endfacet
  facet normal 0.707107 7.04136e-17 -0.707107
    outer loop
      vertex -11.801 0 8.791
      vertex -11.801 5 8.791
      vertex -11.142 0 9.45
    endloop
  endfacet
  facet normal 0.707107 7.04136e-17 -0.707107
    outer loop
      vertex -11.801 5 8.791
      vertex -11.142 5 9.45
      vertex -11.142 0 9.45
    endloop
  endfacet
  facet normal 0.707107 -2.43605e-16 0.707107
    outer loop
      vertex -11.801 5 8.791
      vertex -11.792 0 8.782
      vertex -11.792 5 8.782
    endloop
  endfacet
  facet normal 0.726385 -2.41565e-16 0.687288
    outer loop
      vertex -12.001 0 5.838
      vertex -11.667 0 5.485
      vertex -12.001 5 5.838
    endloop
  endfacet
  facet normal 0.724999 6.41463e-17 -0.688749
    outer loop
      vertex -12.001 0 8.562
      vertex -12.001 5 8.562
      vertex -11.792 0 8.782
    endloop
  endfacet
  facet normal 0.726385 -2.41565e-16 0.687288
    outer loop
      vertex -12.001 5 5.838
      vertex -11.667 0 5.485
      vertex -11.667 5 5.485
    endloop
  endfacet
  facet normal 0.724999 6.41463e-17 -0.688749
    outer loop
      vertex -12.001 5 8.562
      vertex -11.792 5 8.782
      vertex -11.792 0 8.782
    endloop
  endfacet
  facet normal 1.22465e-16 1 2.22045e-16
    outer loop
      vertex -12.001 5 8.562
      vertex -11.801 5 8.791
      vertex -11.792 5 8.782
    endloop
  endfacet
  facet normal 0.856767 -2.19433e-16 0.515704
    outer loop
      vertex -12.252 0 6.255
      vertex -12.001 0 5.838
      vertex -12.252 5 6.255
    endloop
  endfacet
  facet normal 0.856767 9.58557e-18 -0.515704
    outer loop
      vertex -12.252 0 8.145
      vertex -12.252 5 8.145
      vertex -12.001 0 8.562
    endloop
  endfacet
  facet normal 0.856767 -2.19433e-16 0.515704
    outer loop
      vertex -12.252 5 6.255
      vertex -12.001 0 5.838
      vertex -12.001 5 5.838
    endloop
  endfacet
  facet normal 0.856767 9.58557e-18 -0.515704
    outer loop
      vertex -12.252 5 8.145
      vertex -12.001 5 8.562
      vertex -12.001 0 8.562
    endloop
  endfacet
  facet normal 0 1 0
    outer loop
      vertex -12.26 14.3898 3.6493
      vertex -8.16 14.3898 3.6493
      vertex 15.1577 14.3898 0
    endloop
  endfacet
  facet normal -2.71926e-32 -2.22045e-16 1
    outer loop
      vertex -12.26 14.3898 3.6493
      vertex -8.16 5 3.6493
      vertex -8.16 14.3898 3.6493
    endloop
  endfacet
  facet normal 1.22465e-16 1 2.22045e-16
    outer loop
      vertex -12.26 5 10.7507
      vertex -11.142 5 9.45
      vertex -11.801 5 8.791
    endloop
  endfacet
  facet normal 1.22465e-16 1 2.22045e-16
    outer loop
      vertex -12.26 5 10.7507
      vertex -11.801 5 8.791
      vertex -12.001 5 8.562
    endloop
  endfacet
  facet normal 1.22465e-16 1 2.22045e-16
    outer loop
      vertex -12.26 5 10.7507
      vertex -12.001 5 8.562
      vertex -12.252 5 8.145
    endloop
  endfacet
  facet normal 2.71926e-32 2.22045e-16 -1
    outer loop
      vertex -12.26 5 10.7507
      vertex -12.26 8.6593 10.7507
      vertex -8.16 5 10.7507
    endloop
  endfacet
  facet normal 1.22465e-16 1 2.22045e-16
    outer loop
      vertex -12.26 5 10.7507
      vertex -8.16 5 10.7507
      vertex -9.278 5 9.45
    endloop
  endfacet
  facet normal 1.22465e-16 1 2.22045e-16
    outer loop
      vertex -12.26 5 10.7507
      vertex -9.278 5 9.45
      vertex -11.142 5 9.45
    endloop
  endfacet
  facet normal 1.22465e-16 1 2.22045e-16
    outer loop
      vertex -12.26 5 3.6493
      vertex -11.264 5 5.212
      vertex -8.16 5 3.6493
    endloop
  endfacet
  facet normal 1.22465e-16 1 2.22045e-16
    outer loop
      vertex -12.26 5 3.6493
      vertex -11.667 5 5.485
      vertex -11.264 5 5.212
    endloop
  endfacet
  facet normal 1.22465e-16 1 2.22045e-16
    outer loop
      vertex -12.26 5 3.6493
      vertex -12.001 5 5.838
      vertex -11.667 5 5.485
    endloop
  endfacet
  facet normal 1.22465e-16 1 2.22045e-16
    outer loop
      vertex -12.26 5 3.6493
      vertex -12.252 5 6.255
      vertex -12.001 5 5.838
    endloop
  endfacet
  facet normal -2.71926e-32 -2.22045e-16 1
    outer loop
      vertex -12.26 5 3.6493
      vertex -8.16 5 3.6493
      vertex -12.26 14.3898 3.6493
    endloop
  endfacet
  facet normal 2.71926e-32 2.22045e-16 -1
    outer loop
      vertex -12.26 8.6593 10.7507
      vertex -8.16 8.6593 10.7507
      vertex -8.16 5 10.7507
    endloop
  endfacet
  facet normal 0.947858 -1.86843e-16 0.318694
    outer loop
      vertex -12.407 0 6.716
      vertex -12.252 0 6.255
      vertex -12.407 5 6.716
    endloop
  endfacet
  facet normal 0.947858 -4.53148e-17 -0.318694
    outer loop
      vertex -12.407 0 7.684
      vertex -12.407 5 7.684
      vertex -12.252 0 8.145
    endloop
  endfacet
  facet normal 0.947858 -1.86843e-16 0.318694
    outer loop
      vertex -12.407 5 6.716
      vertex -12.252 0 6.255
      vertex -12.252 5 6.255
    endloop
  endfacet
  facet normal 1.22465e-16 1 2.22045e-16
    outer loop
      vertex -12.407 5 6.716
      vertex -12.252 5 6.255
      vertex -12.26 5 3.6493
    endloop
  endfacet
  facet normal 0.947858 -4.53148e-17 -0.318694
    outer loop
      vertex -12.407 5 7.684
      vertex -12.252 5 8.145
      vertex -12.252 0 8.145
    endloop
  endfacet
  facet normal 1.22465e-16 1 2.22045e-16
    outer loop
      vertex -12.407 5 7.684
      vertex -12.26 5 10.7507
      vertex -12.252 5 8.145
    endloop
  endfacet
  facet normal 0.994058 -1.45907e-16 0.108853
    outer loop
      vertex -12.46 0 7.2
      vertex -12.407 0 6.716
      vertex -12.46 5 7.2
    endloop
  endfacet
  facet normal 0.994058 -9.75667e-17 -0.108853
    outer loop
      vertex -12.46 0 7.2
      vertex -12.46 5 7.2
      vertex -12.407 0 7.684
    endloop
  endfacet
  facet normal 1.22465e-16 1 2.22045e-16
    outer loop
      vertex -12.46 5 7.2
      vertex -12.26 5 10.7507
      vertex -12.407 5 7.684
    endloop
  endfacet
  facet normal 0.994058 -1.45907e-16 0.108853
    outer loop
      vertex -12.46 5 7.2
      vertex -12.407 0 6.716
      vertex -12.407 5 6.716
    endloop
  endfacet
  facet normal 1.22465e-16 1 2.22045e-16
    outer loop
      vertex -12.46 5 7.2
      vertex -12.407 5 6.716
      vertex -12.26 5 3.6493
    endloop
  endfacet
  facet normal 0.994058 -9.75667e-17 -0.108853
    outer loop
      vertex -12.46 5 7.2
      vertex -12.407 5 7.684
      vertex -12.407 0 7.684
    endloop
  endfacet
  facet normal 0.866025 -2.1708e-16 0.5
    outer loop
      vertex -13.0515 14.3898 5.02025
      vertex -12.26 5 3.6493
      vertex -12.26 14.3898 3.6493
    endloop
  endfacet
  facet normal 0.866025 -2.1708e-16 0.5
    outer loop
      vertex -14.31 12.21 7.2
      vertex -12.26 5 3.6493
      vertex -13.0515 14.3898 5.02025
    endloop
  endfacet
  facet normal 0.866025 4.96478e-18 -0.5
    outer loop
      vertex -14.31 12.21 7.2
      vertex -12.26 8.6593 10.7507
      vertex -12.26 5 10.7507
    endloop
  endfacet
  facet normal 1.22465e-16 1 2.22045e-16
    outer loop
      vertex -14.31 5 7.2
      vertex -12.26 5 10.7507
      vertex -12.46 5 7.2
    endloop
  endfacet
  facet normal 0.866025 -2.1708e-16 0.5
    outer loop
      vertex -14.31 5 7.2
      vertex -12.26 5 3.6493
      vertex -14.31 12.21 7.2
    endloop
  endfacet
  facet normal 1.22465e-16 1 2.22045e-16
    outer loop
      vertex -14.31 5 7.2
      vertex -12.46 5 7.2
      vertex -12.26 5 3.6493
    endloop
  endfacet
  facet normal 0.866025 4.96478e-18 -0.5
    outer loop
      vertex -14.31 5 7.2
      vertex -14.31 12.21 7.2
      vertex -12.26 5 10.7507
    endloop
  endfacet
  facet normal 0 0 1
    outer loop
      vertex -15.1577 0 14.3898
      vertex 15.1577 0 14.3898
      vertex -15.1577 5.02025 14.3898
    endloop
  endfacet
  facet normal 0 0 -1
    outer loop
      vertex -15.1577 14.3898 0
      vertex -1.2206 9.31413 0
      vertex -2.29397 8.03494 0
    endloop
  endfacet
  facet normal 0 1 0
    outer loop
      vertex -15.1577 14.3898 0
      vertex -12.26 14.3898 3.6493
      vertex 15.1577 14.3898 0
    endloop
  endfacet
  facet normal 0 1 0
    outer loop
      vertex -15.1577 14.3898 0
      vertex -15.1577 14.3898 5.02025
      vertex -12.26 14.3898 3.6493
    endloop
  endfacet
  facet normal 0 0 -1
    outer loop
      vertex -15.1577 14.3898 0
      vertex 0.423908 9.6041 0
      vertex -1.2206 9.31413 0
    endloop
  endfacet
  facet normal 0 0 -1
    outer loop
      vertex -15.1577 14.3898 0
      vertex 15.1577 14.3898 0
      vertex 0.423908 9.6041 0
    endloop
  endfacet
  facet normal 0 1 0
    outer loop
      vertex -15.1577 14.3898 5.02025
      vertex -13.0515 14.3898 5.02025
      vertex -12.26 14.3898 3.6493
    endloop
  endfacet
  facet normal 0 0 1
    outer loop
      vertex -15.1577 5.02025 14.3898
      vertex -2.025 3.6926 14.3898
      vertex -2.79152 5.02025 14.3898
    endloop
  endfacet
  facet normal 0 0 1
    outer loop
      vertex -15.1577 5.02025 14.3898
      vertex 15.1577 0 14.3898
      vertex -2.025 3.6926 14.3898
    endloop
  endfacet
  facet normal -0.164593 0 0.986362
    outer loop
      vertex -15.6465 0 14.3082
      vertex -15.1577 0 14.3898
      vertex -15.6465 5.1018 14.3082
    endloop
  endfacet
  facet normal 0 0 -1
    outer loop
      vertex -15.6465 14.3082 0
      vertex -15.1577 14.3898 0
      vertex -2.29397 8.03494 0
    endloop
  endfacet
  facet normal -0.164593 0.986362 0
    outer loop
      vertex -15.6465 14.3082 0
      vertex -15.6465 14.3082 5.1018
      vertex -15.1577 14.3898 0
    endloop
  endfacet
  facet normal -0.164593 0.986362 0
    outer loop
      vertex -15.6465 14.3082 5.1018
      vertex -15.1577 14.3898 5.02025
      vertex -15.1577 14.3898 0
    endloop
  endfacet
  facet normal -0.164593 0 0.986362
    outer loop
      vertex -15.6465 5.1018 14.3082
      vertex -15.1577 0 14.3898
      vertex -15.1577 5.02025 14.3898
    endloop
  endfacet
  facet normal -0.3247 0 0.945817
    outer loop
      vertex -16.1151 0 14.1473
      vertex -15.6465 0 14.3082
      vertex -16.1151 5.26268 14.1473
    endloop
  endfacet
  facet normal 0 0 -1
    outer loop
      vertex -16.1151 14.1473 0
      vertex -15.6465 14.3082 0
      vertex -2.29397 8.03494 0
    endloop
  endfacet
  facet normal -0.3247 0.945817 0
    outer loop
      vertex -16.1151 14.1473 0
      vertex -16.1151 14.1473 5.26268
      vertex -15.6465 14.3082 0
    endloop
  endfacet
  facet normal -0.3247 0.945817 0
    outer loop
      vertex -16.1151 14.1473 5.26268
      vertex -15.6465 14.3082 5.1018
      vertex -15.6465 14.3082 0
    endloop
  endfacet
  facet normal -0.3247 0 0.945817
    outer loop
      vertex -16.1151 5.26268 14.1473
      vertex -15.6465 0 14.3082
      vertex -15.6465 5.1018 14.3082
    endloop
  endfacet
  facet normal -0.475948 0 0.879473
    outer loop
      vertex -16.5508 0 13.9115
      vertex -16.1151 0 14.1473
      vertex -16.5508 5.4985 13.9115
    endloop
  endfacet
  facet normal 0 0 -1
    outer loop
      vertex -16.5508 13.9115 0
      vertex -16.1151 14.1473 0
      vertex -2.29397 8.03494 0
    endloop
  endfacet
  facet normal -0.475948 0.879473 0
    outer loop
      vertex -16.5508 13.9115 0
      vertex -16.5508 13.9115 5.4985
      vertex -16.1151 14.1473 0
    endloop
  endfacet
  facet normal -0.475948 0.879473 0
    outer loop
      vertex -16.5508 13.9115 5.4985
      vertex -16.1151 14.1473 5.26268
      vertex -16.1151 14.1473 0
    endloop
  endfacet
  facet normal -0.475948 0 0.879473
    outer loop
      vertex -16.5508 5.4985 13.9115
      vertex -16.1151 0 14.1473
      vertex -16.1151 5.26268 14.1473
    endloop
  endfacet
  facet normal -0.614211 0 0.789142
    outer loop
      vertex -16.9418 0 13.6072
      vertex -16.5508 0 13.9115
      vertex -16.9418 5.80283 13.6072
    endloop
  endfacet
  facet normal 0 0 -1
    outer loop
      vertex -16.9418 13.6072 0
      vertex -16.5508 13.9115 0
      vertex -2.29397 8.03494 0
    endloop
  endfacet
  facet normal -0.614211 0.789142 0
    outer loop
      vertex -16.9418 13.6072 0
      vertex -16.9418 13.6072 5.80283
      vertex -16.5508 13.9115 0
    endloop
  endfacet
  facet normal 0 0 -1
    outer loop
      vertex -16.9418 13.6072 0
      vertex -2.29397 8.03494 0
      vertex -2.29397 6.36506 0
    endloop
  endfacet
  facet normal -0.614211 0.789142 0
    outer loop
      vertex -16.9418 13.6072 5.80283
      vertex -16.5508 13.9115 5.4985
      vertex -16.5508 13.9115 0
    endloop
  endfacet
  facet normal -0.614211 0 0.789142
    outer loop
      vertex -16.9418 5.80283 13.6072
      vertex -16.5508 0 13.9115
      vertex -16.5508 5.4985 13.9115
    endloop
  endfacet
  facet normal -0.735724 0 0.677281
    outer loop
      vertex -17.2774 0 13.2426
      vertex -16.9418 0 13.6072
      vertex -17.2774 6.16736 13.2426
    endloop
  endfacet
  facet normal 0 0 -1
    outer loop
      vertex -17.2774 13.2426 0
      vertex -16.9418 13.6072 0
      vertex -2.29397 6.36506 0
    endloop
  endfacet
  facet normal -0.735724 0.677281 0
    outer loop
      vertex -17.2774 13.2426 0
      vertex -17.2774 13.2426 6.16736
      vertex -16.9418 13.6072 0
    endloop
  endfacet
  facet normal -0.735724 0.677281 0
    outer loop
      vertex -17.2774 13.2426 6.16736
      vertex -16.9418 13.6072 5.80283
      vertex -16.9418 13.6072 0
    endloop
  endfacet
  facet normal -0.735724 0 0.677281
    outer loop
      vertex -17.2774 6.16736 13.2426
      vertex -16.9418 0 13.6072
      vertex -16.9418 5.80283 13.6072
    endloop
  endfacet
  facet normal -0.837167 0 0.546947
    outer loop
      vertex -17.5484 0 12.8278
      vertex -17.2774 0 13.2426
      vertex -17.5484 6.58216 12.8278
    endloop
  endfacet
  facet normal 0 0 -1
    outer loop
      vertex -17.5484 12.8278 0
      vertex -17.2774 13.2426 0
      vertex -2.29397 6.36506 0
    endloop
  endfacet
  facet normal -0.837167 0.546947 0
    outer loop
      vertex -17.5484 12.8278 0
      vertex -17.5484 12.8278 6.58216
      vertex -17.2774 13.2426 0
    endloop
  endfacet
  facet normal -0.837167 0.546947 0
    outer loop
      vertex -17.5484 12.8278 6.58216
      vertex -17.2774 13.2426 6.16736
      vertex -17.2774 13.2426 0
    endloop
  endfacet
  facet normal -0.837167 0 0.546947
    outer loop
      vertex -17.5484 6.58216 12.8278
      vertex -17.2774 0 13.2426
      vertex -17.2774 6.16736 13.2426
    endloop
  endfacet
  facet normal -0.915773 0 0.401696
    outer loop
      vertex -17.7475 0 12.3741
      vertex -17.5484 0 12.8278
      vertex -17.7475 7.0359 12.3741
    endloop
  endfacet
  facet normal 0 0 -1
    outer loop
      vertex -17.7475 12.3741 0
      vertex -17.5484 12.8278 0
      vertex -2.29397 6.36506 0
    endloop
  endfacet
  facet normal -0.915773 0.401696 0
    outer loop
      vertex -17.7475 12.3741 0
      vertex -17.7475 12.3741 7.0359
      vertex -17.5484 12.8278 0
    endloop
  endfacet
  facet normal -0.915773 0.401696 0
    outer loop
      vertex -17.7475 12.3741 7.0359
      vertex -17.5484 12.8278 6.58216
      vertex -17.5484 12.8278 0
    endloop
  endfacet
  facet normal -0.915773 0 0.401696
    outer loop
      vertex -17.7475 7.0359 12.3741
      vertex -17.5484 0 12.8278
      vertex -17.5484 6.58216 12.8278
    endloop
  endfacet
  facet normal -0.9694 0 0.245485
    outer loop
      vertex -17.8691 0 11.8938
      vertex -17.7475 0 12.3741
      vertex -17.8691 7.51622 11.8938
    endloop
  endfacet
  facet normal 0 0 -1
    outer loop
      vertex -17.8691 11.8938 0
      vertex -17.7475 12.3741 0
      vertex -2.29397 6.36506 0
    endloop
  endfacet
  facet normal -0.9694 0.245485 0
    outer loop
      vertex -17.8691 11.8938 0
      vertex -17.8691 11.8938 7.51622
      vertex -17.7475 12.3741 0
    endloop
  endfacet
  facet normal -0.9694 0.245485 0
    outer loop
      vertex -17.8691 11.8938 7.51622
      vertex -17.7475 12.3741 7.0359
      vertex -17.7475 12.3741 0
    endloop
  endfacet
  facet normal 0 0.707107 0.707107
    outer loop
      vertex -17.8691 7.51622 11.8938
      vertex -12.26 8.6593 10.7507
      vertex -14.31 12.21 7.2
    endloop
  endfacet
  facet normal 0 0.707107 0.707107
    outer loop
      vertex -17.8691 7.51622 11.8938
      vertex -13.0515 14.3898 5.02025
      vertex -15.1577 14.3898 5.02025
    endloop
  endfacet
  facet normal 0 0.707107 0.707107
    outer loop
      vertex -17.8691 7.51622 11.8938
      vertex -14.31 12.21 7.2
      vertex -13.0515 14.3898 5.02025
    endloop
  endfacet
  facet normal 0 0.707107 0.707107
    outer loop
      vertex -17.8691 7.51622 11.8938
      vertex -15.1577 14.3898 5.02025
      vertex -15.6465 14.3082 5.1018
    endloop
  endfacet
  facet normal 0 0.707107 0.707107
    outer loop
      vertex -17.8691 7.51622 11.8938
      vertex -15.1577 5.02025 14.3898
      vertex -2.79152 5.02025 14.3898
    endloop
  endfacet
  facet normal 0 0.707107 0.707107
    outer loop
      vertex -17.8691 7.51622 11.8938
      vertex -15.6465 14.3082 5.1018
      vertex -16.1151 14.1473 5.26268
    endloop
  endfacet
  facet normal 0 0.707107 0.707107
    outer loop
      vertex -17.8691 7.51622 11.8938
      vertex -15.6465 5.1018 14.3082
      vertex -15.1577 5.02025 14.3898
    endloop
  endfacet
  facet normal 0 0.707107 0.707107
    outer loop
      vertex -17.8691 7.51622 11.8938
      vertex -16.1151 14.1473 5.26268
      vertex -16.5508 13.9115 5.4985
    endloop
  endfacet
  facet normal 0 0.707107 0.707107
    outer loop
      vertex -17.8691 7.51622 11.8938
      vertex -16.1151 5.26268 14.1473
      vertex -15.6465 5.1018 14.3082
    endloop
  endfacet
  facet normal 0 0.707107 0.707107
    outer loop
      vertex -17.8691 7.51622 11.8938
      vertex -16.5508 13.9115 5.4985
      vertex -16.9418 13.6072 5.80283
    endloop
  endfacet
  facet normal 0 0.707107 0.707107
    outer loop
      vertex -17.8691 7.51622 11.8938
      vertex -16.5508 5.4985 13.9115
      vertex -16.1151 5.26268 14.1473
    endloop
  endfacet
  facet normal 0 0.707107 0.707107
    outer loop
      vertex -17.8691 7.51622 11.8938
      vertex -16.9418 13.6072 5.80283
      vertex -17.2774 13.2426 6.16736
    endloop
  endfacet
  facet normal 0 0.707107 0.707107
    outer loop
      vertex -17.8691 7.51622 11.8938
      vertex -16.9418 5.80283 13.6072
      vertex -16.5508 5.4985 13.9115
    endloop
  endfacet
  facet normal 0 0.707107 0.707107
    outer loop
      vertex -17.8691 7.51622 11.8938
      vertex -17.2774 13.2426 6.16736
      vertex -17.5484 12.8278 6.58216
    endloop
  endfacet
  facet normal 0 0.707107 0.707107
    outer loop
      vertex -17.8691 7.51622 11.8938
      vertex -17.2774 6.16736 13.2426
      vertex -16.9418 5.80283 13.6072
    endloop
  endfacet
  facet normal 0 0.707107 0.707107
    outer loop
      vertex -17.8691 7.51622 11.8938
      vertex -17.5484 12.8278 6.58216
      vertex -17.7475 12.3741 7.0359
    endloop
  endfacet
  facet normal 0 0.707107 0.707107
    outer loop
      vertex -17.8691 7.51622 11.8938
      vertex -17.5484 6.58216 12.8278
      vertex -17.2774 6.16736 13.2426
    endloop
  endfacet
  facet normal -0.9694 0 0.245485
    outer loop
      vertex -17.8691 7.51622 11.8938
      vertex -17.7475 0 12.3741
      vertex -17.7475 7.0359 12.3741
    endloop
  endfacet
  facet normal 0 0.707107 0.707107
    outer loop
      vertex -17.8691 7.51622 11.8938
      vertex -17.7475 12.3741 7.0359
      vertex -17.8691 11.8938 7.51622
    endloop
  endfacet
  facet normal 0 0.707107 0.707107
    outer loop
      vertex -17.8691 7.51622 11.8938
      vertex -17.7475 7.0359 12.3741
      vertex -17.5484 6.58216 12.8278
    endloop
  endfacet
  facet normal 0 0.707107 0.707107
    outer loop
      vertex -17.8691 7.51622 11.8938
      vertex -2.79152 5.02025 14.3898
      vertex -4.05 7.2 12.21
    endloop
  endfacet
  facet normal 0 0.707107 0.707107
    outer loop
      vertex -17.8691 7.51622 11.8938
      vertex -4.05 7.2 12.21
      vertex -8.16 8.6593 10.7507
    endloop
  endfacet
  facet normal 0 0.707107 0.707107
    outer loop
      vertex -17.8691 7.51622 11.8938
      vertex -8.16 8.6593 10.7507
      vertex -12.26 8.6593 10.7507
    endloop
  endfacet
  facet normal 0 0 -1
    outer loop
      vertex -17.91 0 0
      vertex -1.2206 5.08587 0
      vertex 17.91 0 0
    endloop
  endfacet
  facet normal 0 -1 0
    outer loop
      vertex -17.91 0 0
      vertex -10.332 0 4.953
      vertex -10.812 0 5.032
    endloop
  endfacet
  facet normal 0 -1 0
    outer loop
      vertex -17.91 0 0
      vertex -10.812 0 5.032
      vertex -11.264 0 5.212
    endloop
  endfacet
  facet normal 0 -1 0
    outer loop
      vertex -17.91 0 0
      vertex -11.264 0 5.212
      vertex -11.667 0 5.485
    endloop
  endfacet
  facet normal 0 -1 0
    outer loop
      vertex -17.91 0 0
      vertex -11.667 0 5.485
      vertex -12.001 0 5.838
    endloop
  endfacet
  facet normal 0 -1 0
    outer loop
      vertex -17.91 0 0
      vertex -12.001 0 5.838
      vertex -12.252 0 6.255
    endloop
  endfacet
  facet normal 0 -1 0
    outer loop
      vertex -17.91 0 0
      vertex -12.252 0 6.255
      vertex -12.407 0 6.716
    endloop
  endfacet
  facet normal 0 -1 0
    outer loop
      vertex -17.91 0 0
      vertex -12.407 0 6.716
      vertex -17.91 0 11.4
    endloop
  endfacet
  facet normal -1 0 0
    outer loop
      vertex -17.91 0 0
      vertex -17.91 0 11.4
      vertex -17.91 11.4 0
    endloop
  endfacet
  facet normal 0 0 -1
    outer loop
      vertex -17.91 0 0
      vertex -17.91 11.4 0
      vertex -2.29397 6.36506 0
    endloop
  endfacet
  facet normal 0 0 -1
    outer loop
      vertex -17.91 0 0
      vertex -2.29397 6.36506 0
      vertex -1.2206 5.08587 0
    endloop
  endfacet
  facet normal 0 -1 0
    outer loop
      vertex -17.91 0 0
      vertex -8.947 0 5.338
      vertex -9.377 0 5.11
    endloop
  endfacet
  facet normal 0 -1 0
    outer loop
      vertex -17.91 0 0
      vertex -9.377 0 5.11
      vertex -9.846 0 4.98
    endloop
  endfacet
  facet normal 0 -1 0
    outer loop
      vertex -17.91 0 0
      vertex -9.846 0 4.98
      vertex -10.332 0 4.953
    endloop
  endfacet
  facet normal 0 -1 0
    outer loop
      vertex -17.91 0 0
      vertex 17.91 0 0
      vertex -8.947 0 5.338
    endloop
  endfacet
  facet normal 0 -1 0
    outer loop
      vertex -17.91 0 11.4
      vertex -11.142 0 9.45
      vertex 17.91 0 11.4
    endloop
  endfacet
  facet normal 0 -1 0
    outer loop
      vertex -17.91 0 11.4
      vertex -11.792 0 8.782
      vertex -11.801 0 8.791
    endloop
  endfacet
  facet normal 0 -1 0
    outer loop
      vertex -17.91 0 11.4
      vertex -11.801 0 8.791
      vertex -11.142 0 9.45
    endloop
  endfacet
  facet normal 0 -1 0
    outer loop
      vertex -17.91 0 11.4
      vertex -12.001 0 8.562
      vertex -11.792 0 8.782
    endloop
  endfacet
  facet normal 0 -1 0
    outer loop
      vertex -17.91 0 11.4
      vertex -12.252 0 8.145
      vertex -12.001 0 8.562
    endloop
  endfacet
  facet normal 0 -1 0
    outer loop
      vertex -17.91 0 11.4
      vertex -12.407 0 6.716
      vertex -12.46 0 7.2
    endloop
  endfacet
  facet normal 0 -1 0
    outer loop
      vertex -17.91 0 11.4
      vertex -12.407 0 7.684
      vertex -12.252 0 8.145
    endloop
  endfacet
  facet normal 0 -1 0
    outer loop
      vertex -17.91 0 11.4
      vertex -12.46 0 7.2
      vertex -12.407 0 7.684
    endloop
  endfacet
  facet normal 0 -1 0
    outer loop
      vertex -17.91 0 11.4
      vertex -15.1577 0 14.3898
      vertex -15.6465 0 14.3082
    endloop
  endfacet
  facet normal 0 -1 0
    outer loop
      vertex -17.91 0 11.4
      vertex -15.6465 0 14.3082
      vertex -16.1151 0 14.1473
    endloop
  endfacet
  facet normal 0 -1 0
    outer loop
      vertex -17.91 0 11.4
      vertex -16.1151 0 14.1473
      vertex -16.5508 0 13.9115
    endloop
  endfacet
  facet normal 0 -1 0
    outer loop
      vertex -17.91 0 11.4
      vertex -16.5508 0 13.9115
      vertex -16.9418 0 13.6072
    endloop
  endfacet
  facet normal 0 -1 0
    outer loop
      vertex -17.91 0 11.4
      vertex -16.9418 0 13.6072
      vertex -17.2774 0 13.2426
    endloop
  endfacet
  facet normal 0 -1 0
    outer loop
      vertex -17.91 0 11.4
      vertex -17.2774 0 13.2426
      vertex -17.5484 0 12.8278
    endloop
  endfacet
  facet normal 0 -1 0
    outer loop
      vertex -17.91 0 11.4
      vertex -17.5484 0 12.8278
      vertex -17.7475 0 12.3741
    endloop
  endfacet
  facet normal 0 -1 0
    outer loop
      vertex -17.91 0 11.4
      vertex -17.7475 0 12.3741
      vertex -17.8691 0 11.8938
    endloop
  endfacet
  facet normal -0.996585 0 0.0825791
    outer loop
      vertex -17.91 0 11.4
      vertex -17.8691 0 11.8938
      vertex -17.91 8.01 11.4
    endloop
  endfacet
  facet normal -1 0 0
    outer loop
      vertex -17.91 0 11.4
      vertex -17.91 8.01 11.4
      vertex -17.91 11.4 0
    endloop
  endfacet
  facet normal 0 -1 0
    outer loop
      vertex -17.91 0 11.4
      vertex 15.1577 0 14.3898
      vertex -15.1577 0 14.3898
    endloop
  endfacet
  facet normal 0 -1 0
    outer loop
      vertex -17.91 0 11.4
      vertex 15.6465 0 14.3082
      vertex 15.1577 0 14.3898
    endloop
  endfacet
  facet normal 0 -1 0
    outer loop
      vertex -17.91 0 11.4
      vertex 16.1151 0 14.1473
      vertex 15.6465 0 14.3082
    endloop
  endfacet
  facet normal 0 -1 0
    outer loop
      vertex -17.91 0 11.4
      vertex 16.5508 0 13.9115
      vertex 16.1151 0 14.1473
    endloop
  endfacet
  facet normal 0 -1 0
    outer loop
      vertex -17.91 0 11.4
      vertex 16.9418 0 13.6072
      vertex 16.5508 0 13.9115
    endloop
  endfacet
  facet normal 0 -1 0
    outer loop
      vertex -17.91 0 11.4
      vertex 17.2774 0 13.2426
      vertex 16.9418 0 13.6072
    endloop
  endfacet
  facet normal 0 -1 0
    outer loop
      vertex -17.91 0 11.4
      vertex 17.5484 0 12.8278
      vertex 17.2774 0 13.2426
    endloop
  endfacet
  facet normal 0 -1 0
    outer loop
      vertex -17.91 0 11.4
      vertex 17.7475 0 12.3741
      vertex 17.5484 0 12.8278
    endloop
  endfacet
  facet normal 0 -1 0
    outer loop
      vertex -17.91 0 11.4
      vertex 17.8691 0 11.8938
      vertex 17.7475 0 12.3741
    endloop
  endfacet
  facet normal 0 -1 0
    outer loop
      vertex -17.91 0 11.4
      vertex 17.91 0 11.4
      vertex 17.8691 0 11.8938
    endloop
  endfacet
  facet normal 0 0 -1
    outer loop
      vertex -17.91 11.4 0
      vertex -17.8691 11.8938 0
      vertex -2.29397 6.36506 0
    endloop
  endfacet
  facet normal -0.996585 0.0825791 0
    outer loop
      vertex -17.91 11.4 0
      vertex -17.91 11.4 8.01
      vertex -17.8691 11.8938 0
    endloop
  endfacet
  facet normal -0.996585 0.0825791 0
    outer loop
      vertex -17.91 11.4 8.01
      vertex -17.8691 11.8938 7.51622
      vertex -17.8691 11.8938 0
    endloop
  endfacet
  facet normal 0 0.707107 0.707107
    outer loop
      vertex -17.91 11.4 8.01
      vertex -17.8691 7.51622 11.8938
      vertex -17.8691 11.8938 7.51622
    endloop
  endfacet
  facet normal -0.996585 0 0.0825791
    outer loop
      vertex -17.91 8.01 11.4
      vertex -17.8691 0 11.8938
      vertex -17.8691 7.51622 11.8938
    endloop
  endfacet
  facet normal 0 0.707107 0.707107
    outer loop
      vertex -17.91 8.01 11.4
      vertex -17.8691 7.51622 11.8938
      vertex -17.91 11.4 8.01
    endloop
  endfacet
  facet normal -1 0 0
    outer loop
      vertex -17.91 8.01 11.4
      vertex -17.91 11.4 8.01
      vertex -17.91 11.4 0
    endloop
  endfacet
  facet normal 0 0 1
    outer loop
      vertex -2.025 10.7074 5
      vertex -1.2206 9.31413 5
      vertex 2.025 10.7074 5
    endloop
  endfacet
  facet normal 0 -1 0
    outer loop
      vertex -2.025 10.7074 5
      vertex 2.025 10.7074 5
      vertex -2.025 10.7074 8.7026
    endloop
  endfacet
  facet normal 0 -1 0
    outer loop
      vertex -2.025 10.7074 8.7026
      vertex 2.025 10.7074 5
      vertex 2.025 10.7074 8.7026
    endloop
  endfacet
  facet normal 0 0.707107 0.707107
    outer loop
      vertex -2.025 10.7074 8.7026
      vertex 2.025 10.7074 8.7026
      vertex 6.11 12.21 7.2
    endloop
  endfacet
  facet normal 0 0.707107 0.707107
    outer loop
      vertex -2.025 10.7074 8.7026
      vertex 6.11 12.21 7.2
      vertex 7.36848 14.3898 5.02025
    endloop
  endfacet
  facet normal 0 0 1
    outer loop
      vertex -2.025 3.6926 14.3898
      vertex 15.1577 0 14.3898
      vertex 2.025 3.6926 14.3898
    endloop
  endfacet
  facet normal 0 1 0
    outer loop
      vertex -2.025 3.6926 14.3898
      vertex 2.025 3.6926 14.3898
      vertex 2.025 3.6926 5
    endloop
  endfacet
  facet normal 0 1 0
    outer loop
      vertex -2.025 3.6926 5
      vertex -2.025 3.6926 14.3898
      vertex 2.025 3.6926 5
    endloop
  endfacet
  facet normal 0 0 1
    outer loop
      vertex -2.025 3.6926 5
      vertex 0.423908 4.7959 5
      vertex -1.2206 5.08587 5
    endloop
  endfacet
  facet normal 0 0 1
    outer loop
      vertex -2.025 3.6926 5
      vertex 2.025 3.6926 5
      vertex 0.423908 4.7959 5
    endloop
  endfacet
  facet normal 0.766045 0.642787 0
    outer loop
      vertex -2.29397 6.36506 0
      vertex -2.29397 6.36506 5
      vertex -1.2206 5.08587 0
    endloop
  endfacet
  facet normal 1 0 0
    outer loop
      vertex -2.29397 6.36506 0
      vertex -2.29397 8.03494 0
      vertex -2.29397 6.36506 5
    endloop
  endfacet
  facet normal 0.766045 0.642787 0
    outer loop
      vertex -2.29397 6.36506 5
      vertex -1.2206 5.08587 5
      vertex -1.2206 5.08587 0
    endloop
  endfacet
  facet normal 0 0 1
    outer loop
      vertex -2.29397 6.36506 5
      vertex -2.025 3.6926 5
      vertex -1.2206 5.08587 5
    endloop
  endfacet
  facet normal 1 0 0
    outer loop
      vertex -2.29397 6.36506 5
      vertex -2.29397 8.03494 0
      vertex -2.29397 8.03494 5
    endloop
  endfacet
  facet normal 0.766045 -0.642787 0
    outer loop
      vertex -2.29397 8.03494 0
      vertex -1.2206 9.31413 0
      vertex -2.29397 8.03494 5
    endloop
  endfacet
  facet normal 0.766045 -0.642787 0
    outer loop
      vertex -2.29397 8.03494 5
      vertex -1.2206 9.31413 0
      vertex -1.2206 9.31413 5
    endloop
  endfacet
  facet normal 0 0 1
    outer loop
      vertex -2.29397 8.03494 5
      vertex -1.2206 9.31413 5
      vertex -2.025 10.7074 5
    endloop
  endfacet
  facet normal 0.866025 -0.5 0
    outer loop
      vertex -4.05 7.2 12.21
      vertex -2.025 10.7074 5
      vertex -2.025 10.7074 8.7026
    endloop
  endfacet
  facet normal 0.866025 0.5 0
    outer loop
      vertex -4.05 7.2 12.21
      vertex -2.025 3.6926 14.3898
      vertex -2.025 3.6926 5
    endloop
  endfacet
  facet normal 0.866025 0.5 0
    outer loop
      vertex -4.05 7.2 12.21
      vertex -2.79152 5.02025 14.3898
      vertex -2.025 3.6926 14.3898
    endloop
  endfacet
  facet normal 0.866025 -0.5 0
    outer loop
      vertex -4.05 7.2 5
      vertex -2.025 10.7074 5
      vertex -4.05 7.2 12.21
    endloop
  endfacet
  facet normal 0 0 1
    outer loop
      vertex -4.05 7.2 5
      vertex -2.025 3.6926 5
      vertex -2.29397 6.36506 5
    endloop
  endfacet
  facet normal 0 0 1
    outer loop
      vertex -4.05 7.2 5
      vertex -2.29397 6.36506 5
      vertex -2.29397 8.03494 5
    endloop
  endfacet
  facet normal 0 0 1
    outer loop
      vertex -4.05 7.2 5
      vertex -2.29397 8.03494 5
      vertex -2.025 10.7074 5
    endloop
  endfacet
  facet normal 0.866025 0.5 0
    outer loop
      vertex -4.05 7.2 5
      vertex -4.05 7.2 12.21
      vertex -2.025 3.6926 5
    endloop
  endfacet
  facet normal 0 0.707107 0.707107
    outer loop
      vertex -7.36848 14.3898 5.02025
      vertex -6.11 12.21 7.2
      vertex 7.36848 14.3898 5.02025
    endloop
  endfacet
  facet normal -0.866025 -4.96478e-18 0.5
    outer loop
      vertex -7.36848 14.3898 5.02025
      vertex -6.11 5 7.2
      vertex -6.11 12.21 7.2
    endloop
  endfacet
  facet normal 0 1 0
    outer loop
      vertex -7.36848 14.3898 5.02025
      vertex 7.36848 14.3898 5.02025
      vertex 8.16 14.3898 3.6493
    endloop
  endfacet
  facet normal 0 1 0
    outer loop
      vertex -7.36848 14.3898 5.02025
      vertex 8.16 14.3898 3.6493
      vertex 15.1577 14.3898 0
    endloop
  endfacet
  facet normal -1 1.22465e-16 2.54072e-33
    outer loop
      vertex -7.973 0 6.957
      vertex -7.973 0 7.443
      vertex -7.973 5 6.957
    endloop
  endfacet
  facet normal 0 -1 0
    outer loop
      vertex -7.973 0 6.957
      vertex 17.91 0 0
      vertex -7.973 0 7.443
    endloop
  endfacet
  facet normal -1 1.22465e-16 2.54072e-33
    outer loop
      vertex -7.973 0 7.443
      vertex -7.973 5 7.443
      vertex -7.973 5 6.957
    endloop
  endfacet
  facet normal 1.22465e-16 1 2.22045e-16
    outer loop
      vertex -7.973 5 6.957
      vertex -7.973 5 7.443
      vertex -6.11 5 7.2
    endloop
  endfacet
  facet normal -0.976428 7.16514e-17 0.215842
    outer loop
      vertex -8.078 0 6.482
      vertex -7.973 0 6.957
      vertex -8.078 5 6.482
    endloop
  endfacet
  facet normal 0 -1 0
    outer loop
      vertex -8.078 0 6.482
      vertex 17.91 0 0
      vertex -7.973 0 6.957
    endloop
  endfacet
  facet normal 0 -1 0
    outer loop
      vertex -8.078 0 7.918
      vertex -7.973 0 7.443
      vertex 17.91 0 0
    endloop
  endfacet
  facet normal -0.976428 1.67505e-16 -0.215842
    outer loop
      vertex -8.078 0 7.918
      vertex -8.078 5 7.918
      vertex -7.973 0 7.443
    endloop
  endfacet
  facet normal -0.976428 7.16514e-17 0.215842
    outer loop
      vertex -8.078 5 6.482
      vertex -7.973 0 6.957
      vertex -7.973 5 6.957
    endloop
  endfacet
  facet normal 1.22465e-16 1 2.22045e-16
    outer loop
      vertex -8.078 5 6.482
      vertex -7.973 5 6.957
      vertex -6.11 5 7.2
    endloop
  endfacet
  facet normal 1.22465e-16 1 2.22045e-16
    outer loop
      vertex -8.078 5 7.918
      vertex -6.11 5 7.2
      vertex -7.973 5 7.443
    endloop
  endfacet
  facet normal -0.976428 1.67505e-16 -0.215842
    outer loop
      vertex -8.078 5 7.918
      vertex -7.973 5 7.443
      vertex -7.973 0 7.443
    endloop
  endfacet
  facet normal -0.866025 -4.96478e-18 0.5
    outer loop
      vertex -8.16 14.3898 3.6493
      vertex -6.11 5 7.2
      vertex -7.36848 14.3898 5.02025
    endloop
  endfacet
  facet normal 0 1 0
    outer loop
      vertex -8.16 14.3898 3.6493
      vertex -7.36848 14.3898 5.02025
      vertex 15.1577 14.3898 0
    endloop
  endfacet
  facet normal -0.866025 2.1708e-16 -0.5
    outer loop
      vertex -8.16 5 10.7507
      vertex -8.16 8.6593 10.7507
      vertex -6.11 5 7.2
    endloop
  endfacet
  facet normal -0.866025 -4.96478e-18 0.5
    outer loop
      vertex -8.16 5 3.6493
      vertex -6.11 5 7.2
      vertex -8.16 14.3898 3.6493
    endloop
  endfacet
  facet normal 0 0.707107 0.707107
    outer loop
      vertex -8.16 8.6593 10.7507
      vertex -2.025 10.7074 8.7026
      vertex 7.36848 14.3898 5.02025
    endloop
  endfacet
  facet normal 0 0.707107 0.707107
    outer loop
      vertex -8.16 8.6593 10.7507
      vertex -4.05 7.2 12.21
      vertex -2.025 10.7074 8.7026
    endloop
  endfacet
  facet normal -0.866025 2.1708e-16 -0.5
    outer loop
      vertex -8.16 8.6593 10.7507
      vertex -6.11 12.21 7.2
      vertex -6.11 5 7.2
    endloop
  endfacet
  facet normal 0 0.707107 0.707107
    outer loop
      vertex -8.16 8.6593 10.7507
      vertex 7.36848 14.3898 5.02025
      vertex -6.11 12.21 7.2
    endloop
  endfacet
  facet normal -0.907959 1.81433e-17 0.419058
    outer loop
      vertex -8.282 0 6.04
      vertex -8.078 0 6.482
      vertex -8.282 5 6.04
    endloop
  endfacet
  facet normal 0 -1 0
    outer loop
      vertex -8.282 0 6.04
      vertex 17.91 0 0
      vertex -8.078 0 6.482
    endloop
  endfacet
  facet normal 0 -1 0
    outer loop
      vertex -8.282 0 8.36
      vertex -8.078 0 7.918
      vertex 17.91 0 0
    endloop
  endfacet
  facet normal -0.907959 2.04243e-16 -0.419058
    outer loop
      vertex -8.282 0 8.36
      vertex -8.282 5 8.36
      vertex -8.078 0 7.918
    endloop
  endfacet
  facet normal -0.907959 1.81433e-17 0.419058
    outer loop
      vertex -8.282 5 6.04
      vertex -8.078 0 6.482
      vertex -8.078 5 6.482
    endloop
  endfacet
  facet normal 1.22465e-16 1 2.22045e-16
    outer loop
      vertex -8.282 5 6.04
      vertex -8.078 5 6.482
      vertex -6.11 5 7.2
    endloop
  endfacet
  facet normal 1.22465e-16 1 2.22045e-16
    outer loop
      vertex -8.282 5 8.36
      vertex -6.11 5 7.2
      vertex -8.078 5 7.918
    endloop
  endfacet
  facet normal -0.907959 2.04243e-16 -0.419058
    outer loop
      vertex -8.282 5 8.36
      vertex -8.078 5 7.918
      vertex -8.078 0 7.918
    endloop
  endfacet
  facet normal -0.79529 -3.72149e-17 0.606229
    outer loop
      vertex -8.577 0 5.653
      vertex -8.282 0 6.04
      vertex -8.577 5 5.653
    endloop
  endfacet
  facet normal 0 -1 0
    outer loop
      vertex -8.577 0 5.653
      vertex 17.91 0 0
      vertex -8.282 0 6.04
    endloop
  endfacet
  facet normal 0 -1 0
    outer loop
      vertex -8.577 0 8.747
      vertex -8.282 0 8.36
      vertex 17.91 0 0
    endloop
  endfacet
  facet normal -0.79529 2.32005e-16 -0.606229
    outer loop
      vertex -8.577 0 8.747
      vertex -8.577 5 8.747
      vertex -8.282 0 8.36
    endloop
  endfacet
  facet normal -0.79529 -3.72149e-17 0.606229
    outer loop
      vertex -8.577 5 5.653
      vertex -8.282 0 6.04
      vertex -8.282 5 6.04
    endloop
  endfacet
  facet normal 1.22465e-16 1 2.22045e-16
    outer loop
      vertex -8.577 5 5.653
      vertex -8.282 5 6.04
      vertex -6.11 5 7.2
    endloop
  endfacet
  facet normal 1.22465e-16 1 2.22045e-16
    outer loop
      vertex -8.577 5 8.747
      vertex -6.11 5 7.2
      vertex -8.282 5 8.36
    endloop
  endfacet
  facet normal 1.22465e-16 1 2.22045e-16
    outer loop
      vertex -8.577 5 8.747
      vertex -8.16 5 10.7507
      vertex -6.11 5 7.2
    endloop
  endfacet
  facet normal -0.79529 2.32005e-16 -0.606229
    outer loop
      vertex -8.577 5 8.747
      vertex -8.282 5 8.36
      vertex -8.282 0 8.36
    endloop
  endfacet
  facet normal 1.22465e-16 1 2.22045e-16
    outer loop
      vertex -8.619 5 8.791
      vertex -8.16 5 10.7507
      vertex -8.577 5 8.747
    endloop
  endfacet
  facet normal 0 -1 0
    outer loop
      vertex -8.623 0 8.787
      vertex -8.577 0 8.747
      vertex 17.91 0 0
    endloop
  endfacet
  facet normal -0.707107 -7.04136e-17 0.707107
    outer loop
      vertex -8.623 0 8.787
      vertex -8.619 0 8.791
      vertex -8.623 5 8.787
    endloop
  endfacet
  facet normal -0.656179 2.47915e-16 -0.754606
    outer loop
      vertex -8.623 0 8.787
      vertex -8.623 5 8.787
      vertex -8.577 0 8.747
    endloop
  endfacet
  facet normal 0 -1 0
    outer loop
      vertex -8.623 0 8.787
      vertex 17.91 0 0
      vertex -8.619 0 8.791
    endloop
  endfacet
  facet normal -0.656179 2.47915e-16 -0.754606
    outer loop
      vertex -8.623 5 8.787
      vertex -8.577 5 8.747
      vertex -8.577 0 8.747
    endloop
  endfacet
  facet normal -0.707107 -7.04136e-17 0.707107
    outer loop
      vertex -8.623 5 8.787
      vertex -8.619 0 8.791
      vertex -8.619 5 8.791
    endloop
  endfacet
  facet normal 1.22465e-16 1 2.22045e-16
    outer loop
      vertex -8.623 5 8.787
      vertex -8.619 5 8.791
      vertex -8.577 5 8.747
    endloop
  endfacet
  facet normal -0.648246 -8.96845e-17 0.761431
    outer loop
      vertex -8.947 0 5.338
      vertex -8.577 0 5.653
      vertex -8.947 5 5.338
    endloop
  endfacet
  facet normal 0 -1 0
    outer loop
      vertex -8.947 0 5.338
      vertex 17.91 0 0
      vertex -8.577 0 5.653
    endloop
  endfacet
  facet normal 1.22465e-16 1 2.22045e-16
    outer loop
      vertex -8.947 5 5.338
      vertex -6.11 5 7.2
      vertex -8.16 5 3.6493
    endloop
  endfacet
  facet normal -0.648246 -8.96845e-17 0.761431
    outer loop
      vertex -8.947 5 5.338
      vertex -8.577 0 5.653
      vertex -8.577 5 5.653
    endloop
  endfacet
  facet normal 1.22465e-16 1 2.22045e-16
    outer loop
      vertex -8.947 5 5.338
      vertex -8.577 5 5.653
      vertex -6.11 5 7.2
    endloop
  endfacet
  facet normal 0 -1 0
    outer loop
      vertex -9.278 0 9.45
      vertex -8.619 0 8.791
      vertex 17.91 0 0
    endloop
  endfacet
  facet normal -0.707107 2.43605e-16 -0.707107
    outer loop
      vertex -9.278 0 9.45
      vertex -9.278 5 9.45
      vertex -8.619 0 8.791
    endloop
  endfacet
  facet normal 0 -1 0
    outer loop
      vertex -9.278 0 9.45
      vertex 17.91 0 0
      vertex 9.608 0 5.032
    endloop
  endfacet
  facet normal 0 -1 0
    outer loop
      vertex -9.278 0 9.45
      vertex 7.96 0 7.2
      vertex 8.013 0 7.684
    endloop
  endfacet
  facet normal 0 -1 0
    outer loop
      vertex -9.278 0 9.45
      vertex 8.013 0 6.716
      vertex 7.96 0 7.2
    endloop
  endfacet
  facet normal 0 -1 0
    outer loop
      vertex -9.278 0 9.45
      vertex 8.013 0 7.684
      vertex 8.168 0 8.145
    endloop
  endfacet
  facet normal 0 -1 0
    outer loop
      vertex -9.278 0 9.45
      vertex 8.168 0 6.255
      vertex 8.013 0 6.716
    endloop
  endfacet
  facet normal 0 -1 0
    outer loop
      vertex -9.278 0 9.45
      vertex 8.168 0 8.145
      vertex 8.419 0 8.562
    endloop
  endfacet
  facet normal 0 -1 0
    outer loop
      vertex -9.278 0 9.45
      vertex 8.419 0 5.838
      vertex 8.168 0 6.255
    endloop
  endfacet
  facet normal 0 -1 0
    outer loop
      vertex -9.278 0 9.45
      vertex 8.419 0 8.562
      vertex 8.628 0 8.782
    endloop
  endfacet
  facet normal 0 -1 0
    outer loop
      vertex -9.278 0 9.45
      vertex 8.619 0 8.791
      vertex 9.278 0 9.45
    endloop
  endfacet
  facet normal 0 -1 0
    outer loop
      vertex -9.278 0 9.45
      vertex 8.628 0 8.782
      vertex 8.619 0 8.791
    endloop
  endfacet
  facet normal 0 -1 0
    outer loop
      vertex -9.278 0 9.45
      vertex 8.753 0 5.485
      vertex 8.419 0 5.838
    endloop
  endfacet
  facet normal 0 -1 0
    outer loop
      vertex -9.278 0 9.45
      vertex 9.156 0 5.212
      vertex 8.753 0 5.485
    endloop
  endfacet
  facet normal 0 -1 0
    outer loop
      vertex -9.278 0 9.45
      vertex 9.278 0 9.45
      vertex 17.91 0 11.4
    endloop
  endfacet
  facet normal 0 -1 0
    outer loop
      vertex -9.278 0 9.45
      vertex 9.608 0 5.032
      vertex 9.156 0 5.212
    endloop
  endfacet
  facet normal 1.22465e-16 1 2.22045e-16
    outer loop
      vertex -9.278 5 9.45
      vertex -8.16 5 10.7507
      vertex -8.619 5 8.791
    endloop
  endfacet
  facet normal -0.707107 2.43605e-16 -0.707107
    outer loop
      vertex -9.278 5 9.45
      vertex -8.619 5 8.791
      vertex -8.619 0 8.791
    endloop
  endfacet
  facet normal -0.468454 -1.38805e-16 0.883488
    outer loop
      vertex -9.377 0 5.11
      vertex -8.947 0 5.338
      vertex -9.377 5 5.11
    endloop
  endfacet
  facet normal -0.468454 -1.38805e-16 0.883488
    outer loop
      vertex -9.377 5 5.11
      vertex -8.947 0 5.338
      vertex -8.947 5 5.338
    endloop
  endfacet
  facet normal 1.22465e-16 1 2.22045e-16
    outer loop
      vertex -9.377 5 5.11
      vertex -8.947 5 5.338
      vertex -8.16 5 3.6493
    endloop
  endfacet
  facet normal -0.267114 -1.81265e-16 0.963665
    outer loop
      vertex -9.846 0 4.98
      vertex -9.377 0 5.11
      vertex -9.846 5 4.98
    endloop
  endfacet
  facet normal -0.267114 -1.81265e-16 0.963665
    outer loop
      vertex -9.846 5 4.98
      vertex -9.377 0 5.11
      vertex -9.377 5 5.11
    endloop
  endfacet
  facet normal 1.22465e-16 1 2.22045e-16
    outer loop
      vertex -9.846 5 4.98
      vertex -9.377 5 5.11
      vertex -8.16 5 3.6493
    endloop
  endfacet
  facet normal -0.5 0.866025 0
    outer loop
      vertex 0.423908 4.7959 0
      vertex 0.423908 4.7959 5
      vertex 1.87006 5.63083 0
    endloop
  endfacet
  facet normal 0 0 -1
    outer loop
      vertex 0.423908 4.7959 0
      vertex 1.87006 5.63083 0
      vertex 17.91 0 0
    endloop
  endfacet
  facet normal -0.5 0.866025 0
    outer loop
      vertex 0.423908 4.7959 5
      vertex 1.87006 5.63083 5
      vertex 1.87006 5.63083 0
    endloop
  endfacet
  facet normal 0 0 1
    outer loop
      vertex 0.423908 4.7959 5
      vertex 2.025 3.6926 5
      vertex 1.87006 5.63083 5
    endloop
  endfacet
  facet normal -0.5 -0.866025 0
    outer loop
      vertex 0.423908 9.6041 0
      vertex 1.87006 8.76917 0
      vertex 0.423908 9.6041 5
    endloop
  endfacet
  facet normal 0 0 -1
    outer loop
      vertex 0.423908 9.6041 0
      vertex 15.1577 14.3898 0
      vertex 1.87006 8.76917 0
    endloop
  endfacet
  facet normal -0.5 -0.866025 0
    outer loop
      vertex 0.423908 9.6041 5
      vertex 1.87006 8.76917 0
      vertex 1.87006 8.76917 5
    endloop
  endfacet
  facet normal 0 0 1
    outer loop
      vertex 0.423908 9.6041 5
      vertex 1.87006 8.76917 5
      vertex 2.025 10.7074 5
    endloop
  endfacet
  facet normal -0.939693 0.34202 0
    outer loop
      vertex 1.87006 5.63083 0
      vertex 1.87006 5.63083 5
      vertex 2.44119 7.2 0
    endloop
  endfacet
  facet normal 0 0 -1
    outer loop
      vertex 1.87006 5.63083 0
      vertex 2.44119 7.2 0
      vertex 17.91 0 0
    endloop
  endfacet
  facet normal 0 0 1
    outer loop
      vertex 1.87006 5.63083 5
      vertex 2.025 3.6926 5
      vertex 4.05 7.2 5
    endloop
  endfacet
  facet normal -0.939693 0.34202 0
    outer loop
      vertex 1.87006 5.63083 5
      vertex 2.44119 7.2 5
      vertex 2.44119 7.2 0
    endloop
  endfacet
  facet normal 0 0 1
    outer loop
      vertex 1.87006 5.63083 5
      vertex 4.05 7.2 5
      vertex 2.44119 7.2 5
    endloop
  endfacet
  facet normal 0 0 -1
    outer loop
      vertex 1.87006 8.76917 0
      vertex 15.1577 14.3898 0
      vertex 2.44119 7.2 0
    endloop
  endfacet
  facet normal -0.939693 -0.34202 0
    outer loop
      vertex 1.87006 8.76917 0
      vertex 2.44119 7.2 0
      vertex 1.87006 8.76917 5
    endloop
  endfacet
  facet normal -0.939693 -0.34202 0
    outer loop
      vertex 1.87006 8.76917 5
      vertex 2.44119 7.2 0
      vertex 2.44119 7.2 5
    endloop
  endfacet
  facet normal 0 0 1
    outer loop
      vertex 1.87006 8.76917 5
      vertex 2.44119 7.2 5
      vertex 4.05 7.2 5
    endloop
  endfacet
  facet normal 0 0 1
    outer loop
      vertex 1.87006 8.76917 5
      vertex 4.05 7.2 5
      vertex 2.025 10.7074 5
    endloop
  endfacet
  facet normal -0.05547 -2.1491e-16 0.99846
    outer loop
      vertex 10.088 0 4.953
      vertex 10.574 0 4.98
      vertex 10.088 5 4.953
    endloop
  endfacet
  facet normal 0 -1 0
    outer loop
      vertex 10.088 0 4.953
      vertex 17.91 0 0
      vertex 10.574 0 4.98
    endloop
  endfacet
  facet normal -0.05547 -2.1491e-16 0.99846
    outer loop
      vertex 10.088 5 4.953
      vertex 10.574 0 4.98
      vertex 10.574 5 4.98
    endloop
  endfacet
  facet normal 1.22465e-16 1 2.22045e-16
    outer loop
      vertex 10.088 5 4.953
      vertex 10.574 5 4.98
      vertex 12.26 5 3.6493
    endloop
  endfacet
  facet normal -0.267114 -1.81265e-16 0.963665
    outer loop
      vertex 10.574 0 4.98
      vertex 11.043 0 5.11
      vertex 10.574 5 4.98
    endloop
  endfacet
  facet normal 0 -1 0
    outer loop
      vertex 10.574 0 4.98
      vertex 17.91 0 0
      vertex 11.043 0 5.11
    endloop
  endfacet
  facet normal -0.267114 -1.81265e-16 0.963665
    outer loop
      vertex 10.574 5 4.98
      vertex 11.043 0 5.11
      vertex 11.043 5 5.11
    endloop
  endfacet
  facet normal 1.22465e-16 1 2.22045e-16
    outer loop
      vertex 10.574 5 4.98
      vertex 11.043 5 5.11
      vertex 12.26 5 3.6493
    endloop
  endfacet
  facet normal -0.468454 -1.38805e-16 0.883488
    outer loop
      vertex 11.043 0 5.11
      vertex 11.473 0 5.338
      vertex 11.043 5 5.11
    endloop
  endfacet
  facet normal 0 -1 0
    outer loop
      vertex 11.043 0 5.11
      vertex 17.91 0 0
      vertex 11.473 0 5.338
    endloop
  endfacet
  facet normal -0.468454 -1.38805e-16 0.883488
    outer loop
      vertex 11.043 5 5.11
      vertex 11.473 0 5.338
      vertex 11.473 5 5.338
    endloop
  endfacet
  facet normal 1.22465e-16 1 2.22045e-16
    outer loop
      vertex 11.043 5 5.11
      vertex 11.473 5 5.338
      vertex 12.26 5 3.6493
    endloop
  endfacet
  facet normal -0.707107 2.43605e-16 -0.707107
    outer loop
      vertex 11.142 0 9.45
      vertex 11.142 5 9.45
      vertex 11.801 0 8.791
    endloop
  endfacet
  facet normal 0 -1 0
    outer loop
      vertex 11.142 0 9.45
      vertex 11.801 0 8.791
      vertex 17.91 0 11.4
    endloop
  endfacet
  facet normal -0.707107 2.43605e-16 -0.707107
    outer loop
      vertex 11.142 5 9.45
      vertex 11.801 5 8.791
      vertex 11.801 0 8.791
    endloop
  endfacet
  facet normal 1.22465e-16 1 2.22045e-16
    outer loop
      vertex 11.142 5 9.45
      vertex 12.26 5 10.7507
      vertex 11.801 5 8.791
    endloop
  endfacet
  facet normal -0.648246 -8.96845e-17 0.761431
    outer loop
      vertex 11.473 0 5.338
      vertex 11.843 0 5.653
      vertex 11.473 5 5.338
    endloop
  endfacet
  facet normal 0 -1 0
    outer loop
      vertex 11.473 0 5.338
      vertex 17.91 0 0
      vertex 11.843 0 5.653
    endloop
  endfacet
  facet normal -0.648246 -8.96845e-17 0.761431
    outer loop
      vertex 11.473 5 5.338
      vertex 11.843 0 5.653
      vertex 11.843 5 5.653
    endloop
  endfacet
  facet normal 1.22465e-16 1 2.22045e-16
    outer loop
      vertex 11.473 5 5.338
      vertex 11.843 5 5.653
      vertex 14.31 5 7.2
    endloop
  endfacet
  facet normal 1.22465e-16 1 2.22045e-16
    outer loop
      vertex 11.473 5 5.338
      vertex 14.31 5 7.2
      vertex 12.26 5 3.6493
    endloop
  endfacet
  facet normal -0.656179 2.47915e-16 -0.754606
    outer loop
      vertex 11.797 0 8.787
      vertex 11.797 5 8.787
      vertex 11.843 0 8.747
    endloop
  endfacet
  facet normal -0.707107 -7.04136e-17 0.707107
    outer loop
      vertex 11.797 0 8.787
      vertex 11.801 0 8.791
      vertex 11.797 5 8.787
    endloop
  endfacet
  facet normal 0 -1 0
    outer loop
      vertex 11.797 0 8.787
      vertex 11.843 0 8.747
      vertex 17.91 0 11.4
    endloop
  endfacet
  facet normal 0 -1 0
    outer loop
      vertex 11.797 0 8.787
      vertex 17.91 0 11.4
      vertex 11.801 0 8.791
    endloop
  endfacet
  facet normal -0.707107 -7.04136e-17 0.707107
    outer loop
      vertex 11.797 5 8.787
      vertex 11.801 0 8.791
      vertex 11.801 5 8.791
    endloop
  endfacet
  facet normal 1.22465e-16 1 2.22045e-16
    outer loop
      vertex 11.797 5 8.787
      vertex 11.801 5 8.791
      vertex 11.843 5 8.747
    endloop
  endfacet
  facet normal -0.656179 2.47915e-16 -0.754606
    outer loop
      vertex 11.797 5 8.787
      vertex 11.843 5 8.747
      vertex 11.843 0 8.747
    endloop
  endfacet
  facet normal 1.22465e-16 1 2.22045e-16
    outer loop
      vertex 11.801 5 8.791
      vertex 12.26 5 10.7507
      vertex 11.843 5 8.747
    endloop
  endfacet
  facet normal -0.79529 -3.72149e-17 0.606229
    outer loop
      vertex 11.843 0 5.653
      vertex 12.138 0 6.04
      vertex 11.843 5 5.653
    endloop
  endfacet
  facet normal 0 -1 0
    outer loop
      vertex 11.843 0 5.653
      vertex 17.91 0 0
      vertex 12.138 0 6.04
    endloop
  endfacet
  facet normal -0.79529 2.32005e-16 -0.606229
    outer loop
      vertex 11.843 0 8.747
      vertex 11.843 5 8.747
      vertex 12.138 0 8.36
    endloop
  endfacet
  facet normal 0 -1 0
    outer loop
      vertex 11.843 0 8.747
      vertex 12.138 0 8.36
      vertex 17.91 0 11.4
    endloop
  endfacet
  facet normal -0.79529 -3.72149e-17 0.606229
    outer loop
      vertex 11.843 5 5.653
      vertex 12.138 0 6.04
      vertex 12.138 5 6.04
    endloop
  endfacet
  facet normal 1.22465e-16 1 2.22045e-16
    outer loop
      vertex 11.843 5 5.653
      vertex 12.138 5 6.04
      vertex 14.31 5 7.2
    endloop
  endfacet
  facet normal -0.79529 2.32005e-16 -0.606229
    outer loop
      vertex 11.843 5 8.747
      vertex 12.138 5 8.36
      vertex 12.138 0 8.36
    endloop
  endfacet
  facet normal 1.22465e-16 1 2.22045e-16
    outer loop
      vertex 11.843 5 8.747
      vertex 12.26 5 10.7507
      vertex 14.31 5 7.2
    endloop
  endfacet
  facet normal 1.22465e-16 1 2.22045e-16
    outer loop
      vertex 11.843 5 8.747
      vertex 14.31 5 7.2
      vertex 12.138 5 8.36
    endloop
  endfacet
  facet normal -0.907959 1.81433e-17 0.419058
    outer loop
      vertex 12.138 0 6.04
      vertex 12.342 0 6.482
      vertex 12.138 5 6.04
    endloop
  endfacet
  facet normal 0 -1 0
    outer loop
      vertex 12.138 0 6.04
      vertex 17.91 0 0
      vertex 12.342 0 6.482
    endloop
  endfacet
  facet normal -0.907959 2.04243e-16 -0.419058
    outer loop
      vertex 12.138 0 8.36
      vertex 12.138 5 8.36
      vertex 12.342 0 7.918
    endloop
  endfacet
  facet normal 0 -1 0
    outer loop
      vertex 12.138 0 8.36
      vertex 12.342 0 7.918
      vertex 17.91 0 0
    endloop
  endfacet
  facet normal 0 -1 0
    outer loop
      vertex 12.138 0 8.36
      vertex 17.91 0 0
      vertex 17.91 0 11.4
    endloop
  endfacet
  facet normal -0.907959 1.81433e-17 0.419058
    outer loop
      vertex 12.138 5 6.04
      vertex 12.342 0 6.482
      vertex 12.342 5 6.482
    endloop
  endfacet
  facet normal 1.22465e-16 1 2.22045e-16
    outer loop
      vertex 12.138 5 6.04
      vertex 12.342 5 6.482
      vertex 14.31 5 7.2
    endloop
  endfacet
  facet normal -0.907959 2.04243e-16 -0.419058
    outer loop
      vertex 12.138 5 8.36
      vertex 12.342 5 7.918
      vertex 12.342 0 7.918
    endloop
  endfacet
  facet normal 1.22465e-16 1 2.22045e-16
    outer loop
      vertex 12.138 5 8.36
      vertex 14.31 5 7.2
      vertex 12.342 5 7.918
    endloop
  endfacet
  facet normal 0 1 0
    outer loop
      vertex 12.26 14.3898 3.6493
      vertex 13.0515 14.3898 5.02025
      vertex 15.1577 14.3898 0
    endloop
  endfacet
  facet normal -0.866025 -4.96478e-18 0.5
    outer loop
      vertex 12.26 14.3898 3.6493
      vertex 14.31 5 7.2
      vertex 13.0515 14.3898 5.02025
    endloop
  endfacet
  facet normal -0.866025 2.1708e-16 -0.5
    outer loop
      vertex 12.26 5 10.7507
      vertex 12.26 8.6593 10.7507
      vertex 14.31 5 7.2
    endloop
  endfacet
  facet normal -0.866025 -4.96478e-18 0.5
    outer loop
      vertex 12.26 5 3.6493
      vertex 14.31 5 7.2
      vertex 12.26 14.3898 3.6493
    endloop
  endfacet
  facet normal -0.866025 2.1708e-16 -0.5
    outer loop
      vertex 12.26 8.6593 10.7507
      vertex 14.31 12.21 7.2
      vertex 14.31 5 7.2
    endloop
  endfacet
  facet normal 0 0.707107 0.707107
    outer loop
      vertex 12.26 8.6593 10.7507
      vertex 17.7475 12.3741 7.0359
      vertex 14.31 12.21 7.2
    endloop
  endfacet
  facet normal 0 0.707107 0.707107
    outer loop
      vertex 12.26 8.6593 10.7507
      vertex 17.8691 11.8938 7.51622
      vertex 17.7475 12.3741 7.0359
    endloop
  endfacet
  facet normal 0 0.707107 0.707107
    outer loop
      vertex 12.26 8.6593 10.7507
      vertex 17.8691 7.51622 11.8938
      vertex 17.91 8.01 11.4
    endloop
  endfacet
  facet normal 0 0.707107 0.707107
    outer loop
      vertex 12.26 8.6593 10.7507
      vertex 17.91 11.4 8.01
      vertex 17.8691 11.8938 7.51622
    endloop
  endfacet
  facet normal 0 0.707107 0.707107
    outer loop
      vertex 12.26 8.6593 10.7507
      vertex 17.91 8.01 11.4
      vertex 17.91 11.4 8.01
    endloop
  endfacet
  facet normal -0.976428 7.16514e-17 0.215842
    outer loop
      vertex 12.342 0 6.482
      vertex 12.447 0 6.957
      vertex 12.342 5 6.482
    endloop
  endfacet
  facet normal 0 -1 0
    outer loop
      vertex 12.342 0 6.482
      vertex 17.91 0 0
      vertex 12.447 0 6.957
    endloop
  endfacet
  facet normal -0.976428 1.67505e-16 -0.215842
    outer loop
      vertex 12.342 0 7.918
      vertex 12.342 5 7.918
      vertex 12.447 0 7.443
    endloop
  endfacet
  facet normal 0 -1 0
    outer loop
      vertex 12.342 0 7.918
      vertex 12.447 0 7.443
      vertex 17.91 0 0
    endloop
  endfacet
  facet normal -0.976428 7.16514e-17 0.215842
    outer loop
      vertex 12.342 5 6.482
      vertex 12.447 0 6.957
      vertex 12.447 5 6.957
    endloop
  endfacet
  facet normal 1.22465e-16 1 2.22045e-16
    outer loop
      vertex 12.342 5 6.482
      vertex 12.447 5 6.957
      vertex 14.31 5 7.2
    endloop
  endfacet
  facet normal -0.976428 1.67505e-16 -0.215842
    outer loop
      vertex 12.342 5 7.918
      vertex 12.447 5 7.443
      vertex 12.447 0 7.443
    endloop
  endfacet
  facet normal 1.22465e-16 1 2.22045e-16
    outer loop
      vertex 12.342 5 7.918
      vertex 14.31 5 7.2
      vertex 12.447 5 7.443
    endloop
  endfacet
  facet normal -1 1.22465e-16 2.54072e-33
    outer loop
      vertex 12.447 0 6.957
      vertex 12.447 0 7.443
      vertex 12.447 5 6.957
    endloop
  endfacet
  facet normal 0 -1 0
    outer loop
      vertex 12.447 0 6.957
      vertex 17.91 0 0
      vertex 12.447 0 7.443
    endloop
  endfacet
  facet normal -1 1.22465e-16 2.54072e-33
    outer loop
      vertex 12.447 0 7.443
      vertex 12.447 5 7.443
      vertex 12.447 5 6.957
    endloop
  endfacet
  facet normal 1.22465e-16 1 2.22045e-16
    outer loop
      vertex 12.447 5 6.957
      vertex 12.447 5 7.443
      vertex 14.31 5 7.2
    endloop
  endfacet
  facet normal 0 0.707107 0.707107
    outer loop
      vertex 13.0515 14.3898 5.02025
      vertex 14.31 12.21 7.2
      vertex 15.1577 14.3898 5.02025
    endloop
  endfacet
  facet normal -0.866025 -4.96478e-18 0.5
    outer loop
      vertex 13.0515 14.3898 5.02025
      vertex 14.31 5 7.2
      vertex 14.31 12.21 7.2
    endloop
  endfacet
  facet normal 0 1 0
    outer loop
      vertex 13.0515 14.3898 5.02025
      vertex 15.1577 14.3898 5.02025
      vertex 15.1577 14.3898 0
    endloop
  endfacet
  facet normal 0 0.707107 0.707107
    outer loop
      vertex 14.31 12.21 7.2
      vertex 15.6465 14.3082 5.1018
      vertex 15.1577 14.3898 5.02025
    endloop
  endfacet
  facet normal 0 0.707107 0.707107
    outer loop
      vertex 14.31 12.21 7.2
      vertex 16.1151 14.1473 5.26268
      vertex 15.6465 14.3082 5.1018
    endloop
  endfacet
  facet normal 0 0.707107 0.707107
    outer loop
      vertex 14.31 12.21 7.2
      vertex 16.5508 13.9115 5.4985
      vertex 16.1151 14.1473 5.26268
    endloop
  endfacet
  facet normal 0 0.707107 0.707107
    outer loop
      vertex 14.31 12.21 7.2
      vertex 16.9418 13.6072 5.80283
      vertex 16.5508 13.9115 5.4985
    endloop
  endfacet
  facet normal 0 0.707107 0.707107
    outer loop
      vertex 14.31 12.21 7.2
      vertex 17.2774 13.2426 6.16736
      vertex 16.9418 13.6072 5.80283
    endloop
  endfacet
  facet normal 0 0.707107 0.707107
    outer loop
      vertex 14.31 12.21 7.2
      vertex 17.5484 12.8278 6.58216
      vertex 17.2774 13.2426 6.16736
    endloop
  endfacet
  facet normal 0 0.707107 0.707107
    outer loop
      vertex 14.31 12.21 7.2
      vertex 17.7475 12.3741 7.0359
      vertex 17.5484 12.8278 6.58216
    endloop
  endfacet
  facet normal 0.164593 0 0.986362
    outer loop
      vertex 15.1577 0 14.3898
      vertex 15.6465 0 14.3082
      vertex 15.1577 5.02025 14.3898
    endloop
  endfacet
  facet normal 0.164593 0.986362 0
    outer loop
      vertex 15.1577 14.3898 0
      vertex 15.1577 14.3898 5.02025
      vertex 15.6465 14.3082 0
    endloop
  endfacet
  facet normal 0 0 -1
    outer loop
      vertex 15.1577 14.3898 0
      vertex 15.6465 14.3082 0
      vertex 17.91 0 0
    endloop
  endfacet
  facet normal 0.164593 0.986362 0
    outer loop
      vertex 15.1577 14.3898 5.02025
      vertex 15.6465 14.3082 5.1018
      vertex 15.6465 14.3082 0
    endloop
  endfacet
  facet normal 0.164593 0 0.986362
    outer loop
      vertex 15.1577 5.02025 14.3898
      vertex 15.6465 0 14.3082
      vertex 15.6465 5.1018 14.3082
    endloop
  endfacet
  facet normal 0.3247 0 0.945817
    outer loop
      vertex 15.6465 0 14.3082
      vertex 16.1151 0 14.1473
      vertex 15.6465 5.1018 14.3082
    endloop
  endfacet
  facet normal 0.3247 0.945817 0
    outer loop
      vertex 15.6465 14.3082 0
      vertex 15.6465 14.3082 5.1018
      vertex 16.1151 14.1473 0
    endloop
  endfacet
  facet normal 0 0 -1
    outer loop
      vertex 15.6465 14.3082 0
      vertex 16.1151 14.1473 0
      vertex 17.91 0 0
    endloop
  endfacet
  facet normal 0.3247 0.945817 0
    outer loop
      vertex 15.6465 14.3082 5.1018
      vertex 16.1151 14.1473 5.26268
      vertex 16.1151 14.1473 0
    endloop
  endfacet
  facet normal 0.3247 0 0.945817
    outer loop
      vertex 15.6465 5.1018 14.3082
      vertex 16.1151 0 14.1473
      vertex 16.1151 5.26268 14.1473
    endloop
  endfacet
  facet normal 0.475948 0 0.879473
    outer loop
      vertex 16.1151 0 14.1473
      vertex 16.5508 0 13.9115
      vertex 16.1151 5.26268 14.1473
    endloop
  endfacet
  facet normal 0.475948 0.879473 0
    outer loop
      vertex 16.1151 14.1473 0
      vertex 16.1151 14.1473 5.26268
      vertex 16.5508 13.9115 0
    endloop
  endfacet
  facet normal 0 0 -1
    outer loop
      vertex 16.1151 14.1473 0
      vertex 16.5508 13.9115 0
      vertex 17.91 0 0
    endloop
  endfacet
  facet normal 0.475948 0.879473 0
    outer loop
      vertex 16.1151 14.1473 5.26268
      vertex 16.5508 13.9115 5.4985
      vertex 16.5508 13.9115 0
    endloop
  endfacet
  facet normal 0.475948 0 0.879473
    outer loop
      vertex 16.1151 5.26268 14.1473
      vertex 16.5508 0 13.9115
      vertex 16.5508 5.4985 13.9115
    endloop
  endfacet
  facet normal 0.614211 0 0.789142
    outer loop
      vertex 16.5508 0 13.9115
      vertex 16.9418 0 13.6072
      vertex 16.5508 5.4985 13.9115
    endloop
  endfacet
  facet normal 0.614211 0.789142 0
    outer loop
      vertex 16.5508 13.9115 0
      vertex 16.5508 13.9115 5.4985
      vertex 16.9418 13.6072 0
    endloop
  endfacet
  facet normal 0 0 -1
    outer loop
      vertex 16.5508 13.9115 0
      vertex 16.9418 13.6072 0
      vertex 17.91 0 0
    endloop
  endfacet
  facet normal 0.614211 0.789142 0
    outer loop
      vertex 16.5508 13.9115 5.4985
      vertex 16.9418 13.6072 5.80283
      vertex 16.9418 13.6072 0
    endloop
  endfacet
  facet normal 0.614211 0 0.789142
    outer loop
      vertex 16.5508 5.4985 13.9115
      vertex 16.9418 0 13.6072
      vertex 16.9418 5.80283 13.6072
    endloop
  endfacet
  facet normal 0.735724 0 0.677281
    outer loop
      vertex 16.9418 0 13.6072
      vertex 17.2774 0 13.2426
      vertex 16.9418 5.80283 13.6072
    endloop
  endfacet
  facet normal 0.735724 0.677281 0
    outer loop
      vertex 16.9418 13.6072 0
      vertex 16.9418 13.6072 5.80283
      vertex 17.2774 13.2426 0
    endloop
  endfacet
  facet normal 0 0 -1
    outer loop
      vertex 16.9418 13.6072 0
      vertex 17.2774 13.2426 0
      vertex 17.91 0 0
    endloop
  endfacet
  facet normal 0.735724 0.677281 0
    outer loop
      vertex 16.9418 13.6072 5.80283
      vertex 17.2774 13.2426 6.16736
      vertex 17.2774 13.2426 0
    endloop
  endfacet
  facet normal 0.735724 0 0.677281
    outer loop
      vertex 16.9418 5.80283 13.6072
      vertex 17.2774 0 13.2426
      vertex 17.2774 6.16736 13.2426
    endloop
  endfacet
  facet normal 0.837167 0 0.546947
    outer loop
      vertex 17.2774 0 13.2426
      vertex 17.5484 0 12.8278
      vertex 17.2774 6.16736 13.2426
    endloop
  endfacet
  facet normal 0.837167 0.546947 0
    outer loop
      vertex 17.2774 13.2426 0
      vertex 17.2774 13.2426 6.16736
      vertex 17.5484 12.8278 0
    endloop
  endfacet
  facet normal 0 0 -1
    outer loop
      vertex 17.2774 13.2426 0
      vertex 17.5484 12.8278 0
      vertex 17.91 0 0
    endloop
  endfacet
  facet normal 0.837167 0.546947 0
    outer loop
      vertex 17.2774 13.2426 6.16736
      vertex 17.5484 12.8278 6.58216
      vertex 17.5484 12.8278 0
    endloop
  endfacet
  facet normal 0.837167 0 0.546947
    outer loop
      vertex 17.2774 6.16736 13.2426
      vertex 17.5484 0 12.8278
      vertex 17.5484 6.58216 12.8278
    endloop
  endfacet
  facet normal 0.915773 0 0.401696
    outer loop
      vertex 17.5484 0 12.8278
      vertex 17.7475 0 12.3741
      vertex 17.5484 6.58216 12.8278
    endloop
  endfacet
  facet normal 0.915773 0.401696 0
    outer loop
      vertex 17.5484 12.8278 0
      vertex 17.5484 12.8278 6.58216
      vertex 17.7475 12.3741 0
    endloop
  endfacet
  facet normal 0 0 -1
    outer loop
      vertex 17.5484 12.8278 0
      vertex 17.7475 12.3741 0
      vertex 17.91 0 0
    endloop
  endfacet
  facet normal 0.915773 0.401696 0
    outer loop
      vertex 17.5484 12.8278 6.58216
      vertex 17.7475 12.3741 7.0359
      vertex 17.7475 12.3741 0
    endloop
  endfacet
  facet normal 0.915773 0 0.401696
    outer loop
      vertex 17.5484 6.58216 12.8278
      vertex 17.7475 0 12.3741
      vertex 17.7475 7.0359 12.3741
    endloop
  endfacet
  facet normal 0.9694 0 0.245485
    outer loop
      vertex 17.7475 0 12.3741
      vertex 17.8691 0 11.8938
      vertex 17.7475 7.0359 12.3741
    endloop
  endfacet
  facet normal 0.9694 0.245485 0
    outer loop
      vertex 17.7475 12.3741 0
      vertex 17.7475 12.3741 7.0359
      vertex 17.8691 11.8938 0
    endloop
  endfacet
  facet normal 0 0 -1
    outer loop
      vertex 17.7475 12.3741 0
      vertex 17.8691 11.8938 0
      vertex 17.91 0 0
    endloop
  endfacet
  facet normal 0.9694 0.245485 0
    outer loop
      vertex 17.7475 12.3741 7.0359
      vertex 17.8691 11.8938 7.51622
      vertex 17.8691 11.8938 0
    endloop
  endfacet
  facet normal 0.9694 0 0.245485
    outer loop
      vertex 17.7475 7.0359 12.3741
      vertex 17.8691 0 11.8938
      vertex 17.8691 7.51622 11.8938
    endloop
  endfacet
  facet normal 0.996585 0 0.0825791
    outer loop
      vertex 17.8691 0 11.8938
      vertex 17.91 0 11.4
      vertex 17.8691 7.51622 11.8938
    endloop
  endfacet
  facet normal 0.996585 0.0825791 0
    outer loop
      vertex 17.8691 11.8938 0
      vertex 17.8691 11.8938 7.51622
      vertex 17.91 11.4 0
    endloop
  endfacet
  facet normal 0 0 -1
    outer loop
      vertex 17.8691 11.8938 0
      vertex 17.91 11.4 0
      vertex 17.91 0 0
    endloop
  endfacet
  facet normal 0.996585 0.0825791 0
    outer loop
      vertex 17.8691 11.8938 7.51622
      vertex 17.91 11.4 8.01
      vertex 17.91 11.4 0
    endloop
  endfacet
  facet normal 0.996585 0 0.0825791
    outer loop
      vertex 17.8691 7.51622 11.8938
      vertex 17.91 0 11.4
      vertex 17.91 8.01 11.4
    endloop
  endfacet
  facet normal 1 0 0
    outer loop
      vertex 17.91 0 0
      vertex 17.91 11.4 0
      vertex 17.91 0 11.4
    endloop
  endfacet
  facet normal 1 0 0
    outer loop
      vertex 17.91 0 11.4
      vertex 17.91 11.4 0
      vertex 17.91 11.4 8.01
    endloop
  endfacet
  facet normal 1 0 0
    outer loop
      vertex 17.91 0 11.4
      vertex 17.91 11.4 8.01
      vertex 17.91 8.01 11.4
    endloop
  endfacet
  facet normal -0.866025 -0.5 0
    outer loop
      vertex 2.025 10.7074 5
      vertex 4.05 7.2 5
      vertex 2.025 10.7074 8.7026
    endloop
  endfacet
  facet normal 0 0.707107 0.707107
    outer loop
      vertex 2.025 10.7074 8.7026
      vertex 15.1577 5.02025 14.3898
      vertex 15.6465 5.1018 14.3082
    endloop
  endfacet
  facet normal 0 0.707107 0.707107
    outer loop
      vertex 2.025 10.7074 8.7026
      vertex 15.6465 5.1018 14.3082
      vertex 16.1151 5.26268 14.1473
    endloop
  endfacet
  facet normal 0 0.707107 0.707107
    outer loop
      vertex 2.025 10.7074 8.7026
      vertex 16.1151 5.26268 14.1473
      vertex 16.5508 5.4985 13.9115
    endloop
  endfacet
  facet normal 0 0.707107 0.707107
    outer loop
      vertex 2.025 10.7074 8.7026
      vertex 16.5508 5.4985 13.9115
      vertex 8.16 8.6593 10.7507
    endloop
  endfacet
  facet normal 0 0.707107 0.707107
    outer loop
      vertex 2.025 10.7074 8.7026
      vertex 4.05 7.2 12.21
      vertex 15.1577 5.02025 14.3898
    endloop
  endfacet
  facet normal -0.866025 -0.5 0
    outer loop
      vertex 2.025 10.7074 8.7026
      vertex 4.05 7.2 5
      vertex 4.05 7.2 12.21
    endloop
  endfacet
  facet normal 0 0.707107 0.707107
    outer loop
      vertex 2.025 10.7074 8.7026
      vertex 8.16 8.6593 10.7507
      vertex 6.11 12.21 7.2
    endloop
  endfacet
  facet normal 0 0 1
    outer loop
      vertex 2.025 3.6926 14.3898
      vertex 15.1577 0 14.3898
      vertex 2.79152 5.02025 14.3898
    endloop
  endfacet
  facet normal -0.866025 0.5 0
    outer loop
      vertex 2.025 3.6926 14.3898
      vertex 2.79152 5.02025 14.3898
      vertex 4.05 7.2 12.21
    endloop
  endfacet
  facet normal -0.866025 0.5 0
    outer loop
      vertex 2.025 3.6926 14.3898
      vertex 4.05 7.2 12.21
      vertex 4.05 7.2 5
    endloop
  endfacet
  facet normal -0.866025 0.5 0
    outer loop
      vertex 2.025 3.6926 5
      vertex 2.025 3.6926 14.3898
      vertex 4.05 7.2 5
    endloop
  endfacet
  facet normal 0 0 -1
    outer loop
      vertex 2.44119 7.2 0
      vertex 15.1577 14.3898 0
      vertex 17.91 0 0
    endloop
  endfacet
  facet normal 0 0 1
    outer loop
      vertex 2.79152 5.02025 14.3898
      vertex 15.1577 0 14.3898
      vertex 15.1577 5.02025 14.3898
    endloop
  endfacet
  facet normal 0 0.707107 0.707107
    outer loop
      vertex 2.79152 5.02025 14.3898
      vertex 15.1577 5.02025 14.3898
      vertex 4.05 7.2 12.21
    endloop
  endfacet
  facet normal 0.866025 -2.1708e-16 0.5
    outer loop
      vertex 6.11 12.21 7.2
      vertex 8.16 5 3.6493
      vertex 7.36848 14.3898 5.02025
    endloop
  endfacet
  facet normal 0.866025 4.96478e-18 -0.5
    outer loop
      vertex 6.11 12.21 7.2
      vertex 8.16 8.6593 10.7507
      vertex 8.16 5 10.7507
    endloop
  endfacet
  facet normal 0.866025 4.96478e-18 -0.5
    outer loop
      vertex 6.11 5 7.2
      vertex 6.11 12.21 7.2
      vertex 8.16 5 10.7507
    endloop
  endfacet
  facet normal 1.22465e-16 1 2.22045e-16
    outer loop
      vertex 6.11 5 7.2
      vertex 7.96 5 7.2
      vertex 8.16 5 3.6493
    endloop
  endfacet
  facet normal 1.22465e-16 1 2.22045e-16
    outer loop
      vertex 6.11 5 7.2
      vertex 8.16 5 10.7507
      vertex 7.96 5 7.2
    endloop
  endfacet
  facet normal 0.866025 -2.1708e-16 0.5
    outer loop
      vertex 6.11 5 7.2
      vertex 8.16 5 3.6493
      vertex 6.11 12.21 7.2
    endloop
  endfacet
  facet normal 0.866025 -2.1708e-16 0.5
    outer loop
      vertex 7.36848 14.3898 5.02025
      vertex 8.16 5 3.6493
      vertex 8.16 14.3898 3.6493
    endloop
  endfacet
  facet normal 0.994058 -9.75667e-17 -0.108853
    outer loop
      vertex 7.96 0 7.2
      vertex 7.96 5 7.2
      vertex 8.013 0 7.684
    endloop
  endfacet
  facet normal 0.994058 -1.45907e-16 0.108853
    outer loop
      vertex 7.96 0 7.2
      vertex 8.013 0 6.716
      vertex 7.96 5 7.2
    endloop
  endfacet
  facet normal 0.994058 -1.45907e-16 0.108853
    outer loop
      vertex 7.96 5 7.2
      vertex 8.013 0 6.716
      vertex 8.013 5 6.716
    endloop
  endfacet
  facet normal 1.22465e-16 1 2.22045e-16
    outer loop
      vertex 7.96 5 7.2
      vertex 8.013 5 6.716
      vertex 8.16 5 3.6493
    endloop
  endfacet
  facet normal 0.994058 -9.75667e-17 -0.108853
    outer loop
      vertex 7.96 5 7.2
      vertex 8.013 5 7.684
      vertex 8.013 0 7.684
    endloop
  endfacet
  facet normal 1.22465e-16 1 2.22045e-16
    outer loop
      vertex 7.96 5 7.2
      vertex 8.16 5 10.7507
      vertex 8.013 5 7.684
    endloop
  endfacet
  facet normal 0.947858 -1.86843e-16 0.318694
    outer loop
      vertex 8.013 0 6.716
      vertex 8.168 0 6.255
      vertex 8.013 5 6.716
    endloop
  endfacet
  facet normal 0.947858 -4.53148e-17 -0.318694
    outer loop
      vertex 8.013 0 7.684
      vertex 8.013 5 7.684
      vertex 8.168 0 8.145
    endloop
  endfacet
  facet normal 0.947858 -1.86843e-16 0.318694
    outer loop
      vertex 8.013 5 6.716
      vertex 8.168 0 6.255
      vertex 8.168 5 6.255
    endloop
  endfacet
  facet normal 1.22465e-16 1 2.22045e-16
    outer loop
      vertex 8.013 5 6.716
      vertex 8.168 5 6.255
      vertex 8.16 5 3.6493
    endloop
  endfacet
  facet normal 1.22465e-16 1 2.22045e-16
    outer loop
      vertex 8.013 5 7.684
      vertex 8.16 5 10.7507
      vertex 8.168 5 8.145
    endloop
  endfacet
  facet normal 0.947858 -4.53148e-17 -0.318694
    outer loop
      vertex 8.013 5 7.684
      vertex 8.168 5 8.145
      vertex 8.168 0 8.145
    endloop
  endfacet
  facet normal 0 1 0
    outer loop
      vertex 8.16 14.3898 3.6493
      vertex 12.26 14.3898 3.6493
      vertex 15.1577 14.3898 0
    endloop
  endfacet
  facet normal -2.71926e-32 -2.22045e-16 1
    outer loop
      vertex 8.16 14.3898 3.6493
      vertex 12.26 5 3.6493
      vertex 12.26 14.3898 3.6493
    endloop
  endfacet
  facet normal 1.22465e-16 1 2.22045e-16
    outer loop
      vertex 8.16 5 10.7507
      vertex 11.142 5 9.45
      vertex 9.278 5 9.45
    endloop
  endfacet
  facet normal 1.22465e-16 1 2.22045e-16
    outer loop
      vertex 8.16 5 10.7507
      vertex 12.26 5 10.7507
      vertex 11.142 5 9.45
    endloop
  endfacet
  facet normal 2.71926e-32 2.22045e-16 -1
    outer loop
      vertex 8.16 5 10.7507
      vertex 8.16 8.6593 10.7507
      vertex 12.26 5 10.7507
    endloop
  endfacet
  facet normal 1.22465e-16 1 2.22045e-16
    outer loop
      vertex 8.16 5 10.7507
      vertex 8.419 5 8.562
      vertex 8.168 5 8.145
    endloop
  endfacet
  facet normal 1.22465e-16 1 2.22045e-16
    outer loop
      vertex 8.16 5 10.7507
      vertex 8.619 5 8.791
      vertex 8.419 5 8.562
    endloop
  endfacet
  facet normal 1.22465e-16 1 2.22045e-16
    outer loop
      vertex 8.16 5 10.7507
      vertex 9.278 5 9.45
      vertex 8.619 5 8.791
    endloop
  endfacet
  facet normal -2.71926e-32 -2.22045e-16 1
    outer loop
      vertex 8.16 5 3.6493
      vertex 12.26 5 3.6493
      vertex 8.16 14.3898 3.6493
    endloop
  endfacet
  facet normal 1.22465e-16 1 2.22045e-16
    outer loop
      vertex 8.16 5 3.6493
      vertex 8.168 5 6.255
      vertex 8.419 5 5.838
    endloop
  endfacet
  facet normal 1.22465e-16 1 2.22045e-16
    outer loop
      vertex 8.16 5 3.6493
      vertex 8.419 5 5.838
      vertex 8.753 5 5.485
    endloop
  endfacet
  facet normal 1.22465e-16 1 2.22045e-16
    outer loop
      vertex 8.16 5 3.6493
      vertex 8.753 5 5.485
      vertex 9.156 5 5.212
    endloop
  endfacet
  facet normal 1.22465e-16 1 2.22045e-16
    outer loop
      vertex 8.16 5 3.6493
      vertex 9.156 5 5.212
      vertex 12.26 5 3.6493
    endloop
  endfacet
  facet normal 2.71926e-32 2.22045e-16 -1
    outer loop
      vertex 8.16 8.6593 10.7507
      vertex 12.26 8.6593 10.7507
      vertex 12.26 5 10.7507
    endloop
  endfacet
  facet normal 0 0.707107 0.707107
    outer loop
      vertex 8.16 8.6593 10.7507
      vertex 16.5508 5.4985 13.9115
      vertex 16.9418 5.80283 13.6072
    endloop
  endfacet
  facet normal 0 0.707107 0.707107
    outer loop
      vertex 8.16 8.6593 10.7507
      vertex 16.9418 5.80283 13.6072
      vertex 17.2774 6.16736 13.2426
    endloop
  endfacet
  facet normal 0 0.707107 0.707107
    outer loop
      vertex 8.16 8.6593 10.7507
      vertex 17.2774 6.16736 13.2426
      vertex 17.5484 6.58216 12.8278
    endloop
  endfacet
  facet normal 0 0.707107 0.707107
    outer loop
      vertex 8.16 8.6593 10.7507
      vertex 17.5484 6.58216 12.8278
      vertex 17.7475 7.0359 12.3741
    endloop
  endfacet
  facet normal 0 0.707107 0.707107
    outer loop
      vertex 8.16 8.6593 10.7507
      vertex 17.7475 7.0359 12.3741
      vertex 17.8691 7.51622 11.8938
    endloop
  endfacet
  facet normal 0 0.707107 0.707107
    outer loop
      vertex 8.16 8.6593 10.7507
      vertex 17.8691 7.51622 11.8938
      vertex 12.26 8.6593 10.7507
    endloop
  endfacet
  facet normal 0.856767 -2.19433e-16 0.515704
    outer loop
      vertex 8.168 0 6.255
      vertex 8.419 0 5.838
      vertex 8.168 5 6.255
    endloop
  endfacet
  facet normal 0.856767 9.58557e-18 -0.515704
    outer loop
      vertex 8.168 0 8.145
      vertex 8.168 5 8.145
      vertex 8.419 0 8.562
    endloop
  endfacet
  facet normal 0.856767 -2.19433e-16 0.515704
    outer loop
      vertex 8.168 5 6.255
      vertex 8.419 0 5.838
      vertex 8.419 5 5.838
    endloop
  endfacet
  facet normal 0.856767 9.58557e-18 -0.515704
    outer loop
      vertex 8.168 5 8.145
      vertex 8.419 5 8.562
      vertex 8.419 0 8.562
    endloop
  endfacet
  facet normal 0.726385 -2.41565e-16 0.687288
    outer loop
      vertex 8.419 0 5.838
      vertex 8.753 0 5.485
      vertex 8.419 5 5.838
    endloop
  endfacet
  facet normal 0.724999 6.41463e-17 -0.688749
    outer loop
      vertex 8.419 0 8.562
      vertex 8.419 5 8.562
      vertex 8.628 0 8.782
    endloop
  endfacet
  facet normal 0.726385 -2.41565e-16 0.687288
    outer loop
      vertex 8.419 5 5.838
      vertex 8.753 0 5.485
      vertex 8.753 5 5.485
    endloop
  endfacet
  facet normal 1.22465e-16 1 2.22045e-16
    outer loop
      vertex 8.419 5 8.562
      vertex 8.619 5 8.791
      vertex 8.628 5 8.782
    endloop
  endfacet
  facet normal 0.724999 6.41463e-17 -0.688749
    outer loop
      vertex 8.419 5 8.562
      vertex 8.628 5 8.782
      vertex 8.628 0 8.782
    endloop
  endfacet
  facet normal 0.707107 7.04136e-17 -0.707107
    outer loop
      vertex 8.619 0 8.791
      vertex 8.619 5 8.791
      vertex 9.278 0 9.45
    endloop
  endfacet
  facet normal 0.707107 -2.43605e-16 0.707107
    outer loop
      vertex 8.619 0 8.791
      vertex 8.628 0 8.782
      vertex 8.619 5 8.791
    endloop
  endfacet
  facet normal 0.707107 -2.43605e-16 0.707107
    outer loop
      vertex 8.619 5 8.791
      vertex 8.628 0 8.782
      vertex 8.628 5 8.782
    endloop
  endfacet
  facet normal 0.707107 7.04136e-17 -0.707107
    outer loop
      vertex 8.619 5 8.791
      vertex 9.278 5 9.45
      vertex 9.278 0 9.45
    endloop
  endfacet
  facet normal 0.560848 -2.52519e-16 0.827919
    outer loop
      vertex 8.753 0 5.485
      vertex 9.156 0 5.212
      vertex 8.753 5 5.485
    endloop
  endfacet
  facet normal 0.560848 -2.52519e-16 0.827919
    outer loop
      vertex 8.753 5 5.485
      vertex 9.156 0 5.212
      vertex 9.156 5 5.212
    endloop
  endfacet
  facet normal 0.369973 -2.51597e-16 0.929043
    outer loop
      vertex 9.156 0 5.212
      vertex 9.608 0 5.032
      vertex 9.156 5 5.212
    endloop
  endfacet
  facet normal 0.369973 -2.51597e-16 0.929043
    outer loop
      vertex 9.156 5 5.212
      vertex 9.608 0 5.032
      vertex 9.608 5 5.032
    endloop
  endfacet
  facet normal 1.22465e-16 1 2.22045e-16
    outer loop
      vertex 9.156 5 5.212
      vertex 9.608 5 5.032
      vertex 12.26 5 3.6493
    endloop
  endfacet
  facet normal 0 -1 0
    outer loop
      vertex 9.278 0 9.45
      vertex 11.142 0 9.45
      vertex 17.91 0 11.4
    endloop
  endfacet
  facet normal 2.71926e-32 2.22045e-16 -1
    outer loop
      vertex 9.278 0 9.45
      vertex 9.278 5 9.45
      vertex 11.142 0 9.45
    endloop
  endfacet
  facet normal 2.71926e-32 2.22045e-16 -1
    outer loop
      vertex 9.278 5 9.45
      vertex 11.142 5 9.45
      vertex 11.142 0 9.45
    endloop
  endfacet
  facet normal 0.162399 -2.38985e-16 0.986725
    outer loop
      vertex 9.608 0 5.032
      vertex 10.088 0 4.953
      vertex 9.608 5 5.032
    endloop
  endfacet
  facet normal 0 -1 0
    outer loop
      vertex 9.608 0 5.032
      vertex 17.91 0 0
      vertex 10.088 0 4.953
    endloop
  endfacet
  facet normal 0.162399 -2.38985e-16 0.986725
    outer loop
      vertex 9.608 5 5.032
      vertex 10.088 0 4.953
      vertex 10.088 5 4.953
    endloop
  endfacet
  facet normal 1.22465e-16 1 2.22045e-16
    outer loop
      vertex 9.608 5 5.032
      vertex 10.088 5 4.953
      vertex 12.26 5 3.6493
    endloop
  endfacet
endsolid OpenSCAD_Model
