solid OpenSCAD_Model
  facet normal 1 0 0
    outer loop
      vertex -17.51 -4.4 4
      vertex -17.51 4.4 4
      vertex -17.51 -4.4 5.2
    endloop
  endfacet
  facet normal 0 0 1
    outer loop
      vertex -17.51 -4.4 4
      vertex 17.51 -4.4 4
      vertex -17.51 4.4 4
    endloop
  endfacet
  facet normal 0 -1 0
    outer loop
      vertex -17.51 -4.4 4
      vertex 20.66 -4.4 0
      vertex 17.51 -4.4 4
    endloop
  endfacet
  facet normal 1 0 0
    outer loop
      vertex -17.51 -4.4 5.2
      vertex -17.51 4.4 4
      vertex -17.51 4.4 5.2
    endloop
  endfacet
  facet normal 0 0 1
    outer loop
      vertex -17.51 4.4 4
      vertex 17.51 -4.4 4
      vertex 17.51 4.4 4
    endloop
  endfacet
  facet normal 0 1 0
    outer loop
      vertex -17.51 4.4 4
      vertex 17.51 4.4 4
      vertex 20.66 4.4 0
    endloop
  endfacet
  facet normal 0 0 -1
    outer loop
      vertex -18.7286 0 0
      vertex 18.9199 -0.837986 0
      vertex 20.2302 -1.88294 0
    endloop
  endfacet
  facet normal 0 0 -1
    outer loop
      vertex -18.7286 0 0
      vertex 18.9199 0.837986 0
      vertex 18.9199 -0.837986 0
    endloop
  endfacet
  facet normal 0 0 -1
    outer loop
      vertex -18.7286 0 0
      vertex 20.2302 -1.88294 0
      vertex 24.386 -2.341 0
    endloop
  endfacet
  facet normal 0 0 -1
    outer loop
      vertex -18.7286 0 0
      vertex 20.2302 1.88294 0
      vertex 18.9199 0.837986 0
    endloop
  endfacet
  facet normal 0 0 -1
    outer loop
      vertex -18.7286 0 0
      vertex 21.153 -4.372 0
      vertex 20.66 -4.4 0
    endloop
  endfacet
  facet normal 0 0 -1
    outer loop
      vertex -18.7286 0 0
      vertex 21.639 -4.29 0
      vertex 21.153 -4.372 0
    endloop
  endfacet
  facet normal 0 0 -1
    outer loop
      vertex -18.7286 0 0
      vertex 22.113 -4.153 0
      vertex 21.639 -4.29 0
    endloop
  endfacet
  facet normal 0 0 -1
    outer loop
      vertex -18.7286 0 0
      vertex 22.569 -3.964 0
      vertex 22.113 -4.153 0
    endloop
  endfacet
  facet normal 0 0 -1
    outer loop
      vertex -18.7286 0 0
      vertex 23.001 -3.726 0
      vertex 22.569 -3.964 0
    endloop
  endfacet
  facet normal 0 0 -1
    outer loop
      vertex -18.7286 0 0
      vertex 23.403 -3.44 0
      vertex 23.001 -3.726 0
    endloop
  endfacet
  facet normal 0 0 -1
    outer loop
      vertex -18.7286 0 0
      vertex 23.403 3.44 0
      vertex 23.771 3.111 0
    endloop
  endfacet
  facet normal 0 0 -1
    outer loop
      vertex -18.7286 0 0
      vertex 23.771 -3.111 0
      vertex 23.403 -3.44 0
    endloop
  endfacet
  facet normal 0 0 -1
    outer loop
      vertex -18.7286 0 0
      vertex 23.771 3.111 0
      vertex 24.1 2.743 0
    endloop
  endfacet
  facet normal 0 0 -1
    outer loop
      vertex -18.7286 0 0
      vertex 24.1 -2.743 0
      vertex 23.771 -3.111 0
    endloop
  endfacet
  facet normal 0 0 -1
    outer loop
      vertex -18.7286 0 0
      vertex 24.1 2.743 0
      vertex 24.386 2.341 0
    endloop
  endfacet
  facet normal 0 0 -1
    outer loop
      vertex -18.7286 0 0
      vertex 24.386 -2.341 0
      vertex 24.1 -2.743 0
    endloop
  endfacet
  facet normal 0 0 -1
    outer loop
      vertex -18.7286 0 0
      vertex 24.386 2.341 0
      vertex 20.2302 1.88294 0
    endloop
  endfacet
  facet normal 0 0 1
    outer loop
      vertex -18.7286 0 5.2
      vertex -17.51 -4.4 5.2
      vertex -17.51 4.4 5.2
    endloop
  endfacet
  facet normal 0 0 -1
    outer loop
      vertex -19.4558 -1.51 0
      vertex -18.7286 0 0
      vertex 20.66 -4.4 0
    endloop
  endfacet
  facet normal -0.900969 0.433884 0
    outer loop
      vertex -19.4558 -1.51 0
      vertex -19.4558 -1.51 5.2
      vertex -18.7286 0 0
    endloop
  endfacet
  facet normal 0 0 1
    outer loop
      vertex -19.4558 -1.51 5.2
      vertex -17.51 -4.4 5.2
      vertex -18.7286 0 5.2
    endloop
  endfacet
  facet normal -0.900969 0.433884 0
    outer loop
      vertex -19.4558 -1.51 5.2
      vertex -18.7286 0 5.2
      vertex -18.7286 0 0
    endloop
  endfacet
  facet normal -0.900969 -0.433884 0
    outer loop
      vertex -19.4558 1.51 0
      vertex -18.7286 0 0
      vertex -19.4558 1.51 5.2
    endloop
  endfacet
  facet normal 0 0 -1
    outer loop
      vertex -19.4558 1.51 0
      vertex 20.66 4.4 0
      vertex 21.153 4.372 0
    endloop
  endfacet
  facet normal 0 0 -1
    outer loop
      vertex -19.4558 1.51 0
      vertex 21.153 4.372 0
      vertex 21.639 4.29 0
    endloop
  endfacet
  facet normal 0 0 -1
    outer loop
      vertex -19.4558 1.51 0
      vertex 21.639 4.29 0
      vertex 22.113 4.153 0
    endloop
  endfacet
  facet normal 0 0 -1
    outer loop
      vertex -19.4558 1.51 0
      vertex 22.113 4.153 0
      vertex 22.569 3.964 0
    endloop
  endfacet
  facet normal 0 0 -1
    outer loop
      vertex -19.4558 1.51 0
      vertex 22.569 3.964 0
      vertex 23.001 3.726 0
    endloop
  endfacet
  facet normal 0 0 -1
    outer loop
      vertex -19.4558 1.51 0
      vertex 23.001 3.726 0
      vertex 23.403 3.44 0
    endloop
  endfacet
  facet normal 0 0 -1
    outer loop
      vertex -19.4558 1.51 0
      vertex 23.403 3.44 0
      vertex -18.7286 0 0
    endloop
  endfacet
  facet normal -0.900969 -0.433884 0
    outer loop
      vertex -19.4558 1.51 5.2
      vertex -18.7286 0 0
      vertex -18.7286 0 5.2
    endloop
  endfacet
  facet normal 0 0 1
    outer loop
      vertex -19.4558 1.51 5.2
      vertex -18.7286 0 5.2
      vertex -17.51 4.4 5.2
    endloop
  endfacet
  facet normal 0 -1 0
    outer loop
      vertex -20.66 -4.4 0
      vertex -17.51 -4.4 4
      vertex -20.66 -4.4 5.2
    endloop
  endfacet
  facet normal 0 -1 0
    outer loop
      vertex -20.66 -4.4 0
      vertex 20.66 -4.4 0
      vertex -17.51 -4.4 4
    endloop
  endfacet
  facet normal 0 -1 0
    outer loop
      vertex -20.66 -4.4 5.2
      vertex -17.51 -4.4 4
      vertex -17.51 -4.4 5.2
    endloop
  endfacet
  facet normal 0 1 0
    outer loop
      vertex -20.66 4.4 0
      vertex -17.51 4.4 4
      vertex 20.66 4.4 0
    endloop
  endfacet
  facet normal 0 1 0
    outer loop
      vertex -20.66 4.4 0
      vertex -20.66 4.4 5.2
      vertex -17.51 4.4 4
    endloop
  endfacet
  facet normal 0 0 -1
    outer loop
      vertex -20.66 4.4 0
      vertex 20.66 4.4 0
      vertex -19.4558 1.51 0
    endloop
  endfacet
  facet normal 0 1 0
    outer loop
      vertex -20.66 4.4 5.2
      vertex -17.51 4.4 5.2
      vertex -17.51 4.4 4
    endloop
  endfacet
  facet normal 0 0 -1
    outer loop
      vertex -21.0898 -1.88294 0
      vertex -19.4558 -1.51 0
      vertex 20.66 -4.4 0
    endloop
  endfacet
  facet normal -0.222522 0.974928 0
    outer loop
      vertex -21.0898 -1.88294 0
      vertex -21.0898 -1.88294 5.2
      vertex -19.4558 -1.51 0
    endloop
  endfacet
  facet normal 0 0 -1
    outer loop
      vertex -21.0898 -1.88294 0
      vertex 20.66 -4.4 0
      vertex -20.66 -4.4 0
    endloop
  endfacet
  facet normal 0 0 1
    outer loop
      vertex -21.0898 -1.88294 5.2
      vertex -17.51 -4.4 5.2
      vertex -19.4558 -1.51 5.2
    endloop
  endfacet
  facet normal -0.222522 0.974928 0
    outer loop
      vertex -21.0898 -1.88294 5.2
      vertex -19.4558 -1.51 5.2
      vertex -19.4558 -1.51 0
    endloop
  endfacet
  facet normal -0.222522 -0.974928 0
    outer loop
      vertex -21.0898 1.88294 0
      vertex -19.4558 1.51 0
      vertex -21.0898 1.88294 5.2
    endloop
  endfacet
  facet normal 0 0 -1
    outer loop
      vertex -21.0898 1.88294 0
      vertex -20.66 4.4 0
      vertex -19.4558 1.51 0
    endloop
  endfacet
  facet normal -0.222522 -0.974928 0
    outer loop
      vertex -21.0898 1.88294 5.2
      vertex -19.4558 1.51 0
      vertex -19.4558 1.51 5.2
    endloop
  endfacet
  facet normal 0 0 1
    outer loop
      vertex -21.0898 1.88294 5.2
      vertex -19.4558 1.51 5.2
      vertex -17.51 4.4 5.2
    endloop
  endfacet
  facet normal -0.0567038 -0.998391 0
    outer loop
      vertex -21.153 -4.372 0
      vertex -20.66 -4.4 0
      vertex -21.153 -4.372 5.2
    endloop
  endfacet
  facet normal -0.0567038 -0.998391 0
    outer loop
      vertex -21.153 -4.372 5.2
      vertex -20.66 -4.4 0
      vertex -20.66 -4.4 5.2
    endloop
  endfacet
  facet normal -0.0567038 0.998391 0
    outer loop
      vertex -21.153 4.372 0
      vertex -21.153 4.372 5.2
      vertex -20.66 4.4 0
    endloop
  endfacet
  facet normal -0.0567038 0.998391 0
    outer loop
      vertex -21.153 4.372 5.2
      vertex -20.66 4.4 5.2
      vertex -20.66 4.4 0
    endloop
  endfacet
  facet normal -0.166373 -0.986063 0
    outer loop
      vertex -21.639 -4.29 0
      vertex -21.153 -4.372 0
      vertex -21.639 -4.29 5.2
    endloop
  endfacet
  facet normal -0.166373 -0.986063 0
    outer loop
      vertex -21.639 -4.29 5.2
      vertex -21.153 -4.372 0
      vertex -21.153 -4.372 5.2
    endloop
  endfacet
  facet normal -0.166373 0.986063 0
    outer loop
      vertex -21.639 4.29 0
      vertex -21.639 4.29 5.2
      vertex -21.153 4.372 0
    endloop
  endfacet
  facet normal -0.166373 0.986063 0
    outer loop
      vertex -21.639 4.29 5.2
      vertex -21.153 4.372 5.2
      vertex -21.153 4.372 0
    endloop
  endfacet
  facet normal -0.277664 -0.960678 0
    outer loop
      vertex -22.113 -4.153 0
      vertex -21.639 -4.29 0
      vertex -22.113 -4.153 5.2
    endloop
  endfacet
  facet normal -0.277664 -0.960678 0
    outer loop
      vertex -22.113 -4.153 5.2
      vertex -21.639 -4.29 0
      vertex -21.639 -4.29 5.2
    endloop
  endfacet
  facet normal -0.277664 0.960678 0
    outer loop
      vertex -22.113 4.153 0
      vertex -22.113 4.153 5.2
      vertex -21.639 4.29 0
    endloop
  endfacet
  facet normal -0.277664 0.960678 0
    outer loop
      vertex -22.113 4.153 5.2
      vertex -21.639 4.29 5.2
      vertex -21.639 4.29 0
    endloop
  endfacet
  facet normal 0 0 -1
    outer loop
      vertex -22.4001 -0.837986 0
      vertex -21.0898 -1.88294 0
      vertex -20.66 -4.4 0
    endloop
  endfacet
  facet normal 0.62349 0.781831 0
    outer loop
      vertex -22.4001 -0.837986 0
      vertex -22.4001 -0.837986 5.2
      vertex -21.0898 -1.88294 0
    endloop
  endfacet
  facet normal 1 0 0
    outer loop
      vertex -22.4001 -0.837986 0
      vertex -22.4001 0.837986 0
      vertex -22.4001 -0.837986 5.2
    endloop
  endfacet
  facet normal 0.62349 0.781831 0
    outer loop
      vertex -22.4001 -0.837986 5.2
      vertex -21.0898 -1.88294 5.2
      vertex -21.0898 -1.88294 0
    endloop
  endfacet
  facet normal 1 0 0
    outer loop
      vertex -22.4001 -0.837986 5.2
      vertex -22.4001 0.837986 0
      vertex -22.4001 0.837986 5.2
    endloop
  endfacet
  facet normal 0 0 -1
    outer loop
      vertex -22.4001 0.837986 0
      vertex -20.66 4.4 0
      vertex -21.0898 1.88294 0
    endloop
  endfacet
  facet normal 0.62349 -0.781831 0
    outer loop
      vertex -22.4001 0.837986 0
      vertex -21.0898 1.88294 0
      vertex -22.4001 0.837986 5.2
    endloop
  endfacet
  facet normal 0.62349 -0.781831 0
    outer loop
      vertex -22.4001 0.837986 5.2
      vertex -21.0898 1.88294 0
      vertex -21.0898 1.88294 5.2
    endloop
  endfacet
  facet normal -0.382889 -0.923795 0
    outer loop
      vertex -22.569 -3.964 0
      vertex -22.113 -4.153 0
      vertex -22.569 -3.964 5.2
    endloop
  endfacet
  facet normal -0.382889 -0.923795 0
    outer loop
      vertex -22.569 -3.964 5.2
      vertex -22.113 -4.153 0
      vertex -22.113 -4.153 5.2
    endloop
  endfacet
  facet normal -0.382889 0.923795 0
    outer loop
      vertex -22.569 3.964 0
      vertex -22.569 3.964 5.2
      vertex -22.113 4.153 0
    endloop
  endfacet
  facet normal -0.382889 0.923795 0
    outer loop
      vertex -22.569 3.964 5.2
      vertex -22.113 4.153 5.2
      vertex -22.113 4.153 0
    endloop
  endfacet
  facet normal -0.482541 -0.875873 0
    outer loop
      vertex -23.001 -3.726 0
      vertex -22.569 -3.964 0
      vertex -23.001 -3.726 5.2
    endloop
  endfacet
  facet normal -0.482541 -0.875873 0
    outer loop
      vertex -23.001 -3.726 5.2
      vertex -22.569 -3.964 0
      vertex -22.569 -3.964 5.2
    endloop
  endfacet
  facet normal -0.482541 0.875873 0
    outer loop
      vertex -23.001 3.726 0
      vertex -23.001 3.726 5.2
      vertex -22.569 3.964 0
    endloop
  endfacet
  facet normal -0.482541 0.875873 0
    outer loop
      vertex -23.001 3.726 5.2
      vertex -22.569 3.964 5.2
      vertex -22.569 3.964 0
    endloop
  endfacet
  facet normal -0.579703 -0.814828 0
    outer loop
      vertex -23.403 -3.44 0
      vertex -23.001 -3.726 0
      vertex -23.403 -3.44 5.2
    endloop
  endfacet
  facet normal -0.579703 -0.814828 0
    outer loop
      vertex -23.403 -3.44 5.2
      vertex -23.001 -3.726 0
      vertex -23.001 -3.726 5.2
    endloop
  endfacet
  facet normal -0.579703 0.814828 0
    outer loop
      vertex -23.403 3.44 0
      vertex -23.403 3.44 5.2
      vertex -23.001 3.726 0
    endloop
  endfacet
  facet normal -0.579703 0.814828 0
    outer loop
      vertex -23.403 3.44 5.2
      vertex -23.001 3.726 5.2
      vertex -23.001 3.726 0
    endloop
  endfacet
  facet normal -0.666499 -0.745506 0
    outer loop
      vertex -23.771 -3.111 0
      vertex -23.403 -3.44 0
      vertex -23.771 -3.111 5.2
    endloop
  endfacet
  facet normal -0.666499 -0.745506 0
    outer loop
      vertex -23.771 -3.111 5.2
      vertex -23.403 -3.44 0
      vertex -23.403 -3.44 5.2
    endloop
  endfacet
  facet normal -0.666499 0.745506 0
    outer loop
      vertex -23.771 3.111 0
      vertex -23.771 3.111 5.2
      vertex -23.403 3.44 0
    endloop
  endfacet
  facet normal -0.666499 0.745506 0
    outer loop
      vertex -23.771 3.111 5.2
      vertex -23.403 3.44 5.2
      vertex -23.403 3.44 0
    endloop
  endfacet
  facet normal -0.745506 -0.666499 0
    outer loop
      vertex -24.1 -2.743 0
      vertex -23.771 -3.111 0
      vertex -24.1 -2.743 5.2
    endloop
  endfacet
  facet normal -0.745506 -0.666499 0
    outer loop
      vertex -24.1 -2.743 5.2
      vertex -23.771 -3.111 0
      vertex -23.771 -3.111 5.2
    endloop
  endfacet
  facet normal -0.745506 0.666499 0
    outer loop
      vertex -24.1 2.743 0
      vertex -24.1 2.743 5.2
      vertex -23.771 3.111 0
    endloop
  endfacet
  facet normal -0.745506 0.666499 0
    outer loop
      vertex -24.1 2.743 5.2
      vertex -23.771 3.111 5.2
      vertex -23.771 3.111 0
    endloop
  endfacet
  facet normal -0.814828 -0.579703 0
    outer loop
      vertex -24.386 -2.341 0
      vertex -24.1 -2.743 0
      vertex -24.386 -2.341 5.2
    endloop
  endfacet
  facet normal -0.814828 -0.579703 0
    outer loop
      vertex -24.386 -2.341 5.2
      vertex -24.1 -2.743 0
      vertex -24.1 -2.743 5.2
    endloop
  endfacet
  facet normal -0.814828 0.579703 0
    outer loop
      vertex -24.386 2.341 0
      vertex -24.386 2.341 5.2
      vertex -24.1 2.743 0
    endloop
  endfacet
  facet normal -0.814828 0.579703 0
    outer loop
      vertex -24.386 2.341 5.2
      vertex -24.1 2.743 5.2
      vertex -24.1 2.743 0
    endloop
  endfacet
  facet normal -0.875873 -0.482541 0
    outer loop
      vertex -24.624 -1.909 0
      vertex -24.386 -2.341 0
      vertex -24.624 -1.909 5.2
    endloop
  endfacet
  facet normal -0.875873 -0.482541 0
    outer loop
      vertex -24.624 -1.909 5.2
      vertex -24.386 -2.341 0
      vertex -24.386 -2.341 5.2
    endloop
  endfacet
  facet normal -0.875873 0.482541 0
    outer loop
      vertex -24.624 1.909 0
      vertex -24.624 1.909 5.2
      vertex -24.386 2.341 0
    endloop
  endfacet
  facet normal -0.875873 0.482541 0
    outer loop
      vertex -24.624 1.909 5.2
      vertex -24.386 2.341 5.2
      vertex -24.386 2.341 0
    endloop
  endfacet
  facet normal -0.923795 -0.382889 0
    outer loop
      vertex -24.813 -1.453 0
      vertex -24.624 -1.909 0
      vertex -24.813 -1.453 5.2
    endloop
  endfacet
  facet normal -0.923795 -0.382889 0
    outer loop
      vertex -24.813 -1.453 5.2
      vertex -24.624 -1.909 0
      vertex -24.624 -1.909 5.2
    endloop
  endfacet
  facet normal -0.923795 0.382889 0
    outer loop
      vertex -24.813 1.453 0
      vertex -24.813 1.453 5.2
      vertex -24.624 1.909 0
    endloop
  endfacet
  facet normal -0.923795 0.382889 0
    outer loop
      vertex -24.813 1.453 5.2
      vertex -24.624 1.909 5.2
      vertex -24.624 1.909 0
    endloop
  endfacet
  facet normal -0.960678 -0.277664 0
    outer loop
      vertex -24.95 -0.979 0
      vertex -24.813 -1.453 0
      vertex -24.95 -0.979 5.2
    endloop
  endfacet
  facet normal -0.960678 -0.277664 0
    outer loop
      vertex -24.95 -0.979 5.2
      vertex -24.813 -1.453 0
      vertex -24.813 -1.453 5.2
    endloop
  endfacet
  facet normal -0.960678 0.277664 0
    outer loop
      vertex -24.95 0.979 0
      vertex -24.95 0.979 5.2
      vertex -24.813 1.453 0
    endloop
  endfacet
  facet normal -0.960678 0.277664 0
    outer loop
      vertex -24.95 0.979 5.2
      vertex -24.813 1.453 5.2
      vertex -24.813 1.453 0
    endloop
  endfacet
  facet normal 0 0 -1
    outer loop
      vertex -25.032 -0.493 0
      vertex -20.66 -4.4 0
      vertex -21.153 -4.372 0
    endloop
  endfacet
  facet normal 0 0 -1
    outer loop
      vertex -25.032 -0.493 0
      vertex -20.66 4.4 0
      vertex -22.4001 0.837986 0
    endloop
  endfacet
  facet normal 0 0 -1
    outer loop
      vertex -25.032 -0.493 0
      vertex -21.153 -4.372 0
      vertex -21.639 -4.29 0
    endloop
  endfacet
  facet normal 0 0 -1
    outer loop
      vertex -25.032 -0.493 0
      vertex -21.153 4.372 0
      vertex -20.66 4.4 0
    endloop
  endfacet
  facet normal 0 0 -1
    outer loop
      vertex -25.032 -0.493 0
      vertex -21.639 -4.29 0
      vertex -22.113 -4.153 0
    endloop
  endfacet
  facet normal 0 0 -1
    outer loop
      vertex -25.032 -0.493 0
      vertex -21.639 4.29 0
      vertex -21.153 4.372 0
    endloop
  endfacet
  facet normal 0 0 -1
    outer loop
      vertex -25.032 -0.493 0
      vertex -22.113 -4.153 0
      vertex -22.569 -3.964 0
    endloop
  endfacet
  facet normal 0 0 -1
    outer loop
      vertex -25.032 -0.493 0
      vertex -22.113 4.153 0
      vertex -21.639 4.29 0
    endloop
  endfacet
  facet normal 0 0 -1
    outer loop
      vertex -25.032 -0.493 0
      vertex -22.4001 -0.837986 0
      vertex -20.66 -4.4 0
    endloop
  endfacet
  facet normal 0 0 -1
    outer loop
      vertex -25.032 -0.493 0
      vertex -22.4001 0.837986 0
      vertex -22.4001 -0.837986 0
    endloop
  endfacet
  facet normal 0 0 -1
    outer loop
      vertex -25.032 -0.493 0
      vertex -22.569 -3.964 0
      vertex -23.001 -3.726 0
    endloop
  endfacet
  facet normal 0 0 -1
    outer loop
      vertex -25.032 -0.493 0
      vertex -22.569 3.964 0
      vertex -22.113 4.153 0
    endloop
  endfacet
  facet normal 0 0 -1
    outer loop
      vertex -25.032 -0.493 0
      vertex -23.001 -3.726 0
      vertex -23.403 -3.44 0
    endloop
  endfacet
  facet normal 0 0 -1
    outer loop
      vertex -25.032 -0.493 0
      vertex -23.001 3.726 0
      vertex -22.569 3.964 0
    endloop
  endfacet
  facet normal 0 0 -1
    outer loop
      vertex -25.032 -0.493 0
      vertex -23.403 -3.44 0
      vertex -23.771 -3.111 0
    endloop
  endfacet
  facet normal 0 0 -1
    outer loop
      vertex -25.032 -0.493 0
      vertex -23.403 3.44 0
      vertex -23.001 3.726 0
    endloop
  endfacet
  facet normal 0 0 -1
    outer loop
      vertex -25.032 -0.493 0
      vertex -23.771 -3.111 0
      vertex -24.1 -2.743 0
    endloop
  endfacet
  facet normal 0 0 -1
    outer loop
      vertex -25.032 -0.493 0
      vertex -23.771 3.111 0
      vertex -23.403 3.44 0
    endloop
  endfacet
  facet normal 0 0 -1
    outer loop
      vertex -25.032 -0.493 0
      vertex -24.1 -2.743 0
      vertex -24.386 -2.341 0
    endloop
  endfacet
  facet normal 0 0 -1
    outer loop
      vertex -25.032 -0.493 0
      vertex -24.1 2.743 0
      vertex -23.771 3.111 0
    endloop
  endfacet
  facet normal 0 0 -1
    outer loop
      vertex -25.032 -0.493 0
      vertex -24.386 -2.341 0
      vertex -24.624 -1.909 0
    endloop
  endfacet
  facet normal 0 0 -1
    outer loop
      vertex -25.032 -0.493 0
      vertex -24.386 2.341 0
      vertex -24.1 2.743 0
    endloop
  endfacet
  facet normal 0 0 -1
    outer loop
      vertex -25.032 -0.493 0
      vertex -24.624 -1.909 0
      vertex -24.813 -1.453 0
    endloop
  endfacet
  facet normal 0 0 -1
    outer loop
      vertex -25.032 -0.493 0
      vertex -24.624 1.909 0
      vertex -24.386 2.341 0
    endloop
  endfacet
  facet normal 0 0 -1
    outer loop
      vertex -25.032 -0.493 0
      vertex -24.813 -1.453 0
      vertex -24.95 -0.979 0
    endloop
  endfacet
  facet normal 0 0 -1
    outer loop
      vertex -25.032 -0.493 0
      vertex -24.813 1.453 0
      vertex -24.624 1.909 0
    endloop
  endfacet
  facet normal -0.986063 -0.166373 0
    outer loop
      vertex -25.032 -0.493 0
      vertex -24.95 -0.979 0
      vertex -25.032 -0.493 5.2
    endloop
  endfacet
  facet normal 0 0 -1
    outer loop
      vertex -25.032 -0.493 0
      vertex -24.95 0.979 0
      vertex -24.813 1.453 0
    endloop
  endfacet
  facet normal 0 0 -1
    outer loop
      vertex -25.032 -0.493 0
      vertex -25.032 0.493 0
      vertex -24.95 0.979 0
    endloop
  endfacet
  facet normal -0.986063 -0.166373 0
    outer loop
      vertex -25.032 -0.493 5.2
      vertex -24.95 -0.979 0
      vertex -24.95 -0.979 5.2
    endloop
  endfacet
  facet normal 0 0 1
    outer loop
      vertex -25.032 -0.493 5.2
      vertex -24.95 -0.979 5.2
      vertex -25.032 0.493 5.2
    endloop
  endfacet
  facet normal -0.986063 0.166373 0
    outer loop
      vertex -25.032 0.493 0
      vertex -25.032 0.493 5.2
      vertex -24.95 0.979 0
    endloop
  endfacet
  facet normal 0 0 1
    outer loop
      vertex -25.032 0.493 5.2
      vertex -17.51 -4.4 5.2
      vertex -21.0898 -1.88294 5.2
    endloop
  endfacet
  facet normal 0 0 1
    outer loop
      vertex -25.032 0.493 5.2
      vertex -17.51 4.4 5.2
      vertex -20.66 4.4 5.2
    endloop
  endfacet
  facet normal 0 0 1
    outer loop
      vertex -25.032 0.493 5.2
      vertex -20.66 -4.4 5.2
      vertex -17.51 -4.4 5.2
    endloop
  endfacet
  facet normal 0 0 1
    outer loop
      vertex -25.032 0.493 5.2
      vertex -20.66 4.4 5.2
      vertex -21.153 4.372 5.2
    endloop
  endfacet
  facet normal 0 0 1
    outer loop
      vertex -25.032 0.493 5.2
      vertex -21.0898 -1.88294 5.2
      vertex -22.4001 -0.837986 5.2
    endloop
  endfacet
  facet normal 0 0 1
    outer loop
      vertex -25.032 0.493 5.2
      vertex -21.0898 1.88294 5.2
      vertex -17.51 4.4 5.2
    endloop
  endfacet
  facet normal 0 0 1
    outer loop
      vertex -25.032 0.493 5.2
      vertex -21.153 -4.372 5.2
      vertex -20.66 -4.4 5.2
    endloop
  endfacet
  facet normal 0 0 1
    outer loop
      vertex -25.032 0.493 5.2
      vertex -21.153 4.372 5.2
      vertex -21.639 4.29 5.2
    endloop
  endfacet
  facet normal 0 0 1
    outer loop
      vertex -25.032 0.493 5.2
      vertex -21.639 -4.29 5.2
      vertex -21.153 -4.372 5.2
    endloop
  endfacet
  facet normal 0 0 1
    outer loop
      vertex -25.032 0.493 5.2
      vertex -21.639 4.29 5.2
      vertex -22.113 4.153 5.2
    endloop
  endfacet
  facet normal 0 0 1
    outer loop
      vertex -25.032 0.493 5.2
      vertex -22.113 -4.153 5.2
      vertex -21.639 -4.29 5.2
    endloop
  endfacet
  facet normal 0 0 1
    outer loop
      vertex -25.032 0.493 5.2
      vertex -22.113 4.153 5.2
      vertex -22.569 3.964 5.2
    endloop
  endfacet
  facet normal 0 0 1
    outer loop
      vertex -25.032 0.493 5.2
      vertex -22.4001 -0.837986 5.2
      vertex -22.4001 0.837986 5.2
    endloop
  endfacet
  facet normal 0 0 1
    outer loop
      vertex -25.032 0.493 5.2
      vertex -22.4001 0.837986 5.2
      vertex -21.0898 1.88294 5.2
    endloop
  endfacet
  facet normal 0 0 1
    outer loop
      vertex -25.032 0.493 5.2
      vertex -22.569 -3.964 5.2
      vertex -22.113 -4.153 5.2
    endloop
  endfacet
  facet normal 0 0 1
    outer loop
      vertex -25.032 0.493 5.2
      vertex -22.569 3.964 5.2
      vertex -23.001 3.726 5.2
    endloop
  endfacet
  facet normal 0 0 1
    outer loop
      vertex -25.032 0.493 5.2
      vertex -23.001 -3.726 5.2
      vertex -22.569 -3.964 5.2
    endloop
  endfacet
  facet normal 0 0 1
    outer loop
      vertex -25.032 0.493 5.2
      vertex -23.001 3.726 5.2
      vertex -23.403 3.44 5.2
    endloop
  endfacet
  facet normal 0 0 1
    outer loop
      vertex -25.032 0.493 5.2
      vertex -23.403 -3.44 5.2
      vertex -23.001 -3.726 5.2
    endloop
  endfacet
  facet normal 0 0 1
    outer loop
      vertex -25.032 0.493 5.2
      vertex -23.403 3.44 5.2
      vertex -23.771 3.111 5.2
    endloop
  endfacet
  facet normal 0 0 1
    outer loop
      vertex -25.032 0.493 5.2
      vertex -23.771 -3.111 5.2
      vertex -23.403 -3.44 5.2
    endloop
  endfacet
  facet normal 0 0 1
    outer loop
      vertex -25.032 0.493 5.2
      vertex -23.771 3.111 5.2
      vertex -24.1 2.743 5.2
    endloop
  endfacet
  facet normal 0 0 1
    outer loop
      vertex -25.032 0.493 5.2
      vertex -24.1 -2.743 5.2
      vertex -23.771 -3.111 5.2
    endloop
  endfacet
  facet normal 0 0 1
    outer loop
      vertex -25.032 0.493 5.2
      vertex -24.1 2.743 5.2
      vertex -24.386 2.341 5.2
    endloop
  endfacet
  facet normal 0 0 1
    outer loop
      vertex -25.032 0.493 5.2
      vertex -24.386 -2.341 5.2
      vertex -24.1 -2.743 5.2
    endloop
  endfacet
  facet normal 0 0 1
    outer loop
      vertex -25.032 0.493 5.2
      vertex -24.386 2.341 5.2
      vertex -24.624 1.909 5.2
    endloop
  endfacet
  facet normal 0 0 1
    outer loop
      vertex -25.032 0.493 5.2
      vertex -24.624 -1.909 5.2
      vertex -24.386 -2.341 5.2
    endloop
  endfacet
  facet normal 0 0 1
    outer loop
      vertex -25.032 0.493 5.2
      vertex -24.624 1.909 5.2
      vertex -24.813 1.453 5.2
    endloop
  endfacet
  facet normal 0 0 1
    outer loop
      vertex -25.032 0.493 5.2
      vertex -24.813 -1.453 5.2
      vertex -24.624 -1.909 5.2
    endloop
  endfacet
  facet normal 0 0 1
    outer loop
      vertex -25.032 0.493 5.2
      vertex -24.813 1.453 5.2
      vertex -24.95 0.979 5.2
    endloop
  endfacet
  facet normal 0 0 1
    outer loop
      vertex -25.032 0.493 5.2
      vertex -24.95 -0.979 5.2
      vertex -24.813 -1.453 5.2
    endloop
  endfacet
  facet normal -0.986063 0.166373 0
    outer loop
      vertex -25.032 0.493 5.2
      vertex -24.95 0.979 5.2
      vertex -24.95 0.979 0
    endloop
  endfacet
  facet normal -0.998391 -0.0567038 0
    outer loop
      vertex -25.06 0 0
      vertex -25.032 -0.493 0
      vertex -25.06 0 5.2
    endloop
  endfacet
  facet normal 0 0 -1
    outer loop
      vertex -25.06 0 0
      vertex -25.032 0.493 0
      vertex -25.032 -0.493 0
    endloop
  endfacet
  facet normal -0.998391 0.0567038 0
    outer loop
      vertex -25.06 0 0
      vertex -25.06 0 5.2
      vertex -25.032 0.493 0
    endloop
  endfacet
  facet normal -0.998391 -0.0567038 0
    outer loop
      vertex -25.06 0 5.2
      vertex -25.032 -0.493 0
      vertex -25.032 -0.493 5.2
    endloop
  endfacet
  facet normal 0 0 1
    outer loop
      vertex -25.06 0 5.2
      vertex -25.032 -0.493 5.2
      vertex -25.032 0.493 5.2
    endloop
  endfacet
  facet normal -0.998391 0.0567038 0
    outer loop
      vertex -25.06 0 5.2
      vertex -25.032 0.493 5.2
      vertex -25.032 0.493 0
    endloop
  endfacet
  facet normal -1 0 0
    outer loop
      vertex 17.51 -4.4 4
      vertex 17.51 -4.4 5.2
      vertex 17.51 4.4 4
    endloop
  endfacet
  facet normal 0 -1 0
    outer loop
      vertex 17.51 -4.4 4
      vertex 20.66 -4.4 0
      vertex 17.51 -4.4 5.2
    endloop
  endfacet
  facet normal -1 0 0
    outer loop
      vertex 17.51 -4.4 5.2
      vertex 17.51 4.4 5.2
      vertex 17.51 4.4 4
    endloop
  endfacet
  facet normal 0 0 1
    outer loop
      vertex 17.51 -4.4 5.2
      vertex 18.9199 -0.837986 5.2
      vertex 17.51 4.4 5.2
    endloop
  endfacet
  facet normal 0 -1 0
    outer loop
      vertex 17.51 -4.4 5.2
      vertex 20.66 -4.4 0
      vertex 20.66 -4.4 5.2
    endloop
  endfacet
  facet normal 0 0 1
    outer loop
      vertex 17.51 -4.4 5.2
      vertex 20.66 -4.4 5.2
      vertex 18.9199 -0.837986 5.2
    endloop
  endfacet
  facet normal 0 1 0
    outer loop
      vertex 17.51 4.4 4
      vertex 17.51 4.4 5.2
      vertex 20.66 4.4 0
    endloop
  endfacet
  facet normal 0 0 1
    outer loop
      vertex 17.51 4.4 5.2
      vertex 18.9199 -0.837986 5.2
      vertex 18.9199 0.837986 5.2
    endloop
  endfacet
  facet normal 0 0 1
    outer loop
      vertex 17.51 4.4 5.2
      vertex 18.9199 0.837986 5.2
      vertex 20.2302 1.88294 5.2
    endloop
  endfacet
  facet normal 0 0 1
    outer loop
      vertex 17.51 4.4 5.2
      vertex 20.2302 1.88294 5.2
      vertex 21.8642 1.51 5.2
    endloop
  endfacet
  facet normal 0 1 0
    outer loop
      vertex 17.51 4.4 5.2
      vertex 20.66 4.4 5.2
      vertex 20.66 4.4 0
    endloop
  endfacet
  facet normal 0 0 1
    outer loop
      vertex 17.51 4.4 5.2
      vertex 21.153 4.372 5.2
      vertex 20.66 4.4 5.2
    endloop
  endfacet
  facet normal 0 0 1
    outer loop
      vertex 17.51 4.4 5.2
      vertex 21.639 4.29 5.2
      vertex 21.153 4.372 5.2
    endloop
  endfacet
  facet normal 0 0 1
    outer loop
      vertex 17.51 4.4 5.2
      vertex 21.8642 1.51 5.2
      vertex 25.032 -0.493 5.2
    endloop
  endfacet
  facet normal 0 0 1
    outer loop
      vertex 17.51 4.4 5.2
      vertex 22.113 4.153 5.2
      vertex 21.639 4.29 5.2
    endloop
  endfacet
  facet normal 0 0 1
    outer loop
      vertex 17.51 4.4 5.2
      vertex 22.569 3.964 5.2
      vertex 22.113 4.153 5.2
    endloop
  endfacet
  facet normal 0 0 1
    outer loop
      vertex 17.51 4.4 5.2
      vertex 23.001 3.726 5.2
      vertex 22.569 3.964 5.2
    endloop
  endfacet
  facet normal 0 0 1
    outer loop
      vertex 17.51 4.4 5.2
      vertex 23.403 3.44 5.2
      vertex 23.001 3.726 5.2
    endloop
  endfacet
  facet normal 0 0 1
    outer loop
      vertex 17.51 4.4 5.2
      vertex 23.771 3.111 5.2
      vertex 23.403 3.44 5.2
    endloop
  endfacet
  facet normal 0 0 1
    outer loop
      vertex 17.51 4.4 5.2
      vertex 24.1 2.743 5.2
      vertex 23.771 3.111 5.2
    endloop
  endfacet
  facet normal 0 0 1
    outer loop
      vertex 17.51 4.4 5.2
      vertex 24.386 2.341 5.2
      vertex 24.1 2.743 5.2
    endloop
  endfacet
  facet normal 0 0 1
    outer loop
      vertex 17.51 4.4 5.2
      vertex 24.624 1.909 5.2
      vertex 24.386 2.341 5.2
    endloop
  endfacet
  facet normal 0 0 1
    outer loop
      vertex 17.51 4.4 5.2
      vertex 24.813 1.453 5.2
      vertex 24.624 1.909 5.2
    endloop
  endfacet
  facet normal 0 0 1
    outer loop
      vertex 17.51 4.4 5.2
      vertex 24.95 0.979 5.2
      vertex 24.813 1.453 5.2
    endloop
  endfacet
  facet normal 0 0 1
    outer loop
      vertex 17.51 4.4 5.2
      vertex 25.032 -0.493 5.2
      vertex 25.06 0 5.2
    endloop
  endfacet
  facet normal 0 0 1
    outer loop
      vertex 17.51 4.4 5.2
      vertex 25.032 0.493 5.2
      vertex 24.95 0.979 5.2
    endloop
  endfacet
  facet normal 0 0 1
    outer loop
      vertex 17.51 4.4 5.2
      vertex 25.06 0 5.2
      vertex 25.032 0.493 5.2
    endloop
  endfacet
  facet normal 0.62349 0.781831 0
    outer loop
      vertex 18.9199 -0.837986 0
      vertex 18.9199 -0.837986 5.2
      vertex 20.2302 -1.88294 0
    endloop
  endfacet
  facet normal 1 0 0
    outer loop
      vertex 18.9199 -0.837986 0
      vertex 18.9199 0.837986 0
      vertex 18.9199 -0.837986 5.2
    endloop
  endfacet
  facet normal 1 0 0
    outer loop
      vertex 18.9199 -0.837986 5.2
      vertex 18.9199 0.837986 0
      vertex 18.9199 0.837986 5.2
    endloop
  endfacet
  facet normal 0.62349 0.781831 0
    outer loop
      vertex 18.9199 -0.837986 5.2
      vertex 20.2302 -1.88294 5.2
      vertex 20.2302 -1.88294 0
    endloop
  endfacet
  facet normal 0 0 1
    outer loop
      vertex 18.9199 -0.837986 5.2
      vertex 20.66 -4.4 5.2
      vertex 20.2302 -1.88294 5.2
    endloop
  endfacet
  facet normal 0.62349 -0.781831 0
    outer loop
      vertex 18.9199 0.837986 0
      vertex 20.2302 1.88294 0
      vertex 18.9199 0.837986 5.2
    endloop
  endfacet
  facet normal 0.62349 -0.781831 0
    outer loop
      vertex 18.9199 0.837986 5.2
      vertex 20.2302 1.88294 0
      vertex 20.2302 1.88294 5.2
    endloop
  endfacet
  facet normal -0.222522 0.974928 0
    outer loop
      vertex 20.2302 -1.88294 0
      vertex 20.2302 -1.88294 5.2
      vertex 21.8642 -1.51 0
    endloop
  endfacet
  facet normal 0 0 -1
    outer loop
      vertex 20.2302 -1.88294 0
      vertex 21.8642 -1.51 0
      vertex 24.624 -1.909 0
    endloop
  endfacet
  facet normal 0 0 -1
    outer loop
      vertex 20.2302 -1.88294 0
      vertex 24.624 -1.909 0
      vertex 24.386 -2.341 0
    endloop
  endfacet
  facet normal 0 0 1
    outer loop
      vertex 20.2302 -1.88294 5.2
      vertex 20.66 -4.4 5.2
      vertex 21.153 -4.372 5.2
    endloop
  endfacet
  facet normal 0 0 1
    outer loop
      vertex 20.2302 -1.88294 5.2
      vertex 21.153 -4.372 5.2
      vertex 21.639 -4.29 5.2
    endloop
  endfacet
  facet normal 0 0 1
    outer loop
      vertex 20.2302 -1.88294 5.2
      vertex 21.639 -4.29 5.2
      vertex 21.8642 -1.51 5.2
    endloop
  endfacet
  facet normal -0.222522 0.974928 0
    outer loop
      vertex 20.2302 -1.88294 5.2
      vertex 21.8642 -1.51 5.2
      vertex 21.8642 -1.51 0
    endloop
  endfacet
  facet normal -0.222522 -0.974928 0
    outer loop
      vertex 20.2302 1.88294 0
      vertex 21.8642 1.51 0
      vertex 20.2302 1.88294 5.2
    endloop
  endfacet
  facet normal 0 0 -1
    outer loop
      vertex 20.2302 1.88294 0
      vertex 24.386 2.341 0
      vertex 24.624 1.909 0
    endloop
  endfacet
  facet normal 0 0 -1
    outer loop
      vertex 20.2302 1.88294 0
      vertex 24.624 1.909 0
      vertex 21.8642 1.51 0
    endloop
  endfacet
  facet normal -0.222522 -0.974928 0
    outer loop
      vertex 20.2302 1.88294 5.2
      vertex 21.8642 1.51 0
      vertex 21.8642 1.51 5.2
    endloop
  endfacet
  facet normal 0.0567038 -0.998391 0
    outer loop
      vertex 20.66 -4.4 0
      vertex 21.153 -4.372 0
      vertex 20.66 -4.4 5.2
    endloop
  endfacet
  facet normal 0.0567038 -0.998391 0
    outer loop
      vertex 20.66 -4.4 5.2
      vertex 21.153 -4.372 0
      vertex 21.153 -4.372 5.2
    endloop
  endfacet
  facet normal 0.0567038 0.998391 0
    outer loop
      vertex 20.66 4.4 0
      vertex 20.66 4.4 5.2
      vertex 21.153 4.372 0
    endloop
  endfacet
  facet normal 0.0567038 0.998391 0
    outer loop
      vertex 20.66 4.4 5.2
      vertex 21.153 4.372 5.2
      vertex 21.153 4.372 0
    endloop
  endfacet
  facet normal 0.166373 -0.986063 0
    outer loop
      vertex 21.153 -4.372 0
      vertex 21.639 -4.29 0
      vertex 21.153 -4.372 5.2
    endloop
  endfacet
  facet normal 0.166373 -0.986063 0
    outer loop
      vertex 21.153 -4.372 5.2
      vertex 21.639 -4.29 0
      vertex 21.639 -4.29 5.2
    endloop
  endfacet
  facet normal 0.166373 0.986063 0
    outer loop
      vertex 21.153 4.372 0
      vertex 21.153 4.372 5.2
      vertex 21.639 4.29 0
    endloop
  endfacet
  facet normal 0.166373 0.986063 0
    outer loop
      vertex 21.153 4.372 5.2
      vertex 21.639 4.29 5.2
      vertex 21.639 4.29 0
    endloop
  endfacet
  facet normal 0.277664 -0.960678 0
    outer loop
      vertex 21.639 -4.29 0
      vertex 22.113 -4.153 0
      vertex 21.639 -4.29 5.2
    endloop
  endfacet
  facet normal 0.277664 -0.960678 0
    outer loop
      vertex 21.639 -4.29 5.2
      vertex 22.113 -4.153 0
      vertex 22.113 -4.153 5.2
    endloop
  endfacet
  facet normal 0 0 1
    outer loop
      vertex 21.639 -4.29 5.2
      vertex 22.113 -4.153 5.2
      vertex 21.8642 -1.51 5.2
    endloop
  endfacet
  facet normal 0.277664 0.960678 0
    outer loop
      vertex 21.639 4.29 0
      vertex 21.639 4.29 5.2
      vertex 22.113 4.153 0
    endloop
  endfacet
  facet normal 0.277664 0.960678 0
    outer loop
      vertex 21.639 4.29 5.2
      vertex 22.113 4.153 5.2
      vertex 22.113 4.153 0
    endloop
  endfacet
  facet normal -0.900969 0.433884 0
    outer loop
      vertex 21.8642 -1.51 0
      vertex 21.8642 -1.51 5.2
      vertex 22.5914 0 0
    endloop
  endfacet
  facet normal 0 0 -1
    outer loop
      vertex 21.8642 -1.51 0
      vertex 22.5914 0 0
      vertex 24.813 -1.453 0
    endloop
  endfacet
  facet normal 0 0 -1
    outer loop
      vertex 21.8642 -1.51 0
      vertex 24.813 -1.453 0
      vertex 24.624 -1.909 0
    endloop
  endfacet
  facet normal 0 0 1
    outer loop
      vertex 21.8642 -1.51 5.2
      vertex 22.113 -4.153 5.2
      vertex 22.569 -3.964 5.2
    endloop
  endfacet
  facet normal 0 0 1
    outer loop
      vertex 21.8642 -1.51 5.2
      vertex 22.569 -3.964 5.2
      vertex 23.001 -3.726 5.2
    endloop
  endfacet
  facet normal -0.900969 0.433884 0
    outer loop
      vertex 21.8642 -1.51 5.2
      vertex 22.5914 0 5.2
      vertex 22.5914 0 0
    endloop
  endfacet
  facet normal 0 0 1
    outer loop
      vertex 21.8642 -1.51 5.2
      vertex 23.001 -3.726 5.2
      vertex 23.403 -3.44 5.2
    endloop
  endfacet
  facet normal 0 0 1
    outer loop
      vertex 21.8642 -1.51 5.2
      vertex 23.403 -3.44 5.2
      vertex 22.5914 0 5.2
    endloop
  endfacet
  facet normal -0.900969 -0.433884 0
    outer loop
      vertex 21.8642 1.51 0
      vertex 22.5914 0 0
      vertex 21.8642 1.51 5.2
    endloop
  endfacet
  facet normal 0 0 -1
    outer loop
      vertex 21.8642 1.51 0
      vertex 24.624 1.909 0
      vertex 24.813 1.453 0
    endloop
  endfacet
  facet normal 0 0 -1
    outer loop
      vertex 21.8642 1.51 0
      vertex 24.813 1.453 0
      vertex 24.95 0.979 0
    endloop
  endfacet
  facet normal 0 0 -1
    outer loop
      vertex 21.8642 1.51 0
      vertex 24.95 0.979 0
      vertex 25.032 0.493 0
    endloop
  endfacet
  facet normal 0 0 -1
    outer loop
      vertex 21.8642 1.51 0
      vertex 25.032 0.493 0
      vertex 22.5914 0 0
    endloop
  endfacet
  facet normal -0.900969 -0.433884 0
    outer loop
      vertex 21.8642 1.51 5.2
      vertex 22.5914 0 0
      vertex 22.5914 0 5.2
    endloop
  endfacet
  facet normal 0 0 1
    outer loop
      vertex 21.8642 1.51 5.2
      vertex 22.5914 0 5.2
      vertex 24.813 -1.453 5.2
    endloop
  endfacet
  facet normal 0 0 1
    outer loop
      vertex 21.8642 1.51 5.2
      vertex 24.813 -1.453 5.2
      vertex 24.95 -0.979 5.2
    endloop
  endfacet
  facet normal 0 0 1
    outer loop
      vertex 21.8642 1.51 5.2
      vertex 24.95 -0.979 5.2
      vertex 25.032 -0.493 5.2
    endloop
  endfacet
  facet normal 0.382889 -0.923795 0
    outer loop
      vertex 22.113 -4.153 0
      vertex 22.569 -3.964 0
      vertex 22.113 -4.153 5.2
    endloop
  endfacet
  facet normal 0.382889 -0.923795 0
    outer loop
      vertex 22.113 -4.153 5.2
      vertex 22.569 -3.964 0
      vertex 22.569 -3.964 5.2
    endloop
  endfacet
  facet normal 0.382889 0.923795 0
    outer loop
      vertex 22.113 4.153 0
      vertex 22.113 4.153 5.2
      vertex 22.569 3.964 0
    endloop
  endfacet
  facet normal 0.382889 0.923795 0
    outer loop
      vertex 22.113 4.153 5.2
      vertex 22.569 3.964 5.2
      vertex 22.569 3.964 0
    endloop
  endfacet
  facet normal 0.482541 -0.875873 0
    outer loop
      vertex 22.569 -3.964 0
      vertex 23.001 -3.726 0
      vertex 22.569 -3.964 5.2
    endloop
  endfacet
  facet normal 0.482541 -0.875873 0
    outer loop
      vertex 22.569 -3.964 5.2
      vertex 23.001 -3.726 0
      vertex 23.001 -3.726 5.2
    endloop
  endfacet
  facet normal 0.482541 0.875873 0
    outer loop
      vertex 22.569 3.964 0
      vertex 22.569 3.964 5.2
      vertex 23.001 3.726 0
    endloop
  endfacet
  facet normal 0.482541 0.875873 0
    outer loop
      vertex 22.569 3.964 5.2
      vertex 23.001 3.726 5.2
      vertex 23.001 3.726 0
    endloop
  endfacet
  facet normal 0 0 -1
    outer loop
      vertex 22.5914 0 0
      vertex 24.95 -0.979 0
      vertex 24.813 -1.453 0
    endloop
  endfacet
  facet normal 0 0 -1
    outer loop
      vertex 22.5914 0 0
      vertex 25.032 -0.493 0
      vertex 24.95 -0.979 0
    endloop
  endfacet
  facet normal 0 0 -1
    outer loop
      vertex 22.5914 0 0
      vertex 25.032 0.493 0
      vertex 25.06 0 0
    endloop
  endfacet
  facet normal 0 0 -1
    outer loop
      vertex 22.5914 0 0
      vertex 25.06 0 0
      vertex 25.032 -0.493 0
    endloop
  endfacet
  facet normal 0 0 1
    outer loop
      vertex 22.5914 0 5.2
      vertex 23.403 -3.44 5.2
      vertex 23.771 -3.111 5.2
    endloop
  endfacet
  facet normal 0 0 1
    outer loop
      vertex 22.5914 0 5.2
      vertex 23.771 -3.111 5.2
      vertex 24.1 -2.743 5.2
    endloop
  endfacet
  facet normal 0 0 1
    outer loop
      vertex 22.5914 0 5.2
      vertex 24.1 -2.743 5.2
      vertex 24.386 -2.341 5.2
    endloop
  endfacet
  facet normal 0 0 1
    outer loop
      vertex 22.5914 0 5.2
      vertex 24.386 -2.341 5.2
      vertex 24.624 -1.909 5.2
    endloop
  endfacet
  facet normal 0 0 1
    outer loop
      vertex 22.5914 0 5.2
      vertex 24.624 -1.909 5.2
      vertex 24.813 -1.453 5.2
    endloop
  endfacet
  facet normal 0.579703 -0.814828 0
    outer loop
      vertex 23.001 -3.726 0
      vertex 23.403 -3.44 0
      vertex 23.001 -3.726 5.2
    endloop
  endfacet
  facet normal 0.579703 -0.814828 0
    outer loop
      vertex 23.001 -3.726 5.2
      vertex 23.403 -3.44 0
      vertex 23.403 -3.44 5.2
    endloop
  endfacet
  facet normal 0.579703 0.814828 0
    outer loop
      vertex 23.001 3.726 0
      vertex 23.001 3.726 5.2
      vertex 23.403 3.44 0
    endloop
  endfacet
  facet normal 0.579703 0.814828 0
    outer loop
      vertex 23.001 3.726 5.2
      vertex 23.403 3.44 5.2
      vertex 23.403 3.44 0
    endloop
  endfacet
  facet normal 0.666499 -0.745506 0
    outer loop
      vertex 23.403 -3.44 0
      vertex 23.771 -3.111 0
      vertex 23.403 -3.44 5.2
    endloop
  endfacet
  facet normal 0.666499 -0.745506 0
    outer loop
      vertex 23.403 -3.44 5.2
      vertex 23.771 -3.111 0
      vertex 23.771 -3.111 5.2
    endloop
  endfacet
  facet normal 0.666499 0.745506 0
    outer loop
      vertex 23.403 3.44 0
      vertex 23.403 3.44 5.2
      vertex 23.771 3.111 0
    endloop
  endfacet
  facet normal 0.666499 0.745506 0
    outer loop
      vertex 23.403 3.44 5.2
      vertex 23.771 3.111 5.2
      vertex 23.771 3.111 0
    endloop
  endfacet
  facet normal 0.745506 -0.666499 0
    outer loop
      vertex 23.771 -3.111 0
      vertex 24.1 -2.743 0
      vertex 23.771 -3.111 5.2
    endloop
  endfacet
  facet normal 0.745506 -0.666499 0
    outer loop
      vertex 23.771 -3.111 5.2
      vertex 24.1 -2.743 0
      vertex 24.1 -2.743 5.2
    endloop
  endfacet
  facet normal 0.745506 0.666499 0
    outer loop
      vertex 23.771 3.111 0
      vertex 23.771 3.111 5.2
      vertex 24.1 2.743 0
    endloop
  endfacet
  facet normal 0.745506 0.666499 0
    outer loop
      vertex 23.771 3.111 5.2
      vertex 24.1 2.743 5.2
      vertex 24.1 2.743 0
    endloop
  endfacet
  facet normal 0.814828 -0.579703 0
    outer loop
      vertex 24.1 -2.743 0
      vertex 24.386 -2.341 0
      vertex 24.1 -2.743 5.2
    endloop
  endfacet
  facet normal 0.814828 -0.579703 0
    outer loop
      vertex 24.1 -2.743 5.2
      vertex 24.386 -2.341 0
      vertex 24.386 -2.341 5.2
    endloop
  endfacet
  facet normal 0.814828 0.579703 0
    outer loop
      vertex 24.1 2.743 0
      vertex 24.1 2.743 5.2
      vertex 24.386 2.341 0
    endloop
  endfacet
  facet normal 0.814828 0.579703 0
    outer loop
      vertex 24.1 2.743 5.2
      vertex 24.386 2.341 5.2
      vertex 24.386 2.341 0
    endloop
  endfacet
  facet normal 0.875873 -0.482541 0
    outer loop
      vertex 24.386 -2.341 0
      vertex 24.624 -1.909 0
      vertex 24.386 -2.341 5.2
    endloop
  endfacet
  facet normal 0.875873 -0.482541 0
    outer loop
      vertex 24.386 -2.341 5.2
      vertex 24.624 -1.909 0
      vertex 24.624 -1.909 5.2
    endloop
  endfacet
  facet normal 0.875873 0.482541 0
    outer loop
      vertex 24.386 2.341 0
      vertex 24.386 2.341 5.2
      vertex 24.624 1.909 0
    endloop
  endfacet
  facet normal 0.875873 0.482541 0
    outer loop
      vertex 24.386 2.341 5.2
      vertex 24.624 1.909 5.2
      vertex 24.624 1.909 0
    endloop
  endfacet
  facet normal 0.923795 -0.382889 0
    outer loop
      vertex 24.624 -1.909 0
      vertex 24.813 -1.453 0
      vertex 24.624 -1.909 5.2
    endloop
  endfacet
  facet normal 0.923795 -0.382889 0
    outer loop
      vertex 24.624 -1.909 5.2
      vertex 24.813 -1.453 0
      vertex 24.813 -1.453 5.2
    endloop
  endfacet
  facet normal 0.923795 0.382889 0
    outer loop
      vertex 24.624 1.909 0
      vertex 24.624 1.909 5.2
      vertex 24.813 1.453 0
    endloop
  endfacet
  facet normal 0.923795 0.382889 0
    outer loop
      vertex 24.624 1.909 5.2
      vertex 24.813 1.453 5.2
      vertex 24.813 1.453 0
    endloop
  endfacet
  facet normal 0.960678 -0.277664 0
    outer loop
      vertex 24.813 -1.453 0
      vertex 24.95 -0.979 0
      vertex 24.813 -1.453 5.2
    endloop
  endfacet
  facet normal 0.960678 -0.277664 0
    outer loop
      vertex 24.813 -1.453 5.2
      vertex 24.95 -0.979 0
      vertex 24.95 -0.979 5.2
    endloop
  endfacet
  facet normal 0.960678 0.277664 0
    outer loop
      vertex 24.813 1.453 0
      vertex 24.813 1.453 5.2
      vertex 24.95 0.979 0
    endloop
  endfacet
  facet normal 0.960678 0.277664 0
    outer loop
      vertex 24.813 1.453 5.2
      vertex 24.95 0.979 5.2
      vertex 24.95 0.979 0
    endloop
  endfacet
  facet normal 0.986063 -0.166373 0
    outer loop
      vertex 24.95 -0.979 0
      vertex 25.032 -0.493 0
      vertex 24.95 -0.979 5.2
    endloop
  endfacet
  facet normal 0.986063 -0.166373 0
    outer loop
      vertex 24.95 -0.979 5.2
      vertex 25.032 -0.493 0
      vertex 25.032 -0.493 5.2
    endloop
  endfacet
  facet normal 0.986063 0.166373 0
    outer loop
      vertex 24.95 0.979 0
      vertex 24.95 0.979 5.2
      vertex 25.032 0.493 0
    endloop
  endfacet
  facet normal 0.986063 0.166373 0
    outer loop
      vertex 24.95 0.979 5.2
      vertex 25.032 0.493 5.2
      vertex 25.032 0.493 0
    endloop
  endfacet
  facet normal 0.998391 -0.0567038 0
    outer loop
      vertex 25.032 -0.493 0
      vertex 25.06 0 0
      vertex 25.032 -0.493 5.2
    endloop
  endfacet
  facet normal 0.998391 -0.0567038 0
    outer loop
      vertex 25.032 -0.493 5.2
      vertex 25.06 0 0
      vertex 25.06 0 5.2
    endloop
  endfacet
  facet normal 0.998391 0.0567038 0
    outer loop
      vertex 25.032 0.493 0
      vertex 25.032 0.493 5.2
      vertex 25.06 0 0
    endloop
  endfacet
  facet normal 0.998391 0.0567038 0
    outer loop
      vertex 25.032 0.493 5.2
      vertex 25.06 0 5.2
      vertex 25.06 0 0
    endloop
  endfacet
endsolid OpenSCAD_Model
