solid OpenSCAD_Model
  facet normal 0 0 -1
    outer loop
      vertex -11.1086 0 0
      vertex 11.2999 -0.837986 0
      vertex 12.6102 -1.88294 0
    endloop
  endfacet
  facet normal 0 0 -1
    outer loop
      vertex -11.1086 0 0
      vertex 11.2999 0.837986 0
      vertex 11.2999 -0.837986 0
    endloop
  endfacet
  facet normal 0 0 -1
    outer loop
      vertex -11.1086 0 0
      vertex 12.6102 -1.88294 0
      vertex 16.766 -2.341 0
    endloop
  endfacet
  facet normal 0 0 -1
    outer loop
      vertex -11.1086 0 0
      vertex 12.6102 1.88294 0
      vertex 11.2999 0.837986 0
    endloop
  endfacet
  facet normal 0 0 -1
    outer loop
      vertex -11.1086 0 0
      vertex 13.533 -4.372 0
      vertex 13.04 -4.4 0
    endloop
  endfacet
  facet normal 0 0 -1
    outer loop
      vertex -11.1086 0 0
      vertex 14.019 -4.29 0
      vertex 13.533 -4.372 0
    endloop
  endfacet
  facet normal 0 0 -1
    outer loop
      vertex -11.1086 0 0
      vertex 14.493 -4.153 0
      vertex 14.019 -4.29 0
    endloop
  endfacet
  facet normal 0 0 -1
    outer loop
      vertex -11.1086 0 0
      vertex 14.949 -3.964 0
      vertex 14.493 -4.153 0
    endloop
  endfacet
  facet normal 0 0 -1
    outer loop
      vertex -11.1086 0 0
      vertex 15.381 -3.726 0
      vertex 14.949 -3.964 0
    endloop
  endfacet
  facet normal 0 0 -1
    outer loop
      vertex -11.1086 0 0
      vertex 15.783 -3.44 0
      vertex 15.381 -3.726 0
    endloop
  endfacet
  facet normal 0 0 -1
    outer loop
      vertex -11.1086 0 0
      vertex 16.151 -3.111 0
      vertex 15.783 -3.44 0
    endloop
  endfacet
  facet normal 0 0 -1
    outer loop
      vertex -11.1086 0 0
      vertex 16.48 -2.743 0
      vertex 16.151 -3.111 0
    endloop
  endfacet
  facet normal 0 0 -1
    outer loop
      vertex -11.1086 0 0
      vertex 16.766 -2.341 0
      vertex 16.48 -2.743 0
    endloop
  endfacet
  facet normal 0 0 -1
    outer loop
      vertex -11.1086 0 0
      vertex 16.766 2.341 0
      vertex 12.6102 1.88294 0
    endloop
  endfacet
  facet normal 0 0 1
    outer loop
      vertex -11.1086 0 5.2
      vertex -9.89 -4.4 5.2
      vertex -9.89 4.4 5.2
    endloop
  endfacet
  facet normal 0 0 -1
    outer loop
      vertex -11.8358 -1.51 0
      vertex -11.1086 0 0
      vertex 13.04 -4.4 0
    endloop
  endfacet
  facet normal -0.900969 0.433884 0
    outer loop
      vertex -11.8358 -1.51 0
      vertex -11.8358 -1.51 5.2
      vertex -11.1086 0 0
    endloop
  endfacet
  facet normal -0.900969 0.433884 0
    outer loop
      vertex -11.8358 -1.51 5.2
      vertex -11.1086 0 5.2
      vertex -11.1086 0 0
    endloop
  endfacet
  facet normal 0 0 1
    outer loop
      vertex -11.8358 -1.51 5.2
      vertex -9.89 -4.4 5.2
      vertex -11.1086 0 5.2
    endloop
  endfacet
  facet normal -0.900969 -0.433884 0
    outer loop
      vertex -11.8358 1.51 0
      vertex -11.1086 0 0
      vertex -11.8358 1.51 5.2
    endloop
  endfacet
  facet normal 0 0 -1
    outer loop
      vertex -11.8358 1.51 0
      vertex 13.04 4.4 0
      vertex 13.533 4.372 0
    endloop
  endfacet
  facet normal 0 0 -1
    outer loop
      vertex -11.8358 1.51 0
      vertex 13.533 4.372 0
      vertex 14.019 4.29 0
    endloop
  endfacet
  facet normal 0 0 -1
    outer loop
      vertex -11.8358 1.51 0
      vertex 14.019 4.29 0
      vertex 14.493 4.153 0
    endloop
  endfacet
  facet normal 0 0 -1
    outer loop
      vertex -11.8358 1.51 0
      vertex 14.493 4.153 0
      vertex 14.949 3.964 0
    endloop
  endfacet
  facet normal 0 0 -1
    outer loop
      vertex -11.8358 1.51 0
      vertex 14.949 3.964 0
      vertex 15.381 3.726 0
    endloop
  endfacet
  facet normal 0 0 -1
    outer loop
      vertex -11.8358 1.51 0
      vertex 15.381 3.726 0
      vertex 15.783 3.44 0
    endloop
  endfacet
  facet normal 0 0 -1
    outer loop
      vertex -11.8358 1.51 0
      vertex 15.783 3.44 0
      vertex 16.151 3.111 0
    endloop
  endfacet
  facet normal 0 0 -1
    outer loop
      vertex -11.8358 1.51 0
      vertex 16.151 3.111 0
      vertex 16.48 2.743 0
    endloop
  endfacet
  facet normal 0 0 -1
    outer loop
      vertex -11.8358 1.51 0
      vertex 16.48 2.743 0
      vertex 16.766 2.341 0
    endloop
  endfacet
  facet normal 0 0 -1
    outer loop
      vertex -11.8358 1.51 0
      vertex 16.766 2.341 0
      vertex -11.1086 0 0
    endloop
  endfacet
  facet normal -0.900969 -0.433884 0
    outer loop
      vertex -11.8358 1.51 5.2
      vertex -11.1086 0 0
      vertex -11.1086 0 5.2
    endloop
  endfacet
  facet normal 0 0 1
    outer loop
      vertex -11.8358 1.51 5.2
      vertex -11.1086 0 5.2
      vertex -9.89 4.4 5.2
    endloop
  endfacet
  facet normal 0 -1 0
    outer loop
      vertex -13.04 -4.4 0
      vertex -9.89 -4.4 4
      vertex -13.04 -4.4 5.2
    endloop
  endfacet
  facet normal 0 -1 0
    outer loop
      vertex -13.04 -4.4 0
      vertex 13.04 -4.4 0
      vertex -9.89 -4.4 4
    endloop
  endfacet
  facet normal 0 -1 0
    outer loop
      vertex -13.04 -4.4 5.2
      vertex -9.89 -4.4 4
      vertex -9.89 -4.4 5.2
    endloop
  endfacet
  facet normal 0 1 0
    outer loop
      vertex -13.04 4.4 0
      vertex -13.04 4.4 5.2
      vertex -9.89 4.4 4
    endloop
  endfacet
  facet normal 0 1 0
    outer loop
      vertex -13.04 4.4 0
      vertex -9.89 4.4 4
      vertex 13.04 4.4 0
    endloop
  endfacet
  facet normal 0 0 -1
    outer loop
      vertex -13.04 4.4 0
      vertex 13.04 4.4 0
      vertex -11.8358 1.51 0
    endloop
  endfacet
  facet normal 0 1 0
    outer loop
      vertex -13.04 4.4 5.2
      vertex -9.89 4.4 5.2
      vertex -9.89 4.4 4
    endloop
  endfacet
  facet normal 0 0 -1
    outer loop
      vertex -13.4698 -1.88294 0
      vertex -11.8358 -1.51 0
      vertex 13.04 -4.4 0
    endloop
  endfacet
  facet normal -0.222522 0.974928 0
    outer loop
      vertex -13.4698 -1.88294 0
      vertex -13.4698 -1.88294 5.2
      vertex -11.8358 -1.51 0
    endloop
  endfacet
  facet normal 0 0 -1
    outer loop
      vertex -13.4698 -1.88294 0
      vertex 13.04 -4.4 0
      vertex -13.04 -4.4 0
    endloop
  endfacet
  facet normal -0.222522 0.974928 0
    outer loop
      vertex -13.4698 -1.88294 5.2
      vertex -11.8358 -1.51 5.2
      vertex -11.8358 -1.51 0
    endloop
  endfacet
  facet normal 0 0 1
    outer loop
      vertex -13.4698 -1.88294 5.2
      vertex -9.89 -4.4 5.2
      vertex -11.8358 -1.51 5.2
    endloop
  endfacet
  facet normal -0.222522 -0.974928 0
    outer loop
      vertex -13.4698 1.88294 0
      vertex -11.8358 1.51 0
      vertex -13.4698 1.88294 5.2
    endloop
  endfacet
  facet normal 0 0 -1
    outer loop
      vertex -13.4698 1.88294 0
      vertex -13.04 4.4 0
      vertex -11.8358 1.51 0
    endloop
  endfacet
  facet normal -0.222522 -0.974928 0
    outer loop
      vertex -13.4698 1.88294 5.2
      vertex -11.8358 1.51 0
      vertex -11.8358 1.51 5.2
    endloop
  endfacet
  facet normal 0 0 1
    outer loop
      vertex -13.4698 1.88294 5.2
      vertex -11.8358 1.51 5.2
      vertex -9.89 4.4 5.2
    endloop
  endfacet
  facet normal -0.0567038 -0.998391 0
    outer loop
      vertex -13.533 -4.372 0
      vertex -13.04 -4.4 0
      vertex -13.533 -4.372 5.2
    endloop
  endfacet
  facet normal -0.0567038 -0.998391 0
    outer loop
      vertex -13.533 -4.372 5.2
      vertex -13.04 -4.4 0
      vertex -13.04 -4.4 5.2
    endloop
  endfacet
  facet normal -0.0567038 0.998391 0
    outer loop
      vertex -13.533 4.372 0
      vertex -13.533 4.372 5.2
      vertex -13.04 4.4 0
    endloop
  endfacet
  facet normal -0.0567038 0.998391 0
    outer loop
      vertex -13.533 4.372 5.2
      vertex -13.04 4.4 5.2
      vertex -13.04 4.4 0
    endloop
  endfacet
  facet normal -0.166373 -0.986063 0
    outer loop
      vertex -14.019 -4.29 0
      vertex -13.533 -4.372 0
      vertex -14.019 -4.29 5.2
    endloop
  endfacet
  facet normal -0.166373 -0.986063 0
    outer loop
      vertex -14.019 -4.29 5.2
      vertex -13.533 -4.372 0
      vertex -13.533 -4.372 5.2
    endloop
  endfacet
  facet normal -0.166373 0.986063 0
    outer loop
      vertex -14.019 4.29 0
      vertex -14.019 4.29 5.2
      vertex -13.533 4.372 0
    endloop
  endfacet
  facet normal -0.166373 0.986063 0
    outer loop
      vertex -14.019 4.29 5.2
      vertex -13.533 4.372 5.2
      vertex -13.533 4.372 0
    endloop
  endfacet
  facet normal -0.277664 -0.960678 0
    outer loop
      vertex -14.493 -4.153 0
      vertex -14.019 -4.29 0
      vertex -14.493 -4.153 5.2
    endloop
  endfacet
  facet normal -0.277664 -0.960678 0
    outer loop
      vertex -14.493 -4.153 5.2
      vertex -14.019 -4.29 0
      vertex -14.019 -4.29 5.2
    endloop
  endfacet
  facet normal -0.277664 0.960678 0
    outer loop
      vertex -14.493 4.153 0
      vertex -14.493 4.153 5.2
      vertex -14.019 4.29 0
    endloop
  endfacet
  facet normal -0.277664 0.960678 0
    outer loop
      vertex -14.493 4.153 5.2
      vertex -14.019 4.29 5.2
      vertex -14.019 4.29 0
    endloop
  endfacet
  facet normal 0 0 -1
    outer loop
      vertex -14.7801 -0.837986 0
      vertex -13.4698 -1.88294 0
      vertex -13.04 -4.4 0
    endloop
  endfacet
  facet normal 0.62349 0.781831 0
    outer loop
      vertex -14.7801 -0.837986 0
      vertex -14.7801 -0.837986 5.2
      vertex -13.4698 -1.88294 0
    endloop
  endfacet
  facet normal 1 0 0
    outer loop
      vertex -14.7801 -0.837986 0
      vertex -14.7801 0.837986 0
      vertex -14.7801 -0.837986 5.2
    endloop
  endfacet
  facet normal 0.62349 0.781831 0
    outer loop
      vertex -14.7801 -0.837986 5.2
      vertex -13.4698 -1.88294 5.2
      vertex -13.4698 -1.88294 0
    endloop
  endfacet
  facet normal 1 0 0
    outer loop
      vertex -14.7801 -0.837986 5.2
      vertex -14.7801 0.837986 0
      vertex -14.7801 0.837986 5.2
    endloop
  endfacet
  facet normal 0 0 -1
    outer loop
      vertex -14.7801 0.837986 0
      vertex -13.04 4.4 0
      vertex -13.4698 1.88294 0
    endloop
  endfacet
  facet normal 0.62349 -0.781831 0
    outer loop
      vertex -14.7801 0.837986 0
      vertex -13.4698 1.88294 0
      vertex -14.7801 0.837986 5.2
    endloop
  endfacet
  facet normal 0.62349 -0.781831 0
    outer loop
      vertex -14.7801 0.837986 5.2
      vertex -13.4698 1.88294 0
      vertex -13.4698 1.88294 5.2
    endloop
  endfacet
  facet normal -0.382889 -0.923795 0
    outer loop
      vertex -14.949 -3.964 0
      vertex -14.493 -4.153 0
      vertex -14.949 -3.964 5.2
    endloop
  endfacet
  facet normal -0.382889 -0.923795 0
    outer loop
      vertex -14.949 -3.964 5.2
      vertex -14.493 -4.153 0
      vertex -14.493 -4.153 5.2
    endloop
  endfacet
  facet normal -0.382889 0.923795 0
    outer loop
      vertex -14.949 3.964 0
      vertex -14.949 3.964 5.2
      vertex -14.493 4.153 0
    endloop
  endfacet
  facet normal -0.382889 0.923795 0
    outer loop
      vertex -14.949 3.964 5.2
      vertex -14.493 4.153 5.2
      vertex -14.493 4.153 0
    endloop
  endfacet
  facet normal -0.482541 -0.875873 0
    outer loop
      vertex -15.381 -3.726 0
      vertex -14.949 -3.964 0
      vertex -15.381 -3.726 5.2
    endloop
  endfacet
  facet normal -0.482541 -0.875873 0
    outer loop
      vertex -15.381 -3.726 5.2
      vertex -14.949 -3.964 0
      vertex -14.949 -3.964 5.2
    endloop
  endfacet
  facet normal -0.482541 0.875873 0
    outer loop
      vertex -15.381 3.726 0
      vertex -15.381 3.726 5.2
      vertex -14.949 3.964 0
    endloop
  endfacet
  facet normal -0.482541 0.875873 0
    outer loop
      vertex -15.381 3.726 5.2
      vertex -14.949 3.964 5.2
      vertex -14.949 3.964 0
    endloop
  endfacet
  facet normal -0.579703 -0.814828 0
    outer loop
      vertex -15.783 -3.44 0
      vertex -15.381 -3.726 0
      vertex -15.783 -3.44 5.2
    endloop
  endfacet
  facet normal -0.579703 -0.814828 0
    outer loop
      vertex -15.783 -3.44 5.2
      vertex -15.381 -3.726 0
      vertex -15.381 -3.726 5.2
    endloop
  endfacet
  facet normal -0.579703 0.814828 0
    outer loop
      vertex -15.783 3.44 0
      vertex -15.783 3.44 5.2
      vertex -15.381 3.726 0
    endloop
  endfacet
  facet normal -0.579703 0.814828 0
    outer loop
      vertex -15.783 3.44 5.2
      vertex -15.381 3.726 5.2
      vertex -15.381 3.726 0
    endloop
  endfacet
  facet normal -0.666499 -0.745506 0
    outer loop
      vertex -16.151 -3.111 0
      vertex -15.783 -3.44 0
      vertex -16.151 -3.111 5.2
    endloop
  endfacet
  facet normal -0.666499 -0.745506 0
    outer loop
      vertex -16.151 -3.111 5.2
      vertex -15.783 -3.44 0
      vertex -15.783 -3.44 5.2
    endloop
  endfacet
  facet normal -0.666499 0.745506 0
    outer loop
      vertex -16.151 3.111 0
      vertex -16.151 3.111 5.2
      vertex -15.783 3.44 0
    endloop
  endfacet
  facet normal -0.666499 0.745506 0
    outer loop
      vertex -16.151 3.111 5.2
      vertex -15.783 3.44 5.2
      vertex -15.783 3.44 0
    endloop
  endfacet
  facet normal -0.745506 -0.666499 0
    outer loop
      vertex -16.48 -2.743 0
      vertex -16.151 -3.111 0
      vertex -16.48 -2.743 5.2
    endloop
  endfacet
  facet normal -0.745506 -0.666499 0
    outer loop
      vertex -16.48 -2.743 5.2
      vertex -16.151 -3.111 0
      vertex -16.151 -3.111 5.2
    endloop
  endfacet
  facet normal -0.745506 0.666499 0
    outer loop
      vertex -16.48 2.743 0
      vertex -16.48 2.743 5.2
      vertex -16.151 3.111 0
    endloop
  endfacet
  facet normal -0.745506 0.666499 0
    outer loop
      vertex -16.48 2.743 5.2
      vertex -16.151 3.111 5.2
      vertex -16.151 3.111 0
    endloop
  endfacet
  facet normal -0.814828 -0.579703 0
    outer loop
      vertex -16.766 -2.341 0
      vertex -16.48 -2.743 0
      vertex -16.766 -2.341 5.2
    endloop
  endfacet
  facet normal -0.814828 -0.579703 0
    outer loop
      vertex -16.766 -2.341 5.2
      vertex -16.48 -2.743 0
      vertex -16.48 -2.743 5.2
    endloop
  endfacet
  facet normal -0.814828 0.579703 0
    outer loop
      vertex -16.766 2.341 0
      vertex -16.766 2.341 5.2
      vertex -16.48 2.743 0
    endloop
  endfacet
  facet normal -0.814828 0.579703 0
    outer loop
      vertex -16.766 2.341 5.2
      vertex -16.48 2.743 5.2
      vertex -16.48 2.743 0
    endloop
  endfacet
  facet normal -0.875873 -0.482541 0
    outer loop
      vertex -17.004 -1.909 0
      vertex -16.766 -2.341 0
      vertex -17.004 -1.909 5.2
    endloop
  endfacet
  facet normal -0.875873 -0.482541 0
    outer loop
      vertex -17.004 -1.909 5.2
      vertex -16.766 -2.341 0
      vertex -16.766 -2.341 5.2
    endloop
  endfacet
  facet normal -0.875873 0.482541 0
    outer loop
      vertex -17.004 1.909 0
      vertex -17.004 1.909 5.2
      vertex -16.766 2.341 0
    endloop
  endfacet
  facet normal -0.875873 0.482541 0
    outer loop
      vertex -17.004 1.909 5.2
      vertex -16.766 2.341 5.2
      vertex -16.766 2.341 0
    endloop
  endfacet
  facet normal -0.923795 -0.382889 0
    outer loop
      vertex -17.193 -1.453 0
      vertex -17.004 -1.909 0
      vertex -17.193 -1.453 5.2
    endloop
  endfacet
  facet normal -0.923795 -0.382889 0
    outer loop
      vertex -17.193 -1.453 5.2
      vertex -17.004 -1.909 0
      vertex -17.004 -1.909 5.2
    endloop
  endfacet
  facet normal -0.923795 0.382889 0
    outer loop
      vertex -17.193 1.453 0
      vertex -17.193 1.453 5.2
      vertex -17.004 1.909 0
    endloop
  endfacet
  facet normal -0.923795 0.382889 0
    outer loop
      vertex -17.193 1.453 5.2
      vertex -17.004 1.909 5.2
      vertex -17.004 1.909 0
    endloop
  endfacet
  facet normal -0.960678 -0.277664 0
    outer loop
      vertex -17.33 -0.979 0
      vertex -17.193 -1.453 0
      vertex -17.33 -0.979 5.2
    endloop
  endfacet
  facet normal -0.960678 -0.277664 0
    outer loop
      vertex -17.33 -0.979 5.2
      vertex -17.193 -1.453 0
      vertex -17.193 -1.453 5.2
    endloop
  endfacet
  facet normal -0.960678 0.277664 0
    outer loop
      vertex -17.33 0.979 0
      vertex -17.33 0.979 5.2
      vertex -17.193 1.453 0
    endloop
  endfacet
  facet normal -0.960678 0.277664 0
    outer loop
      vertex -17.33 0.979 5.2
      vertex -17.193 1.453 5.2
      vertex -17.193 1.453 0
    endloop
  endfacet
  facet normal 0 0 -1
    outer loop
      vertex -17.412 -0.493 0
      vertex -13.04 -4.4 0
      vertex -13.533 -4.372 0
    endloop
  endfacet
  facet normal 0 0 -1
    outer loop
      vertex -17.412 -0.493 0
      vertex -13.04 4.4 0
      vertex -14.7801 0.837986 0
    endloop
  endfacet
  facet normal 0 0 -1
    outer loop
      vertex -17.412 -0.493 0
      vertex -13.533 -4.372 0
      vertex -14.019 -4.29 0
    endloop
  endfacet
  facet normal 0 0 -1
    outer loop
      vertex -17.412 -0.493 0
      vertex -13.533 4.372 0
      vertex -13.04 4.4 0
    endloop
  endfacet
  facet normal 0 0 -1
    outer loop
      vertex -17.412 -0.493 0
      vertex -14.019 -4.29 0
      vertex -14.493 -4.153 0
    endloop
  endfacet
  facet normal 0 0 -1
    outer loop
      vertex -17.412 -0.493 0
      vertex -14.019 4.29 0
      vertex -13.533 4.372 0
    endloop
  endfacet
  facet normal 0 0 -1
    outer loop
      vertex -17.412 -0.493 0
      vertex -14.493 -4.153 0
      vertex -14.949 -3.964 0
    endloop
  endfacet
  facet normal 0 0 -1
    outer loop
      vertex -17.412 -0.493 0
      vertex -14.493 4.153 0
      vertex -14.019 4.29 0
    endloop
  endfacet
  facet normal 0 0 -1
    outer loop
      vertex -17.412 -0.493 0
      vertex -14.7801 -0.837986 0
      vertex -13.04 -4.4 0
    endloop
  endfacet
  facet normal 0 0 -1
    outer loop
      vertex -17.412 -0.493 0
      vertex -14.7801 0.837986 0
      vertex -14.7801 -0.837986 0
    endloop
  endfacet
  facet normal 0 0 -1
    outer loop
      vertex -17.412 -0.493 0
      vertex -14.949 -3.964 0
      vertex -15.381 -3.726 0
    endloop
  endfacet
  facet normal 0 0 -1
    outer loop
      vertex -17.412 -0.493 0
      vertex -14.949 3.964 0
      vertex -14.493 4.153 0
    endloop
  endfacet
  facet normal 0 0 -1
    outer loop
      vertex -17.412 -0.493 0
      vertex -15.381 -3.726 0
      vertex -15.783 -3.44 0
    endloop
  endfacet
  facet normal 0 0 -1
    outer loop
      vertex -17.412 -0.493 0
      vertex -15.381 3.726 0
      vertex -14.949 3.964 0
    endloop
  endfacet
  facet normal 0 0 -1
    outer loop
      vertex -17.412 -0.493 0
      vertex -15.783 -3.44 0
      vertex -16.151 -3.111 0
    endloop
  endfacet
  facet normal 0 0 -1
    outer loop
      vertex -17.412 -0.493 0
      vertex -15.783 3.44 0
      vertex -15.381 3.726 0
    endloop
  endfacet
  facet normal 0 0 -1
    outer loop
      vertex -17.412 -0.493 0
      vertex -16.151 -3.111 0
      vertex -16.48 -2.743 0
    endloop
  endfacet
  facet normal 0 0 -1
    outer loop
      vertex -17.412 -0.493 0
      vertex -16.151 3.111 0
      vertex -15.783 3.44 0
    endloop
  endfacet
  facet normal 0 0 -1
    outer loop
      vertex -17.412 -0.493 0
      vertex -16.48 -2.743 0
      vertex -16.766 -2.341 0
    endloop
  endfacet
  facet normal 0 0 -1
    outer loop
      vertex -17.412 -0.493 0
      vertex -16.48 2.743 0
      vertex -16.151 3.111 0
    endloop
  endfacet
  facet normal 0 0 -1
    outer loop
      vertex -17.412 -0.493 0
      vertex -16.766 -2.341 0
      vertex -17.004 -1.909 0
    endloop
  endfacet
  facet normal 0 0 -1
    outer loop
      vertex -17.412 -0.493 0
      vertex -16.766 2.341 0
      vertex -16.48 2.743 0
    endloop
  endfacet
  facet normal 0 0 -1
    outer loop
      vertex -17.412 -0.493 0
      vertex -17.004 -1.909 0
      vertex -17.193 -1.453 0
    endloop
  endfacet
  facet normal 0 0 -1
    outer loop
      vertex -17.412 -0.493 0
      vertex -17.004 1.909 0
      vertex -16.766 2.341 0
    endloop
  endfacet
  facet normal 0 0 -1
    outer loop
      vertex -17.412 -0.493 0
      vertex -17.193 -1.453 0
      vertex -17.33 -0.979 0
    endloop
  endfacet
  facet normal 0 0 -1
    outer loop
      vertex -17.412 -0.493 0
      vertex -17.193 1.453 0
      vertex -17.004 1.909 0
    endloop
  endfacet
  facet normal -0.986063 -0.166373 0
    outer loop
      vertex -17.412 -0.493 0
      vertex -17.33 -0.979 0
      vertex -17.412 -0.493 5.2
    endloop
  endfacet
  facet normal 0 0 -1
    outer loop
      vertex -17.412 -0.493 0
      vertex -17.33 0.979 0
      vertex -17.193 1.453 0
    endloop
  endfacet
  facet normal 0 0 -1
    outer loop
      vertex -17.412 -0.493 0
      vertex -17.412 0.493 0
      vertex -17.33 0.979 0
    endloop
  endfacet
  facet normal -0.986063 -0.166373 0
    outer loop
      vertex -17.412 -0.493 5.2
      vertex -17.33 -0.979 0
      vertex -17.33 -0.979 5.2
    endloop
  endfacet
  facet normal 0 0 1
    outer loop
      vertex -17.412 -0.493 5.2
      vertex -17.33 -0.979 5.2
      vertex -17.412 0.493 5.2
    endloop
  endfacet
  facet normal -0.986063 0.166373 0
    outer loop
      vertex -17.412 0.493 0
      vertex -17.412 0.493 5.2
      vertex -17.33 0.979 0
    endloop
  endfacet
  facet normal 0 0 1
    outer loop
      vertex -17.412 0.493 5.2
      vertex -13.04 -4.4 5.2
      vertex -9.89 -4.4 5.2
    endloop
  endfacet
  facet normal 0 0 1
    outer loop
      vertex -17.412 0.493 5.2
      vertex -13.04 4.4 5.2
      vertex -13.533 4.372 5.2
    endloop
  endfacet
  facet normal 0 0 1
    outer loop
      vertex -17.412 0.493 5.2
      vertex -13.4698 -1.88294 5.2
      vertex -14.7801 -0.837986 5.2
    endloop
  endfacet
  facet normal 0 0 1
    outer loop
      vertex -17.412 0.493 5.2
      vertex -13.4698 1.88294 5.2
      vertex -9.89 4.4 5.2
    endloop
  endfacet
  facet normal 0 0 1
    outer loop
      vertex -17.412 0.493 5.2
      vertex -13.533 -4.372 5.2
      vertex -13.04 -4.4 5.2
    endloop
  endfacet
  facet normal 0 0 1
    outer loop
      vertex -17.412 0.493 5.2
      vertex -13.533 4.372 5.2
      vertex -14.019 4.29 5.2
    endloop
  endfacet
  facet normal 0 0 1
    outer loop
      vertex -17.412 0.493 5.2
      vertex -14.019 -4.29 5.2
      vertex -13.533 -4.372 5.2
    endloop
  endfacet
  facet normal 0 0 1
    outer loop
      vertex -17.412 0.493 5.2
      vertex -14.019 4.29 5.2
      vertex -14.493 4.153 5.2
    endloop
  endfacet
  facet normal 0 0 1
    outer loop
      vertex -17.412 0.493 5.2
      vertex -14.493 -4.153 5.2
      vertex -14.019 -4.29 5.2
    endloop
  endfacet
  facet normal 0 0 1
    outer loop
      vertex -17.412 0.493 5.2
      vertex -14.493 4.153 5.2
      vertex -14.949 3.964 5.2
    endloop
  endfacet
  facet normal 0 0 1
    outer loop
      vertex -17.412 0.493 5.2
      vertex -14.7801 -0.837986 5.2
      vertex -14.7801 0.837986 5.2
    endloop
  endfacet
  facet normal 0 0 1
    outer loop
      vertex -17.412 0.493 5.2
      vertex -14.7801 0.837986 5.2
      vertex -13.4698 1.88294 5.2
    endloop
  endfacet
  facet normal 0 0 1
    outer loop
      vertex -17.412 0.493 5.2
      vertex -14.949 -3.964 5.2
      vertex -14.493 -4.153 5.2
    endloop
  endfacet
  facet normal 0 0 1
    outer loop
      vertex -17.412 0.493 5.2
      vertex -14.949 3.964 5.2
      vertex -15.381 3.726 5.2
    endloop
  endfacet
  facet normal 0 0 1
    outer loop
      vertex -17.412 0.493 5.2
      vertex -15.381 -3.726 5.2
      vertex -14.949 -3.964 5.2
    endloop
  endfacet
  facet normal 0 0 1
    outer loop
      vertex -17.412 0.493 5.2
      vertex -15.381 3.726 5.2
      vertex -15.783 3.44 5.2
    endloop
  endfacet
  facet normal 0 0 1
    outer loop
      vertex -17.412 0.493 5.2
      vertex -15.783 -3.44 5.2
      vertex -15.381 -3.726 5.2
    endloop
  endfacet
  facet normal 0 0 1
    outer loop
      vertex -17.412 0.493 5.2
      vertex -15.783 3.44 5.2
      vertex -16.151 3.111 5.2
    endloop
  endfacet
  facet normal 0 0 1
    outer loop
      vertex -17.412 0.493 5.2
      vertex -16.151 -3.111 5.2
      vertex -15.783 -3.44 5.2
    endloop
  endfacet
  facet normal 0 0 1
    outer loop
      vertex -17.412 0.493 5.2
      vertex -16.151 3.111 5.2
      vertex -16.48 2.743 5.2
    endloop
  endfacet
  facet normal 0 0 1
    outer loop
      vertex -17.412 0.493 5.2
      vertex -16.48 -2.743 5.2
      vertex -16.151 -3.111 5.2
    endloop
  endfacet
  facet normal 0 0 1
    outer loop
      vertex -17.412 0.493 5.2
      vertex -16.48 2.743 5.2
      vertex -16.766 2.341 5.2
    endloop
  endfacet
  facet normal 0 0 1
    outer loop
      vertex -17.412 0.493 5.2
      vertex -16.766 -2.341 5.2
      vertex -16.48 -2.743 5.2
    endloop
  endfacet
  facet normal 0 0 1
    outer loop
      vertex -17.412 0.493 5.2
      vertex -16.766 2.341 5.2
      vertex -17.004 1.909 5.2
    endloop
  endfacet
  facet normal 0 0 1
    outer loop
      vertex -17.412 0.493 5.2
      vertex -17.004 -1.909 5.2
      vertex -16.766 -2.341 5.2
    endloop
  endfacet
  facet normal 0 0 1
    outer loop
      vertex -17.412 0.493 5.2
      vertex -17.004 1.909 5.2
      vertex -17.193 1.453 5.2
    endloop
  endfacet
  facet normal 0 0 1
    outer loop
      vertex -17.412 0.493 5.2
      vertex -17.193 -1.453 5.2
      vertex -17.004 -1.909 5.2
    endloop
  endfacet
  facet normal 0 0 1
    outer loop
      vertex -17.412 0.493 5.2
      vertex -17.193 1.453 5.2
      vertex -17.33 0.979 5.2
    endloop
  endfacet
  facet normal 0 0 1
    outer loop
      vertex -17.412 0.493 5.2
      vertex -17.33 -0.979 5.2
      vertex -17.193 -1.453 5.2
    endloop
  endfacet
  facet normal -0.986063 0.166373 0
    outer loop
      vertex -17.412 0.493 5.2
      vertex -17.33 0.979 5.2
      vertex -17.33 0.979 0
    endloop
  endfacet
  facet normal 0 0 1
    outer loop
      vertex -17.412 0.493 5.2
      vertex -9.89 -4.4 5.2
      vertex -13.4698 -1.88294 5.2
    endloop
  endfacet
  facet normal 0 0 1
    outer loop
      vertex -17.412 0.493 5.2
      vertex -9.89 4.4 5.2
      vertex -13.04 4.4 5.2
    endloop
  endfacet
  facet normal -0.998391 -0.0567038 0
    outer loop
      vertex -17.44 0 0
      vertex -17.412 -0.493 0
      vertex -17.44 0 5.2
    endloop
  endfacet
  facet normal 0 0 -1
    outer loop
      vertex -17.44 0 0
      vertex -17.412 0.493 0
      vertex -17.412 -0.493 0
    endloop
  endfacet
  facet normal -0.998391 0.0567038 0
    outer loop
      vertex -17.44 0 0
      vertex -17.44 0 5.2
      vertex -17.412 0.493 0
    endloop
  endfacet
  facet normal -0.998391 -0.0567038 0
    outer loop
      vertex -17.44 0 5.2
      vertex -17.412 -0.493 0
      vertex -17.412 -0.493 5.2
    endloop
  endfacet
  facet normal 0 0 1
    outer loop
      vertex -17.44 0 5.2
      vertex -17.412 -0.493 5.2
      vertex -17.412 0.493 5.2
    endloop
  endfacet
  facet normal -0.998391 0.0567038 0
    outer loop
      vertex -17.44 0 5.2
      vertex -17.412 0.493 5.2
      vertex -17.412 0.493 0
    endloop
  endfacet
  facet normal 1 0 0
    outer loop
      vertex -9.89 -4.4 4
      vertex -9.89 4.4 4
      vertex -9.89 -4.4 5.2
    endloop
  endfacet
  facet normal 0 -1 0
    outer loop
      vertex -9.89 -4.4 4
      vertex 13.04 -4.4 0
      vertex 9.89 -4.4 4
    endloop
  endfacet
  facet normal 0 0 1
    outer loop
      vertex -9.89 -4.4 4
      vertex 9.89 -4.4 4
      vertex -9.89 4.4 4
    endloop
  endfacet
  facet normal 1 0 0
    outer loop
      vertex -9.89 -4.4 5.2
      vertex -9.89 4.4 4
      vertex -9.89 4.4 5.2
    endloop
  endfacet
  facet normal 0 0 1
    outer loop
      vertex -9.89 4.4 4
      vertex 9.89 -4.4 4
      vertex 9.89 4.4 4
    endloop
  endfacet
  facet normal 0 1 0
    outer loop
      vertex -9.89 4.4 4
      vertex 9.89 4.4 4
      vertex 13.04 4.4 0
    endloop
  endfacet
  facet normal 0.62349 0.781831 0
    outer loop
      vertex 11.2999 -0.837986 0
      vertex 11.2999 -0.837986 5.2
      vertex 12.6102 -1.88294 0
    endloop
  endfacet
  facet normal 1 0 0
    outer loop
      vertex 11.2999 -0.837986 0
      vertex 11.2999 0.837986 0
      vertex 11.2999 -0.837986 5.2
    endloop
  endfacet
  facet normal 1 0 0
    outer loop
      vertex 11.2999 -0.837986 5.2
      vertex 11.2999 0.837986 0
      vertex 11.2999 0.837986 5.2
    endloop
  endfacet
  facet normal 0.62349 0.781831 0
    outer loop
      vertex 11.2999 -0.837986 5.2
      vertex 12.6102 -1.88294 5.2
      vertex 12.6102 -1.88294 0
    endloop
  endfacet
  facet normal 0 0 1
    outer loop
      vertex 11.2999 -0.837986 5.2
      vertex 13.04 -4.4 5.2
      vertex 12.6102 -1.88294 5.2
    endloop
  endfacet
  facet normal 0.62349 -0.781831 0
    outer loop
      vertex 11.2999 0.837986 0
      vertex 12.6102 1.88294 0
      vertex 11.2999 0.837986 5.2
    endloop
  endfacet
  facet normal 0.62349 -0.781831 0
    outer loop
      vertex 11.2999 0.837986 5.2
      vertex 12.6102 1.88294 0
      vertex 12.6102 1.88294 5.2
    endloop
  endfacet
  facet normal -0.222522 0.974928 0
    outer loop
      vertex 12.6102 -1.88294 0
      vertex 12.6102 -1.88294 5.2
      vertex 14.2442 -1.51 0
    endloop
  endfacet
  facet normal 0 0 -1
    outer loop
      vertex 12.6102 -1.88294 0
      vertex 14.2442 -1.51 0
      vertex 17.004 -1.909 0
    endloop
  endfacet
  facet normal 0 0 -1
    outer loop
      vertex 12.6102 -1.88294 0
      vertex 17.004 -1.909 0
      vertex 16.766 -2.341 0
    endloop
  endfacet
  facet normal 0 0 1
    outer loop
      vertex 12.6102 -1.88294 5.2
      vertex 13.04 -4.4 5.2
      vertex 13.533 -4.372 5.2
    endloop
  endfacet
  facet normal 0 0 1
    outer loop
      vertex 12.6102 -1.88294 5.2
      vertex 13.533 -4.372 5.2
      vertex 14.019 -4.29 5.2
    endloop
  endfacet
  facet normal 0 0 1
    outer loop
      vertex 12.6102 -1.88294 5.2
      vertex 14.019 -4.29 5.2
      vertex 14.2442 -1.51 5.2
    endloop
  endfacet
  facet normal -0.222522 0.974928 0
    outer loop
      vertex 12.6102 -1.88294 5.2
      vertex 14.2442 -1.51 5.2
      vertex 14.2442 -1.51 0
    endloop
  endfacet
  facet normal -0.222522 -0.974928 0
    outer loop
      vertex 12.6102 1.88294 0
      vertex 14.2442 1.51 0
      vertex 12.6102 1.88294 5.2
    endloop
  endfacet
  facet normal 0 0 -1
    outer loop
      vertex 12.6102 1.88294 0
      vertex 16.766 2.341 0
      vertex 17.004 1.909 0
    endloop
  endfacet
  facet normal 0 0 -1
    outer loop
      vertex 12.6102 1.88294 0
      vertex 17.004 1.909 0
      vertex 14.2442 1.51 0
    endloop
  endfacet
  facet normal -0.222522 -0.974928 0
    outer loop
      vertex 12.6102 1.88294 5.2
      vertex 14.2442 1.51 0
      vertex 14.2442 1.51 5.2
    endloop
  endfacet
  facet normal 0.0567038 -0.998391 0
    outer loop
      vertex 13.04 -4.4 0
      vertex 13.533 -4.372 0
      vertex 13.04 -4.4 5.2
    endloop
  endfacet
  facet normal 0.0567038 -0.998391 0
    outer loop
      vertex 13.04 -4.4 5.2
      vertex 13.533 -4.372 0
      vertex 13.533 -4.372 5.2
    endloop
  endfacet
  facet normal 0.0567038 0.998391 0
    outer loop
      vertex 13.04 4.4 0
      vertex 13.04 4.4 5.2
      vertex 13.533 4.372 0
    endloop
  endfacet
  facet normal 0.0567038 0.998391 0
    outer loop
      vertex 13.04 4.4 5.2
      vertex 13.533 4.372 5.2
      vertex 13.533 4.372 0
    endloop
  endfacet
  facet normal 0.166373 -0.986063 0
    outer loop
      vertex 13.533 -4.372 0
      vertex 14.019 -4.29 0
      vertex 13.533 -4.372 5.2
    endloop
  endfacet
  facet normal 0.166373 -0.986063 0
    outer loop
      vertex 13.533 -4.372 5.2
      vertex 14.019 -4.29 0
      vertex 14.019 -4.29 5.2
    endloop
  endfacet
  facet normal 0.166373 0.986063 0
    outer loop
      vertex 13.533 4.372 0
      vertex 13.533 4.372 5.2
      vertex 14.019 4.29 0
    endloop
  endfacet
  facet normal 0.166373 0.986063 0
    outer loop
      vertex 13.533 4.372 5.2
      vertex 14.019 4.29 5.2
      vertex 14.019 4.29 0
    endloop
  endfacet
  facet normal 0.277664 -0.960678 0
    outer loop
      vertex 14.019 -4.29 0
      vertex 14.493 -4.153 0
      vertex 14.019 -4.29 5.2
    endloop
  endfacet
  facet normal 0.277664 -0.960678 0
    outer loop
      vertex 14.019 -4.29 5.2
      vertex 14.493 -4.153 0
      vertex 14.493 -4.153 5.2
    endloop
  endfacet
  facet normal 0 0 1
    outer loop
      vertex 14.019 -4.29 5.2
      vertex 14.493 -4.153 5.2
      vertex 14.2442 -1.51 5.2
    endloop
  endfacet
  facet normal 0.277664 0.960678 0
    outer loop
      vertex 14.019 4.29 0
      vertex 14.019 4.29 5.2
      vertex 14.493 4.153 0
    endloop
  endfacet
  facet normal 0.277664 0.960678 0
    outer loop
      vertex 14.019 4.29 5.2
      vertex 14.493 4.153 5.2
      vertex 14.493 4.153 0
    endloop
  endfacet
  facet normal -0.900969 0.433884 0
    outer loop
      vertex 14.2442 -1.51 0
      vertex 14.2442 -1.51 5.2
      vertex 14.9714 0 0
    endloop
  endfacet
  facet normal 0 0 -1
    outer loop
      vertex 14.2442 -1.51 0
      vertex 14.9714 0 0
      vertex 17.193 -1.453 0
    endloop
  endfacet
  facet normal 0 0 -1
    outer loop
      vertex 14.2442 -1.51 0
      vertex 17.193 -1.453 0
      vertex 17.004 -1.909 0
    endloop
  endfacet
  facet normal 0 0 1
    outer loop
      vertex 14.2442 -1.51 5.2
      vertex 14.493 -4.153 5.2
      vertex 14.949 -3.964 5.2
    endloop
  endfacet
  facet normal 0 0 1
    outer loop
      vertex 14.2442 -1.51 5.2
      vertex 14.949 -3.964 5.2
      vertex 15.381 -3.726 5.2
    endloop
  endfacet
  facet normal -0.900969 0.433884 0
    outer loop
      vertex 14.2442 -1.51 5.2
      vertex 14.9714 0 5.2
      vertex 14.9714 0 0
    endloop
  endfacet
  facet normal 0 0 1
    outer loop
      vertex 14.2442 -1.51 5.2
      vertex 15.381 -3.726 5.2
      vertex 15.783 -3.44 5.2
    endloop
  endfacet
  facet normal 0 0 1
    outer loop
      vertex 14.2442 -1.51 5.2
      vertex 15.783 -3.44 5.2
      vertex 14.9714 0 5.2
    endloop
  endfacet
  facet normal -0.900969 -0.433884 0
    outer loop
      vertex 14.2442 1.51 0
      vertex 14.9714 0 0
      vertex 14.2442 1.51 5.2
    endloop
  endfacet
  facet normal 0 0 -1
    outer loop
      vertex 14.2442 1.51 0
      vertex 17.004 1.909 0
      vertex 17.193 1.453 0
    endloop
  endfacet
  facet normal 0 0 -1
    outer loop
      vertex 14.2442 1.51 0
      vertex 17.193 1.453 0
      vertex 17.33 0.979 0
    endloop
  endfacet
  facet normal 0 0 -1
    outer loop
      vertex 14.2442 1.51 0
      vertex 17.33 0.979 0
      vertex 17.412 0.493 0
    endloop
  endfacet
  facet normal 0 0 -1
    outer loop
      vertex 14.2442 1.51 0
      vertex 17.412 0.493 0
      vertex 14.9714 0 0
    endloop
  endfacet
  facet normal -0.900969 -0.433884 0
    outer loop
      vertex 14.2442 1.51 5.2
      vertex 14.9714 0 0
      vertex 14.9714 0 5.2
    endloop
  endfacet
  facet normal 0 0 1
    outer loop
      vertex 14.2442 1.51 5.2
      vertex 14.9714 0 5.2
      vertex 17.193 -1.453 5.2
    endloop
  endfacet
  facet normal 0 0 1
    outer loop
      vertex 14.2442 1.51 5.2
      vertex 17.193 -1.453 5.2
      vertex 17.33 -0.979 5.2
    endloop
  endfacet
  facet normal 0 0 1
    outer loop
      vertex 14.2442 1.51 5.2
      vertex 17.33 -0.979 5.2
      vertex 17.412 -0.493 5.2
    endloop
  endfacet
  facet normal 0.382889 -0.923795 0
    outer loop
      vertex 14.493 -4.153 0
      vertex 14.949 -3.964 0
      vertex 14.493 -4.153 5.2
    endloop
  endfacet
  facet normal 0.382889 -0.923795 0
    outer loop
      vertex 14.493 -4.153 5.2
      vertex 14.949 -3.964 0
      vertex 14.949 -3.964 5.2
    endloop
  endfacet
  facet normal 0.382889 0.923795 0
    outer loop
      vertex 14.493 4.153 0
      vertex 14.493 4.153 5.2
      vertex 14.949 3.964 0
    endloop
  endfacet
  facet normal 0.382889 0.923795 0
    outer loop
      vertex 14.493 4.153 5.2
      vertex 14.949 3.964 5.2
      vertex 14.949 3.964 0
    endloop
  endfacet
  facet normal 0.482541 -0.875873 0
    outer loop
      vertex 14.949 -3.964 0
      vertex 15.381 -3.726 0
      vertex 14.949 -3.964 5.2
    endloop
  endfacet
  facet normal 0.482541 -0.875873 0
    outer loop
      vertex 14.949 -3.964 5.2
      vertex 15.381 -3.726 0
      vertex 15.381 -3.726 5.2
    endloop
  endfacet
  facet normal 0.482541 0.875873 0
    outer loop
      vertex 14.949 3.964 0
      vertex 14.949 3.964 5.2
      vertex 15.381 3.726 0
    endloop
  endfacet
  facet normal 0.482541 0.875873 0
    outer loop
      vertex 14.949 3.964 5.2
      vertex 15.381 3.726 5.2
      vertex 15.381 3.726 0
    endloop
  endfacet
  facet normal 0 0 -1
    outer loop
      vertex 14.9714 0 0
      vertex 17.33 -0.979 0
      vertex 17.193 -1.453 0
    endloop
  endfacet
  facet normal 0 0 -1
    outer loop
      vertex 14.9714 0 0
      vertex 17.412 -0.493 0
      vertex 17.33 -0.979 0
    endloop
  endfacet
  facet normal 0 0 -1
    outer loop
      vertex 14.9714 0 0
      vertex 17.412 0.493 0
      vertex 17.44 0 0
    endloop
  endfacet
  facet normal 0 0 -1
    outer loop
      vertex 14.9714 0 0
      vertex 17.44 0 0
      vertex 17.412 -0.493 0
    endloop
  endfacet
  facet normal 0 0 1
    outer loop
      vertex 14.9714 0 5.2
      vertex 15.783 -3.44 5.2
      vertex 16.151 -3.111 5.2
    endloop
  endfacet
  facet normal 0 0 1
    outer loop
      vertex 14.9714 0 5.2
      vertex 16.151 -3.111 5.2
      vertex 16.48 -2.743 5.2
    endloop
  endfacet
  facet normal 0 0 1
    outer loop
      vertex 14.9714 0 5.2
      vertex 16.48 -2.743 5.2
      vertex 16.766 -2.341 5.2
    endloop
  endfacet
  facet normal 0 0 1
    outer loop
      vertex 14.9714 0 5.2
      vertex 16.766 -2.341 5.2
      vertex 17.004 -1.909 5.2
    endloop
  endfacet
  facet normal 0 0 1
    outer loop
      vertex 14.9714 0 5.2
      vertex 17.004 -1.909 5.2
      vertex 17.193 -1.453 5.2
    endloop
  endfacet
  facet normal 0.579703 -0.814828 0
    outer loop
      vertex 15.381 -3.726 0
      vertex 15.783 -3.44 0
      vertex 15.381 -3.726 5.2
    endloop
  endfacet
  facet normal 0.579703 -0.814828 0
    outer loop
      vertex 15.381 -3.726 5.2
      vertex 15.783 -3.44 0
      vertex 15.783 -3.44 5.2
    endloop
  endfacet
  facet normal 0.579703 0.814828 0
    outer loop
      vertex 15.381 3.726 0
      vertex 15.381 3.726 5.2
      vertex 15.783 3.44 0
    endloop
  endfacet
  facet normal 0.579703 0.814828 0
    outer loop
      vertex 15.381 3.726 5.2
      vertex 15.783 3.44 5.2
      vertex 15.783 3.44 0
    endloop
  endfacet
  facet normal 0.666499 -0.745506 0
    outer loop
      vertex 15.783 -3.44 0
      vertex 16.151 -3.111 0
      vertex 15.783 -3.44 5.2
    endloop
  endfacet
  facet normal 0.666499 -0.745506 0
    outer loop
      vertex 15.783 -3.44 5.2
      vertex 16.151 -3.111 0
      vertex 16.151 -3.111 5.2
    endloop
  endfacet
  facet normal 0.666499 0.745506 0
    outer loop
      vertex 15.783 3.44 0
      vertex 15.783 3.44 5.2
      vertex 16.151 3.111 0
    endloop
  endfacet
  facet normal 0.666499 0.745506 0
    outer loop
      vertex 15.783 3.44 5.2
      vertex 16.151 3.111 5.2
      vertex 16.151 3.111 0
    endloop
  endfacet
  facet normal 0.745506 -0.666499 0
    outer loop
      vertex 16.151 -3.111 0
      vertex 16.48 -2.743 0
      vertex 16.151 -3.111 5.2
    endloop
  endfacet
  facet normal 0.745506 -0.666499 0
    outer loop
      vertex 16.151 -3.111 5.2
      vertex 16.48 -2.743 0
      vertex 16.48 -2.743 5.2
    endloop
  endfacet
  facet normal 0.745506 0.666499 0
    outer loop
      vertex 16.151 3.111 0
      vertex 16.151 3.111 5.2
      vertex 16.48 2.743 0
    endloop
  endfacet
  facet normal 0.745506 0.666499 0
    outer loop
      vertex 16.151 3.111 5.2
      vertex 16.48 2.743 5.2
      vertex 16.48 2.743 0
    endloop
  endfacet
  facet normal 0.814828 -0.579703 0
    outer loop
      vertex 16.48 -2.743 0
      vertex 16.766 -2.341 0
      vertex 16.48 -2.743 5.2
    endloop
  endfacet
  facet normal 0.814828 -0.579703 0
    outer loop
      vertex 16.48 -2.743 5.2
      vertex 16.766 -2.341 0
      vertex 16.766 -2.341 5.2
    endloop
  endfacet
  facet normal 0.814828 0.579703 0
    outer loop
      vertex 16.48 2.743 0
      vertex 16.48 2.743 5.2
      vertex 16.766 2.341 0
    endloop
  endfacet
  facet normal 0.814828 0.579703 0
    outer loop
      vertex 16.48 2.743 5.2
      vertex 16.766 2.341 5.2
      vertex 16.766 2.341 0
    endloop
  endfacet
  facet normal 0.875873 -0.482541 0
    outer loop
      vertex 16.766 -2.341 0
      vertex 17.004 -1.909 0
      vertex 16.766 -2.341 5.2
    endloop
  endfacet
  facet normal 0.875873 -0.482541 0
    outer loop
      vertex 16.766 -2.341 5.2
      vertex 17.004 -1.909 0
      vertex 17.004 -1.909 5.2
    endloop
  endfacet
  facet normal 0.875873 0.482541 0
    outer loop
      vertex 16.766 2.341 0
      vertex 16.766 2.341 5.2
      vertex 17.004 1.909 0
    endloop
  endfacet
  facet normal 0.875873 0.482541 0
    outer loop
      vertex 16.766 2.341 5.2
      vertex 17.004 1.909 5.2
      vertex 17.004 1.909 0
    endloop
  endfacet
  facet normal 0.923795 -0.382889 0
    outer loop
      vertex 17.004 -1.909 0
      vertex 17.193 -1.453 0
      vertex 17.004 -1.909 5.2
    endloop
  endfacet
  facet normal 0.923795 -0.382889 0
    outer loop
      vertex 17.004 -1.909 5.2
      vertex 17.193 -1.453 0
      vertex 17.193 -1.453 5.2
    endloop
  endfacet
  facet normal 0.923795 0.382889 0
    outer loop
      vertex 17.004 1.909 0
      vertex 17.004 1.909 5.2
      vertex 17.193 1.453 0
    endloop
  endfacet
  facet normal 0.923795 0.382889 0
    outer loop
      vertex 17.004 1.909 5.2
      vertex 17.193 1.453 5.2
      vertex 17.193 1.453 0
    endloop
  endfacet
  facet normal 0.960678 -0.277664 0
    outer loop
      vertex 17.193 -1.453 0
      vertex 17.33 -0.979 0
      vertex 17.193 -1.453 5.2
    endloop
  endfacet
  facet normal 0.960678 -0.277664 0
    outer loop
      vertex 17.193 -1.453 5.2
      vertex 17.33 -0.979 0
      vertex 17.33 -0.979 5.2
    endloop
  endfacet
  facet normal 0.960678 0.277664 0
    outer loop
      vertex 17.193 1.453 0
      vertex 17.193 1.453 5.2
      vertex 17.33 0.979 0
    endloop
  endfacet
  facet normal 0.960678 0.277664 0
    outer loop
      vertex 17.193 1.453 5.2
      vertex 17.33 0.979 5.2
      vertex 17.33 0.979 0
    endloop
  endfacet
  facet normal 0.986063 -0.166373 0
    outer loop
      vertex 17.33 -0.979 0
      vertex 17.412 -0.493 0
      vertex 17.33 -0.979 5.2
    endloop
  endfacet
  facet normal 0.986063 -0.166373 0
    outer loop
      vertex 17.33 -0.979 5.2
      vertex 17.412 -0.493 0
      vertex 17.412 -0.493 5.2
    endloop
  endfacet
  facet normal 0.986063 0.166373 0
    outer loop
      vertex 17.33 0.979 0
      vertex 17.33 0.979 5.2
      vertex 17.412 0.493 0
    endloop
  endfacet
  facet normal 0.986063 0.166373 0
    outer loop
      vertex 17.33 0.979 5.2
      vertex 17.412 0.493 5.2
      vertex 17.412 0.493 0
    endloop
  endfacet
  facet normal 0.998391 -0.0567038 0
    outer loop
      vertex 17.412 -0.493 0
      vertex 17.44 0 0
      vertex 17.412 -0.493 5.2
    endloop
  endfacet
  facet normal 0.998391 -0.0567038 0
    outer loop
      vertex 17.412 -0.493 5.2
      vertex 17.44 0 0
      vertex 17.44 0 5.2
    endloop
  endfacet
  facet normal 0.998391 0.0567038 0
    outer loop
      vertex 17.412 0.493 0
      vertex 17.412 0.493 5.2
      vertex 17.44 0 0
    endloop
  endfacet
  facet normal 0.998391 0.0567038 0
    outer loop
      vertex 17.412 0.493 5.2
      vertex 17.44 0 5.2
      vertex 17.44 0 0
    endloop
  endfacet
  facet normal 0 -1 0
    outer loop
      vertex 9.89 -4.4 4
      vertex 13.04 -4.4 0
      vertex 9.89 -4.4 5.2
    endloop
  endfacet
  facet normal -1 0 0
    outer loop
      vertex 9.89 -4.4 4
      vertex 9.89 -4.4 5.2
      vertex 9.89 4.4 4
    endloop
  endfacet
  facet normal 0 0 1
    outer loop
      vertex 9.89 -4.4 5.2
      vertex 11.2999 -0.837986 5.2
      vertex 9.89 4.4 5.2
    endloop
  endfacet
  facet normal 0 -1 0
    outer loop
      vertex 9.89 -4.4 5.2
      vertex 13.04 -4.4 0
      vertex 13.04 -4.4 5.2
    endloop
  endfacet
  facet normal 0 0 1
    outer loop
      vertex 9.89 -4.4 5.2
      vertex 13.04 -4.4 5.2
      vertex 11.2999 -0.837986 5.2
    endloop
  endfacet
  facet normal -1 0 0
    outer loop
      vertex 9.89 -4.4 5.2
      vertex 9.89 4.4 5.2
      vertex 9.89 4.4 4
    endloop
  endfacet
  facet normal 0 1 0
    outer loop
      vertex 9.89 4.4 4
      vertex 9.89 4.4 5.2
      vertex 13.04 4.4 0
    endloop
  endfacet
  facet normal 0 0 1
    outer loop
      vertex 9.89 4.4 5.2
      vertex 11.2999 -0.837986 5.2
      vertex 11.2999 0.837986 5.2
    endloop
  endfacet
  facet normal 0 0 1
    outer loop
      vertex 9.89 4.4 5.2
      vertex 11.2999 0.837986 5.2
      vertex 12.6102 1.88294 5.2
    endloop
  endfacet
  facet normal 0 0 1
    outer loop
      vertex 9.89 4.4 5.2
      vertex 12.6102 1.88294 5.2
      vertex 14.2442 1.51 5.2
    endloop
  endfacet
  facet normal 0 1 0
    outer loop
      vertex 9.89 4.4 5.2
      vertex 13.04 4.4 5.2
      vertex 13.04 4.4 0
    endloop
  endfacet
  facet normal 0 0 1
    outer loop
      vertex 9.89 4.4 5.2
      vertex 13.533 4.372 5.2
      vertex 13.04 4.4 5.2
    endloop
  endfacet
  facet normal 0 0 1
    outer loop
      vertex 9.89 4.4 5.2
      vertex 14.019 4.29 5.2
      vertex 13.533 4.372 5.2
    endloop
  endfacet
  facet normal 0 0 1
    outer loop
      vertex 9.89 4.4 5.2
      vertex 14.2442 1.51 5.2
      vertex 17.412 -0.493 5.2
    endloop
  endfacet
  facet normal 0 0 1
    outer loop
      vertex 9.89 4.4 5.2
      vertex 14.493 4.153 5.2
      vertex 14.019 4.29 5.2
    endloop
  endfacet
  facet normal 0 0 1
    outer loop
      vertex 9.89 4.4 5.2
      vertex 14.949 3.964 5.2
      vertex 14.493 4.153 5.2
    endloop
  endfacet
  facet normal 0 0 1
    outer loop
      vertex 9.89 4.4 5.2
      vertex 15.381 3.726 5.2
      vertex 14.949 3.964 5.2
    endloop
  endfacet
  facet normal 0 0 1
    outer loop
      vertex 9.89 4.4 5.2
      vertex 15.783 3.44 5.2
      vertex 15.381 3.726 5.2
    endloop
  endfacet
  facet normal 0 0 1
    outer loop
      vertex 9.89 4.4 5.2
      vertex 16.151 3.111 5.2
      vertex 15.783 3.44 5.2
    endloop
  endfacet
  facet normal 0 0 1
    outer loop
      vertex 9.89 4.4 5.2
      vertex 16.48 2.743 5.2
      vertex 16.151 3.111 5.2
    endloop
  endfacet
  facet normal 0 0 1
    outer loop
      vertex 9.89 4.4 5.2
      vertex 16.766 2.341 5.2
      vertex 16.48 2.743 5.2
    endloop
  endfacet
  facet normal 0 0 1
    outer loop
      vertex 9.89 4.4 5.2
      vertex 17.004 1.909 5.2
      vertex 16.766 2.341 5.2
    endloop
  endfacet
  facet normal 0 0 1
    outer loop
      vertex 9.89 4.4 5.2
      vertex 17.193 1.453 5.2
      vertex 17.004 1.909 5.2
    endloop
  endfacet
  facet normal 0 0 1
    outer loop
      vertex 9.89 4.4 5.2
      vertex 17.33 0.979 5.2
      vertex 17.193 1.453 5.2
    endloop
  endfacet
  facet normal 0 0 1
    outer loop
      vertex 9.89 4.4 5.2
      vertex 17.412 -0.493 5.2
      vertex 17.44 0 5.2
    endloop
  endfacet
  facet normal 0 0 1
    outer loop
      vertex 9.89 4.4 5.2
      vertex 17.412 0.493 5.2
      vertex 17.33 0.979 5.2
    endloop
  endfacet
  facet normal 0 0 1
    outer loop
      vertex 9.89 4.4 5.2
      vertex 17.44 0 5.2
      vertex 17.412 0.493 5.2
    endloop
  endfacet
endsolid OpenSCAD_Model
