solid OpenSCAD_Model
  facet normal 2.22045e-16 1 4.93038e-32
    outer loop
      vertex -0.122 -1.855 10.663
      vertex 0.364 -1.855 10.69
      vertex 9.27036e-16 -1.855 8.735
    endloop
  endfacet
  facet normal -0.05547 1.23168e-17 0.99846
    outer loop
      vertex -0.122 -1.855 10.663
      vertex 0.364 -4.72 10.69
      vertex 0.364 -1.855 10.69
    endloop
  endfacet
  facet normal -0.05547 1.23168e-17 0.99846
    outer loop
      vertex -0.122 -4.72 10.663
      vertex 0.364 -4.72 10.69
      vertex -0.122 -1.855 10.663
    endloop
  endfacet
  facet normal 0 -1 0
    outer loop
      vertex -0.122 -4.72 10.663
      vertex 4.645 -4.72 2.5
      vertex 0.364 -4.72 10.69
    endloop
  endfacet
  facet normal 2.22045e-16 1 4.93038e-32
    outer loop
      vertex -0.602 -1.855 10.742
      vertex -0.122 -1.855 10.663
      vertex 9.27036e-16 -1.855 8.735
    endloop
  endfacet
  facet normal 0.162399 -3.60597e-17 0.986725
    outer loop
      vertex -0.602 -1.855 10.742
      vertex -0.122 -4.72 10.663
      vertex -0.122 -1.855 10.663
    endloop
  endfacet
  facet normal 0.162399 -3.60597e-17 0.986725
    outer loop
      vertex -0.602 -4.72 10.742
      vertex -0.122 -4.72 10.663
      vertex -0.602 -1.855 10.742
    endloop
  endfacet
  facet normal 0 -1 0
    outer loop
      vertex -0.602 -4.72 10.742
      vertex 4.645 -4.72 2.5
      vertex -0.122 -4.72 10.663
    endloop
  endfacet
  facet normal 2.22045e-16 1 4.93038e-32
    outer loop
      vertex -0.932 -1.855 15.16
      vertex -9.27036e-16 -1.855 17.085
      vertex 0.932 -1.855 15.16
    endloop
  endfacet
  facet normal 4.44089e-16 -9.86076e-32 -1
    outer loop
      vertex -0.932 -1.855 15.16
      vertex 0.932 -1.855 15.16
      vertex 0.932 -4.72 15.16
    endloop
  endfacet
  facet normal 4.44089e-16 -9.86076e-32 -1
    outer loop
      vertex -0.932 -4.72 15.16
      vertex -0.932 -1.855 15.16
      vertex 0.932 -4.72 15.16
    endloop
  endfacet
  facet normal 0 -1 0
    outer loop
      vertex -0.932 -4.72 15.16
      vertex 0.932 -4.72 15.16
      vertex 4.645 -4.72 18.96
    endloop
  endfacet
  facet normal 2.22045e-16 1 4.93038e-32
    outer loop
      vertex -1.054 -1.855 10.922
      vertex -0.602 -1.855 10.742
      vertex 9.27036e-16 -1.855 8.735
    endloop
  endfacet
  facet normal 0.369973 -8.21504e-17 0.929043
    outer loop
      vertex -1.054 -1.855 10.922
      vertex -0.602 -4.72 10.742
      vertex -0.602 -1.855 10.742
    endloop
  endfacet
  facet normal 0.369973 -8.21504e-17 0.929043
    outer loop
      vertex -1.054 -4.72 10.922
      vertex -0.602 -4.72 10.742
      vertex -1.054 -1.855 10.922
    endloop
  endfacet
  facet normal 0 -1 0
    outer loop
      vertex -1.054 -4.72 10.922
      vertex 4.645 -4.72 2.5
      vertex -0.602 -4.72 10.742
    endloop
  endfacet
  facet normal 2.22045e-16 1 4.93038e-32
    outer loop
      vertex -1.457 -1.855 11.195
      vertex -1.054 -1.855 10.922
      vertex 9.27036e-16 -1.855 8.735
    endloop
  endfacet
  facet normal 0.560848 -1.24533e-16 0.827919
    outer loop
      vertex -1.457 -1.855 11.195
      vertex -1.054 -4.72 10.922
      vertex -1.054 -1.855 10.922
    endloop
  endfacet
  facet normal 0.560848 -1.24533e-16 0.827919
    outer loop
      vertex -1.457 -4.72 11.195
      vertex -1.054 -4.72 10.922
      vertex -1.457 -1.855 11.195
    endloop
  endfacet
  facet normal 0.707107 -1.57009e-16 -0.707107
    outer loop
      vertex -1.591 -1.855 14.501
      vertex -0.932 -1.855 15.16
      vertex -0.932 -4.72 15.16
    endloop
  endfacet
  facet normal 0.707107 -1.57009e-16 0.707107
    outer loop
      vertex -1.591 -1.855 14.501
      vertex -1.582 -4.72 14.492
      vertex -1.582 -1.855 14.492
    endloop
  endfacet
  facet normal 2.22045e-16 1 4.93038e-32
    outer loop
      vertex -1.591 -1.855 14.501
      vertex -9.27036e-16 -1.855 17.085
      vertex -0.932 -1.855 15.16
    endloop
  endfacet
  facet normal 0.707107 -1.57009e-16 0.707107
    outer loop
      vertex -1.591 -4.72 14.501
      vertex -1.582 -4.72 14.492
      vertex -1.591 -1.855 14.501
    endloop
  endfacet
  facet normal 0.707107 -1.57009e-16 -0.707107
    outer loop
      vertex -1.591 -4.72 14.501
      vertex -1.591 -1.855 14.501
      vertex -0.932 -4.72 15.16
    endloop
  endfacet
  facet normal 2.22045e-16 1 4.93038e-32
    outer loop
      vertex -1.791 -1.855 11.548
      vertex -1.457 -1.855 11.195
      vertex 9.27036e-16 -1.855 8.735
    endloop
  endfacet
  facet normal 0.726385 -1.6129e-16 0.687288
    outer loop
      vertex -1.791 -1.855 11.548
      vertex -1.457 -4.72 11.195
      vertex -1.457 -1.855 11.195
    endloop
  endfacet
  facet normal 0.724999 -1.60982e-16 -0.688749
    outer loop
      vertex -1.791 -1.855 14.272
      vertex -1.582 -1.855 14.492
      vertex -1.582 -4.72 14.492
    endloop
  endfacet
  facet normal 2.22045e-16 1 4.93038e-32
    outer loop
      vertex -1.791 -1.855 14.272
      vertex -1.591 -1.855 14.501
      vertex -1.582 -1.855 14.492
    endloop
  endfacet
  facet normal 0.726385 -1.6129e-16 0.687288
    outer loop
      vertex -1.791 -4.72 11.548
      vertex -1.457 -4.72 11.195
      vertex -1.791 -1.855 11.548
    endloop
  endfacet
  facet normal 0 -1 0
    outer loop
      vertex -1.791 -4.72 14.272
      vertex -1.582 -4.72 14.492
      vertex -1.591 -4.72 14.501
    endloop
  endfacet
  facet normal 0.724999 -1.60982e-16 -0.688749
    outer loop
      vertex -1.791 -4.72 14.272
      vertex -1.791 -1.855 14.272
      vertex -1.582 -4.72 14.492
    endloop
  endfacet
  facet normal 0.856767 -1.9024e-16 0.515704
    outer loop
      vertex -2.042 -1.855 11.965
      vertex -1.791 -4.72 11.548
      vertex -1.791 -1.855 11.548
    endloop
  endfacet
  facet normal 0.856767 -1.9024e-16 -0.515704
    outer loop
      vertex -2.042 -1.855 13.855
      vertex -1.791 -1.855 14.272
      vertex -1.791 -4.72 14.272
    endloop
  endfacet
  facet normal 0.856767 -1.9024e-16 0.515704
    outer loop
      vertex -2.042 -4.72 11.965
      vertex -1.791 -4.72 11.548
      vertex -2.042 -1.855 11.965
    endloop
  endfacet
  facet normal 0.856767 -1.9024e-16 -0.515704
    outer loop
      vertex -2.042 -4.72 13.855
      vertex -2.042 -1.855 13.855
      vertex -1.791 -4.72 14.272
    endloop
  endfacet
  facet normal 0.947858 -2.10467e-16 0.318694
    outer loop
      vertex -2.197 -1.855 12.426
      vertex -2.042 -4.72 11.965
      vertex -2.042 -1.855 11.965
    endloop
  endfacet
  facet normal 0.947858 -2.10467e-16 -0.318694
    outer loop
      vertex -2.197 -1.855 13.394
      vertex -2.042 -1.855 13.855
      vertex -2.042 -4.72 13.855
    endloop
  endfacet
  facet normal 0.947858 -2.10467e-16 0.318694
    outer loop
      vertex -2.197 -4.72 12.426
      vertex -2.042 -4.72 11.965
      vertex -2.197 -1.855 12.426
    endloop
  endfacet
  facet normal 0.947858 -2.10467e-16 -0.318694
    outer loop
      vertex -2.197 -4.72 13.394
      vertex -2.197 -1.855 13.394
      vertex -2.042 -4.72 13.855
    endloop
  endfacet
  facet normal 0.994058 -2.20725e-16 -0.108853
    outer loop
      vertex -2.25 -1.855 12.91
      vertex -2.197 -1.855 13.394
      vertex -2.197 -4.72 13.394
    endloop
  endfacet
  facet normal 0.994058 -2.20725e-16 0.108853
    outer loop
      vertex -2.25 -1.855 12.91
      vertex -2.197 -4.72 12.426
      vertex -2.197 -1.855 12.426
    endloop
  endfacet
  facet normal 0.994058 -2.20725e-16 0.108853
    outer loop
      vertex -2.25 -4.72 12.91
      vertex -2.197 -4.72 12.426
      vertex -2.25 -1.855 12.91
    endloop
  endfacet
  facet normal 0.994058 -2.20725e-16 -0.108853
    outer loop
      vertex -2.25 -4.72 12.91
      vertex -2.25 -1.855 12.91
      vertex -2.197 -4.72 13.394
    endloop
  endfacet
  facet normal 2.22045e-16 1 4.93038e-32
    outer loop
      vertex -3.5074 -1.855 10.76
      vertex -1.791 -1.855 11.548
      vertex 9.27036e-16 -1.855 8.735
    endloop
  endfacet
  facet normal 2.22045e-16 1 4.93038e-32
    outer loop
      vertex -3.5074 -1.855 10.76
      vertex -2.042 -1.855 11.965
      vertex -1.791 -1.855 11.548
    endloop
  endfacet
  facet normal 2.22045e-16 1 4.93038e-32
    outer loop
      vertex -3.5074 -1.855 10.76
      vertex -2.042 -1.855 13.855
      vertex -2.197 -1.855 13.394
    endloop
  endfacet
  facet normal 2.22045e-16 1 4.93038e-32
    outer loop
      vertex -3.5074 -1.855 10.76
      vertex -2.197 -1.855 12.426
      vertex -2.042 -1.855 11.965
    endloop
  endfacet
  facet normal 2.22045e-16 1 4.93038e-32
    outer loop
      vertex -3.5074 -1.855 10.76
      vertex -2.197 -1.855 13.394
      vertex -2.25 -1.855 12.91
    endloop
  endfacet
  facet normal 2.22045e-16 1 4.93038e-32
    outer loop
      vertex -3.5074 -1.855 10.76
      vertex -2.25 -1.855 12.91
      vertex -2.197 -1.855 12.426
    endloop
  endfacet
  facet normal 2.22045e-16 1 4.93038e-32
    outer loop
      vertex -3.5074 -1.855 10.76
      vertex -3.5074 -1.855 15.06
      vertex -2.042 -1.855 13.855
    endloop
  endfacet
  facet normal 1 -2.22045e-16 2.22045e-16
    outer loop
      vertex -3.5074 -1.855 10.76
      vertex -3.5074 4.57 10.76
      vertex -3.5074 4.57 15.06
    endloop
  endfacet
  facet normal 1 -2.22045e-16 2.22045e-16
    outer loop
      vertex -3.5074 -1.855 10.76
      vertex -3.5074 4.57 15.06
      vertex -3.5074 -1.855 15.06
    endloop
  endfacet
  facet normal 0.5 -1.11022e-16 0.866025
    outer loop
      vertex -3.5074 -1.855 10.76
      vertex 9.27036e-16 -1.855 8.735
      vertex -3.5074 4.57 10.76
    endloop
  endfacet
  facet normal 2.22045e-16 1 4.93038e-32
    outer loop
      vertex -3.5074 -1.855 15.06
      vertex -1.591 -1.855 14.501
      vertex -1.791 -1.855 14.272
    endloop
  endfacet
  facet normal 2.22045e-16 1 4.93038e-32
    outer loop
      vertex -3.5074 -1.855 15.06
      vertex -1.791 -1.855 14.272
      vertex -2.042 -1.855 13.855
    endloop
  endfacet
  facet normal 0.5 -1.11022e-16 -0.866025
    outer loop
      vertex -3.5074 -1.855 15.06
      vertex -3.5074 4.57 15.06
      vertex -9.27036e-16 -1.855 17.085
    endloop
  endfacet
  facet normal 2.22045e-16 1 4.93038e-32
    outer loop
      vertex -3.5074 -1.855 15.06
      vertex -9.27036e-16 -1.855 17.085
      vertex -1.591 -1.855 14.501
    endloop
  endfacet
  facet normal 0 1 0
    outer loop
      vertex -3.5074 4.57 10.76
      vertex 2.35367e-15 4.57 8.735
      vertex 4.645 4.57 2.5
    endloop
  endfacet
  facet normal 0.5 -1.11022e-16 0.866025
    outer loop
      vertex -3.5074 4.57 10.76
      vertex 9.27036e-16 -1.855 8.735
      vertex 2.35367e-15 4.57 8.735
    endloop
  endfacet
  facet normal 0.5 -1.11022e-16 -0.866025
    outer loop
      vertex -3.5074 4.57 15.06
      vertex 4.996e-16 4.57 17.085
      vertex -9.27036e-16 -1.855 17.085
    endloop
  endfacet
  facet normal 0 0 1
    outer loop
      vertex -4.145 -4.22 19.96
      vertex 4.145 -4.22 19.96
      vertex -4.145 4.07 19.96
    endloop
  endfacet
  facet normal 0 -0.894427 0.447214
    outer loop
      vertex -4.145 -4.22 19.96
      vertex 4.645 -4.72 18.96
      vertex 4.145 -4.22 19.96
    endloop
  endfacet
  facet normal 0 0 1
    outer loop
      vertex -4.145 4.07 19.96
      vertex 4.145 -4.22 19.96
      vertex 4.145 4.07 19.96
    endloop
  endfacet
  facet normal 0 0.894427 0.447214
    outer loop
      vertex -4.145 4.07 19.96
      vertex 4.145 4.07 19.96
      vertex 4.645 4.57 18.96
    endloop
  endfacet
  facet normal 0 -1 0
    outer loop
      vertex -4.645 -4.72 18.96
      vertex -0.932 -4.72 15.16
      vertex 4.645 -4.72 18.96
    endloop
  endfacet
  facet normal 0 -1 0
    outer loop
      vertex -4.645 -4.72 18.96
      vertex -1.591 -4.72 14.501
      vertex -0.932 -4.72 15.16
    endloop
  endfacet
  facet normal 0 -1 0
    outer loop
      vertex -4.645 -4.72 18.96
      vertex -1.791 -4.72 14.272
      vertex -1.591 -4.72 14.501
    endloop
  endfacet
  facet normal 0 -1 0
    outer loop
      vertex -4.645 -4.72 18.96
      vertex -2.042 -4.72 13.855
      vertex -1.791 -4.72 14.272
    endloop
  endfacet
  facet normal 0 -1 0
    outer loop
      vertex -4.645 -4.72 18.96
      vertex -2.197 -4.72 13.394
      vertex -2.042 -4.72 13.855
    endloop
  endfacet
  facet normal 0 -1 0
    outer loop
      vertex -4.645 -4.72 18.96
      vertex -2.25 -4.72 12.91
      vertex -2.197 -4.72 13.394
    endloop
  endfacet
  facet normal -0.894427 0 0.447214
    outer loop
      vertex -4.645 -4.72 18.96
      vertex -4.145 -4.22 19.96
      vertex -4.645 4.57 18.96
    endloop
  endfacet
  facet normal -1 0 0
    outer loop
      vertex -4.645 -4.72 18.96
      vertex -4.645 4.57 18.96
      vertex -4.645 4.57 2.5
    endloop
  endfacet
  facet normal 0 -0.894427 0.447214
    outer loop
      vertex -4.645 -4.72 18.96
      vertex 4.645 -4.72 18.96
      vertex -4.145 -4.22 19.96
    endloop
  endfacet
  facet normal 0 -1 0
    outer loop
      vertex -4.645 -4.72 2.5
      vertex -1.054 -4.72 10.922
      vertex -1.457 -4.72 11.195
    endloop
  endfacet
  facet normal 0 -1 0
    outer loop
      vertex -4.645 -4.72 2.5
      vertex -1.457 -4.72 11.195
      vertex -1.791 -4.72 11.548
    endloop
  endfacet
  facet normal 0 -1 0
    outer loop
      vertex -4.645 -4.72 2.5
      vertex -1.791 -4.72 11.548
      vertex -2.042 -4.72 11.965
    endloop
  endfacet
  facet normal 0 -1 0
    outer loop
      vertex -4.645 -4.72 2.5
      vertex -2.042 -4.72 11.965
      vertex -2.197 -4.72 12.426
    endloop
  endfacet
  facet normal 0 -1 0
    outer loop
      vertex -4.645 -4.72 2.5
      vertex -2.197 -4.72 12.426
      vertex -2.25 -4.72 12.91
    endloop
  endfacet
  facet normal 0 -1 0
    outer loop
      vertex -4.645 -4.72 2.5
      vertex -2.25 -4.72 12.91
      vertex -4.645 -4.72 18.96
    endloop
  endfacet
  facet normal -1 0 0
    outer loop
      vertex -4.645 -4.72 2.5
      vertex -4.645 -4.72 18.96
      vertex -4.645 4.57 2.5
    endloop
  endfacet
  facet normal 0 -1 0
    outer loop
      vertex -4.645 -4.72 2.5
      vertex 4.645 -4.72 2.5
      vertex -1.054 -4.72 10.922
    endloop
  endfacet
  facet normal -0.894427 0 0.447214
    outer loop
      vertex -4.645 4.57 18.96
      vertex -4.145 -4.22 19.96
      vertex -4.145 4.07 19.96
    endloop
  endfacet
  facet normal 0 0.894427 0.447214
    outer loop
      vertex -4.645 4.57 18.96
      vertex -4.145 4.07 19.96
      vertex 4.645 4.57 18.96
    endloop
  endfacet
  facet normal 0 1 0
    outer loop
      vertex -4.645 4.57 18.96
      vertex 4.645 4.57 18.96
      vertex 4.996e-16 4.57 17.085
    endloop
  endfacet
  facet normal 0 1 0
    outer loop
      vertex -4.645 4.57 18.96
      vertex 4.996e-16 4.57 17.085
      vertex -3.5074 4.57 15.06
    endloop
  endfacet
  facet normal 0 1 0
    outer loop
      vertex -4.645 4.57 2.5
      vertex -3.5074 4.57 10.76
      vertex 4.645 4.57 2.5
    endloop
  endfacet
  facet normal 0 1 0
    outer loop
      vertex -4.645 4.57 2.5
      vertex -3.5074 4.57 15.06
      vertex -3.5074 4.57 10.76
    endloop
  endfacet
  facet normal 0 1 0
    outer loop
      vertex -4.645 4.57 2.5
      vertex -4.645 4.57 18.96
      vertex -3.5074 4.57 15.06
    endloop
  endfacet
  facet normal 0 0 1
    outer loop
      vertex -4.645 4.57 2.5
      vertex 4.645 4.57 2.5
      vertex 6.5 5.85 2.5
    endloop
  endfacet
  facet normal 0 0 1
    outer loop
      vertex -6.5 -5.85 2.5
      vertex -4.645 -4.72 2.5
      vertex -6.5 5.85 2.5
    endloop
  endfacet
  facet normal 1 0 0
    outer loop
      vertex -6.5 -5.85 2.5
      vertex -6.5 5.85 2.5
      vertex -6.5 -5.85 6
    endloop
  endfacet
  facet normal 0 0 1
    outer loop
      vertex -6.5 -5.85 2.5
      vertex 4.645 -4.72 2.5
      vertex -4.645 -4.72 2.5
    endloop
  endfacet
  facet normal 0 0 1
    outer loop
      vertex -6.5 -5.85 2.5
      vertex 6.5 -5.85 2.5
      vertex 4.645 -4.72 2.5
    endloop
  endfacet
  facet normal 0 -1 0
    outer loop
      vertex -6.5 -5.85 2.5
      vertex 9 -5.85 0
      vertex 6.5 -5.85 2.5
    endloop
  endfacet
  facet normal 1 0 0
    outer loop
      vertex -6.5 -5.85 6
      vertex -6.5 5.85 2.5
      vertex -6.5 5.85 6
    endloop
  endfacet
  facet normal 0 0 1
    outer loop
      vertex -6.5 5.85 2.5
      vertex -4.645 -4.72 2.5
      vertex -4.645 4.57 2.5
    endloop
  endfacet
  facet normal 0 0 1
    outer loop
      vertex -6.5 5.85 2.5
      vertex -4.645 4.57 2.5
      vertex 6.5 5.85 2.5
    endloop
  endfacet
  facet normal 0 1 0
    outer loop
      vertex -6.5 5.85 2.5
      vertex 6.5 5.85 2.5
      vertex 9 5.85 0
    endloop
  endfacet
  facet normal 0 -1 0
    outer loop
      vertex -9 -5.85 0
      vertex -6.5 -5.85 2.5
      vertex -9 -5.85 6
    endloop
  endfacet
  facet normal -1 0 0
    outer loop
      vertex -9 -5.85 0
      vertex -9 -5.85 6
      vertex -9 5.85 0
    endloop
  endfacet
  facet normal 0 0 -1
    outer loop
      vertex -9 -5.85 0
      vertex -9 5.85 0
      vertex 9 -5.85 0
    endloop
  endfacet
  facet normal 0 -1 0
    outer loop
      vertex -9 -5.85 0
      vertex 9 -5.85 0
      vertex -6.5 -5.85 2.5
    endloop
  endfacet
  facet normal 0 -1 0
    outer loop
      vertex -9 -5.85 6
      vertex -6.5 -5.85 2.5
      vertex -6.5 -5.85 6
    endloop
  endfacet
  facet normal 0 0 1
    outer loop
      vertex -9 -5.85 6
      vertex -6.5 -5.85 6
      vertex -9 5.85 6
    endloop
  endfacet
  facet normal -1 0 0
    outer loop
      vertex -9 -5.85 6
      vertex -9 5.85 6
      vertex -9 5.85 0
    endloop
  endfacet
  facet normal 0 1 0
    outer loop
      vertex -9 5.85 0
      vertex -6.5 5.85 2.5
      vertex 9 5.85 0
    endloop
  endfacet
  facet normal 0 1 0
    outer loop
      vertex -9 5.85 0
      vertex -9 5.85 6
      vertex -6.5 5.85 2.5
    endloop
  endfacet
  facet normal 0 0 -1
    outer loop
      vertex -9 5.85 0
      vertex 9 5.85 0
      vertex 9 -5.85 0
    endloop
  endfacet
  facet normal 0 0 1
    outer loop
      vertex -9 5.85 6
      vertex -6.5 -5.85 6
      vertex -6.5 5.85 6
    endloop
  endfacet
  facet normal 0 1 0
    outer loop
      vertex -9 5.85 6
      vertex -6.5 5.85 6
      vertex -6.5 5.85 2.5
    endloop
  endfacet
  facet normal 2.22045e-16 1 4.93038e-32
    outer loop
      vertex -9.27036e-16 -1.855 17.085
      vertex 1.591 -1.855 14.501
      vertex 0.932 -1.855 15.16
    endloop
  endfacet
  facet normal 2.22045e-16 1 4.93038e-32
    outer loop
      vertex -9.27036e-16 -1.855 17.085
      vertex 1.633 -1.855 14.457
      vertex 1.591 -1.855 14.501
    endloop
  endfacet
  facet normal 2.22045e-16 1 4.93038e-32
    outer loop
      vertex -9.27036e-16 -1.855 17.085
      vertex 1.928 -1.855 14.07
      vertex 1.633 -1.855 14.457
    endloop
  endfacet
  facet normal 2.22045e-16 1 4.93038e-32
    outer loop
      vertex -9.27036e-16 -1.855 17.085
      vertex 3.5074 -1.855 15.06
      vertex 1.928 -1.855 14.07
    endloop
  endfacet
  facet normal -0.5 1.11022e-16 -0.866025
    outer loop
      vertex -9.27036e-16 -1.855 17.085
      vertex 4.996e-16 4.57 17.085
      vertex 3.5074 -1.855 15.06
    endloop
  endfacet
  facet normal 2.22045e-16 1 4.93038e-32
    outer loop
      vertex 0.364 -1.855 10.69
      vertex 0.833 -1.855 10.82
      vertex 3.5074 -1.855 10.76
    endloop
  endfacet
  facet normal -0.267114 5.93112e-17 0.963665
    outer loop
      vertex 0.364 -1.855 10.69
      vertex 0.833 -4.72 10.82
      vertex 0.833 -1.855 10.82
    endloop
  endfacet
  facet normal -0.267114 5.93112e-17 0.963665
    outer loop
      vertex 0.364 -4.72 10.69
      vertex 0.833 -4.72 10.82
      vertex 0.364 -1.855 10.69
    endloop
  endfacet
  facet normal 0 -1 0
    outer loop
      vertex 0.364 -4.72 10.69
      vertex 4.645 -4.72 2.5
      vertex 0.833 -4.72 10.82
    endloop
  endfacet
  facet normal 2.22045e-16 1 4.93038e-32
    outer loop
      vertex 0.833 -1.855 10.82
      vertex 1.263 -1.855 11.048
      vertex 3.5074 -1.855 10.76
    endloop
  endfacet
  facet normal -0.468454 1.04018e-16 0.883488
    outer loop
      vertex 0.833 -1.855 10.82
      vertex 1.263 -4.72 11.048
      vertex 1.263 -1.855 11.048
    endloop
  endfacet
  facet normal -0.468454 1.04018e-16 0.883488
    outer loop
      vertex 0.833 -4.72 10.82
      vertex 1.263 -4.72 11.048
      vertex 0.833 -1.855 10.82
    endloop
  endfacet
  facet normal 0 -1 0
    outer loop
      vertex 0.833 -4.72 10.82
      vertex 4.645 -4.72 2.5
      vertex 1.263 -4.72 11.048
    endloop
  endfacet
  facet normal -0.707107 1.57009e-16 -0.707107
    outer loop
      vertex 0.932 -1.855 15.16
      vertex 1.591 -1.855 14.501
      vertex 1.591 -4.72 14.501
    endloop
  endfacet
  facet normal -0.707107 1.57009e-16 -0.707107
    outer loop
      vertex 0.932 -4.72 15.16
      vertex 0.932 -1.855 15.16
      vertex 1.591 -4.72 14.501
    endloop
  endfacet
  facet normal 0 -1 0
    outer loop
      vertex 0.932 -4.72 15.16
      vertex 1.591 -4.72 14.501
      vertex 4.645 -4.72 18.96
    endloop
  endfacet
  facet normal 2.22045e-16 1 4.93038e-32
    outer loop
      vertex 1.263 -1.855 11.048
      vertex 1.633 -1.855 11.363
      vertex 3.5074 -1.855 10.76
    endloop
  endfacet
  facet normal -0.648246 1.43939e-16 0.761431
    outer loop
      vertex 1.263 -1.855 11.048
      vertex 1.633 -4.72 11.363
      vertex 1.633 -1.855 11.363
    endloop
  endfacet
  facet normal -0.648246 1.43939e-16 0.761431
    outer loop
      vertex 1.263 -4.72 11.048
      vertex 1.633 -4.72 11.363
      vertex 1.263 -1.855 11.048
    endloop
  endfacet
  facet normal 0 -1 0
    outer loop
      vertex 1.263 -4.72 11.048
      vertex 4.645 -4.72 2.5
      vertex 1.633 -4.72 11.363
    endloop
  endfacet
  facet normal 2.22045e-16 1 4.93038e-32
    outer loop
      vertex 1.587 -1.855 14.497
      vertex 1.591 -1.855 14.501
      vertex 1.633 -1.855 14.457
    endloop
  endfacet
  facet normal -0.707107 1.57009e-16 0.707107
    outer loop
      vertex 1.587 -1.855 14.497
      vertex 1.591 -4.72 14.501
      vertex 1.591 -1.855 14.501
    endloop
  endfacet
  facet normal -0.656179 1.45701e-16 -0.754606
    outer loop
      vertex 1.587 -1.855 14.497
      vertex 1.633 -1.855 14.457
      vertex 1.633 -4.72 14.457
    endloop
  endfacet
  facet normal -0.656179 1.45701e-16 -0.754606
    outer loop
      vertex 1.587 -4.72 14.497
      vertex 1.587 -1.855 14.497
      vertex 1.633 -4.72 14.457
    endloop
  endfacet
  facet normal -0.707107 1.57009e-16 0.707107
    outer loop
      vertex 1.587 -4.72 14.497
      vertex 1.591 -4.72 14.501
      vertex 1.587 -1.855 14.497
    endloop
  endfacet
  facet normal 0 -1 0
    outer loop
      vertex 1.587 -4.72 14.497
      vertex 1.633 -4.72 14.457
      vertex 1.591 -4.72 14.501
    endloop
  endfacet
  facet normal 0 -1 0
    outer loop
      vertex 1.591 -4.72 14.501
      vertex 1.633 -4.72 14.457
      vertex 4.645 -4.72 18.96
    endloop
  endfacet
  facet normal 2.22045e-16 1 4.93038e-32
    outer loop
      vertex 1.633 -1.855 11.363
      vertex 1.928 -1.855 11.75
      vertex 3.5074 -1.855 10.76
    endloop
  endfacet
  facet normal -0.79529 1.7659e-16 0.606229
    outer loop
      vertex 1.633 -1.855 11.363
      vertex 1.928 -4.72 11.75
      vertex 1.928 -1.855 11.75
    endloop
  endfacet
  facet normal -0.79529 1.7659e-16 -0.606229
    outer loop
      vertex 1.633 -1.855 14.457
      vertex 1.928 -1.855 14.07
      vertex 1.928 -4.72 14.07
    endloop
  endfacet
  facet normal -0.79529 1.7659e-16 0.606229
    outer loop
      vertex 1.633 -4.72 11.363
      vertex 1.928 -4.72 11.75
      vertex 1.633 -1.855 11.363
    endloop
  endfacet
  facet normal 0 -1 0
    outer loop
      vertex 1.633 -4.72 11.363
      vertex 4.645 -4.72 2.5
      vertex 1.928 -4.72 11.75
    endloop
  endfacet
  facet normal -0.79529 1.7659e-16 -0.606229
    outer loop
      vertex 1.633 -4.72 14.457
      vertex 1.633 -1.855 14.457
      vertex 1.928 -4.72 14.07
    endloop
  endfacet
  facet normal 0 -1 0
    outer loop
      vertex 1.633 -4.72 14.457
      vertex 1.928 -4.72 14.07
      vertex 4.645 -4.72 18.96
    endloop
  endfacet
  facet normal 2.22045e-16 1 4.93038e-32
    outer loop
      vertex 1.928 -1.855 11.75
      vertex 2.132 -1.855 12.192
      vertex 3.5074 -1.855 10.76
    endloop
  endfacet
  facet normal -0.907959 2.01607e-16 0.419058
    outer loop
      vertex 1.928 -1.855 11.75
      vertex 2.132 -4.72 12.192
      vertex 2.132 -1.855 12.192
    endloop
  endfacet
  facet normal -0.907959 2.01607e-16 -0.419058
    outer loop
      vertex 1.928 -1.855 14.07
      vertex 2.132 -1.855 13.628
      vertex 2.132 -4.72 13.628
    endloop
  endfacet
  facet normal 2.22045e-16 1 4.93038e-32
    outer loop
      vertex 1.928 -1.855 14.07
      vertex 3.5074 -1.855 15.06
      vertex 2.132 -1.855 13.628
    endloop
  endfacet
  facet normal -0.907959 2.01607e-16 0.419058
    outer loop
      vertex 1.928 -4.72 11.75
      vertex 2.132 -4.72 12.192
      vertex 1.928 -1.855 11.75
    endloop
  endfacet
  facet normal 0 -1 0
    outer loop
      vertex 1.928 -4.72 11.75
      vertex 4.645 -4.72 2.5
      vertex 2.132 -4.72 12.192
    endloop
  endfacet
  facet normal -0.907959 2.01607e-16 -0.419058
    outer loop
      vertex 1.928 -4.72 14.07
      vertex 1.928 -1.855 14.07
      vertex 2.132 -4.72 13.628
    endloop
  endfacet
  facet normal 0 -1 0
    outer loop
      vertex 1.928 -4.72 14.07
      vertex 2.132 -4.72 13.628
      vertex 4.645 -4.72 18.96
    endloop
  endfacet
  facet normal 2.22045e-16 1 4.93038e-32
    outer loop
      vertex 2.132 -1.855 12.192
      vertex 2.237 -1.855 12.667
      vertex 3.5074 -1.855 10.76
    endloop
  endfacet
  facet normal -0.976428 2.16811e-16 0.215842
    outer loop
      vertex 2.132 -1.855 12.192
      vertex 2.237 -4.72 12.667
      vertex 2.237 -1.855 12.667
    endloop
  endfacet
  facet normal -0.976428 2.16811e-16 -0.215842
    outer loop
      vertex 2.132 -1.855 13.628
      vertex 2.237 -1.855 13.153
      vertex 2.237 -4.72 13.153
    endloop
  endfacet
  facet normal 2.22045e-16 1 4.93038e-32
    outer loop
      vertex 2.132 -1.855 13.628
      vertex 3.5074 -1.855 15.06
      vertex 2.237 -1.855 13.153
    endloop
  endfacet
  facet normal -0.976428 2.16811e-16 0.215842
    outer loop
      vertex 2.132 -4.72 12.192
      vertex 2.237 -4.72 12.667
      vertex 2.132 -1.855 12.192
    endloop
  endfacet
  facet normal 0 -1 0
    outer loop
      vertex 2.132 -4.72 12.192
      vertex 4.645 -4.72 2.5
      vertex 2.237 -4.72 12.667
    endloop
  endfacet
  facet normal -0.976428 2.16811e-16 -0.215842
    outer loop
      vertex 2.132 -4.72 13.628
      vertex 2.132 -1.855 13.628
      vertex 2.237 -4.72 13.153
    endloop
  endfacet
  facet normal 0 -1 0
    outer loop
      vertex 2.132 -4.72 13.628
      vertex 2.237 -4.72 13.153
      vertex 4.645 -4.72 2.5
    endloop
  endfacet
  facet normal 0 -1 0
    outer loop
      vertex 2.132 -4.72 13.628
      vertex 4.645 -4.72 2.5
      vertex 4.645 -4.72 18.96
    endloop
  endfacet
  facet normal 2.22045e-16 1 4.93038e-32
    outer loop
      vertex 2.237 -1.855 12.667
      vertex 2.237 -1.855 13.153
      vertex 3.5074 -1.855 10.76
    endloop
  endfacet
  facet normal 2.22045e-16 1 4.93038e-32
    outer loop
      vertex 2.237 -1.855 13.153
      vertex 3.5074 -1.855 15.06
      vertex 3.5074 -1.855 10.76
    endloop
  endfacet
  facet normal -1 2.22045e-16 -4.44089e-16
    outer loop
      vertex 2.237 -4.72 12.667
      vertex 2.237 -1.855 13.153
      vertex 2.237 -1.855 12.667
    endloop
  endfacet
  facet normal -1 2.22045e-16 -4.44089e-16
    outer loop
      vertex 2.237 -4.72 12.667
      vertex 2.237 -4.72 13.153
      vertex 2.237 -1.855 13.153
    endloop
  endfacet
  facet normal 0 -1 0
    outer loop
      vertex 2.237 -4.72 12.667
      vertex 4.645 -4.72 2.5
      vertex 2.237 -4.72 13.153
    endloop
  endfacet
  facet normal -0.5 1.11022e-16 0.866025
    outer loop
      vertex 2.35367e-15 4.57 8.735
      vertex 3.5074 -1.855 10.76
      vertex 3.5074 4.57 10.76
    endloop
  endfacet
  facet normal 0 1 0
    outer loop
      vertex 2.35367e-15 4.57 8.735
      vertex 3.5074 4.57 10.76
      vertex 4.645 4.57 2.5
    endloop
  endfacet
  facet normal -1 2.22045e-16 -2.22045e-16
    outer loop
      vertex 3.5074 -1.855 10.76
      vertex 3.5074 -1.855 15.06
      vertex 3.5074 4.57 15.06
    endloop
  endfacet
  facet normal -1 2.22045e-16 -2.22045e-16
    outer loop
      vertex 3.5074 -1.855 10.76
      vertex 3.5074 4.57 15.06
      vertex 3.5074 4.57 10.76
    endloop
  endfacet
  facet normal 0 1 0
    outer loop
      vertex 3.5074 4.57 10.76
      vertex 3.5074 4.57 15.06
      vertex 4.645 4.57 18.96
    endloop
  endfacet
  facet normal 0 1 0
    outer loop
      vertex 3.5074 4.57 10.76
      vertex 4.645 4.57 18.96
      vertex 4.645 4.57 2.5
    endloop
  endfacet
  facet normal 0.894427 0 0.447214
    outer loop
      vertex 4.145 -4.22 19.96
      vertex 4.645 -4.72 18.96
      vertex 4.145 4.07 19.96
    endloop
  endfacet
  facet normal 0.894427 0 0.447214
    outer loop
      vertex 4.145 4.07 19.96
      vertex 4.645 -4.72 18.96
      vertex 4.645 4.57 18.96
    endloop
  endfacet
  facet normal 1 0 0
    outer loop
      vertex 4.645 -4.72 18.96
      vertex 4.645 4.57 2.5
      vertex 4.645 4.57 18.96
    endloop
  endfacet
  facet normal 1 0 0
    outer loop
      vertex 4.645 -4.72 2.5
      vertex 4.645 4.57 2.5
      vertex 4.645 -4.72 18.96
    endloop
  endfacet
  facet normal 0 0 1
    outer loop
      vertex 4.645 -4.72 2.5
      vertex 6.5 -5.85 2.5
      vertex 4.645 4.57 2.5
    endloop
  endfacet
  facet normal 0 0 1
    outer loop
      vertex 4.645 4.57 2.5
      vertex 6.5 -5.85 2.5
      vertex 6.5 5.85 2.5
    endloop
  endfacet
  facet normal -0.5 1.11022e-16 -0.866025
    outer loop
      vertex 4.996e-16 4.57 17.085
      vertex 3.5074 4.57 15.06
      vertex 3.5074 -1.855 15.06
    endloop
  endfacet
  facet normal 0 1 0
    outer loop
      vertex 4.996e-16 4.57 17.085
      vertex 4.645 4.57 18.96
      vertex 3.5074 4.57 15.06
    endloop
  endfacet
  facet normal -1 0 0
    outer loop
      vertex 6.5 -5.85 2.5
      vertex 6.5 -5.85 6
      vertex 6.5 5.85 2.5
    endloop
  endfacet
  facet normal 0 -1 0
    outer loop
      vertex 6.5 -5.85 2.5
      vertex 9 -5.85 0
      vertex 6.5 -5.85 6
    endloop
  endfacet
  facet normal -1 0 0
    outer loop
      vertex 6.5 -5.85 6
      vertex 6.5 5.85 6
      vertex 6.5 5.85 2.5
    endloop
  endfacet
  facet normal 0 -1 0
    outer loop
      vertex 6.5 -5.85 6
      vertex 9 -5.85 0
      vertex 9 -5.85 6
    endloop
  endfacet
  facet normal 0 0 1
    outer loop
      vertex 6.5 -5.85 6
      vertex 9 -5.85 6
      vertex 6.5 5.85 6
    endloop
  endfacet
  facet normal 0 1 0
    outer loop
      vertex 6.5 5.85 2.5
      vertex 6.5 5.85 6
      vertex 9 5.85 0
    endloop
  endfacet
  facet normal 0 0 1
    outer loop
      vertex 6.5 5.85 6
      vertex 9 -5.85 6
      vertex 9 5.85 6
    endloop
  endfacet
  facet normal 0 1 0
    outer loop
      vertex 6.5 5.85 6
      vertex 9 5.85 6
      vertex 9 5.85 0
    endloop
  endfacet
  facet normal 1 0 0
    outer loop
      vertex 9 -5.85 0
      vertex 9 5.85 0
      vertex 9 -5.85 6
    endloop
  endfacet
  facet normal 1 0 0
    outer loop
      vertex 9 -5.85 6
      vertex 9 5.85 0
      vertex 9 5.85 6
    endloop
  endfacet
  facet normal 2.22045e-16 1 4.93038e-32
    outer loop
      vertex 9.27036e-16 -1.855 8.735
      vertex 0.364 -1.855 10.69
      vertex 3.5074 -1.855 10.76
    endloop
  endfacet
  facet normal -0.5 1.11022e-16 0.866025
    outer loop
      vertex 9.27036e-16 -1.855 8.735
      vertex 3.5074 -1.855 10.76
      vertex 2.35367e-15 4.57 8.735
    endloop
  endfacet
endsolid OpenSCAD_Model
