solid OpenSCAD_Model
  facet normal -0.675809 -0.737077 0
    outer loop
      vertex -0.191 -4.366 0
      vertex 0.206 -4.73 0
      vertex -0.191 -4.366 2
    endloop
  endfacet
  facet normal -0.675809 -0.737077 0
    outer loop
      vertex -0.191 -4.366 2
      vertex 0.206 -4.73 0
      vertex 0.206 -4.73 2
    endloop
  endfacet
  facet normal -0.675809 0.737077 0
    outer loop
      vertex -0.191 4.366 0
      vertex -0.191 4.366 2
      vertex 0.206 4.73 0
    endloop
  endfacet
  facet normal -0.675809 0.737077 0
    outer loop
      vertex -0.191 4.366 2
      vertex 0.206 4.73 2
      vertex 0.206 4.73 0
    endloop
  endfacet
  facet normal -0.737077 -0.675809 0
    outer loop
      vertex -0.555 -3.969 0
      vertex -0.191 -4.366 0
      vertex -0.555 -3.969 2
    endloop
  endfacet
  facet normal -0.737077 -0.675809 0
    outer loop
      vertex -0.555 -3.969 2
      vertex -0.191 -4.366 0
      vertex -0.191 -4.366 2
    endloop
  endfacet
  facet normal -0.737077 0.675809 0
    outer loop
      vertex -0.555 3.969 0
      vertex -0.555 3.969 2
      vertex -0.191 4.366 0
    endloop
  endfacet
  facet normal -0.737077 0.675809 0
    outer loop
      vertex -0.555 3.969 2
      vertex -0.191 4.366 2
      vertex -0.191 4.366 0
    endloop
  endfacet
  facet normal -0.793038 -0.609172 0
    outer loop
      vertex -0.883 -3.542 0
      vertex -0.555 -3.969 0
      vertex -0.883 -3.542 2
    endloop
  endfacet
  facet normal -0.793038 -0.609172 0
    outer loop
      vertex -0.883 -3.542 2
      vertex -0.555 -3.969 0
      vertex -0.555 -3.969 2
    endloop
  endfacet
  facet normal -0.793038 0.609172 0
    outer loop
      vertex -0.883 3.542 0
      vertex -0.883 3.542 2
      vertex -0.555 3.969 0
    endloop
  endfacet
  facet normal -0.793038 0.609172 0
    outer loop
      vertex -0.883 3.542 2
      vertex -0.555 3.969 2
      vertex -0.555 3.969 0
    endloop
  endfacet
  facet normal -0.842743 -0.538316 0
    outer loop
      vertex -1.173 -3.088 0
      vertex -0.883 -3.542 0
      vertex -1.173 -3.088 2
    endloop
  endfacet
  facet normal -0.842743 -0.538316 0
    outer loop
      vertex -1.173 -3.088 2
      vertex -0.883 -3.542 0
      vertex -0.883 -3.542 2
    endloop
  endfacet
  facet normal -0.842743 0.538316 0
    outer loop
      vertex -1.173 3.088 0
      vertex -1.173 3.088 2
      vertex -0.883 3.542 0
    endloop
  endfacet
  facet normal -0.842743 0.538316 0
    outer loop
      vertex -1.173 3.088 2
      vertex -0.883 3.542 2
      vertex -0.883 3.542 0
    endloop
  endfacet
  facet normal -0.887642 -0.460534 0
    outer loop
      vertex -1.421 -2.61 0
      vertex -1.173 -3.088 0
      vertex -1.421 -2.61 2
    endloop
  endfacet
  facet normal -0.887642 -0.460534 0
    outer loop
      vertex -1.421 -2.61 2
      vertex -1.173 -3.088 0
      vertex -1.173 -3.088 2
    endloop
  endfacet
  facet normal -0.887642 0.460534 0
    outer loop
      vertex -1.421 2.61 0
      vertex -1.421 2.61 2
      vertex -1.173 3.088 0
    endloop
  endfacet
  facet normal -0.887642 0.460534 0
    outer loop
      vertex -1.421 2.61 2
      vertex -1.173 3.088 2
      vertex -1.173 3.088 0
    endloop
  endfacet
  facet normal -0.923406 -0.383825 0
    outer loop
      vertex -1.628 -2.112 0
      vertex -1.421 -2.61 0
      vertex -1.628 -2.112 2
    endloop
  endfacet
  facet normal -0.923406 -0.383825 0
    outer loop
      vertex -1.628 -2.112 2
      vertex -1.421 -2.61 0
      vertex -1.421 -2.61 2
    endloop
  endfacet
  facet normal -0.923406 0.383825 0
    outer loop
      vertex -1.628 2.112 0
      vertex -1.628 2.112 2
      vertex -1.421 2.61 0
    endloop
  endfacet
  facet normal -0.923406 0.383825 0
    outer loop
      vertex -1.628 2.112 2
      vertex -1.421 2.61 2
      vertex -1.421 2.61 0
    endloop
  endfacet
  facet normal -0.953751 -0.300598 0
    outer loop
      vertex -1.79 -1.598 0
      vertex -1.628 -2.112 0
      vertex -1.79 -1.598 2
    endloop
  endfacet
  facet normal -0.953751 -0.300598 0
    outer loop
      vertex -1.79 -1.598 2
      vertex -1.628 -2.112 0
      vertex -1.628 -2.112 2
    endloop
  endfacet
  facet normal -0.953751 0.300598 0
    outer loop
      vertex -1.79 1.598 0
      vertex -1.79 1.598 2
      vertex -1.628 2.112 0
    endloop
  endfacet
  facet normal -0.953751 0.300598 0
    outer loop
      vertex -1.79 1.598 2
      vertex -1.628 2.112 2
      vertex -1.628 2.112 0
    endloop
  endfacet
  facet normal -0.976535 -0.215358 0
    outer loop
      vertex -1.906 -1.072 0
      vertex -1.79 -1.598 0
      vertex -1.906 -1.072 2
    endloop
  endfacet
  facet normal -0.976535 -0.215358 0
    outer loop
      vertex -1.906 -1.072 2
      vertex -1.79 -1.598 0
      vertex -1.79 -1.598 2
    endloop
  endfacet
  facet normal -0.976535 0.215358 0
    outer loop
      vertex -1.906 1.072 0
      vertex -1.906 1.072 2
      vertex -1.79 1.598 0
    endloop
  endfacet
  facet normal -0.976535 0.215358 0
    outer loop
      vertex -1.906 1.072 2
      vertex -1.79 1.598 2
      vertex -1.79 1.598 0
    endloop
  endfacet
  facet normal 0 0 -1
    outer loop
      vertex -1.977 -0.538 0
      vertex -0.191 -4.366 0
      vertex -0.555 -3.969 0
    endloop
  endfacet
  facet normal 0 0 -1
    outer loop
      vertex -1.977 -0.538 0
      vertex -0.191 4.366 0
      vertex 0.206 4.73 0
    endloop
  endfacet
  facet normal 0 0 -1
    outer loop
      vertex -1.977 -0.538 0
      vertex -0.555 -3.969 0
      vertex -0.883 -3.542 0
    endloop
  endfacet
  facet normal 0 0 -1
    outer loop
      vertex -1.977 -0.538 0
      vertex -0.555 3.969 0
      vertex -0.191 4.366 0
    endloop
  endfacet
  facet normal 0 0 -1
    outer loop
      vertex -1.977 -0.538 0
      vertex -0.883 -3.542 0
      vertex -1.173 -3.088 0
    endloop
  endfacet
  facet normal 0 0 -1
    outer loop
      vertex -1.977 -0.538 0
      vertex -0.883 3.542 0
      vertex -0.555 3.969 0
    endloop
  endfacet
  facet normal 0 0 -1
    outer loop
      vertex -1.977 -0.538 0
      vertex -1.173 -3.088 0
      vertex -1.421 -2.61 0
    endloop
  endfacet
  facet normal 0 0 -1
    outer loop
      vertex -1.977 -0.538 0
      vertex -1.173 3.088 0
      vertex -0.883 3.542 0
    endloop
  endfacet
  facet normal 0 0 -1
    outer loop
      vertex -1.977 -0.538 0
      vertex -1.421 -2.61 0
      vertex -1.628 -2.112 0
    endloop
  endfacet
  facet normal 0 0 -1
    outer loop
      vertex -1.977 -0.538 0
      vertex -1.421 2.61 0
      vertex -1.173 3.088 0
    endloop
  endfacet
  facet normal 0 0 -1
    outer loop
      vertex -1.977 -0.538 0
      vertex -1.628 -2.112 0
      vertex -1.79 -1.598 0
    endloop
  endfacet
  facet normal 0 0 -1
    outer loop
      vertex -1.977 -0.538 0
      vertex -1.628 2.112 0
      vertex -1.421 2.61 0
    endloop
  endfacet
  facet normal 0 0 -1
    outer loop
      vertex -1.977 -0.538 0
      vertex -1.79 -1.598 0
      vertex -1.906 -1.072 0
    endloop
  endfacet
  facet normal 0 0 -1
    outer loop
      vertex -1.977 -0.538 0
      vertex -1.79 1.598 0
      vertex -1.628 2.112 0
    endloop
  endfacet
  facet normal -0.991276 -0.131799 0
    outer loop
      vertex -1.977 -0.538 0
      vertex -1.906 -1.072 0
      vertex -1.977 -0.538 2
    endloop
  endfacet
  facet normal 0 0 -1
    outer loop
      vertex -1.977 -0.538 0
      vertex -1.906 1.072 0
      vertex -1.79 1.598 0
    endloop
  endfacet
  facet normal 0 0 -1
    outer loop
      vertex -1.977 -0.538 0
      vertex -1.977 0.538 0
      vertex -1.906 1.072 0
    endloop
  endfacet
  facet normal 0 0 -1
    outer loop
      vertex -1.977 -0.538 0
      vertex 0.206 -4.73 0
      vertex -0.191 -4.366 0
    endloop
  endfacet
  facet normal 0 0 -1
    outer loop
      vertex -1.977 -0.538 0
      vertex 0.206 4.73 0
      vertex 0.633 5.058 0
    endloop
  endfacet
  facet normal 0 0 -1
    outer loop
      vertex -1.977 -0.538 0
      vertex 0.633 -5.058 0
      vertex 0.206 -4.73 0
    endloop
  endfacet
  facet normal 0 0 -1
    outer loop
      vertex -1.977 -0.538 0
      vertex 0.633 5.058 0
      vertex 1.087 5.348 0
    endloop
  endfacet
  facet normal 0 0 -1
    outer loop
      vertex -1.977 -0.538 0
      vertex 1.087 -5.348 0
      vertex 0.633 -5.058 0
    endloop
  endfacet
  facet normal 0 0 -1
    outer loop
      vertex -1.977 -0.538 0
      vertex 1.087 5.348 0
      vertex 1.565 5.596 0
    endloop
  endfacet
  facet normal 0 0 -1
    outer loop
      vertex -1.977 -0.538 0
      vertex 1.565 -5.596 0
      vertex 1.087 -5.348 0
    endloop
  endfacet
  facet normal 0 0 -1
    outer loop
      vertex -1.977 -0.538 0
      vertex 1.565 5.596 0
      vertex 2.063 5.803 0
    endloop
  endfacet
  facet normal 0 0 -1
    outer loop
      vertex -1.977 -0.538 0
      vertex 2.063 -5.803 0
      vertex 1.565 -5.596 0
    endloop
  endfacet
  facet normal 0 0 -1
    outer loop
      vertex -1.977 -0.538 0
      vertex 2.063 5.803 0
      vertex 2.577 5.965 0
    endloop
  endfacet
  facet normal 0 0 -1
    outer loop
      vertex -1.977 -0.538 0
      vertex 2.577 -5.965 0
      vertex 2.063 -5.803 0
    endloop
  endfacet
  facet normal 0 0 -1
    outer loop
      vertex -1.977 -0.538 0
      vertex 2.577 5.965 0
      vertex 3.103 6.081 0
    endloop
  endfacet
  facet normal 0 0 -1
    outer loop
      vertex -1.977 -0.538 0
      vertex 3.103 -6.081 0
      vertex 2.577 -5.965 0
    endloop
  endfacet
  facet normal 0 0 -1
    outer loop
      vertex -1.977 -0.538 0
      vertex 3.103 6.081 0
      vertex 3.637 6.152 0
    endloop
  endfacet
  facet normal 0 0 -1
    outer loop
      vertex -1.977 -0.538 0
      vertex 3.637 -6.152 0
      vertex 3.103 -6.081 0
    endloop
  endfacet
  facet normal 0 0 -1
    outer loop
      vertex -1.977 -0.538 0
      vertex 3.637 6.152 0
      vertex 4.175 6.175 0
    endloop
  endfacet
  facet normal 0 0 -1
    outer loop
      vertex -1.977 -0.538 0
      vertex 4.175 -6.175 0
      vertex 3.637 -6.152 0
    endloop
  endfacet
  facet normal 0 0 -1
    outer loop
      vertex -1.977 -0.538 0
      vertex 4.175 6.175 0
      vertex 5.175 6.175 0
    endloop
  endfacet
  facet normal 0 0 -1
    outer loop
      vertex -1.977 -0.538 0
      vertex 5.175 -6.175 0
      vertex 4.175 -6.175 0
    endloop
  endfacet
  facet normal 0 0 -1
    outer loop
      vertex -1.977 -0.538 0
      vertex 5.175 6.175 0
      vertex 5.175 -6.175 0
    endloop
  endfacet
  facet normal -0.991276 -0.131799 0
    outer loop
      vertex -1.977 -0.538 2
      vertex -1.906 -1.072 0
      vertex -1.906 -1.072 2
    endloop
  endfacet
  facet normal 0 0 1
    outer loop
      vertex -1.977 -0.538 2
      vertex -1.906 -1.072 2
      vertex -1.977 0.538 2
    endloop
  endfacet
  facet normal -0.991276 0.131799 0
    outer loop
      vertex -1.977 0.538 0
      vertex -1.977 0.538 2
      vertex -1.906 1.072 0
    endloop
  endfacet
  facet normal 0 0 1
    outer loop
      vertex -1.977 0.538 2
      vertex -0.191 -4.366 2
      vertex 0.206 -4.73 2
    endloop
  endfacet
  facet normal 0 0 1
    outer loop
      vertex -1.977 0.538 2
      vertex -0.191 4.366 2
      vertex -0.555 3.969 2
    endloop
  endfacet
  facet normal 0 0 1
    outer loop
      vertex -1.977 0.538 2
      vertex -0.555 -3.969 2
      vertex -0.191 -4.366 2
    endloop
  endfacet
  facet normal 0 0 1
    outer loop
      vertex -1.977 0.538 2
      vertex -0.555 3.969 2
      vertex -0.883 3.542 2
    endloop
  endfacet
  facet normal 0 0 1
    outer loop
      vertex -1.977 0.538 2
      vertex -0.883 -3.542 2
      vertex -0.555 -3.969 2
    endloop
  endfacet
  facet normal 0 0 1
    outer loop
      vertex -1.977 0.538 2
      vertex -0.883 3.542 2
      vertex -1.173 3.088 2
    endloop
  endfacet
  facet normal 0 0 1
    outer loop
      vertex -1.977 0.538 2
      vertex -1.173 -3.088 2
      vertex -0.883 -3.542 2
    endloop
  endfacet
  facet normal 0 0 1
    outer loop
      vertex -1.977 0.538 2
      vertex -1.173 3.088 2
      vertex -1.421 2.61 2
    endloop
  endfacet
  facet normal 0 0 1
    outer loop
      vertex -1.977 0.538 2
      vertex -1.421 -2.61 2
      vertex -1.173 -3.088 2
    endloop
  endfacet
  facet normal 0 0 1
    outer loop
      vertex -1.977 0.538 2
      vertex -1.421 2.61 2
      vertex -1.628 2.112 2
    endloop
  endfacet
  facet normal 0 0 1
    outer loop
      vertex -1.977 0.538 2
      vertex -1.628 -2.112 2
      vertex -1.421 -2.61 2
    endloop
  endfacet
  facet normal 0 0 1
    outer loop
      vertex -1.977 0.538 2
      vertex -1.628 2.112 2
      vertex -1.79 1.598 2
    endloop
  endfacet
  facet normal 0 0 1
    outer loop
      vertex -1.977 0.538 2
      vertex -1.79 -1.598 2
      vertex -1.628 -2.112 2
    endloop
  endfacet
  facet normal 0 0 1
    outer loop
      vertex -1.977 0.538 2
      vertex -1.79 1.598 2
      vertex -1.906 1.072 2
    endloop
  endfacet
  facet normal 0 0 1
    outer loop
      vertex -1.977 0.538 2
      vertex -1.906 -1.072 2
      vertex -1.79 -1.598 2
    endloop
  endfacet
  facet normal -0.991276 0.131799 0
    outer loop
      vertex -1.977 0.538 2
      vertex -1.906 1.072 2
      vertex -1.906 1.072 0
    endloop
  endfacet
  facet normal 0 0 1
    outer loop
      vertex -1.977 0.538 2
      vertex 0.007 -0.247 2
      vertex 0.007 0.247 2
    endloop
  endfacet
  facet normal 0 0 1
    outer loop
      vertex -1.977 0.538 2
      vertex 0.007 0.247 2
      vertex 0.066 0.739 2
    endloop
  endfacet
  facet normal 0 0 1
    outer loop
      vertex -1.977 0.538 2
      vertex 0.066 -0.739 2
      vertex 0.007 -0.247 2
    endloop
  endfacet
  facet normal 0 0 1
    outer loop
      vertex -1.977 0.538 2
      vertex 0.066 0.739 2
      vertex 0.182 1.219 2
    endloop
  endfacet
  facet normal 0 0 1
    outer loop
      vertex -1.977 0.538 2
      vertex 0.182 -1.219 2
      vertex 0.066 -0.739 2
    endloop
  endfacet
  facet normal 0 0 1
    outer loop
      vertex -1.977 0.538 2
      vertex 0.182 1.219 2
      vertex 0.354 1.683 2
    endloop
  endfacet
  facet normal 0 0 1
    outer loop
      vertex -1.977 0.538 2
      vertex 0.206 -4.73 2
      vertex 0.633 -5.058 2
    endloop
  endfacet
  facet normal 0 0 1
    outer loop
      vertex -1.977 0.538 2
      vertex 0.206 4.73 2
      vertex -0.191 4.366 2
    endloop
  endfacet
  facet normal 0 0 1
    outer loop
      vertex -1.977 0.538 2
      vertex 0.354 -1.683 2
      vertex 0.182 -1.219 2
    endloop
  endfacet
  facet normal 0 0 1
    outer loop
      vertex -1.977 0.538 2
      vertex 0.354 1.683 2
      vertex 0.58 2.123 2
    endloop
  endfacet
  facet normal 0 0 1
    outer loop
      vertex -1.977 0.538 2
      vertex 0.58 -2.123 2
      vertex 0.354 -1.683 2
    endloop
  endfacet
  facet normal 0 0 1
    outer loop
      vertex -1.977 0.538 2
      vertex 0.58 2.123 2
      vertex 0.856 2.533 2
    endloop
  endfacet
  facet normal 0 0 1
    outer loop
      vertex -1.977 0.538 2
      vertex 0.633 -5.058 2
      vertex 1.087 -5.348 2
    endloop
  endfacet
  facet normal 0 0 1
    outer loop
      vertex -1.977 0.538 2
      vertex 0.633 5.058 2
      vertex 0.206 4.73 2
    endloop
  endfacet
  facet normal 0 0 1
    outer loop
      vertex -1.977 0.538 2
      vertex 0.856 -2.533 2
      vertex 0.58 -2.123 2
    endloop
  endfacet
  facet normal 0 0 1
    outer loop
      vertex -1.977 0.538 2
      vertex 0.856 2.533 2
      vertex 1.179 2.908 2
    endloop
  endfacet
  facet normal 0 0 1
    outer loop
      vertex -1.977 0.538 2
      vertex 1.087 -5.348 2
      vertex 1.565 -5.596 2
    endloop
  endfacet
  facet normal 0 0 1
    outer loop
      vertex -1.977 0.538 2
      vertex 1.087 5.348 2
      vertex 0.633 5.058 2
    endloop
  endfacet
  facet normal 0 0 1
    outer loop
      vertex -1.977 0.538 2
      vertex 1.179 -2.908 2
      vertex 0.856 -2.533 2
    endloop
  endfacet
  facet normal 0 0 1
    outer loop
      vertex -1.977 0.538 2
      vertex 1.179 2.908 2
      vertex 1.544 3.242 2
    endloop
  endfacet
  facet normal 0 0 1
    outer loop
      vertex -1.977 0.538 2
      vertex 1.544 3.242 2
      vertex 5.175 6.175 2
    endloop
  endfacet
  facet normal 0 0 1
    outer loop
      vertex -1.977 0.538 2
      vertex 1.565 -5.596 2
      vertex 2.063 -5.803 2
    endloop
  endfacet
  facet normal 0 0 1
    outer loop
      vertex -1.977 0.538 2
      vertex 1.565 5.596 2
      vertex 1.087 5.348 2
    endloop
  endfacet
  facet normal 0 0 1
    outer loop
      vertex -1.977 0.538 2
      vertex 2.063 -5.803 2
      vertex 2.577 -5.965 2
    endloop
  endfacet
  facet normal 0 0 1
    outer loop
      vertex -1.977 0.538 2
      vertex 2.063 5.803 2
      vertex 1.565 5.596 2
    endloop
  endfacet
  facet normal 0 0 1
    outer loop
      vertex -1.977 0.538 2
      vertex 2.577 -5.965 2
      vertex 3.103 -6.081 2
    endloop
  endfacet
  facet normal 0 0 1
    outer loop
      vertex -1.977 0.538 2
      vertex 2.577 5.965 2
      vertex 2.063 5.803 2
    endloop
  endfacet
  facet normal 0 0 1
    outer loop
      vertex -1.977 0.538 2
      vertex 3.103 -6.081 2
      vertex 3.637 -6.152 2
    endloop
  endfacet
  facet normal 0 0 1
    outer loop
      vertex -1.977 0.538 2
      vertex 3.103 6.081 2
      vertex 2.577 5.965 2
    endloop
  endfacet
  facet normal 0 0 1
    outer loop
      vertex -1.977 0.538 2
      vertex 3.637 -6.152 2
      vertex 1.179 -2.908 2
    endloop
  endfacet
  facet normal 0 0 1
    outer loop
      vertex -1.977 0.538 2
      vertex 3.637 6.152 2
      vertex 3.103 6.081 2
    endloop
  endfacet
  facet normal 0 0 1
    outer loop
      vertex -1.977 0.538 2
      vertex 4.175 6.175 2
      vertex 3.637 6.152 2
    endloop
  endfacet
  facet normal 0 0 1
    outer loop
      vertex -1.977 0.538 2
      vertex 5.175 6.175 2
      vertex 4.175 6.175 2
    endloop
  endfacet
  facet normal -0.999087 -0.0427119 0
    outer loop
      vertex -2 0 0
      vertex -1.977 -0.538 0
      vertex -2 0 2
    endloop
  endfacet
  facet normal 0 0 -1
    outer loop
      vertex -2 0 0
      vertex -1.977 0.538 0
      vertex -1.977 -0.538 0
    endloop
  endfacet
  facet normal -0.999087 0.0427119 0
    outer loop
      vertex -2 0 0
      vertex -2 0 2
      vertex -1.977 0.538 0
    endloop
  endfacet
  facet normal -0.999087 -0.0427119 0
    outer loop
      vertex -2 0 2
      vertex -1.977 -0.538 0
      vertex -1.977 -0.538 2
    endloop
  endfacet
  facet normal 0 0 1
    outer loop
      vertex -2 0 2
      vertex -1.977 -0.538 2
      vertex -1.977 0.538 2
    endloop
  endfacet
  facet normal -0.999087 0.0427119 0
    outer loop
      vertex -2 0 2
      vertex -1.977 0.538 2
      vertex -1.977 0.538 0
    endloop
  endfacet
  facet normal -1 0 0
    outer loop
      vertex 0.007 -0.247 10.2
      vertex 0.007 0.247 10.2
      vertex 0.007 0.247 2
    endloop
  endfacet
  facet normal 0 0 1
    outer loop
      vertex 0.007 -0.247 10.2
      vertex 0.066 -0.739 10.2
      vertex 0.007 0.247 10.2
    endloop
  endfacet
  facet normal -0.992886 -0.119066 0
    outer loop
      vertex 0.007 -0.247 10.2
      vertex 0.066 -0.739 2
      vertex 0.066 -0.739 10.2
    endloop
  endfacet
  facet normal -1 0 0
    outer loop
      vertex 0.007 -0.247 2
      vertex 0.007 -0.247 10.2
      vertex 0.007 0.247 2
    endloop
  endfacet
  facet normal -0.992886 -0.119066 0
    outer loop
      vertex 0.007 -0.247 2
      vertex 0.066 -0.739 2
      vertex 0.007 -0.247 10.2
    endloop
  endfacet
  facet normal 0 0 1
    outer loop
      vertex 0.007 0.247 10.2
      vertex 0.066 -0.739 10.2
      vertex 0.182 -1.219 10.2
    endloop
  endfacet
  facet normal -0.992886 0.119066 0
    outer loop
      vertex 0.007 0.247 10.2
      vertex 0.066 0.739 10.2
      vertex 0.066 0.739 2
    endloop
  endfacet
  facet normal 0 0 1
    outer loop
      vertex 0.007 0.247 10.2
      vertex 0.182 -1.219 10.2
      vertex 0.354 -1.683 10.2
    endloop
  endfacet
  facet normal 0 0 1
    outer loop
      vertex 0.007 0.247 10.2
      vertex 0.182 1.219 10.2
      vertex 0.066 0.739 10.2
    endloop
  endfacet
  facet normal 0 0 1
    outer loop
      vertex 0.007 0.247 10.2
      vertex 0.354 -1.683 10.2
      vertex 0.58 -2.123 10.2
    endloop
  endfacet
  facet normal 0 0 1
    outer loop
      vertex 0.007 0.247 10.2
      vertex 0.354 1.683 10.2
      vertex 0.182 1.219 10.2
    endloop
  endfacet
  facet normal 0 0 1
    outer loop
      vertex 0.007 0.247 10.2
      vertex 0.58 -2.123 10.2
      vertex 0.856 -2.533 10.2
    endloop
  endfacet
  facet normal 0 0 1
    outer loop
      vertex 0.007 0.247 10.2
      vertex 0.58 2.123 10.2
      vertex 0.354 1.683 10.2
    endloop
  endfacet
  facet normal 0 0 1
    outer loop
      vertex 0.007 0.247 10.2
      vertex 0.856 -2.533 10.2
      vertex 1.179 -2.908 10.2
    endloop
  endfacet
  facet normal 0 0 1
    outer loop
      vertex 0.007 0.247 10.2
      vertex 0.856 2.533 10.2
      vertex 0.58 2.123 10.2
    endloop
  endfacet
  facet normal 0 0 1
    outer loop
      vertex 0.007 0.247 10.2
      vertex 1.179 -2.908 10.2
      vertex 1.544 -3.242 10.2
    endloop
  endfacet
  facet normal 0 0 1
    outer loop
      vertex 0.007 0.247 10.2
      vertex 1.179 2.908 10.2
      vertex 0.856 2.533 10.2
    endloop
  endfacet
  facet normal 0 0 1
    outer loop
      vertex 0.007 0.247 10.2
      vertex 1.544 -3.242 10.2
      vertex 1.946 -3.53 10.2
    endloop
  endfacet
  facet normal 0 0 1
    outer loop
      vertex 0.007 0.247 10.2
      vertex 1.544 3.242 10.2
      vertex 1.179 2.908 10.2
    endloop
  endfacet
  facet normal 0 0 1
    outer loop
      vertex 0.007 0.247 10.2
      vertex 1.946 -3.53 10.2
      vertex 2.379 -3.769 10.2
    endloop
  endfacet
  facet normal 0 0 1
    outer loop
      vertex 0.007 0.247 10.2
      vertex 1.946 3.53 10.2
      vertex 1.544 3.242 10.2
    endloop
  endfacet
  facet normal 0 0 1
    outer loop
      vertex 0.007 0.247 10.2
      vertex 2.379 -3.769 10.2
      vertex 2.838 -3.955 10.2
    endloop
  endfacet
  facet normal 0 0 1
    outer loop
      vertex 0.007 0.247 10.2
      vertex 2.379 3.769 10.2
      vertex 1.946 3.53 10.2
    endloop
  endfacet
  facet normal 0 0 1
    outer loop
      vertex 0.007 0.247 10.2
      vertex 2.838 -3.955 10.2
      vertex 3.315 -4.085 10.2
    endloop
  endfacet
  facet normal 0 0 1
    outer loop
      vertex 0.007 0.247 10.2
      vertex 2.838 3.955 10.2
      vertex 2.379 3.769 10.2
    endloop
  endfacet
  facet normal 0 0 1
    outer loop
      vertex 0.007 0.247 10.2
      vertex 3.315 -4.085 10.2
      vertex 3.804 -4.159 10.2
    endloop
  endfacet
  facet normal 0 0 1
    outer loop
      vertex 0.007 0.247 10.2
      vertex 3.315 4.085 10.2
      vertex 2.838 3.955 10.2
    endloop
  endfacet
  facet normal 0 0 1
    outer loop
      vertex 0.007 0.247 10.2
      vertex 3.804 -4.159 10.2
      vertex 4.175 -4.169 10.2
    endloop
  endfacet
  facet normal 0 0 1
    outer loop
      vertex 0.007 0.247 10.2
      vertex 3.804 4.159 10.2
      vertex 3.315 4.085 10.2
    endloop
  endfacet
  facet normal 0 0 1
    outer loop
      vertex 0.007 0.247 10.2
      vertex 4.175 -4.169 10.2
      vertex 5.175 -4.175 10.2
    endloop
  endfacet
  facet normal 0 0 1
    outer loop
      vertex 0.007 0.247 10.2
      vertex 4.175 4.169 10.2
      vertex 3.804 4.159 10.2
    endloop
  endfacet
  facet normal 0 0 1
    outer loop
      vertex 0.007 0.247 10.2
      vertex 5.175 -4.175 10.2
      vertex 5.175 4.175 10.2
    endloop
  endfacet
  facet normal 0 0 1
    outer loop
      vertex 0.007 0.247 10.2
      vertex 5.175 4.175 10.2
      vertex 4.175 4.169 10.2
    endloop
  endfacet
  facet normal -0.992886 0.119066 0
    outer loop
      vertex 0.007 0.247 2
      vertex 0.007 0.247 10.2
      vertex 0.066 0.739 2
    endloop
  endfacet
  facet normal -0.972018 -0.234904 0
    outer loop
      vertex 0.066 -0.739 10.2
      vertex 0.182 -1.219 2
      vertex 0.182 -1.219 10.2
    endloop
  endfacet
  facet normal -0.972018 -0.234904 0
    outer loop
      vertex 0.066 -0.739 2
      vertex 0.182 -1.219 2
      vertex 0.066 -0.739 10.2
    endloop
  endfacet
  facet normal -0.972018 0.234904 0
    outer loop
      vertex 0.066 0.739 10.2
      vertex 0.182 1.219 10.2
      vertex 0.182 1.219 2
    endloop
  endfacet
  facet normal -0.972018 0.234904 0
    outer loop
      vertex 0.066 0.739 2
      vertex 0.066 0.739 10.2
      vertex 0.182 1.219 2
    endloop
  endfacet
  facet normal -0.937651 -0.347578 0
    outer loop
      vertex 0.182 -1.219 10.2
      vertex 0.354 -1.683 2
      vertex 0.354 -1.683 10.2
    endloop
  endfacet
  facet normal -0.937651 -0.347578 0
    outer loop
      vertex 0.182 -1.219 2
      vertex 0.354 -1.683 2
      vertex 0.182 -1.219 10.2
    endloop
  endfacet
  facet normal -0.937651 0.347578 0
    outer loop
      vertex 0.182 1.219 10.2
      vertex 0.354 1.683 10.2
      vertex 0.354 1.683 2
    endloop
  endfacet
  facet normal -0.937651 0.347578 0
    outer loop
      vertex 0.182 1.219 2
      vertex 0.182 1.219 10.2
      vertex 0.354 1.683 2
    endloop
  endfacet
  facet normal -0.609172 -0.793038 0
    outer loop
      vertex 0.206 -4.73 0
      vertex 0.633 -5.058 0
      vertex 0.206 -4.73 2
    endloop
  endfacet
  facet normal -0.609172 -0.793038 0
    outer loop
      vertex 0.206 -4.73 2
      vertex 0.633 -5.058 0
      vertex 0.633 -5.058 2
    endloop
  endfacet
  facet normal -0.609172 0.793038 0
    outer loop
      vertex 0.206 4.73 0
      vertex 0.206 4.73 2
      vertex 0.633 5.058 0
    endloop
  endfacet
  facet normal -0.609172 0.793038 0
    outer loop
      vertex 0.206 4.73 2
      vertex 0.633 5.058 2
      vertex 0.633 5.058 0
    endloop
  endfacet
  facet normal -0.889523 -0.456891 0
    outer loop
      vertex 0.354 -1.683 10.2
      vertex 0.58 -2.123 2
      vertex 0.58 -2.123 10.2
    endloop
  endfacet
  facet normal -0.889523 -0.456891 0
    outer loop
      vertex 0.354 -1.683 2
      vertex 0.58 -2.123 2
      vertex 0.354 -1.683 10.2
    endloop
  endfacet
  facet normal -0.889523 0.456891 0
    outer loop
      vertex 0.354 1.683 10.2
      vertex 0.58 2.123 10.2
      vertex 0.58 2.123 2
    endloop
  endfacet
  facet normal -0.889523 0.456891 0
    outer loop
      vertex 0.354 1.683 2
      vertex 0.354 1.683 10.2
      vertex 0.58 2.123 2
    endloop
  endfacet
  facet normal -0.829552 -0.55843 0
    outer loop
      vertex 0.58 -2.123 10.2
      vertex 0.856 -2.533 2
      vertex 0.856 -2.533 10.2
    endloop
  endfacet
  facet normal -0.829552 -0.55843 0
    outer loop
      vertex 0.58 -2.123 2
      vertex 0.856 -2.533 2
      vertex 0.58 -2.123 10.2
    endloop
  endfacet
  facet normal -0.829552 0.55843 0
    outer loop
      vertex 0.58 2.123 10.2
      vertex 0.856 2.533 10.2
      vertex 0.856 2.533 2
    endloop
  endfacet
  facet normal -0.829552 0.55843 0
    outer loop
      vertex 0.58 2.123 2
      vertex 0.58 2.123 10.2
      vertex 0.856 2.533 2
    endloop
  endfacet
  facet normal -0.538316 -0.842743 0
    outer loop
      vertex 0.633 -5.058 0
      vertex 1.087 -5.348 0
      vertex 0.633 -5.058 2
    endloop
  endfacet
  facet normal -0.538316 -0.842743 0
    outer loop
      vertex 0.633 -5.058 2
      vertex 1.087 -5.348 0
      vertex 1.087 -5.348 2
    endloop
  endfacet
  facet normal -0.538316 0.842743 0
    outer loop
      vertex 0.633 5.058 0
      vertex 0.633 5.058 2
      vertex 1.087 5.348 0
    endloop
  endfacet
  facet normal -0.538316 0.842743 0
    outer loop
      vertex 0.633 5.058 2
      vertex 1.087 5.348 2
      vertex 1.087 5.348 0
    endloop
  endfacet
  facet normal -0.757686 -0.65262 0
    outer loop
      vertex 0.856 -2.533 10.2
      vertex 1.179 -2.908 2
      vertex 1.179 -2.908 10.2
    endloop
  endfacet
  facet normal -0.757686 -0.65262 0
    outer loop
      vertex 0.856 -2.533 2
      vertex 1.179 -2.908 2
      vertex 0.856 -2.533 10.2
    endloop
  endfacet
  facet normal -0.757686 0.65262 0
    outer loop
      vertex 0.856 2.533 10.2
      vertex 1.179 2.908 10.2
      vertex 1.179 2.908 2
    endloop
  endfacet
  facet normal -0.757686 0.65262 0
    outer loop
      vertex 0.856 2.533 2
      vertex 0.856 2.533 10.2
      vertex 1.179 2.908 2
    endloop
  endfacet
  facet normal -0.460534 -0.887642 0
    outer loop
      vertex 1.087 -5.348 0
      vertex 1.565 -5.596 0
      vertex 1.087 -5.348 2
    endloop
  endfacet
  facet normal -0.460534 -0.887642 0
    outer loop
      vertex 1.087 -5.348 2
      vertex 1.565 -5.596 0
      vertex 1.565 -5.596 2
    endloop
  endfacet
  facet normal -0.460534 0.887642 0
    outer loop
      vertex 1.087 5.348 0
      vertex 1.087 5.348 2
      vertex 1.565 5.596 0
    endloop
  endfacet
  facet normal -0.460534 0.887642 0
    outer loop
      vertex 1.087 5.348 2
      vertex 1.565 5.596 2
      vertex 1.565 5.596 0
    endloop
  endfacet
  facet normal -0.675084 -0.737741 0
    outer loop
      vertex 1.179 -2.908 10.2
      vertex 1.544 -3.242 2
      vertex 1.544 -3.242 10.2
    endloop
  endfacet
  facet normal -0.675084 -0.737741 0
    outer loop
      vertex 1.179 -2.908 2
      vertex 1.544 -3.242 2
      vertex 1.179 -2.908 10.2
    endloop
  endfacet
  facet normal 0 0 1
    outer loop
      vertex 1.179 -2.908 2
      vertex 3.637 -6.152 2
      vertex 4.175 -6.175 2
    endloop
  endfacet
  facet normal 0 0 1
    outer loop
      vertex 1.179 -2.908 2
      vertex 4.175 -6.175 2
      vertex 1.544 -3.242 2
    endloop
  endfacet
  facet normal -0.675084 0.737741 0
    outer loop
      vertex 1.179 2.908 10.2
      vertex 1.544 3.242 10.2
      vertex 1.544 3.242 2
    endloop
  endfacet
  facet normal -0.675084 0.737741 0
    outer loop
      vertex 1.179 2.908 2
      vertex 1.179 2.908 10.2
      vertex 1.544 3.242 2
    endloop
  endfacet
  facet normal -0.582385 -0.812913 0
    outer loop
      vertex 1.544 -3.242 10.2
      vertex 1.946 -3.53 2
      vertex 1.946 -3.53 10.2
    endloop
  endfacet
  facet normal -0.582385 -0.812913 0
    outer loop
      vertex 1.544 -3.242 2
      vertex 1.946 -3.53 2
      vertex 1.544 -3.242 10.2
    endloop
  endfacet
  facet normal 0 0 1
    outer loop
      vertex 1.544 -3.242 2
      vertex 4.175 -6.175 2
      vertex 1.946 -3.53 2
    endloop
  endfacet
  facet normal -0.582385 0.812913 0
    outer loop
      vertex 1.544 3.242 10.2
      vertex 1.946 3.53 10.2
      vertex 1.946 3.53 2
    endloop
  endfacet
  facet normal -0.582385 0.812913 0
    outer loop
      vertex 1.544 3.242 2
      vertex 1.544 3.242 10.2
      vertex 1.946 3.53 2
    endloop
  endfacet
  facet normal 0 0 1
    outer loop
      vertex 1.544 3.242 2
      vertex 1.946 3.53 2
      vertex 5.175 6.175 2
    endloop
  endfacet
  facet normal -0.383825 -0.923406 0
    outer loop
      vertex 1.565 -5.596 0
      vertex 2.063 -5.803 0
      vertex 1.565 -5.596 2
    endloop
  endfacet
  facet normal -0.383825 -0.923406 0
    outer loop
      vertex 1.565 -5.596 2
      vertex 2.063 -5.803 0
      vertex 2.063 -5.803 2
    endloop
  endfacet
  facet normal -0.383825 0.923406 0
    outer loop
      vertex 1.565 5.596 0
      vertex 1.565 5.596 2
      vertex 2.063 5.803 0
    endloop
  endfacet
  facet normal -0.383825 0.923406 0
    outer loop
      vertex 1.565 5.596 2
      vertex 2.063 5.803 2
      vertex 2.063 5.803 0
    endloop
  endfacet
  facet normal -0.483238 -0.875489 0
    outer loop
      vertex 1.946 -3.53 10.2
      vertex 2.379 -3.769 2
      vertex 2.379 -3.769 10.2
    endloop
  endfacet
  facet normal -0.483238 -0.875489 0
    outer loop
      vertex 1.946 -3.53 2
      vertex 2.379 -3.769 2
      vertex 1.946 -3.53 10.2
    endloop
  endfacet
  facet normal 0 0 1
    outer loop
      vertex 1.946 -3.53 2
      vertex 4.175 -6.175 2
      vertex 2.379 -3.769 2
    endloop
  endfacet
  facet normal -0.483238 0.875489 0
    outer loop
      vertex 1.946 3.53 10.2
      vertex 2.379 3.769 10.2
      vertex 2.379 3.769 2
    endloop
  endfacet
  facet normal -0.483238 0.875489 0
    outer loop
      vertex 1.946 3.53 2
      vertex 1.946 3.53 10.2
      vertex 2.379 3.769 2
    endloop
  endfacet
  facet normal 0 0 1
    outer loop
      vertex 1.946 3.53 2
      vertex 2.379 3.769 2
      vertex 5.175 6.175 2
    endloop
  endfacet
  facet normal -2.05178e-16 0.0732719 0.997312
    outer loop
      vertex 2 -0.367 3.491
      vertex 5.175 -0.367 3.491
      vertex 2 0.123 3.455
    endloop
  endfacet
  facet normal -1.25438e-16 0.365778 0.930702
    outer loop
      vertex 2 -0.367 3.491
      vertex 5.175 -0.825 3.671
      vertex 5.175 -0.367 3.491
    endloop
  endfacet
  facet normal 2.22045e-16 -4.93038e-32 -1
    outer loop
      vertex 2 -0.684 6.75
      vertex 2 0.684 6.75
      vertex 5.175 -0.684 6.75
    endloop
  endfacet
  facet normal 3.14018e-16 0.707107 -0.707107
    outer loop
      vertex 2 -0.684 6.75
      vertex 5.175 -0.684 6.75
      vertex 5.175 -1.167 6.267
    endloop
  endfacet
  facet normal -1.25438e-16 0.365778 0.930702
    outer loop
      vertex 2 -0.825 3.671
      vertex 5.175 -0.825 3.671
      vertex 2 -0.367 3.491
    endloop
  endfacet
  facet normal -3.51724e-17 0.623456 0.781858
    outer loop
      vertex 2 -0.825 3.671
      vertex 5.175 -1.21 3.978
      vertex 5.175 -0.825 3.671
    endloop
  endfacet
  facet normal 1 -2.22045e-16 2.22045e-16
    outer loop
      vertex 2 -1.161 6.261
      vertex 2 -0.367 3.491
      vertex 2 0.123 3.455
    endloop
  endfacet
  facet normal 1 -2.22045e-16 2.22045e-16
    outer loop
      vertex 2 -1.161 6.261
      vertex 2 -0.825 3.671
      vertex 2 -0.367 3.491
    endloop
  endfacet
  facet normal 1 -2.22045e-16 2.22045e-16
    outer loop
      vertex 2 -1.161 6.261
      vertex 2 0.123 3.455
      vertex 2 0.603 3.564
    endloop
  endfacet
  facet normal 1 -2.22045e-16 2.22045e-16
    outer loop
      vertex 2 -1.161 6.261
      vertex 2 0.603 3.564
      vertex 2 1.029 3.81
    endloop
  endfacet
  facet normal 1 -2.22045e-16 2.22045e-16
    outer loop
      vertex 2 -1.161 6.261
      vertex 2 0.684 6.75
      vertex 2 -0.684 6.75
    endloop
  endfacet
  facet normal 1 -2.22045e-16 2.22045e-16
    outer loop
      vertex 2 -1.161 6.261
      vertex 2 1.029 3.81
      vertex 2 1.363 4.171
    endloop
  endfacet
  facet normal 1 -2.22045e-16 2.22045e-16
    outer loop
      vertex 2 -1.161 6.261
      vertex 2 1.154 6.254
      vertex 2 1.167 6.267
    endloop
  endfacet
  facet normal 1 -2.22045e-16 2.22045e-16
    outer loop
      vertex 2 -1.161 6.261
      vertex 2 1.167 6.267
      vertex 2 0.684 6.75
    endloop
  endfacet
  facet normal 1 -2.22045e-16 2.22045e-16
    outer loop
      vertex 2 -1.161 6.261
      vertex 2 1.363 4.171
      vertex 2 1.577 4.614
    endloop
  endfacet
  facet normal 1 -2.22045e-16 2.22045e-16
    outer loop
      vertex 2 -1.161 6.261
      vertex 2 1.363 6.029
      vertex 2 1.154 6.254
    endloop
  endfacet
  facet normal 1 -2.22045e-16 2.22045e-16
    outer loop
      vertex 2 -1.161 6.261
      vertex 2 1.577 4.614
      vertex 2 1.65 5.1
    endloop
  endfacet
  facet normal 1 -2.22045e-16 2.22045e-16
    outer loop
      vertex 2 -1.161 6.261
      vertex 2 1.577 5.586
      vertex 2 1.363 6.029
    endloop
  endfacet
  facet normal 1 -2.22045e-16 2.22045e-16
    outer loop
      vertex 2 -1.161 6.261
      vertex 2 1.65 5.1
      vertex 2 1.577 5.586
    endloop
  endfacet
  facet normal 3.1201e-16 0.622746 -0.782424
    outer loop
      vertex 2 -1.161 6.261
      vertex 5.175 -1.161 6.261
      vertex 5.175 -1.21 6.222
    endloop
  endfacet
  facet normal 0 0.707107 0.707107
    outer loop
      vertex 2 -1.161 6.261
      vertex 5.175 -1.167 6.267
      vertex 5.175 -1.161 6.261
    endloop
  endfacet
  facet normal 3.14018e-16 0.707107 -0.707107
    outer loop
      vertex 2 -1.167 6.267
      vertex 2 -0.684 6.75
      vertex 5.175 -1.167 6.267
    endloop
  endfacet
  facet normal 1 -2.22045e-16 2.22045e-16
    outer loop
      vertex 2 -1.167 6.267
      vertex 2 -1.161 6.261
      vertex 2 -0.684 6.75
    endloop
  endfacet
  facet normal 0 0.707107 0.707107
    outer loop
      vertex 2 -1.167 6.267
      vertex 5.175 -1.167 6.267
      vertex 2 -1.161 6.261
    endloop
  endfacet
  facet normal 1 -2.22045e-16 2.22045e-16
    outer loop
      vertex 2 -1.21 3.978
      vertex 2 -0.825 3.671
      vertex 2 -1.161 6.261
    endloop
  endfacet
  facet normal -3.51724e-17 0.623456 0.781858
    outer loop
      vertex 2 -1.21 3.978
      vertex 5.175 -1.21 3.978
      vertex 2 -0.825 3.671
    endloop
  endfacet
  facet normal 5.82791e-17 0.826055 0.563589
    outer loop
      vertex 2 -1.21 3.978
      vertex 5.175 -1.487 4.384
      vertex 5.175 -1.21 3.978
    endloop
  endfacet
  facet normal 3.1201e-16 0.622746 -0.782424
    outer loop
      vertex 2 -1.21 6.222
      vertex 2 -1.161 6.261
      vertex 5.175 -1.21 6.222
    endloop
  endfacet
  facet normal 1 -2.22045e-16 2.22045e-16
    outer loop
      vertex 2 -1.487 4.384
      vertex 2 -1.21 3.978
      vertex 2 -1.161 6.261
    endloop
  endfacet
  facet normal 5.82791e-17 0.826055 0.563589
    outer loop
      vertex 2 -1.487 4.384
      vertex 5.175 -1.487 4.384
      vertex 2 -1.21 3.978
    endloop
  endfacet
  facet normal 1.46718e-16 0.955559 0.2948
    outer loop
      vertex 2 -1.487 4.384
      vertex 5.175 -1.632 4.854
      vertex 5.175 -1.487 4.384
    endloop
  endfacet
  facet normal 1 -2.22045e-16 2.22045e-16
    outer loop
      vertex 2 -1.487 5.816
      vertex 2 -1.161 6.261
      vertex 2 -1.21 6.222
    endloop
  endfacet
  facet normal 3.08563e-16 0.826055 -0.563589
    outer loop
      vertex 2 -1.487 5.816
      vertex 2 -1.21 6.222
      vertex 5.175 -1.21 6.222
    endloop
  endfacet
  facet normal 3.08563e-16 0.826055 -0.563589
    outer loop
      vertex 2 -1.487 5.816
      vertex 5.175 -1.21 6.222
      vertex 5.175 -1.487 5.816
    endloop
  endfacet
  facet normal 1 -2.22045e-16 2.22045e-16
    outer loop
      vertex 2 -1.632 4.854
      vertex 2 -1.161 6.261
      vertex 2 -1.632 5.346
    endloop
  endfacet
  facet normal 1 -2.22045e-16 2.22045e-16
    outer loop
      vertex 2 -1.632 4.854
      vertex 2 -1.487 4.384
      vertex 2 -1.161 6.261
    endloop
  endfacet
  facet normal 2.22045e-16 1 4.93038e-32
    outer loop
      vertex 2 -1.632 4.854
      vertex 2 -1.632 5.346
      vertex 5.175 -1.632 5.346
    endloop
  endfacet
  facet normal 1.46718e-16 0.955559 0.2948
    outer loop
      vertex 2 -1.632 4.854
      vertex 5.175 -1.632 4.854
      vertex 2 -1.487 4.384
    endloop
  endfacet
  facet normal 2.22045e-16 1 4.93038e-32
    outer loop
      vertex 2 -1.632 4.854
      vertex 5.175 -1.632 5.346
      vertex 5.175 -1.632 4.854
    endloop
  endfacet
  facet normal 1 -2.22045e-16 2.22045e-16
    outer loop
      vertex 2 -1.632 5.346
      vertex 2 -1.161 6.261
      vertex 2 -1.487 5.816
    endloop
  endfacet
  facet normal 2.77635e-16 0.955559 -0.2948
    outer loop
      vertex 2 -1.632 5.346
      vertex 2 -1.487 5.816
      vertex 5.175 -1.487 5.816
    endloop
  endfacet
  facet normal 2.77635e-16 0.955559 -0.2948
    outer loop
      vertex 2 -1.632 5.346
      vertex 5.175 -1.487 5.816
      vertex 5.175 -1.632 5.346
    endloop
  endfacet
  facet normal -2.05178e-16 0.0732719 0.997312
    outer loop
      vertex 2 0.123 3.455
      vertex 5.175 -0.367 3.491
      vertex 5.175 0.123 3.455
    endloop
  endfacet
  facet normal -2.65703e-16 -0.221445 0.975173
    outer loop
      vertex 2 0.123 3.455
      vertex 5.175 0.123 3.455
      vertex 2 0.603 3.564
    endloop
  endfacet
  facet normal -2.65703e-16 -0.221445 0.975173
    outer loop
      vertex 2 0.603 3.564
      vertex 5.175 0.123 3.455
      vertex 5.175 0.603 3.564
    endloop
  endfacet
  facet normal -3.03326e-16 -0.500074 0.865982
    outer loop
      vertex 2 0.603 3.564
      vertex 5.175 0.603 3.564
      vertex 2 1.029 3.81
    endloop
  endfacet
  facet normal 7.21802e-32 -0.707107 -0.707107
    outer loop
      vertex 2 0.684 6.75
      vertex 2 1.167 6.267
      vertex 5.175 0.684 6.75
    endloop
  endfacet
  facet normal 2.22045e-16 -4.93038e-32 -1
    outer loop
      vertex 2 0.684 6.75
      vertex 5.175 0.684 6.75
      vertex 5.175 -0.684 6.75
    endloop
  endfacet
  facet normal -3.03326e-16 -0.500074 0.865982
    outer loop
      vertex 2 1.029 3.81
      vertex 5.175 0.603 3.564
      vertex 5.175 1.029 3.81
    endloop
  endfacet
  facet normal -3.13782e-16 -0.734023 0.679124
    outer loop
      vertex 2 1.029 3.81
      vertex 5.175 1.029 3.81
      vertex 5.175 1.363 4.171
    endloop
  endfacet
  facet normal -3.13782e-16 -0.734023 0.679124
    outer loop
      vertex 2 1.029 3.81
      vertex 5.175 1.363 4.171
      vertex 2 1.363 4.171
    endloop
  endfacet
  facet normal -1.15689e-17 -0.732678 -0.680576
    outer loop
      vertex 2 1.154 6.254
      vertex 2 1.363 6.029
      vertex 5.175 1.154 6.254
    endloop
  endfacet
  facet normal -3.14018e-16 -0.707107 0.707107
    outer loop
      vertex 2 1.154 6.254
      vertex 5.175 1.154 6.254
      vertex 2 1.167 6.267
    endloop
  endfacet
  facet normal -3.14018e-16 -0.707107 0.707107
    outer loop
      vertex 2 1.167 6.267
      vertex 5.175 1.154 6.254
      vertex 5.175 1.167 6.267
    endloop
  endfacet
  facet normal 7.21802e-32 -0.707107 -0.707107
    outer loop
      vertex 2 1.167 6.267
      vertex 5.175 1.167 6.267
      vertex 5.175 0.684 6.75
    endloop
  endfacet
  facet normal -2.96522e-16 -0.900442 0.434976
    outer loop
      vertex 2 1.363 4.171
      vertex 5.175 1.363 4.171
      vertex 5.175 1.577 4.614
    endloop
  endfacet
  facet normal -2.96522e-16 -0.900442 0.434976
    outer loop
      vertex 2 1.363 4.171
      vertex 5.175 1.577 4.614
      vertex 2 1.577 4.614
    endloop
  endfacet
  facet normal -1.03354e-16 -0.900442 -0.434976
    outer loop
      vertex 2 1.363 6.029
      vertex 2 1.577 5.586
      vertex 5.175 1.363 6.029
    endloop
  endfacet
  facet normal -1.15689e-17 -0.732678 -0.680576
    outer loop
      vertex 2 1.363 6.029
      vertex 5.175 1.363 6.029
      vertex 5.175 1.154 6.254
    endloop
  endfacet
  facet normal -2.52564e-16 -0.988906 0.148539
    outer loop
      vertex 2 1.577 4.614
      vertex 5.175 1.577 4.614
      vertex 5.175 1.65 5.1
    endloop
  endfacet
  facet normal -2.52564e-16 -0.988906 0.148539
    outer loop
      vertex 2 1.577 4.614
      vertex 5.175 1.65 5.1
      vertex 2 1.65 5.1
    endloop
  endfacet
  facet normal -1.86599e-16 -0.988906 -0.148539
    outer loop
      vertex 2 1.577 5.586
      vertex 2 1.65 5.1
      vertex 5.175 1.577 5.586
    endloop
  endfacet
  facet normal -1.03354e-16 -0.900442 -0.434976
    outer loop
      vertex 2 1.577 5.586
      vertex 5.175 1.577 5.586
      vertex 5.175 1.363 6.029
    endloop
  endfacet
  facet normal -1.86599e-16 -0.988906 -0.148539
    outer loop
      vertex 2 1.65 5.1
      vertex 5.175 1.65 5.1
      vertex 5.175 1.577 5.586
    endloop
  endfacet
  facet normal -0.300598 -0.953751 0
    outer loop
      vertex 2.063 -5.803 0
      vertex 2.577 -5.965 0
      vertex 2.063 -5.803 2
    endloop
  endfacet
  facet normal -0.300598 -0.953751 0
    outer loop
      vertex 2.063 -5.803 2
      vertex 2.577 -5.965 0
      vertex 2.577 -5.965 2
    endloop
  endfacet
  facet normal -0.300598 0.953751 0
    outer loop
      vertex 2.063 5.803 0
      vertex 2.063 5.803 2
      vertex 2.577 5.965 0
    endloop
  endfacet
  facet normal -0.300598 0.953751 0
    outer loop
      vertex 2.063 5.803 2
      vertex 2.577 5.965 2
      vertex 2.577 5.965 0
    endloop
  endfacet
  facet normal -0.375564 -0.926796 0
    outer loop
      vertex 2.379 -3.769 10.2
      vertex 2.838 -3.955 2
      vertex 2.838 -3.955 10.2
    endloop
  endfacet
  facet normal -0.375564 -0.926796 0
    outer loop
      vertex 2.379 -3.769 2
      vertex 2.838 -3.955 2
      vertex 2.379 -3.769 10.2
    endloop
  endfacet
  facet normal 0 0 1
    outer loop
      vertex 2.379 -3.769 2
      vertex 4.175 -6.175 2
      vertex 5.175 -6.175 2
    endloop
  endfacet
  facet normal 0 0 1
    outer loop
      vertex 2.379 -3.769 2
      vertex 5.175 -6.175 2
      vertex 2.838 -3.955 2
    endloop
  endfacet
  facet normal -0.375564 0.926796 0
    outer loop
      vertex 2.379 3.769 10.2
      vertex 2.838 3.955 10.2
      vertex 2.838 3.955 2
    endloop
  endfacet
  facet normal -0.375564 0.926796 0
    outer loop
      vertex 2.379 3.769 2
      vertex 2.379 3.769 10.2
      vertex 2.838 3.955 2
    endloop
  endfacet
  facet normal 0 0 1
    outer loop
      vertex 2.379 3.769 2
      vertex 2.838 3.955 2
      vertex 5.175 6.175 2
    endloop
  endfacet
  facet normal -0.215358 -0.976535 0
    outer loop
      vertex 2.577 -5.965 0
      vertex 3.103 -6.081 0
      vertex 2.577 -5.965 2
    endloop
  endfacet
  facet normal -0.215358 -0.976535 0
    outer loop
      vertex 2.577 -5.965 2
      vertex 3.103 -6.081 0
      vertex 3.103 -6.081 2
    endloop
  endfacet
  facet normal -0.215358 0.976535 0
    outer loop
      vertex 2.577 5.965 0
      vertex 2.577 5.965 2
      vertex 3.103 6.081 0
    endloop
  endfacet
  facet normal -0.215358 0.976535 0
    outer loop
      vertex 2.577 5.965 2
      vertex 3.103 6.081 2
      vertex 3.103 6.081 0
    endloop
  endfacet
  facet normal -0.262946 -0.96481 0
    outer loop
      vertex 2.838 -3.955 10.2
      vertex 3.315 -4.085 2
      vertex 3.315 -4.085 10.2
    endloop
  endfacet
  facet normal -0.262946 -0.96481 0
    outer loop
      vertex 2.838 -3.955 2
      vertex 3.315 -4.085 2
      vertex 2.838 -3.955 10.2
    endloop
  endfacet
  facet normal 0 0 1
    outer loop
      vertex 2.838 -3.955 2
      vertex 5.175 -6.175 2
      vertex 3.315 -4.085 2
    endloop
  endfacet
  facet normal -0.262946 0.96481 0
    outer loop
      vertex 2.838 3.955 10.2
      vertex 3.315 4.085 10.2
      vertex 3.315 4.085 2
    endloop
  endfacet
  facet normal -0.262946 0.96481 0
    outer loop
      vertex 2.838 3.955 2
      vertex 2.838 3.955 10.2
      vertex 3.315 4.085 2
    endloop
  endfacet
  facet normal 0 0 1
    outer loop
      vertex 2.838 3.955 2
      vertex 3.315 4.085 2
      vertex 5.175 6.175 2
    endloop
  endfacet
  facet normal -0.131799 -0.991276 0
    outer loop
      vertex 3.103 -6.081 0
      vertex 3.637 -6.152 0
      vertex 3.103 -6.081 2
    endloop
  endfacet
  facet normal -0.131799 -0.991276 0
    outer loop
      vertex 3.103 -6.081 2
      vertex 3.637 -6.152 0
      vertex 3.637 -6.152 2
    endloop
  endfacet
  facet normal -0.131799 0.991276 0
    outer loop
      vertex 3.103 6.081 0
      vertex 3.103 6.081 2
      vertex 3.637 6.152 0
    endloop
  endfacet
  facet normal -0.131799 0.991276 0
    outer loop
      vertex 3.103 6.081 2
      vertex 3.637 6.152 2
      vertex 3.637 6.152 0
    endloop
  endfacet
  facet normal -0.149626 -0.988743 0
    outer loop
      vertex 3.315 -4.085 10.2
      vertex 3.804 -4.159 2
      vertex 3.804 -4.159 10.2
    endloop
  endfacet
  facet normal -0.149626 -0.988743 0
    outer loop
      vertex 3.315 -4.085 2
      vertex 3.804 -4.159 2
      vertex 3.315 -4.085 10.2
    endloop
  endfacet
  facet normal 0 0 1
    outer loop
      vertex 3.315 -4.085 2
      vertex 5.175 -6.175 2
      vertex 3.804 -4.159 2
    endloop
  endfacet
  facet normal -0.149626 0.988743 0
    outer loop
      vertex 3.315 4.085 10.2
      vertex 3.804 4.159 10.2
      vertex 3.804 4.159 2
    endloop
  endfacet
  facet normal -0.149626 0.988743 0
    outer loop
      vertex 3.315 4.085 2
      vertex 3.315 4.085 10.2
      vertex 3.804 4.159 2
    endloop
  endfacet
  facet normal 0 0 1
    outer loop
      vertex 3.315 4.085 2
      vertex 3.804 4.159 2
      vertex 5.175 6.175 2
    endloop
  endfacet
  facet normal -0.0427119 -0.999087 0
    outer loop
      vertex 3.637 -6.152 0
      vertex 4.175 -6.175 0
      vertex 3.637 -6.152 2
    endloop
  endfacet
  facet normal -0.0427119 -0.999087 0
    outer loop
      vertex 3.637 -6.152 2
      vertex 4.175 -6.175 0
      vertex 4.175 -6.175 2
    endloop
  endfacet
  facet normal -0.0427119 0.999087 0
    outer loop
      vertex 3.637 6.152 0
      vertex 3.637 6.152 2
      vertex 4.175 6.175 0
    endloop
  endfacet
  facet normal -0.0427119 0.999087 0
    outer loop
      vertex 3.637 6.152 2
      vertex 4.175 6.175 2
      vertex 4.175 6.175 0
    endloop
  endfacet
  facet normal -0.0269444 -0.999637 0
    outer loop
      vertex 3.804 -4.159 10.2
      vertex 4.175 -4.169 2
      vertex 4.175 -4.169 10.2
    endloop
  endfacet
  facet normal -0.0269444 -0.999637 0
    outer loop
      vertex 3.804 -4.159 2
      vertex 4.175 -4.169 2
      vertex 3.804 -4.159 10.2
    endloop
  endfacet
  facet normal 0 0 1
    outer loop
      vertex 3.804 -4.159 2
      vertex 4.175 -4.175 2
      vertex 4.175 -4.169 2
    endloop
  endfacet
  facet normal 0 0 1
    outer loop
      vertex 3.804 -4.159 2
      vertex 5.175 -6.175 2
      vertex 4.175 -4.175 2
    endloop
  endfacet
  facet normal -0.0269444 0.999637 0
    outer loop
      vertex 3.804 4.159 10.2
      vertex 4.175 4.169 10.2
      vertex 4.175 4.169 2
    endloop
  endfacet
  facet normal -0.0269444 0.999637 0
    outer loop
      vertex 3.804 4.159 2
      vertex 3.804 4.159 10.2
      vertex 4.175 4.169 2
    endloop
  endfacet
  facet normal 0 0 1
    outer loop
      vertex 3.804 4.159 2
      vertex 4.175 4.169 2
      vertex 4.175 4.175 2
    endloop
  endfacet
  facet normal 0 0 1
    outer loop
      vertex 3.804 4.159 2
      vertex 4.175 4.175 2
      vertex 5.175 6.175 2
    endloop
  endfacet
  facet normal -1 0 0
    outer loop
      vertex 4.175 -4.175 10.2
      vertex 4.175 -4.169 10.2
      vertex 4.175 -4.169 2
    endloop
  endfacet
  facet normal 0 0 1
    outer loop
      vertex 4.175 -4.175 10.2
      vertex 5.175 -4.175 10.2
      vertex 4.175 -4.169 10.2
    endloop
  endfacet
  facet normal 0 -1 0
    outer loop
      vertex 4.175 -4.175 10.2
      vertex 5.175 -4.175 2
      vertex 5.175 -4.175 10.2
    endloop
  endfacet
  facet normal -1 0 0
    outer loop
      vertex 4.175 -4.175 2
      vertex 4.175 -4.175 10.2
      vertex 4.175 -4.169 2
    endloop
  endfacet
  facet normal 0 -1 0
    outer loop
      vertex 4.175 -4.175 2
      vertex 5.175 -4.175 2
      vertex 4.175 -4.175 10.2
    endloop
  endfacet
  facet normal 0 0 1
    outer loop
      vertex 4.175 -4.175 2
      vertex 5.175 -6.175 2
      vertex 5.175 -4.175 2
    endloop
  endfacet
  facet normal 0 -1 0
    outer loop
      vertex 4.175 -6.175 0
      vertex 5.175 -6.175 0
      vertex 4.175 -6.175 2
    endloop
  endfacet
  facet normal 0 -1 0
    outer loop
      vertex 4.175 -6.175 2
      vertex 5.175 -6.175 0
      vertex 5.175 -6.175 2
    endloop
  endfacet
  facet normal -1 0 0
    outer loop
      vertex 4.175 4.169 10.2
      vertex 4.175 4.175 10.2
      vertex 4.175 4.175 2
    endloop
  endfacet
  facet normal 0 0 1
    outer loop
      vertex 4.175 4.169 10.2
      vertex 5.175 4.175 10.2
      vertex 4.175 4.175 10.2
    endloop
  endfacet
  facet normal -1 0 0
    outer loop
      vertex 4.175 4.169 2
      vertex 4.175 4.169 10.2
      vertex 4.175 4.175 2
    endloop
  endfacet
  facet normal 0 1 0
    outer loop
      vertex 4.175 4.175 10.2
      vertex 5.175 4.175 10.2
      vertex 5.175 4.175 2
    endloop
  endfacet
  facet normal 0 1 0
    outer loop
      vertex 4.175 4.175 2
      vertex 4.175 4.175 10.2
      vertex 5.175 4.175 2
    endloop
  endfacet
  facet normal 0 0 1
    outer loop
      vertex 4.175 4.175 2
      vertex 5.175 4.175 2
      vertex 5.175 6.175 2
    endloop
  endfacet
  facet normal 0 1 0
    outer loop
      vertex 4.175 6.175 0
      vertex 4.175 6.175 2
      vertex 5.175 6.175 0
    endloop
  endfacet
  facet normal 0 1 0
    outer loop
      vertex 4.175 6.175 2
      vertex 5.175 6.175 2
      vertex 5.175 6.175 0
    endloop
  endfacet
  facet normal 1 0 0
    outer loop
      vertex 5.175 -0.684 6.75
      vertex 5.175 0.684 6.75
      vertex 5.175 4.175 10.2
    endloop
  endfacet
  facet normal 1 0 0
    outer loop
      vertex 5.175 -1.21 6.222
      vertex 5.175 -1.161 6.261
      vertex 5.175 -1.167 6.267
    endloop
  endfacet
  facet normal 1 0 0
    outer loop
      vertex 5.175 -4.175 10.2
      vertex 5.175 -0.684 6.75
      vertex 5.175 4.175 10.2
    endloop
  endfacet
  facet normal 1 0 0
    outer loop
      vertex 5.175 -4.175 10.2
      vertex 5.175 -1.167 6.267
      vertex 5.175 -0.684 6.75
    endloop
  endfacet
  facet normal 1 0 0
    outer loop
      vertex 5.175 -4.175 10.2
      vertex 5.175 -1.21 6.222
      vertex 5.175 -1.167 6.267
    endloop
  endfacet
  facet normal 1 0 0
    outer loop
      vertex 5.175 -4.175 10.2
      vertex 5.175 -1.487 5.816
      vertex 5.175 -1.21 6.222
    endloop
  endfacet
  facet normal 1 0 0
    outer loop
      vertex 5.175 -4.175 10.2
      vertex 5.175 -1.632 4.854
      vertex 5.175 -1.632 5.346
    endloop
  endfacet
  facet normal 1 0 0
    outer loop
      vertex 5.175 -4.175 10.2
      vertex 5.175 -1.632 5.346
      vertex 5.175 -1.487 5.816
    endloop
  endfacet
  facet normal 1 0 0
    outer loop
      vertex 5.175 -4.175 2
      vertex 5.175 -0.367 3.491
      vertex 5.175 -0.825 3.671
    endloop
  endfacet
  facet normal 1 0 0
    outer loop
      vertex 5.175 -4.175 2
      vertex 5.175 -0.825 3.671
      vertex 5.175 -1.21 3.978
    endloop
  endfacet
  facet normal 1 0 0
    outer loop
      vertex 5.175 -4.175 2
      vertex 5.175 -1.21 3.978
      vertex 5.175 -1.487 4.384
    endloop
  endfacet
  facet normal 1 0 0
    outer loop
      vertex 5.175 -4.175 2
      vertex 5.175 -1.487 4.384
      vertex 5.175 -1.632 4.854
    endloop
  endfacet
  facet normal 1 0 0
    outer loop
      vertex 5.175 -4.175 2
      vertex 5.175 -1.632 4.854
      vertex 5.175 -4.175 10.2
    endloop
  endfacet
  facet normal 1 0 0
    outer loop
      vertex 5.175 -4.175 2
      vertex 5.175 0.123 3.455
      vertex 5.175 -0.367 3.491
    endloop
  endfacet
  facet normal 1 0 0
    outer loop
      vertex 5.175 -4.175 2
      vertex 5.175 0.603 3.564
      vertex 5.175 0.123 3.455
    endloop
  endfacet
  facet normal 1 0 0
    outer loop
      vertex 5.175 -4.175 2
      vertex 5.175 4.175 2
      vertex 5.175 0.603 3.564
    endloop
  endfacet
  facet normal 1 0 0
    outer loop
      vertex 5.175 -4.175 2
      vertex 5.175 6.175 0
      vertex 5.175 4.175 2
    endloop
  endfacet
  facet normal 1 0 0
    outer loop
      vertex 5.175 -6.175 0
      vertex 5.175 6.175 0
      vertex 5.175 -6.175 2
    endloop
  endfacet
  facet normal 1 0 0
    outer loop
      vertex 5.175 -6.175 2
      vertex 5.175 6.175 0
      vertex 5.175 -4.175 2
    endloop
  endfacet
  facet normal 1 0 0
    outer loop
      vertex 5.175 0.603 3.564
      vertex 5.175 4.175 2
      vertex 5.175 1.029 3.81
    endloop
  endfacet
  facet normal 1 0 0
    outer loop
      vertex 5.175 0.684 6.75
      vertex 5.175 1.167 6.267
      vertex 5.175 4.175 10.2
    endloop
  endfacet
  facet normal 1 0 0
    outer loop
      vertex 5.175 1.029 3.81
      vertex 5.175 4.175 2
      vertex 5.175 1.363 4.171
    endloop
  endfacet
  facet normal 1 0 0
    outer loop
      vertex 5.175 1.154 6.254
      vertex 5.175 1.363 6.029
      vertex 5.175 1.167 6.267
    endloop
  endfacet
  facet normal 1 0 0
    outer loop
      vertex 5.175 1.167 6.267
      vertex 5.175 1.363 6.029
      vertex 5.175 4.175 10.2
    endloop
  endfacet
  facet normal 1 0 0
    outer loop
      vertex 5.175 1.363 4.171
      vertex 5.175 4.175 2
      vertex 5.175 1.577 4.614
    endloop
  endfacet
  facet normal 1 0 0
    outer loop
      vertex 5.175 1.363 6.029
      vertex 5.175 1.577 5.586
      vertex 5.175 4.175 2
    endloop
  endfacet
  facet normal 1 0 0
    outer loop
      vertex 5.175 1.363 6.029
      vertex 5.175 4.175 2
      vertex 5.175 4.175 10.2
    endloop
  endfacet
  facet normal 1 0 0
    outer loop
      vertex 5.175 1.577 4.614
      vertex 5.175 4.175 2
      vertex 5.175 1.65 5.1
    endloop
  endfacet
  facet normal 1 0 0
    outer loop
      vertex 5.175 1.577 5.586
      vertex 5.175 1.65 5.1
      vertex 5.175 4.175 2
    endloop
  endfacet
  facet normal 1 0 0
    outer loop
      vertex 5.175 4.175 2
      vertex 5.175 6.175 0
      vertex 5.175 6.175 2
    endloop
  endfacet
endsolid OpenSCAD_Model
