solid OpenSCAD_Model
  facet normal 0 1 0
    outer loop
      vertex -10.2477 9.63975 0
      vertex -10.2477 9.63975 7.6
      vertex 10.2477 9.63975 0
    endloop
  endfacet
  facet normal 0 0 -1
    outer loop
      vertex -10.2477 9.63975 0
      vertex -6.14582 7.16 0
      vertex -7.77977 7.53294 0
    endloop
  endfacet
  facet normal 0 0 -1
    outer loop
      vertex -10.2477 9.63975 0
      vertex 10.2477 9.63975 0
      vertex -6.14582 7.16 0
    endloop
  endfacet
  facet normal 0 0 1
    outer loop
      vertex -10.2477 9.63975 7.6
      vertex -7.77977 7.53294 7.6
      vertex 10.2477 9.63975 7.6
    endloop
  endfacet
  facet normal 0 1 0
    outer loop
      vertex -10.2477 9.63975 7.6
      vertex 10.2477 9.63975 7.6
      vertex 10.2477 9.63975 0
    endloop
  endfacet
  facet normal 0 0 -1
    outer loop
      vertex -10.7365 9.5582 0
      vertex -10.2477 9.63975 0
      vertex -7.77977 7.53294 0
    endloop
  endfacet
  facet normal -0.164593 0.986362 0
    outer loop
      vertex -10.7365 9.5582 0
      vertex -10.7365 9.5582 7.6
      vertex -10.2477 9.63975 0
    endloop
  endfacet
  facet normal 0 0 -1
    outer loop
      vertex -10.7365 9.5582 0
      vertex -7.77977 7.53294 0
      vertex -9.0901 6.48799 0
    endloop
  endfacet
  facet normal -0.164593 0.986362 0
    outer loop
      vertex -10.7365 9.5582 7.6
      vertex -10.2477 9.63975 7.6
      vertex -10.2477 9.63975 0
    endloop
  endfacet
  facet normal 0 0 -1
    outer loop
      vertex -11.2051 9.39732 0
      vertex -10.7365 9.5582 0
      vertex -9.0901 6.48799 0
    endloop
  endfacet
  facet normal -0.3247 0.945817 0
    outer loop
      vertex -11.2051 9.39732 0
      vertex -11.2051 9.39732 7.6
      vertex -10.7365 9.5582 0
    endloop
  endfacet
  facet normal -0.3247 0.945817 0
    outer loop
      vertex -11.2051 9.39732 7.6
      vertex -10.7365 9.5582 7.6
      vertex -10.7365 9.5582 0
    endloop
  endfacet
  facet normal 0 0 -1
    outer loop
      vertex -11.6408 9.1615 0
      vertex -11.2051 9.39732 0
      vertex -9.0901 6.48799 0
    endloop
  endfacet
  facet normal -0.475948 0.879473 0
    outer loop
      vertex -11.6408 9.1615 0
      vertex -11.6408 9.1615 7.6
      vertex -11.2051 9.39732 0
    endloop
  endfacet
  facet normal -0.475948 0.879473 0
    outer loop
      vertex -11.6408 9.1615 7.6
      vertex -11.2051 9.39732 7.6
      vertex -11.2051 9.39732 0
    endloop
  endfacet
  facet normal 0 0 -1
    outer loop
      vertex -12.0318 8.85717 0
      vertex -11.6408 9.1615 0
      vertex -9.0901 6.48799 0
    endloop
  endfacet
  facet normal -0.614211 0.789142 0
    outer loop
      vertex -12.0318 8.85717 0
      vertex -12.0318 8.85717 7.6
      vertex -11.6408 9.1615 0
    endloop
  endfacet
  facet normal -0.614211 0.789142 0
    outer loop
      vertex -12.0318 8.85717 7.6
      vertex -11.6408 9.1615 7.6
      vertex -11.6408 9.1615 0
    endloop
  endfacet
  facet normal 0 0 -1
    outer loop
      vertex -12.3674 8.49264 0
      vertex -12.0318 8.85717 0
      vertex -9.0901 6.48799 0
    endloop
  endfacet
  facet normal -0.735724 0.677281 0
    outer loop
      vertex -12.3674 8.49264 0
      vertex -12.3674 8.49264 7.6
      vertex -12.0318 8.85717 0
    endloop
  endfacet
  facet normal 0 0 -1
    outer loop
      vertex -12.3674 8.49264 0
      vertex -9.0901 6.48799 0
      vertex -9.0901 4.81201 0
    endloop
  endfacet
  facet normal -0.735724 0.677281 0
    outer loop
      vertex -12.3674 8.49264 7.6
      vertex -12.0318 8.85717 7.6
      vertex -12.0318 8.85717 0
    endloop
  endfacet
  facet normal 0 0 -1
    outer loop
      vertex -12.6384 8.07784 0
      vertex -12.3674 8.49264 0
      vertex -9.0901 4.81201 0
    endloop
  endfacet
  facet normal -0.837167 0.546947 0
    outer loop
      vertex -12.6384 8.07784 0
      vertex -12.6384 8.07784 7.6
      vertex -12.3674 8.49264 0
    endloop
  endfacet
  facet normal -0.837167 0.546947 0
    outer loop
      vertex -12.6384 8.07784 7.6
      vertex -12.3674 8.49264 7.6
      vertex -12.3674 8.49264 0
    endloop
  endfacet
  facet normal 0 0 -1
    outer loop
      vertex -12.8375 7.6241 0
      vertex -12.6384 8.07784 0
      vertex -9.0901 4.81201 0
    endloop
  endfacet
  facet normal -0.915773 0.401696 0
    outer loop
      vertex -12.8375 7.6241 0
      vertex -12.8375 7.6241 7.6
      vertex -12.6384 8.07784 0
    endloop
  endfacet
  facet normal -0.915773 0.401696 0
    outer loop
      vertex -12.8375 7.6241 7.6
      vertex -12.6384 8.07784 7.6
      vertex -12.6384 8.07784 0
    endloop
  endfacet
  facet normal 0 0 -1
    outer loop
      vertex -12.9591 7.14378 0
      vertex -12.8375 7.6241 0
      vertex -9.0901 4.81201 0
    endloop
  endfacet
  facet normal -0.9694 0.245485 0
    outer loop
      vertex -12.9591 7.14378 0
      vertex -12.9591 7.14378 7.6
      vertex -12.8375 7.6241 0
    endloop
  endfacet
  facet normal 0 0 -1
    outer loop
      vertex -12.9591 7.14378 0
      vertex -9.0901 4.81201 0
      vertex -7.77977 3.76706 0
    endloop
  endfacet
  facet normal -0.9694 0.245485 0
    outer loop
      vertex -12.9591 7.14378 7.6
      vertex -12.8375 7.6241 7.6
      vertex -12.8375 7.6241 0
    endloop
  endfacet
  facet normal -1 0 0
    outer loop
      vertex -13 -0.125 3.952
      vertex -13 0.374 3.967
      vertex -13 6.65 0
    endloop
  endfacet
  facet normal -2.28616e-16 -0.0300465 0.999549
    outer loop
      vertex -13 -0.125 3.952
      vertex 13 -0.125 3.952
      vertex -13 0.374 3.967
    endloop
  endfacet
  facet normal -2.00591e-16 0.0923457 0.995727
    outer loop
      vertex -13 -0.125 3.952
      vertex 13 -0.621 3.998
      vertex 13 -0.125 3.952
    endloop
  endfacet
  facet normal -1 0 0
    outer loop
      vertex -13 -0.621 3.998
      vertex -13 -0.125 3.952
      vertex -13 6.65 0
    endloop
  endfacet
  facet normal -2.00591e-16 0.0923457 0.995727
    outer loop
      vertex -13 -0.621 3.998
      vertex 13 -0.621 3.998
      vertex -13 -0.125 3.952
    endloop
  endfacet
  facet normal -1.69222e-16 0.214594 0.976703
    outer loop
      vertex -13 -0.621 3.998
      vertex 13 -1.108 4.105
      vertex 13 -0.621 3.998
    endloop
  endfacet
  facet normal -1 0 0
    outer loop
      vertex -13 -1.108 4.105
      vertex -13 -0.621 3.998
      vertex -13 6.65 0
    endloop
  endfacet
  facet normal -1.69222e-16 0.214594 0.976703
    outer loop
      vertex -13 -1.108 4.105
      vertex 13 -1.108 4.105
      vertex -13 -0.621 3.998
    endloop
  endfacet
  facet normal -1.36146e-16 0.330618 0.943765
    outer loop
      vertex -13 -1.108 4.105
      vertex 13 -1.579 4.27
      vertex 13 -1.108 4.105
    endloop
  endfacet
  facet normal -1 0 0
    outer loop
      vertex -13 -1.579 4.27
      vertex -13 -1.108 4.105
      vertex -13 6.65 0
    endloop
  endfacet
  facet normal -1.36146e-16 0.330618 0.943765
    outer loop
      vertex -13 -1.579 4.27
      vertex 13 -1.579 4.27
      vertex -13 -1.108 4.105
    endloop
  endfacet
  facet normal -9.93014e-17 0.447214 0.894427
    outer loop
      vertex -13 -1.579 4.27
      vertex 13 -2.025 4.493
      vertex 13 -1.579 4.27
    endloop
  endfacet
  facet normal -1 0 0
    outer loop
      vertex -13 -2.025 4.493
      vertex -13 -1.579 4.27
      vertex -13 6.65 0
    endloop
  endfacet
  facet normal -9.93014e-17 0.447214 0.894427
    outer loop
      vertex -13 -2.025 4.493
      vertex 13 -2.025 4.493
      vertex -13 -1.579 4.27
    endloop
  endfacet
  facet normal -6.27824e-17 0.551457 0.834204
    outer loop
      vertex -13 -2.025 4.493
      vertex 13 -2.441 4.768
      vertex 13 -2.025 4.493
    endloop
  endfacet
  facet normal -2.40841e-17 0.650791 0.759257
    outer loop
      vertex -13 -2.441 4.768
      vertex -8.995 -2.47833 4.8
      vertex 13 -2.441 4.768
    endloop
  endfacet
  facet normal -2.40841e-17 0.650791 0.759257
    outer loop
      vertex -13 -2.441 4.768
      vertex -8.995 -2.819 5.092
      vertex -8.995 -2.47833 4.8
    endloop
  endfacet
  facet normal -6.27824e-17 0.551457 0.834204
    outer loop
      vertex -13 -2.441 4.768
      vertex 13 -2.441 4.768
      vertex -13 -2.025 4.493
    endloop
  endfacet
  facet normal -2.40841e-17 0.650791 0.759257
    outer loop
      vertex -13 -2.819 5.092
      vertex -8.995 -2.819 5.092
      vertex -13 -2.441 4.768
    endloop
  endfacet
  facet normal 1.46827e-17 0.739396 0.673271
    outer loop
      vertex -13 -2.819 5.092
      vertex -8.995 -3.155 5.461
      vertex -8.995 -2.819 5.092
    endloop
  endfacet
  facet normal 1.46827e-17 0.739396 0.673271
    outer loop
      vertex -13 -3.155 5.461
      vertex -8.995 -3.155 5.461
      vertex -13 -2.819 5.092
    endloop
  endfacet
  facet normal 5.2996e-17 0.8163 0.577628
    outer loop
      vertex -13 -3.155 5.461
      vertex -8.995 -3.443 5.868
      vertex -8.995 -3.155 5.461
    endloop
  endfacet
  facet normal 5.2996e-17 0.8163 0.577628
    outer loop
      vertex -13 -3.443 5.868
      vertex -8.995 -3.443 5.868
      vertex -13 -3.155 5.461
    endloop
  endfacet
  facet normal 9.04369e-17 0.880793 0.473501
    outer loop
      vertex -13 -3.443 5.868
      vertex -8.995 -3.679 6.307
      vertex -8.995 -3.443 5.868
    endloop
  endfacet
  facet normal 9.04369e-17 0.880793 0.473501
    outer loop
      vertex -13 -3.679 6.307
      vertex -8.995 -3.679 6.307
      vertex -13 -3.443 5.868
    endloop
  endfacet
  facet normal 1.26915e-16 0.932568 0.360994
    outer loop
      vertex -13 -3.679 6.307
      vertex -8.995 -3.859 6.772
      vertex -8.995 -3.679 6.307
    endloop
  endfacet
  facet normal 1.26915e-16 0.932568 0.360994
    outer loop
      vertex -13 -3.859 6.772
      vertex -8.995 -3.859 6.772
      vertex -13 -3.679 6.307
    endloop
  endfacet
  facet normal 1.61038e-16 0.969669 0.244421
    outer loop
      vertex -13 -3.859 6.772
      vertex -8.995 -3.981 7.256
      vertex -8.995 -3.859 6.772
    endloop
  endfacet
  facet normal 1.61038e-16 0.969669 0.244421
    outer loop
      vertex -13 -3.981 7.256
      vertex -8.995 -3.981 7.256
      vertex -13 -3.859 6.772
    endloop
  endfacet
  facet normal 1.9322e-16 0.992492 0.122307
    outer loop
      vertex -13 -3.981 7.256
      vertex -8.995 -4.02339 7.6
      vertex -8.995 -3.981 7.256
    endloop
  endfacet
  facet normal 0 0 1
    outer loop
      vertex -13 -4.02339 7.6
      vertex -7.77977 -7.53294 7.6
      vertex -9.0901 -6.48799 7.6
    endloop
  endfacet
  facet normal 1.9322e-16 0.992492 0.122307
    outer loop
      vertex -13 -4.02339 7.6
      vertex -8.995 -4.02339 7.6
      vertex -13 -3.981 7.256
    endloop
  endfacet
  facet normal 0 0 1
    outer loop
      vertex -13 -4.02339 7.6
      vertex -8.995 -4.73618 7.6
      vertex -8.995 -4.02339 7.6
    endloop
  endfacet
  facet normal 0 0 1
    outer loop
      vertex -13 -4.02339 7.6
      vertex -9.0901 -4.81201 7.6
      vertex -8.995 -4.73618 7.6
    endloop
  endfacet
  facet normal 0 0 1
    outer loop
      vertex -13 -4.02339 7.6
      vertex -9.0901 -6.48799 7.6
      vertex -9.0901 -4.81201 7.6
    endloop
  endfacet
  facet normal -1 0 0
    outer loop
      vertex -13 -9.65 0
      vertex -13 -9.65 7.6
      vertex -13 6.65 0
    endloop
  endfacet
  facet normal 0 0 -1
    outer loop
      vertex -13 -9.65 0
      vertex -13 6.65 0
      vertex -9.0901 -4.81201 0
    endloop
  endfacet
  facet normal 0 0 -1
    outer loop
      vertex -13 -9.65 0
      vertex -7.77977 -7.53294 0
      vertex 13 -9.65 0
    endloop
  endfacet
  facet normal 0 0 -1
    outer loop
      vertex -13 -9.65 0
      vertex -9.0901 -4.81201 0
      vertex -9.0901 -6.48799 0
    endloop
  endfacet
  facet normal 0 0 -1
    outer loop
      vertex -13 -9.65 0
      vertex -9.0901 -6.48799 0
      vertex -7.77977 -7.53294 0
    endloop
  endfacet
  facet normal 0 -1 0
    outer loop
      vertex -13 -9.65 0
      vertex 13 -9.65 0
      vertex -13 -9.65 7.6
    endloop
  endfacet
  facet normal -1 0 0
    outer loop
      vertex -13 -9.65 7.6
      vertex -13 -2.025 4.493
      vertex -13 6.65 0
    endloop
  endfacet
  facet normal -1 0 0
    outer loop
      vertex -13 -9.65 7.6
      vertex -13 -2.441 4.768
      vertex -13 -2.025 4.493
    endloop
  endfacet
  facet normal -1 0 0
    outer loop
      vertex -13 -9.65 7.6
      vertex -13 -2.819 5.092
      vertex -13 -2.441 4.768
    endloop
  endfacet
  facet normal -1 0 0
    outer loop
      vertex -13 -9.65 7.6
      vertex -13 -3.155 5.461
      vertex -13 -2.819 5.092
    endloop
  endfacet
  facet normal -1 0 0
    outer loop
      vertex -13 -9.65 7.6
      vertex -13 -3.443 5.868
      vertex -13 -3.155 5.461
    endloop
  endfacet
  facet normal -1 0 0
    outer loop
      vertex -13 -9.65 7.6
      vertex -13 -3.679 6.307
      vertex -13 -3.443 5.868
    endloop
  endfacet
  facet normal -1 0 0
    outer loop
      vertex -13 -9.65 7.6
      vertex -13 -3.859 6.772
      vertex -13 -3.679 6.307
    endloop
  endfacet
  facet normal -1 0 0
    outer loop
      vertex -13 -9.65 7.6
      vertex -13 -3.981 7.256
      vertex -13 -3.859 6.772
    endloop
  endfacet
  facet normal -1 0 0
    outer loop
      vertex -13 -9.65 7.6
      vertex -13 -4.02339 7.6
      vertex -13 -3.981 7.256
    endloop
  endfacet
  facet normal 0 0 1
    outer loop
      vertex -13 -9.65 7.6
      vertex -6.14582 -7.16 7.6
      vertex -7.77977 -7.53294 7.6
    endloop
  endfacet
  facet normal 0 0 1
    outer loop
      vertex -13 -9.65 7.6
      vertex -7.77977 -7.53294 7.6
      vertex -13 -4.02339 7.6
    endloop
  endfacet
  facet normal 0 -1 0
    outer loop
      vertex -13 -9.65 7.6
      vertex 13 -9.65 0
      vertex 13 -9.65 7.6
    endloop
  endfacet
  facet normal 0 0 1
    outer loop
      vertex -13 -9.65 7.6
      vertex 13 -9.65 7.6
      vertex -6.14582 -7.16 7.6
    endloop
  endfacet
  facet normal -1 0 0
    outer loop
      vertex -13 0.374 3.967
      vertex -13 0.866 4.044
      vertex -13 6.65 0
    endloop
  endfacet
  facet normal -2.28616e-16 -0.0300465 0.999549
    outer loop
      vertex -13 0.374 3.967
      vertex 13 -0.125 3.952
      vertex 13 0.374 3.967
    endloop
  endfacet
  facet normal -2.53707e-16 -0.154622 0.987974
    outer loop
      vertex -13 0.374 3.967
      vertex 13 0.374 3.967
      vertex -13 0.866 4.044
    endloop
  endfacet
  facet normal -1 0 0
    outer loop
      vertex -13 0.866 4.044
      vertex -13 1.346 4.18
      vertex -13 6.65 0
    endloop
  endfacet
  facet normal -2.53707e-16 -0.154622 0.987974
    outer loop
      vertex -13 0.866 4.044
      vertex 13 0.374 3.967
      vertex 13 0.866 4.044
    endloop
  endfacet
  facet normal -2.74165e-16 -0.272603 0.962127
    outer loop
      vertex -13 0.866 4.044
      vertex 13 0.866 4.044
      vertex -13 1.346 4.18
    endloop
  endfacet
  facet normal -1 0 0
    outer loop
      vertex -13 1.346 4.18
      vertex -13 1.805 4.375
      vertex -13 6.65 0
    endloop
  endfacet
  facet normal -2.74165e-16 -0.272603 0.962127
    outer loop
      vertex -13 1.346 4.18
      vertex 13 0.866 4.044
      vertex 13 1.346 4.18
    endloop
  endfacet
  facet normal -2.91189e-16 -0.391013 0.920385
    outer loop
      vertex -13 1.346 4.18
      vertex 13 1.346 4.18
      vertex -13 1.805 4.375
    endloop
  endfacet
  facet normal -1 0 0
    outer loop
      vertex -13 1.805 4.375
      vertex -13 2.237 4.624
      vertex -13 6.65 0
    endloop
  endfacet
  facet normal -2.91189e-16 -0.391013 0.920385
    outer loop
      vertex -13 1.805 4.375
      vertex 13 1.346 4.18
      vertex 13 1.805 4.375
    endloop
  endfacet
  facet normal -3.0326e-16 -0.499375 0.866386
    outer loop
      vertex -13 1.805 4.375
      vertex 13 1.805 4.375
      vertex -13 2.237 4.624
    endloop
  endfacet
  facet normal -1 0 0
    outer loop
      vertex -13 2.237 4.624
      vertex -13 2.635 4.924
      vertex -13 6.65 0
    endloop
  endfacet
  facet normal -3.10968e-16 -0.601924 0.798553
    outer loop
      vertex -13 2.237 4.624
      vertex -8.995 2.47049 4.8
      vertex -13 2.635 4.924
    endloop
  endfacet
  facet normal -3.0326e-16 -0.499375 0.866386
    outer loop
      vertex -13 2.237 4.624
      vertex 13 1.805 4.375
      vertex 13 2.237 4.624
    endloop
  endfacet
  facet normal -3.10968e-16 -0.601924 0.798553
    outer loop
      vertex -13 2.237 4.624
      vertex 13 2.237 4.624
      vertex -8.995 2.47049 4.8
    endloop
  endfacet
  facet normal -1 0 0
    outer loop
      vertex -13 2.635 4.924
      vertex -13 2.993 5.272
      vertex -13 6.65 0
    endloop
  endfacet
  facet normal -3.10968e-16 -0.601924 0.798553
    outer loop
      vertex -13 2.635 4.924
      vertex -8.995 2.47049 4.8
      vertex -8.995 2.635 4.924
    endloop
  endfacet
  facet normal -3.13987e-16 -0.697021 0.717051
    outer loop
      vertex -13 2.635 4.924
      vertex -8.995 2.635 4.924
      vertex -13 2.993 5.272
    endloop
  endfacet
  facet normal -1 0 0
    outer loop
      vertex -13 2.993 5.272
      vertex -13 3.306 5.66
      vertex -13 6.65 0
    endloop
  endfacet
  facet normal -3.13987e-16 -0.697021 0.717051
    outer loop
      vertex -13 2.993 5.272
      vertex -8.995 2.635 4.924
      vertex -8.995 2.993 5.272
    endloop
  endfacet
  facet normal -3.12237e-16 -0.778318 0.62787
    outer loop
      vertex -13 2.993 5.272
      vertex -8.995 2.993 5.272
      vertex -13 3.306 5.66
    endloop
  endfacet
  facet normal -1 0 0
    outer loop
      vertex -13 3.306 5.66
      vertex -13 3.568 6.084
      vertex -13 6.65 0
    endloop
  endfacet
  facet normal -3.12237e-16 -0.778318 0.62787
    outer loop
      vertex -13 3.306 5.66
      vertex -8.995 2.993 5.272
      vertex -8.995 3.306 5.66
    endloop
  endfacet
  facet normal -3.05612e-16 -0.850692 0.525664
    outer loop
      vertex -13 3.306 5.66
      vertex -8.995 3.306 5.66
      vertex -13 3.568 6.084
    endloop
  endfacet
  facet normal -1 0 0
    outer loop
      vertex -13 3.568 6.084
      vertex -13 3.777 6.537
      vertex -13 6.65 0
    endloop
  endfacet
  facet normal -3.05612e-16 -0.850692 0.525664
    outer loop
      vertex -13 3.568 6.084
      vertex -8.995 3.306 5.66
      vertex -8.995 3.568 6.084
    endloop
  endfacet
  facet normal -2.94642e-16 -0.908018 0.418931
    outer loop
      vertex -13 3.568 6.084
      vertex -8.995 3.568 6.084
      vertex -13 3.777 6.537
    endloop
  endfacet
  facet normal -1 0 0
    outer loop
      vertex -13 3.777 6.537
      vertex -13 3.928 7.012
      vertex -13 6.65 0
    endloop
  endfacet
  facet normal -2.94642e-16 -0.908018 0.418931
    outer loop
      vertex -13 3.777 6.537
      vertex -8.995 3.568 6.084
      vertex -8.995 3.777 6.537
    endloop
  endfacet
  facet normal -2.78879e-16 -0.953005 0.302955
    outer loop
      vertex -13 3.777 6.537
      vertex -8.995 3.777 6.537
      vertex -13 3.928 7.012
    endloop
  endfacet
  facet normal -1 0 0
    outer loop
      vertex -13 3.928 7.012
      vertex -13 4.019 7.502
      vertex -13 6.65 0
    endloop
  endfacet
  facet normal -2.78879e-16 -0.953005 0.302955
    outer loop
      vertex -13 3.928 7.012
      vertex -8.995 3.777 6.537
      vertex -8.995 3.928 7.012
    endloop
  endfacet
  facet normal -2.58855e-16 -0.983189 0.182592
    outer loop
      vertex -13 3.928 7.012
      vertex -8.995 3.928 7.012
      vertex -13 4.019 7.502
    endloop
  endfacet
  facet normal -1 0 0
    outer loop
      vertex -13 4.019 7.502
      vertex -13 4.0251 7.6
      vertex -13 6.65 0
    endloop
  endfacet
  facet normal -2.58855e-16 -0.983189 0.182592
    outer loop
      vertex -13 4.019 7.502
      vertex -8.995 3.928 7.012
      vertex -8.995 4.019 7.502
    endloop
  endfacet
  facet normal -2.35411e-16 -0.998068 0.0621287
    outer loop
      vertex -13 4.019 7.502
      vertex -8.995 4.019 7.502
      vertex -13 4.0251 7.6
    endloop
  endfacet
  facet normal -1 0 0
    outer loop
      vertex -13 4.0251 7.6
      vertex -13 6.65 7.6
      vertex -13 6.65 0
    endloop
  endfacet
  facet normal -2.35411e-16 -0.998068 0.0621287
    outer loop
      vertex -13 4.0251 7.6
      vertex -8.995 4.019 7.502
      vertex -8.995 4.0251 7.6
    endloop
  endfacet
  facet normal 0 0 1
    outer loop
      vertex -13 4.0251 7.6
      vertex -8.995 4.0251 7.6
      vertex -13 6.65 7.6
    endloop
  endfacet
  facet normal 0 0 -1
    outer loop
      vertex -13 6.65 0
      vertex -12.9591 7.14378 0
      vertex -7.77977 3.76706 0
    endloop
  endfacet
  facet normal -0.996585 0.0825791 0
    outer loop
      vertex -13 6.65 0
      vertex -13 6.65 7.6
      vertex -12.9591 7.14378 0
    endloop
  endfacet
  facet normal 0 0 -1
    outer loop
      vertex -13 6.65 0
      vertex -6.14582 -4.14 0
      vertex -7.77977 -3.76706 0
    endloop
  endfacet
  facet normal 0 0 -1
    outer loop
      vertex -13 6.65 0
      vertex -7.77977 -3.76706 0
      vertex -9.0901 -4.81201 0
    endloop
  endfacet
  facet normal 0 0 -1
    outer loop
      vertex -13 6.65 0
      vertex -7.77977 3.76706 0
      vertex 5.6099 -6.48799 0
    endloop
  endfacet
  facet normal 0 0 -1
    outer loop
      vertex -13 6.65 0
      vertex 5.6099 -6.48799 0
      vertex -6.14582 -4.14 0
    endloop
  endfacet
  facet normal 0 0 1
    outer loop
      vertex -13 6.65 7.6
      vertex -10.2477 9.63975 7.6
      vertex -10.7365 9.5582 7.6
    endloop
  endfacet
  facet normal 0 0 1
    outer loop
      vertex -13 6.65 7.6
      vertex -10.7365 9.5582 7.6
      vertex -11.2051 9.39732 7.6
    endloop
  endfacet
  facet normal 0 0 1
    outer loop
      vertex -13 6.65 7.6
      vertex -11.2051 9.39732 7.6
      vertex -11.6408 9.1615 7.6
    endloop
  endfacet
  facet normal 0 0 1
    outer loop
      vertex -13 6.65 7.6
      vertex -11.6408 9.1615 7.6
      vertex -12.0318 8.85717 7.6
    endloop
  endfacet
  facet normal 0 0 1
    outer loop
      vertex -13 6.65 7.6
      vertex -12.0318 8.85717 7.6
      vertex -12.3674 8.49264 7.6
    endloop
  endfacet
  facet normal 0 0 1
    outer loop
      vertex -13 6.65 7.6
      vertex -12.3674 8.49264 7.6
      vertex -12.6384 8.07784 7.6
    endloop
  endfacet
  facet normal 0 0 1
    outer loop
      vertex -13 6.65 7.6
      vertex -12.6384 8.07784 7.6
      vertex -12.8375 7.6241 7.6
    endloop
  endfacet
  facet normal 0 0 1
    outer loop
      vertex -13 6.65 7.6
      vertex -12.8375 7.6241 7.6
      vertex -12.9591 7.14378 7.6
    endloop
  endfacet
  facet normal -0.996585 0.0825791 0
    outer loop
      vertex -13 6.65 7.6
      vertex -12.9591 7.14378 7.6
      vertex -12.9591 7.14378 0
    endloop
  endfacet
  facet normal 0 0 1
    outer loop
      vertex -13 6.65 7.6
      vertex -7.77977 7.53294 7.6
      vertex -10.2477 9.63975 7.6
    endloop
  endfacet
  facet normal 0 0 1
    outer loop
      vertex -13 6.65 7.6
      vertex -8.995 4.0251 7.6
      vertex -8.995 4.73618 7.6
    endloop
  endfacet
  facet normal 0 0 1
    outer loop
      vertex -13 6.65 7.6
      vertex -8.995 4.73618 7.6
      vertex -9.0901 4.81201 7.6
    endloop
  endfacet
  facet normal 0 0 1
    outer loop
      vertex -13 6.65 7.6
      vertex -9.0901 4.81201 7.6
      vertex -9.0901 6.48799 7.6
    endloop
  endfacet
  facet normal 0 0 1
    outer loop
      vertex -13 6.65 7.6
      vertex -9.0901 6.48799 7.6
      vertex -7.77977 7.53294 7.6
    endloop
  endfacet
  facet normal 0 0 1
    outer loop
      vertex -5.41864 -5.65 7.6
      vertex 13 -9.65 7.6
      vertex 6.92023 -7.53294 7.6
    endloop
  endfacet
  facet normal 0 0 -1
    outer loop
      vertex -5.41864 5.65 0
      vertex 10.2477 9.63975 0
      vertex 6.92023 7.53294 0
    endloop
  endfacet
  facet normal 0 0 -1
    outer loop
      vertex -5.41864 5.65 0
      vertex 5.6099 4.81201 0
      vertex 8.55418 -4.14 0
    endloop
  endfacet
  facet normal 0 0 -1
    outer loop
      vertex -5.41864 5.65 0
      vertex 5.6099 6.48799 0
      vertex 5.6099 4.81201 0
    endloop
  endfacet
  facet normal 0 0 -1
    outer loop
      vertex -5.41864 5.65 0
      vertex 6.92023 -3.76706 0
      vertex 5.6099 -4.81201 0
    endloop
  endfacet
  facet normal 0 0 -1
    outer loop
      vertex -5.41864 5.65 0
      vertex 6.92023 7.53294 0
      vertex 5.6099 6.48799 0
    endloop
  endfacet
  facet normal 0 0 -1
    outer loop
      vertex -5.41864 5.65 0
      vertex 8.55418 -4.14 0
      vertex 6.92023 -3.76706 0
    endloop
  endfacet
  facet normal -2.40841e-17 0.650791 0.759257
    outer loop
      vertex -5.705 -2.47833 4.8
      vertex 5.705 -2.47833 4.8
      vertex 13 -2.441 4.768
    endloop
  endfacet
  facet normal -2.40841e-17 0.650791 0.759257
    outer loop
      vertex -5.705 -2.47833 4.8
      vertex 5.705 -2.819 5.092
      vertex 5.705 -2.47833 4.8
    endloop
  endfacet
  facet normal -2.40841e-17 0.650791 0.759257
    outer loop
      vertex -5.705 -2.819 5.092
      vertex 5.705 -2.819 5.092
      vertex -5.705 -2.47833 4.8
    endloop
  endfacet
  facet normal 1.46827e-17 0.739396 0.673271
    outer loop
      vertex -5.705 -2.819 5.092
      vertex 5.705 -3.155 5.461
      vertex 5.705 -2.819 5.092
    endloop
  endfacet
  facet normal 1.46827e-17 0.739396 0.673271
    outer loop
      vertex -5.705 -3.155 5.461
      vertex 5.705 -3.155 5.461
      vertex -5.705 -2.819 5.092
    endloop
  endfacet
  facet normal 5.2996e-17 0.8163 0.577628
    outer loop
      vertex -5.705 -3.155 5.461
      vertex 5.705 -3.443 5.868
      vertex 5.705 -3.155 5.461
    endloop
  endfacet
  facet normal 5.2996e-17 0.8163 0.577628
    outer loop
      vertex -5.705 -3.443 5.868
      vertex 5.705 -3.443 5.868
      vertex -5.705 -3.155 5.461
    endloop
  endfacet
  facet normal 9.04369e-17 0.880793 0.473501
    outer loop
      vertex -5.705 -3.443 5.868
      vertex 5.705 -3.679 6.307
      vertex 5.705 -3.443 5.868
    endloop
  endfacet
  facet normal 9.04369e-17 0.880793 0.473501
    outer loop
      vertex -5.705 -3.679 6.307
      vertex 5.705 -3.679 6.307
      vertex -5.705 -3.443 5.868
    endloop
  endfacet
  facet normal 1.26915e-16 0.932568 0.360994
    outer loop
      vertex -5.705 -3.679 6.307
      vertex 5.705 -3.859 6.772
      vertex 5.705 -3.679 6.307
    endloop
  endfacet
  facet normal 1.26915e-16 0.932568 0.360994
    outer loop
      vertex -5.705 -3.859 6.772
      vertex 5.705 -3.859 6.772
      vertex -5.705 -3.679 6.307
    endloop
  endfacet
  facet normal 1.61038e-16 0.969669 0.244421
    outer loop
      vertex -5.705 -3.859 6.772
      vertex 5.705 -3.981 7.256
      vertex 5.705 -3.859 6.772
    endloop
  endfacet
  facet normal 1.61038e-16 0.969669 0.244421
    outer loop
      vertex -5.705 -3.981 7.256
      vertex 5.705 -3.981 7.256
      vertex -5.705 -3.859 6.772
    endloop
  endfacet
  facet normal 1.9322e-16 0.992492 0.122307
    outer loop
      vertex -5.705 -3.981 7.256
      vertex 5.705 -4.02339 7.6
      vertex 5.705 -3.981 7.256
    endloop
  endfacet
  facet normal 0 0 1
    outer loop
      vertex -5.705 -4.02339 7.6
      vertex 5.6099 -4.81201 7.6
      vertex 5.705 -4.73618 7.6
    endloop
  endfacet
  facet normal 0 0 1
    outer loop
      vertex -5.705 -4.02339 7.6
      vertex 5.6099 -6.48799 7.6
      vertex 5.6099 -4.81201 7.6
    endloop
  endfacet
  facet normal 1.9322e-16 0.992492 0.122307
    outer loop
      vertex -5.705 -4.02339 7.6
      vertex 5.705 -4.02339 7.6
      vertex -5.705 -3.981 7.256
    endloop
  endfacet
  facet normal 0 0 1
    outer loop
      vertex -5.705 -4.02339 7.6
      vertex 5.705 -4.73618 7.6
      vertex 5.705 -4.02339 7.6
    endloop
  endfacet
  facet normal -0.900969 -0.433884 0
    outer loop
      vertex -5.705 -5.05536 4.8
      vertex -5.41864 -5.65 0
      vertex -5.705 -5.05536 7.6
    endloop
  endfacet
  facet normal -1 0 0
    outer loop
      vertex -5.705 -5.05536 4.8
      vertex -5.705 -2.819 5.092
      vertex -5.705 -2.47833 4.8
    endloop
  endfacet
  facet normal -1 0 0
    outer loop
      vertex -5.705 -5.05536 4.8
      vertex -5.705 -3.155 5.461
      vertex -5.705 -2.819 5.092
    endloop
  endfacet
  facet normal -1 0 0
    outer loop
      vertex -5.705 -5.05536 4.8
      vertex -5.705 -5.05536 7.6
      vertex -5.705 -3.155 5.461
    endloop
  endfacet
  facet normal -0.900969 -0.433884 0
    outer loop
      vertex -5.705 -5.05536 7.6
      vertex -5.41864 -5.65 0
      vertex -5.41864 -5.65 7.6
    endloop
  endfacet
  facet normal 0 0 1
    outer loop
      vertex -5.705 -5.05536 7.6
      vertex -5.41864 -5.65 7.6
      vertex 6.92023 -7.53294 7.6
    endloop
  endfacet
  facet normal -1 0 0
    outer loop
      vertex -5.705 -5.05536 7.6
      vertex -5.705 -3.443 5.868
      vertex -5.705 -3.155 5.461
    endloop
  endfacet
  facet normal -1 0 0
    outer loop
      vertex -5.705 -5.05536 7.6
      vertex -5.705 -3.679 6.307
      vertex -5.705 -3.443 5.868
    endloop
  endfacet
  facet normal -1 0 0
    outer loop
      vertex -5.705 -5.05536 7.6
      vertex -5.705 -3.859 6.772
      vertex -5.705 -3.679 6.307
    endloop
  endfacet
  facet normal -1 0 0
    outer loop
      vertex -5.705 -5.05536 7.6
      vertex -5.705 -3.981 7.256
      vertex -5.705 -3.859 6.772
    endloop
  endfacet
  facet normal -1 0 0
    outer loop
      vertex -5.705 -5.05536 7.6
      vertex -5.705 -4.02339 7.6
      vertex -5.705 -3.981 7.256
    endloop
  endfacet
  facet normal 0 0 1
    outer loop
      vertex -5.705 -5.05536 7.6
      vertex 5.6099 -6.48799 7.6
      vertex -5.705 -4.02339 7.6
    endloop
  endfacet
  facet normal 0 0 1
    outer loop
      vertex -5.705 -5.05536 7.6
      vertex 6.92023 -7.53294 7.6
      vertex 5.6099 -6.48799 7.6
    endloop
  endfacet
  facet normal -1 0 0
    outer loop
      vertex -5.705 2.47049 4.8
      vertex -5.705 2.635 4.924
      vertex -5.705 5.05536 4.8
    endloop
  endfacet
  facet normal -3.10968e-16 -0.601924 0.798553
    outer loop
      vertex -5.705 2.47049 4.8
      vertex 13 2.237 4.624
      vertex -5.705 2.635 4.924
    endloop
  endfacet
  facet normal -1 0 0
    outer loop
      vertex -5.705 2.635 4.924
      vertex -5.705 2.993 5.272
      vertex -5.705 5.05536 4.8
    endloop
  endfacet
  facet normal -3.10968e-16 -0.601924 0.798553
    outer loop
      vertex -5.705 2.635 4.924
      vertex 13 2.237 4.624
      vertex 5.705 2.47049 4.8
    endloop
  endfacet
  facet normal -3.10968e-16 -0.601924 0.798553
    outer loop
      vertex -5.705 2.635 4.924
      vertex 5.705 2.47049 4.8
      vertex 5.705 2.635 4.924
    endloop
  endfacet
  facet normal -3.13987e-16 -0.697021 0.717051
    outer loop
      vertex -5.705 2.635 4.924
      vertex 5.705 2.635 4.924
      vertex -5.705 2.993 5.272
    endloop
  endfacet
  facet normal -1 0 0
    outer loop
      vertex -5.705 2.993 5.272
      vertex -5.705 3.306 5.66
      vertex -5.705 5.05536 7.6
    endloop
  endfacet
  facet normal -1 0 0
    outer loop
      vertex -5.705 2.993 5.272
      vertex -5.705 5.05536 7.6
      vertex -5.705 5.05536 4.8
    endloop
  endfacet
  facet normal -3.13987e-16 -0.697021 0.717051
    outer loop
      vertex -5.705 2.993 5.272
      vertex 5.705 2.635 4.924
      vertex 5.705 2.993 5.272
    endloop
  endfacet
  facet normal -3.12237e-16 -0.778318 0.62787
    outer loop
      vertex -5.705 2.993 5.272
      vertex 5.705 2.993 5.272
      vertex -5.705 3.306 5.66
    endloop
  endfacet
  facet normal -1 0 0
    outer loop
      vertex -5.705 3.306 5.66
      vertex -5.705 3.568 6.084
      vertex -5.705 5.05536 7.6
    endloop
  endfacet
  facet normal -3.12237e-16 -0.778318 0.62787
    outer loop
      vertex -5.705 3.306 5.66
      vertex 5.705 2.993 5.272
      vertex 5.705 3.306 5.66
    endloop
  endfacet
  facet normal -3.05612e-16 -0.850692 0.525664
    outer loop
      vertex -5.705 3.306 5.66
      vertex 5.705 3.306 5.66
      vertex -5.705 3.568 6.084
    endloop
  endfacet
  facet normal -1 0 0
    outer loop
      vertex -5.705 3.568 6.084
      vertex -5.705 3.777 6.537
      vertex -5.705 5.05536 7.6
    endloop
  endfacet
  facet normal -3.05612e-16 -0.850692 0.525664
    outer loop
      vertex -5.705 3.568 6.084
      vertex 5.705 3.306 5.66
      vertex 5.705 3.568 6.084
    endloop
  endfacet
  facet normal -2.94642e-16 -0.908018 0.418931
    outer loop
      vertex -5.705 3.568 6.084
      vertex 5.705 3.568 6.084
      vertex -5.705 3.777 6.537
    endloop
  endfacet
  facet normal -1 0 0
    outer loop
      vertex -5.705 3.777 6.537
      vertex -5.705 3.928 7.012
      vertex -5.705 5.05536 7.6
    endloop
  endfacet
  facet normal -2.94642e-16 -0.908018 0.418931
    outer loop
      vertex -5.705 3.777 6.537
      vertex 5.705 3.568 6.084
      vertex 5.705 3.777 6.537
    endloop
  endfacet
  facet normal -2.78879e-16 -0.953005 0.302955
    outer loop
      vertex -5.705 3.777 6.537
      vertex 5.705 3.777 6.537
      vertex -5.705 3.928 7.012
    endloop
  endfacet
  facet normal -1 0 0
    outer loop
      vertex -5.705 3.928 7.012
      vertex -5.705 4.019 7.502
      vertex -5.705 5.05536 7.6
    endloop
  endfacet
  facet normal -2.78879e-16 -0.953005 0.302955
    outer loop
      vertex -5.705 3.928 7.012
      vertex 5.705 3.777 6.537
      vertex 5.705 3.928 7.012
    endloop
  endfacet
  facet normal -2.58855e-16 -0.983189 0.182592
    outer loop
      vertex -5.705 3.928 7.012
      vertex 5.705 3.928 7.012
      vertex -5.705 4.019 7.502
    endloop
  endfacet
  facet normal -1 0 0
    outer loop
      vertex -5.705 4.019 7.502
      vertex -5.705 4.0251 7.6
      vertex -5.705 5.05536 7.6
    endloop
  endfacet
  facet normal -2.58855e-16 -0.983189 0.182592
    outer loop
      vertex -5.705 4.019 7.502
      vertex 5.705 3.928 7.012
      vertex 5.705 4.019 7.502
    endloop
  endfacet
  facet normal -2.35411e-16 -0.998068 0.0621287
    outer loop
      vertex -5.705 4.019 7.502
      vertex 5.705 4.019 7.502
      vertex -5.705 4.0251 7.6
    endloop
  endfacet
  facet normal 0 0 1
    outer loop
      vertex -5.705 4.0251 7.6
      vertex -5.41864 5.65 7.6
      vertex -5.705 5.05536 7.6
    endloop
  endfacet
  facet normal -2.35411e-16 -0.998068 0.0621287
    outer loop
      vertex -5.705 4.0251 7.6
      vertex 5.705 4.019 7.502
      vertex 5.705 4.0251 7.6
    endloop
  endfacet
  facet normal 0 0 1
    outer loop
      vertex -5.705 4.0251 7.6
      vertex 5.705 4.0251 7.6
      vertex -5.41864 5.65 7.6
    endloop
  endfacet
  facet normal -0.900969 0.433884 0
    outer loop
      vertex -5.705 5.05536 4.8
      vertex -5.41864 5.65 7.6
      vertex -5.41864 5.65 0
    endloop
  endfacet
  facet normal -0.900969 0.433884 0
    outer loop
      vertex -5.705 5.05536 4.8
      vertex -5.705 5.05536 7.6
      vertex -5.41864 5.65 7.6
    endloop
  endfacet
  facet normal -0.900969 -0.433884 0
    outer loop
      vertex -6.14582 -4.14 0
      vertex -5.41864 -5.65 0
      vertex -6.14582 -4.14 4.8
    endloop
  endfacet
  facet normal 0 0 -1
    outer loop
      vertex -6.14582 -4.14 0
      vertex 13 -9.65 0
      vertex -5.41864 -5.65 0
    endloop
  endfacet
  facet normal 0 0 -1
    outer loop
      vertex -6.14582 -4.14 0
      vertex 5.6099 -6.48799 0
      vertex 6.92023 -7.53294 0
    endloop
  endfacet
  facet normal 0 0 -1
    outer loop
      vertex -6.14582 -4.14 0
      vertex 6.92023 -7.53294 0
      vertex 13 -9.65 0
    endloop
  endfacet
  facet normal -0.900969 -0.433884 0
    outer loop
      vertex -6.14582 -4.14 4.8
      vertex -5.41864 -5.65 0
      vertex -5.705 -5.05536 4.8
    endloop
  endfacet
  facet normal 0 0 1
    outer loop
      vertex -6.14582 -4.14 4.8
      vertex -5.705 -5.05536 4.8
      vertex -5.705 -2.47833 4.8
    endloop
  endfacet
  facet normal 0 0 -1
    outer loop
      vertex -6.14582 -7.16 0
      vertex -5.41864 -5.65 0
      vertex 13 -9.65 0
    endloop
  endfacet
  facet normal -0.900969 0.433884 0
    outer loop
      vertex -6.14582 -7.16 0
      vertex -6.14582 -7.16 7.6
      vertex -5.41864 -5.65 0
    endloop
  endfacet
  facet normal -0.900969 0.433884 0
    outer loop
      vertex -6.14582 -7.16 7.6
      vertex -5.41864 -5.65 7.6
      vertex -5.41864 -5.65 0
    endloop
  endfacet
  facet normal 0 0 1
    outer loop
      vertex -6.14582 -7.16 7.6
      vertex 13 -9.65 7.6
      vertex -5.41864 -5.65 7.6
    endloop
  endfacet
  facet normal 0 0 -1
    outer loop
      vertex -6.14582 4.14 0
      vertex -5.41864 5.65 0
      vertex 5.6099 -4.81201 0
    endloop
  endfacet
  facet normal -0.900969 0.433884 0
    outer loop
      vertex -6.14582 4.14 0
      vertex -6.14582 4.14 4.8
      vertex -5.41864 5.65 0
    endloop
  endfacet
  facet normal 0 0 1
    outer loop
      vertex -6.14582 4.14 4.8
      vertex -5.705 2.47049 4.8
      vertex -5.705 5.05536 4.8
    endloop
  endfacet
  facet normal -0.900969 0.433884 0
    outer loop
      vertex -6.14582 4.14 4.8
      vertex -5.705 5.05536 4.8
      vertex -5.41864 5.65 0
    endloop
  endfacet
  facet normal -0.900969 -0.433884 0
    outer loop
      vertex -6.14582 7.16 0
      vertex -5.41864 5.65 0
      vertex -6.14582 7.16 7.6
    endloop
  endfacet
  facet normal 0 0 -1
    outer loop
      vertex -6.14582 7.16 0
      vertex 10.2477 9.63975 0
      vertex -5.41864 5.65 0
    endloop
  endfacet
  facet normal -0.900969 -0.433884 0
    outer loop
      vertex -6.14582 7.16 7.6
      vertex -5.41864 5.65 0
      vertex -5.41864 5.65 7.6
    endloop
  endfacet
  facet normal 0 0 1
    outer loop
      vertex -6.14582 7.16 7.6
      vertex -5.41864 5.65 7.6
      vertex 5.705 4.0251 7.6
    endloop
  endfacet
  facet normal 0 0 1
    outer loop
      vertex -6.14582 7.16 7.6
      vertex 5.705 4.0251 7.6
      vertex 5.705 4.73618 7.6
    endloop
  endfacet
  facet normal -0.222522 -0.974928 0
    outer loop
      vertex -7.77977 -3.76706 0
      vertex -6.14582 -4.14 0
      vertex -7.77977 -3.76706 4.8
    endloop
  endfacet
  facet normal -0.222522 -0.974928 0
    outer loop
      vertex -7.77977 -3.76706 4.8
      vertex -6.14582 -4.14 0
      vertex -6.14582 -4.14 4.8
    endloop
  endfacet
  facet normal 0 0 1
    outer loop
      vertex -7.77977 -3.76706 4.8
      vertex -6.14582 -4.14 4.8
      vertex -5.705 -2.47833 4.8
    endloop
  endfacet
  facet normal 0 0 -1
    outer loop
      vertex -7.77977 -7.53294 0
      vertex -6.14582 -7.16 0
      vertex 13 -9.65 0
    endloop
  endfacet
  facet normal -0.222522 0.974928 0
    outer loop
      vertex -7.77977 -7.53294 0
      vertex -7.77977 -7.53294 7.6
      vertex -6.14582 -7.16 0
    endloop
  endfacet
  facet normal -0.222522 0.974928 0
    outer loop
      vertex -7.77977 -7.53294 7.6
      vertex -6.14582 -7.16 7.6
      vertex -6.14582 -7.16 0
    endloop
  endfacet
  facet normal 0 0 -1
    outer loop
      vertex -7.77977 3.76706 0
      vertex -6.14582 4.14 0
      vertex 5.6099 -4.81201 0
    endloop
  endfacet
  facet normal -0.222522 0.974928 0
    outer loop
      vertex -7.77977 3.76706 0
      vertex -7.77977 3.76706 4.8
      vertex -6.14582 4.14 0
    endloop
  endfacet
  facet normal 0 0 -1
    outer loop
      vertex -7.77977 3.76706 0
      vertex 5.6099 -4.81201 0
      vertex 5.6099 -6.48799 0
    endloop
  endfacet
  facet normal 0 0 1
    outer loop
      vertex -7.77977 3.76706 4.8
      vertex -5.705 2.47049 4.8
      vertex -6.14582 4.14 4.8
    endloop
  endfacet
  facet normal -0.222522 0.974928 0
    outer loop
      vertex -7.77977 3.76706 4.8
      vertex -6.14582 4.14 4.8
      vertex -6.14582 4.14 0
    endloop
  endfacet
  facet normal -0.222522 -0.974928 0
    outer loop
      vertex -7.77977 7.53294 0
      vertex -6.14582 7.16 0
      vertex -7.77977 7.53294 7.6
    endloop
  endfacet
  facet normal -0.222522 -0.974928 0
    outer loop
      vertex -7.77977 7.53294 7.6
      vertex -6.14582 7.16 0
      vertex -6.14582 7.16 7.6
    endloop
  endfacet
  facet normal 0 0 1
    outer loop
      vertex -7.77977 7.53294 7.6
      vertex -6.14582 7.16 7.6
      vertex 5.705 4.73618 7.6
    endloop
  endfacet
  facet normal 0 0 1
    outer loop
      vertex -7.77977 7.53294 7.6
      vertex 10.7365 9.5582 7.6
      vertex 10.2477 9.63975 7.6
    endloop
  endfacet
  facet normal 0 0 1
    outer loop
      vertex -7.77977 7.53294 7.6
      vertex 11.2051 9.39732 7.6
      vertex 10.7365 9.5582 7.6
    endloop
  endfacet
  facet normal 0 0 1
    outer loop
      vertex -7.77977 7.53294 7.6
      vertex 11.6408 9.1615 7.6
      vertex 11.2051 9.39732 7.6
    endloop
  endfacet
  facet normal 0 0 1
    outer loop
      vertex -7.77977 7.53294 7.6
      vertex 12.0318 8.85717 7.6
      vertex 11.6408 9.1615 7.6
    endloop
  endfacet
  facet normal 0 0 1
    outer loop
      vertex -7.77977 7.53294 7.6
      vertex 12.3674 8.49264 7.6
      vertex 12.0318 8.85717 7.6
    endloop
  endfacet
  facet normal 0 0 1
    outer loop
      vertex -7.77977 7.53294 7.6
      vertex 12.6384 8.07784 7.6
      vertex 12.3674 8.49264 7.6
    endloop
  endfacet
  facet normal 0 0 1
    outer loop
      vertex -7.77977 7.53294 7.6
      vertex 12.8375 7.6241 7.6
      vertex 12.6384 8.07784 7.6
    endloop
  endfacet
  facet normal 0 0 1
    outer loop
      vertex -7.77977 7.53294 7.6
      vertex 5.6099 4.81201 7.6
      vertex 5.6099 6.48799 7.6
    endloop
  endfacet
  facet normal 0 0 1
    outer loop
      vertex -7.77977 7.53294 7.6
      vertex 5.6099 6.48799 7.6
      vertex 6.92023 7.53294 7.6
    endloop
  endfacet
  facet normal 0 0 1
    outer loop
      vertex -7.77977 7.53294 7.6
      vertex 5.705 4.73618 7.6
      vertex 5.6099 4.81201 7.6
    endloop
  endfacet
  facet normal 0 0 1
    outer loop
      vertex -7.77977 7.53294 7.6
      vertex 6.92023 7.53294 7.6
      vertex 12.8375 7.6241 7.6
    endloop
  endfacet
  facet normal -2.40841e-17 0.650791 0.759257
    outer loop
      vertex -8.995 -2.47833 4.8
      vertex -5.705 -2.47833 4.8
      vertex 13 -2.441 4.768
    endloop
  endfacet
  facet normal 0 0 1
    outer loop
      vertex -8.995 -2.47833 4.8
      vertex -7.77977 -3.76706 4.8
      vertex -5.705 -2.47833 4.8
    endloop
  endfacet
  facet normal 0.62349 -0.781831 0
    outer loop
      vertex -8.995 -4.73618 4.8
      vertex -7.77977 -3.76706 0
      vertex -7.77977 -3.76706 4.8
    endloop
  endfacet
  facet normal 0 0 1
    outer loop
      vertex -8.995 -4.73618 4.8
      vertex -7.77977 -3.76706 4.8
      vertex -8.995 -2.47833 4.8
    endloop
  endfacet
  facet normal 1 0 0
    outer loop
      vertex -8.995 -4.73618 4.8
      vertex -8.995 -2.47833 4.8
      vertex -8.995 -2.819 5.092
    endloop
  endfacet
  facet normal 1 0 0
    outer loop
      vertex -8.995 -4.73618 4.8
      vertex -8.995 -2.819 5.092
      vertex -8.995 -3.155 5.461
    endloop
  endfacet
  facet normal 1 0 0
    outer loop
      vertex -8.995 -4.73618 4.8
      vertex -8.995 -3.155 5.461
      vertex -8.995 -4.73618 7.6
    endloop
  endfacet
  facet normal 1 0 0
    outer loop
      vertex -8.995 -4.73618 7.6
      vertex -8.995 -3.155 5.461
      vertex -8.995 -3.443 5.868
    endloop
  endfacet
  facet normal 1 0 0
    outer loop
      vertex -8.995 -4.73618 7.6
      vertex -8.995 -3.443 5.868
      vertex -8.995 -3.679 6.307
    endloop
  endfacet
  facet normal 1 0 0
    outer loop
      vertex -8.995 -4.73618 7.6
      vertex -8.995 -3.679 6.307
      vertex -8.995 -3.859 6.772
    endloop
  endfacet
  facet normal 1 0 0
    outer loop
      vertex -8.995 -4.73618 7.6
      vertex -8.995 -3.859 6.772
      vertex -8.995 -3.981 7.256
    endloop
  endfacet
  facet normal 1 0 0
    outer loop
      vertex -8.995 -4.73618 7.6
      vertex -8.995 -3.981 7.256
      vertex -8.995 -4.02339 7.6
    endloop
  endfacet
  facet normal 0 0 1
    outer loop
      vertex -8.995 2.47049 4.8
      vertex -5.705 2.47049 4.8
      vertex -7.77977 3.76706 4.8
    endloop
  endfacet
  facet normal 0 0 1
    outer loop
      vertex -8.995 2.47049 4.8
      vertex -7.77977 3.76706 4.8
      vertex -8.995 4.73618 4.8
    endloop
  endfacet
  facet normal 1 0 0
    outer loop
      vertex -8.995 2.47049 4.8
      vertex -8.995 4.73618 4.8
      vertex -8.995 2.635 4.924
    endloop
  endfacet
  facet normal -3.10968e-16 -0.601924 0.798553
    outer loop
      vertex -8.995 2.47049 4.8
      vertex 13 2.237 4.624
      vertex -5.705 2.47049 4.8
    endloop
  endfacet
  facet normal 1 0 0
    outer loop
      vertex -8.995 2.635 4.924
      vertex -8.995 4.73618 4.8
      vertex -8.995 2.993 5.272
    endloop
  endfacet
  facet normal 1 0 0
    outer loop
      vertex -8.995 2.993 5.272
      vertex -8.995 4.73618 4.8
      vertex -8.995 3.306 5.66
    endloop
  endfacet
  facet normal 1 0 0
    outer loop
      vertex -8.995 3.306 5.66
      vertex -8.995 4.73618 4.8
      vertex -8.995 3.568 6.084
    endloop
  endfacet
  facet normal 1 0 0
    outer loop
      vertex -8.995 3.568 6.084
      vertex -8.995 4.73618 4.8
      vertex -8.995 3.777 6.537
    endloop
  endfacet
  facet normal 1 0 0
    outer loop
      vertex -8.995 3.777 6.537
      vertex -8.995 4.73618 4.8
      vertex -8.995 3.928 7.012
    endloop
  endfacet
  facet normal 1 0 0
    outer loop
      vertex -8.995 3.928 7.012
      vertex -8.995 4.73618 4.8
      vertex -8.995 4.019 7.502
    endloop
  endfacet
  facet normal 1 0 0
    outer loop
      vertex -8.995 4.019 7.502
      vertex -8.995 4.73618 4.8
      vertex -8.995 4.0251 7.6
    endloop
  endfacet
  facet normal 1 0 0
    outer loop
      vertex -8.995 4.0251 7.6
      vertex -8.995 4.73618 4.8
      vertex -8.995 4.73618 7.6
    endloop
  endfacet
  facet normal 0.62349 0.781831 0
    outer loop
      vertex -8.995 4.73618 4.8
      vertex -7.77977 3.76706 4.8
      vertex -7.77977 3.76706 0
    endloop
  endfacet
  facet normal 0.62349 -0.781831 0
    outer loop
      vertex -9.0901 -4.81201 0
      vertex -7.77977 -3.76706 0
      vertex -8.995 -4.73618 4.8
    endloop
  endfacet
  facet normal 0.62349 -0.781831 0
    outer loop
      vertex -9.0901 -4.81201 0
      vertex -8.995 -4.73618 4.8
      vertex -9.0901 -4.81201 7.6
    endloop
  endfacet
  facet normal 0.62349 -0.781831 0
    outer loop
      vertex -9.0901 -4.81201 7.6
      vertex -8.995 -4.73618 4.8
      vertex -8.995 -4.73618 7.6
    endloop
  endfacet
  facet normal 1 0 0
    outer loop
      vertex -9.0901 -6.48799 0
      vertex -9.0901 -4.81201 0
      vertex -9.0901 -6.48799 7.6
    endloop
  endfacet
  facet normal 0.62349 0.781831 0
    outer loop
      vertex -9.0901 -6.48799 0
      vertex -9.0901 -6.48799 7.6
      vertex -7.77977 -7.53294 0
    endloop
  endfacet
  facet normal 0.62349 0.781831 0
    outer loop
      vertex -9.0901 -6.48799 7.6
      vertex -7.77977 -7.53294 7.6
      vertex -7.77977 -7.53294 0
    endloop
  endfacet
  facet normal 1 0 0
    outer loop
      vertex -9.0901 -6.48799 7.6
      vertex -9.0901 -4.81201 0
      vertex -9.0901 -4.81201 7.6
    endloop
  endfacet
  facet normal 0.62349 0.781831 0
    outer loop
      vertex -9.0901 4.81201 0
      vertex -8.995 4.73618 4.8
      vertex -7.77977 3.76706 0
    endloop
  endfacet
  facet normal 0.62349 0.781831 0
    outer loop
      vertex -9.0901 4.81201 0
      vertex -9.0901 4.81201 7.6
      vertex -8.995 4.73618 4.8
    endloop
  endfacet
  facet normal 1 0 0
    outer loop
      vertex -9.0901 4.81201 0
      vertex -9.0901 6.48799 0
      vertex -9.0901 4.81201 7.6
    endloop
  endfacet
  facet normal 0.62349 0.781831 0
    outer loop
      vertex -9.0901 4.81201 7.6
      vertex -8.995 4.73618 7.6
      vertex -8.995 4.73618 4.8
    endloop
  endfacet
  facet normal 1 0 0
    outer loop
      vertex -9.0901 4.81201 7.6
      vertex -9.0901 6.48799 0
      vertex -9.0901 6.48799 7.6
    endloop
  endfacet
  facet normal 0.62349 -0.781831 0
    outer loop
      vertex -9.0901 6.48799 0
      vertex -7.77977 7.53294 0
      vertex -9.0901 6.48799 7.6
    endloop
  endfacet
  facet normal 0.62349 -0.781831 0
    outer loop
      vertex -9.0901 6.48799 7.6
      vertex -7.77977 7.53294 0
      vertex -7.77977 7.53294 7.6
    endloop
  endfacet
  facet normal 0.164593 0.986362 0
    outer loop
      vertex 10.2477 9.63975 0
      vertex 10.2477 9.63975 7.6
      vertex 10.7365 9.5582 0
    endloop
  endfacet
  facet normal 0 0 -1
    outer loop
      vertex 10.2477 9.63975 0
      vertex 10.7365 9.5582 0
      vertex 13 -9.65 0
    endloop
  endfacet
  facet normal 0.164593 0.986362 0
    outer loop
      vertex 10.2477 9.63975 7.6
      vertex 10.7365 9.5582 7.6
      vertex 10.7365 9.5582 0
    endloop
  endfacet
  facet normal 0.3247 0.945817 0
    outer loop
      vertex 10.7365 9.5582 0
      vertex 10.7365 9.5582 7.6
      vertex 11.2051 9.39732 0
    endloop
  endfacet
  facet normal 0 0 -1
    outer loop
      vertex 10.7365 9.5582 0
      vertex 11.2051 9.39732 0
      vertex 13 -9.65 0
    endloop
  endfacet
  facet normal 0.3247 0.945817 0
    outer loop
      vertex 10.7365 9.5582 7.6
      vertex 11.2051 9.39732 7.6
      vertex 11.2051 9.39732 0
    endloop
  endfacet
  facet normal 0.475948 0.879473 0
    outer loop
      vertex 11.2051 9.39732 0
      vertex 11.2051 9.39732 7.6
      vertex 11.6408 9.1615 0
    endloop
  endfacet
  facet normal 0 0 -1
    outer loop
      vertex 11.2051 9.39732 0
      vertex 11.6408 9.1615 0
      vertex 13 -9.65 0
    endloop
  endfacet
  facet normal 0.475948 0.879473 0
    outer loop
      vertex 11.2051 9.39732 7.6
      vertex 11.6408 9.1615 7.6
      vertex 11.6408 9.1615 0
    endloop
  endfacet
  facet normal 0.614211 0.789142 0
    outer loop
      vertex 11.6408 9.1615 0
      vertex 11.6408 9.1615 7.6
      vertex 12.0318 8.85717 0
    endloop
  endfacet
  facet normal 0 0 -1
    outer loop
      vertex 11.6408 9.1615 0
      vertex 12.0318 8.85717 0
      vertex 13 -9.65 0
    endloop
  endfacet
  facet normal 0.614211 0.789142 0
    outer loop
      vertex 11.6408 9.1615 7.6
      vertex 12.0318 8.85717 7.6
      vertex 12.0318 8.85717 0
    endloop
  endfacet
  facet normal 0.735724 0.677281 0
    outer loop
      vertex 12.0318 8.85717 0
      vertex 12.0318 8.85717 7.6
      vertex 12.3674 8.49264 0
    endloop
  endfacet
  facet normal 0 0 -1
    outer loop
      vertex 12.0318 8.85717 0
      vertex 12.3674 8.49264 0
      vertex 13 -9.65 0
    endloop
  endfacet
  facet normal 0.735724 0.677281 0
    outer loop
      vertex 12.0318 8.85717 7.6
      vertex 12.3674 8.49264 7.6
      vertex 12.3674 8.49264 0
    endloop
  endfacet
  facet normal 0.837167 0.546947 0
    outer loop
      vertex 12.3674 8.49264 0
      vertex 12.3674 8.49264 7.6
      vertex 12.6384 8.07784 0
    endloop
  endfacet
  facet normal 0 0 -1
    outer loop
      vertex 12.3674 8.49264 0
      vertex 12.6384 8.07784 0
      vertex 13 -9.65 0
    endloop
  endfacet
  facet normal 0.837167 0.546947 0
    outer loop
      vertex 12.3674 8.49264 7.6
      vertex 12.6384 8.07784 7.6
      vertex 12.6384 8.07784 0
    endloop
  endfacet
  facet normal 0.915773 0.401696 0
    outer loop
      vertex 12.6384 8.07784 0
      vertex 12.6384 8.07784 7.6
      vertex 12.8375 7.6241 0
    endloop
  endfacet
  facet normal 0 0 -1
    outer loop
      vertex 12.6384 8.07784 0
      vertex 12.8375 7.6241 0
      vertex 13 -9.65 0
    endloop
  endfacet
  facet normal 0.915773 0.401696 0
    outer loop
      vertex 12.6384 8.07784 7.6
      vertex 12.8375 7.6241 7.6
      vertex 12.8375 7.6241 0
    endloop
  endfacet
  facet normal 0.9694 0.245485 0
    outer loop
      vertex 12.8375 7.6241 0
      vertex 12.8375 7.6241 7.6
      vertex 12.9591 7.14378 0
    endloop
  endfacet
  facet normal 0 0 -1
    outer loop
      vertex 12.8375 7.6241 0
      vertex 12.9591 7.14378 0
      vertex 13 -9.65 0
    endloop
  endfacet
  facet normal 0.9694 0.245485 0
    outer loop
      vertex 12.8375 7.6241 7.6
      vertex 12.9591 7.14378 7.6
      vertex 12.9591 7.14378 0
    endloop
  endfacet
  facet normal 0.996585 0.0825791 0
    outer loop
      vertex 12.9591 7.14378 0
      vertex 12.9591 7.14378 7.6
      vertex 13 6.65 0
    endloop
  endfacet
  facet normal 0 0 -1
    outer loop
      vertex 12.9591 7.14378 0
      vertex 13 6.65 0
      vertex 13 -9.65 0
    endloop
  endfacet
  facet normal 0.996585 0.0825791 0
    outer loop
      vertex 12.9591 7.14378 7.6
      vertex 13 6.65 7.6
      vertex 13 6.65 0
    endloop
  endfacet
  facet normal 1 0 0
    outer loop
      vertex 13 -0.125 3.952
      vertex 13 6.65 0
      vertex 13 0.374 3.967
    endloop
  endfacet
  facet normal 1 0 0
    outer loop
      vertex 13 -0.621 3.998
      vertex 13 6.65 0
      vertex 13 -0.125 3.952
    endloop
  endfacet
  facet normal 1 0 0
    outer loop
      vertex 13 -1.108 4.105
      vertex 13 6.65 0
      vertex 13 -0.621 3.998
    endloop
  endfacet
  facet normal 1 0 0
    outer loop
      vertex 13 -1.579 4.27
      vertex 13 6.65 0
      vertex 13 -1.108 4.105
    endloop
  endfacet
  facet normal 1 0 0
    outer loop
      vertex 13 -9.65 0
      vertex 13 6.65 0
      vertex 13 -9.65 7.6
    endloop
  endfacet
  facet normal 1 0 0
    outer loop
      vertex 13 -9.65 7.6
      vertex 13 -1.579 4.27
      vertex 13 -2.025 4.493
    endloop
  endfacet
  facet normal 1 0 0
    outer loop
      vertex 13 -9.65 7.6
      vertex 13 -2.025 4.493
      vertex 13 -2.441 4.768
    endloop
  endfacet
  facet normal 1 0 0
    outer loop
      vertex 13 -9.65 7.6
      vertex 13 -2.441 4.768
      vertex 13 -2.819 5.092
    endloop
  endfacet
  facet normal 1 0 0
    outer loop
      vertex 13 -9.65 7.6
      vertex 13 -2.819 5.092
      vertex 13 -3.155 5.461
    endloop
  endfacet
  facet normal 1 0 0
    outer loop
      vertex 13 -9.65 7.6
      vertex 13 -3.155 5.461
      vertex 13 -3.443 5.868
    endloop
  endfacet
  facet normal 1 0 0
    outer loop
      vertex 13 -9.65 7.6
      vertex 13 -3.443 5.868
      vertex 13 -3.679 6.307
    endloop
  endfacet
  facet normal 1 0 0
    outer loop
      vertex 13 -9.65 7.6
      vertex 13 -3.679 6.307
      vertex 13 -3.859 6.772
    endloop
  endfacet
  facet normal 1 0 0
    outer loop
      vertex 13 -9.65 7.6
      vertex 13 -3.859 6.772
      vertex 13 -3.981 7.256
    endloop
  endfacet
  facet normal 1 0 0
    outer loop
      vertex 13 -9.65 7.6
      vertex 13 -3.981 7.256
      vertex 13 -4.02339 7.6
    endloop
  endfacet
  facet normal 1 0 0
    outer loop
      vertex 13 -9.65 7.6
      vertex 13 6.65 0
      vertex 13 -1.579 4.27
    endloop
  endfacet
  facet normal 1 0 0
    outer loop
      vertex 13 0.374 3.967
      vertex 13 6.65 0
      vertex 13 0.866 4.044
    endloop
  endfacet
  facet normal 1 0 0
    outer loop
      vertex 13 0.866 4.044
      vertex 13 6.65 0
      vertex 13 1.346 4.18
    endloop
  endfacet
  facet normal 1 0 0
    outer loop
      vertex 13 1.346 4.18
      vertex 13 6.65 0
      vertex 13 1.805 4.375
    endloop
  endfacet
  facet normal 1 0 0
    outer loop
      vertex 13 1.805 4.375
      vertex 13 6.65 0
      vertex 13 2.237 4.624
    endloop
  endfacet
  facet normal 1 0 0
    outer loop
      vertex 13 2.237 4.624
      vertex 13 6.65 0
      vertex 13 2.635 4.924
    endloop
  endfacet
  facet normal 1 0 0
    outer loop
      vertex 13 2.635 4.924
      vertex 13 6.65 0
      vertex 13 2.993 5.272
    endloop
  endfacet
  facet normal 1 0 0
    outer loop
      vertex 13 2.993 5.272
      vertex 13 6.65 0
      vertex 13 3.306 5.66
    endloop
  endfacet
  facet normal 1 0 0
    outer loop
      vertex 13 3.306 5.66
      vertex 13 6.65 0
      vertex 13 3.568 6.084
    endloop
  endfacet
  facet normal 1 0 0
    outer loop
      vertex 13 3.568 6.084
      vertex 13 6.65 0
      vertex 13 3.777 6.537
    endloop
  endfacet
  facet normal 1 0 0
    outer loop
      vertex 13 3.777 6.537
      vertex 13 6.65 0
      vertex 13 3.928 7.012
    endloop
  endfacet
  facet normal 1 0 0
    outer loop
      vertex 13 3.928 7.012
      vertex 13 6.65 0
      vertex 13 4.019 7.502
    endloop
  endfacet
  facet normal 1 0 0
    outer loop
      vertex 13 4.019 7.502
      vertex 13 6.65 0
      vertex 13 4.0251 7.6
    endloop
  endfacet
  facet normal 1 0 0
    outer loop
      vertex 13 4.0251 7.6
      vertex 13 6.65 0
      vertex 13 6.65 7.6
    endloop
  endfacet
  facet normal 0.62349 -0.781831 0
    outer loop
      vertex 5.6099 -4.81201 0
      vertex 5.705 -4.73618 4.8
      vertex 5.6099 -4.81201 7.6
    endloop
  endfacet
  facet normal 0.62349 -0.781831 0
    outer loop
      vertex 5.6099 -4.81201 0
      vertex 6.92023 -3.76706 0
      vertex 5.705 -4.73618 4.8
    endloop
  endfacet
  facet normal 0.62349 -0.781831 0
    outer loop
      vertex 5.6099 -4.81201 7.6
      vertex 5.705 -4.73618 4.8
      vertex 5.705 -4.73618 7.6
    endloop
  endfacet
  facet normal 1 0 0
    outer loop
      vertex 5.6099 -6.48799 0
      vertex 5.6099 -4.81201 0
      vertex 5.6099 -6.48799 7.6
    endloop
  endfacet
  facet normal 0.62349 0.781831 0
    outer loop
      vertex 5.6099 -6.48799 0
      vertex 5.6099 -6.48799 7.6
      vertex 6.92023 -7.53294 0
    endloop
  endfacet
  facet normal 1 0 0
    outer loop
      vertex 5.6099 -6.48799 7.6
      vertex 5.6099 -4.81201 0
      vertex 5.6099 -4.81201 7.6
    endloop
  endfacet
  facet normal 0.62349 0.781831 0
    outer loop
      vertex 5.6099 -6.48799 7.6
      vertex 6.92023 -7.53294 7.6
      vertex 6.92023 -7.53294 0
    endloop
  endfacet
  facet normal 0.62349 0.781831 0
    outer loop
      vertex 5.6099 4.81201 0
      vertex 5.6099 4.81201 7.6
      vertex 5.705 4.73618 4.8
    endloop
  endfacet
  facet normal 1 0 0
    outer loop
      vertex 5.6099 4.81201 0
      vertex 5.6099 6.48799 0
      vertex 5.6099 4.81201 7.6
    endloop
  endfacet
  facet normal 0.62349 0.781831 0
    outer loop
      vertex 5.6099 4.81201 0
      vertex 5.705 4.73618 4.8
      vertex 6.92023 3.76706 0
    endloop
  endfacet
  facet normal 0 0 -1
    outer loop
      vertex 5.6099 4.81201 0
      vertex 6.92023 3.76706 0
      vertex 8.55418 -4.14 0
    endloop
  endfacet
  facet normal 1 0 0
    outer loop
      vertex 5.6099 4.81201 7.6
      vertex 5.6099 6.48799 0
      vertex 5.6099 6.48799 7.6
    endloop
  endfacet
  facet normal 0.62349 0.781831 0
    outer loop
      vertex 5.6099 4.81201 7.6
      vertex 5.705 4.73618 7.6
      vertex 5.705 4.73618 4.8
    endloop
  endfacet
  facet normal 0.62349 -0.781831 0
    outer loop
      vertex 5.6099 6.48799 0
      vertex 6.92023 7.53294 0
      vertex 5.6099 6.48799 7.6
    endloop
  endfacet
  facet normal 0.62349 -0.781831 0
    outer loop
      vertex 5.6099 6.48799 7.6
      vertex 6.92023 7.53294 0
      vertex 6.92023 7.53294 7.6
    endloop
  endfacet
  facet normal 0 0 1
    outer loop
      vertex 5.705 -2.47833 4.8
      vertex 6.92023 -3.76706 4.8
      vertex 8.995 -2.47833 4.8
    endloop
  endfacet
  facet normal -2.40841e-17 0.650791 0.759257
    outer loop
      vertex 5.705 -2.47833 4.8
      vertex 8.995 -2.47833 4.8
      vertex 13 -2.441 4.768
    endloop
  endfacet
  facet normal 1 0 0
    outer loop
      vertex 5.705 -4.73618 4.8
      vertex 5.705 -2.47833 4.8
      vertex 5.705 -2.819 5.092
    endloop
  endfacet
  facet normal 1 0 0
    outer loop
      vertex 5.705 -4.73618 4.8
      vertex 5.705 -2.819 5.092
      vertex 5.705 -3.155 5.461
    endloop
  endfacet
  facet normal 1 0 0
    outer loop
      vertex 5.705 -4.73618 4.8
      vertex 5.705 -3.155 5.461
      vertex 5.705 -4.73618 7.6
    endloop
  endfacet
  facet normal 0.62349 -0.781831 0
    outer loop
      vertex 5.705 -4.73618 4.8
      vertex 6.92023 -3.76706 0
      vertex 6.92023 -3.76706 4.8
    endloop
  endfacet
  facet normal 0 0 1
    outer loop
      vertex 5.705 -4.73618 4.8
      vertex 6.92023 -3.76706 4.8
      vertex 5.705 -2.47833 4.8
    endloop
  endfacet
  facet normal 1 0 0
    outer loop
      vertex 5.705 -4.73618 7.6
      vertex 5.705 -3.155 5.461
      vertex 5.705 -3.443 5.868
    endloop
  endfacet
  facet normal 1 0 0
    outer loop
      vertex 5.705 -4.73618 7.6
      vertex 5.705 -3.443 5.868
      vertex 5.705 -3.679 6.307
    endloop
  endfacet
  facet normal 1 0 0
    outer loop
      vertex 5.705 -4.73618 7.6
      vertex 5.705 -3.679 6.307
      vertex 5.705 -3.859 6.772
    endloop
  endfacet
  facet normal 1 0 0
    outer loop
      vertex 5.705 -4.73618 7.6
      vertex 5.705 -3.859 6.772
      vertex 5.705 -3.981 7.256
    endloop
  endfacet
  facet normal 1 0 0
    outer loop
      vertex 5.705 -4.73618 7.6
      vertex 5.705 -3.981 7.256
      vertex 5.705 -4.02339 7.6
    endloop
  endfacet
  facet normal -3.10968e-16 -0.601924 0.798553
    outer loop
      vertex 5.705 2.47049 4.8
      vertex 13 2.237 4.624
      vertex 8.995 2.47049 4.8
    endloop
  endfacet
  facet normal 1 0 0
    outer loop
      vertex 5.705 2.47049 4.8
      vertex 5.705 4.73618 4.8
      vertex 5.705 2.635 4.924
    endloop
  endfacet
  facet normal 0 0 1
    outer loop
      vertex 5.705 2.47049 4.8
      vertex 6.92023 3.76706 4.8
      vertex 5.705 4.73618 4.8
    endloop
  endfacet
  facet normal 0 0 1
    outer loop
      vertex 5.705 2.47049 4.8
      vertex 8.995 2.47049 4.8
      vertex 6.92023 3.76706 4.8
    endloop
  endfacet
  facet normal 1 0 0
    outer loop
      vertex 5.705 2.635 4.924
      vertex 5.705 4.73618 4.8
      vertex 5.705 2.993 5.272
    endloop
  endfacet
  facet normal 1 0 0
    outer loop
      vertex 5.705 2.993 5.272
      vertex 5.705 4.73618 4.8
      vertex 5.705 3.306 5.66
    endloop
  endfacet
  facet normal 1 0 0
    outer loop
      vertex 5.705 3.306 5.66
      vertex 5.705 4.73618 4.8
      vertex 5.705 3.568 6.084
    endloop
  endfacet
  facet normal 1 0 0
    outer loop
      vertex 5.705 3.568 6.084
      vertex 5.705 4.73618 4.8
      vertex 5.705 3.777 6.537
    endloop
  endfacet
  facet normal 1 0 0
    outer loop
      vertex 5.705 3.777 6.537
      vertex 5.705 4.73618 4.8
      vertex 5.705 3.928 7.012
    endloop
  endfacet
  facet normal 1 0 0
    outer loop
      vertex 5.705 3.928 7.012
      vertex 5.705 4.73618 4.8
      vertex 5.705 4.019 7.502
    endloop
  endfacet
  facet normal 1 0 0
    outer loop
      vertex 5.705 4.019 7.502
      vertex 5.705 4.73618 4.8
      vertex 5.705 4.0251 7.6
    endloop
  endfacet
  facet normal 1 0 0
    outer loop
      vertex 5.705 4.0251 7.6
      vertex 5.705 4.73618 4.8
      vertex 5.705 4.73618 7.6
    endloop
  endfacet
  facet normal 0.62349 0.781831 0
    outer loop
      vertex 5.705 4.73618 4.8
      vertex 6.92023 3.76706 4.8
      vertex 6.92023 3.76706 0
    endloop
  endfacet
  facet normal -0.222522 -0.974928 0
    outer loop
      vertex 6.92023 -3.76706 0
      vertex 8.55418 -4.14 0
      vertex 6.92023 -3.76706 4.8
    endloop
  endfacet
  facet normal -0.222522 -0.974928 0
    outer loop
      vertex 6.92023 -3.76706 4.8
      vertex 8.55418 -4.14 0
      vertex 8.55418 -4.14 4.8
    endloop
  endfacet
  facet normal 0 0 1
    outer loop
      vertex 6.92023 -3.76706 4.8
      vertex 8.55418 -4.14 4.8
      vertex 8.995 -2.47833 4.8
    endloop
  endfacet
  facet normal -0.222522 0.974928 0
    outer loop
      vertex 6.92023 -7.53294 0
      vertex 6.92023 -7.53294 7.6
      vertex 8.55418 -7.16 0
    endloop
  endfacet
  facet normal 0 0 -1
    outer loop
      vertex 6.92023 -7.53294 0
      vertex 8.55418 -7.16 0
      vertex 13 -9.65 0
    endloop
  endfacet
  facet normal 0 0 1
    outer loop
      vertex 6.92023 -7.53294 7.6
      vertex 13 -9.65 7.6
      vertex 8.55418 -7.16 7.6
    endloop
  endfacet
  facet normal -0.222522 0.974928 0
    outer loop
      vertex 6.92023 -7.53294 7.6
      vertex 8.55418 -7.16 7.6
      vertex 8.55418 -7.16 0
    endloop
  endfacet
  facet normal -0.222522 0.974928 0
    outer loop
      vertex 6.92023 3.76706 0
      vertex 6.92023 3.76706 4.8
      vertex 8.55418 4.14 0
    endloop
  endfacet
  facet normal 0 0 -1
    outer loop
      vertex 6.92023 3.76706 0
      vertex 8.55418 4.14 0
      vertex 8.55418 -4.14 0
    endloop
  endfacet
  facet normal -0.222522 0.974928 0
    outer loop
      vertex 6.92023 3.76706 4.8
      vertex 8.55418 4.14 4.8
      vertex 8.55418 4.14 0
    endloop
  endfacet
  facet normal 0 0 1
    outer loop
      vertex 6.92023 3.76706 4.8
      vertex 8.995 2.47049 4.8
      vertex 8.55418 4.14 4.8
    endloop
  endfacet
  facet normal 0 0 -1
    outer loop
      vertex 6.92023 7.53294 0
      vertex 10.2477 9.63975 0
      vertex 8.55418 7.16 0
    endloop
  endfacet
  facet normal -0.222522 -0.974928 0
    outer loop
      vertex 6.92023 7.53294 0
      vertex 8.55418 7.16 0
      vertex 6.92023 7.53294 7.6
    endloop
  endfacet
  facet normal 0 0 1
    outer loop
      vertex 6.92023 7.53294 7.6
      vertex 12.9591 7.14378 7.6
      vertex 12.8375 7.6241 7.6
    endloop
  endfacet
  facet normal 0 0 1
    outer loop
      vertex 6.92023 7.53294 7.6
      vertex 13 6.65 7.6
      vertex 12.9591 7.14378 7.6
    endloop
  endfacet
  facet normal -0.222522 -0.974928 0
    outer loop
      vertex 6.92023 7.53294 7.6
      vertex 8.55418 7.16 0
      vertex 8.55418 7.16 7.6
    endloop
  endfacet
  facet normal 0 0 1
    outer loop
      vertex 6.92023 7.53294 7.6
      vertex 8.55418 7.16 7.6
      vertex 13 6.65 7.6
    endloop
  endfacet
  facet normal 0 0 -1
    outer loop
      vertex 8.55418 -4.14 0
      vertex 10.2477 9.63975 0
      vertex 9.28136 -5.65 0
    endloop
  endfacet
  facet normal 0 0 -1
    outer loop
      vertex 8.55418 -4.14 0
      vertex 8.55418 4.14 0
      vertex 9.28136 5.65 0
    endloop
  endfacet
  facet normal -0.900969 -0.433884 0
    outer loop
      vertex 8.55418 -4.14 0
      vertex 9.28136 -5.65 0
      vertex 8.55418 -4.14 4.8
    endloop
  endfacet
  facet normal 0 0 -1
    outer loop
      vertex 8.55418 -4.14 0
      vertex 9.28136 5.65 0
      vertex 10.2477 9.63975 0
    endloop
  endfacet
  facet normal 0 0 1
    outer loop
      vertex 8.55418 -4.14 4.8
      vertex 8.995 -5.05536 4.8
      vertex 8.995 -2.47833 4.8
    endloop
  endfacet
  facet normal -0.900969 -0.433884 0
    outer loop
      vertex 8.55418 -4.14 4.8
      vertex 9.28136 -5.65 0
      vertex 8.995 -5.05536 4.8
    endloop
  endfacet
  facet normal -0.900969 0.433884 0
    outer loop
      vertex 8.55418 -7.16 0
      vertex 8.55418 -7.16 7.6
      vertex 9.28136 -5.65 0
    endloop
  endfacet
  facet normal 0 0 -1
    outer loop
      vertex 8.55418 -7.16 0
      vertex 9.28136 -5.65 0
      vertex 13 -9.65 0
    endloop
  endfacet
  facet normal 0 0 1
    outer loop
      vertex 8.55418 -7.16 7.6
      vertex 13 -9.65 7.6
      vertex 9.28136 -5.65 7.6
    endloop
  endfacet
  facet normal -0.900969 0.433884 0
    outer loop
      vertex 8.55418 -7.16 7.6
      vertex 9.28136 -5.65 7.6
      vertex 9.28136 -5.65 0
    endloop
  endfacet
  facet normal -0.900969 0.433884 0
    outer loop
      vertex 8.55418 4.14 0
      vertex 8.55418 4.14 4.8
      vertex 9.28136 5.65 0
    endloop
  endfacet
  facet normal 0 0 1
    outer loop
      vertex 8.55418 4.14 4.8
      vertex 8.995 2.47049 4.8
      vertex 8.995 5.05536 4.8
    endloop
  endfacet
  facet normal -0.900969 0.433884 0
    outer loop
      vertex 8.55418 4.14 4.8
      vertex 8.995 5.05536 4.8
      vertex 9.28136 5.65 0
    endloop
  endfacet
  facet normal 0 0 -1
    outer loop
      vertex 8.55418 7.16 0
      vertex 10.2477 9.63975 0
      vertex 9.28136 5.65 0
    endloop
  endfacet
  facet normal -0.900969 -0.433884 0
    outer loop
      vertex 8.55418 7.16 0
      vertex 9.28136 5.65 0
      vertex 8.55418 7.16 7.6
    endloop
  endfacet
  facet normal 0 0 1
    outer loop
      vertex 8.55418 7.16 7.6
      vertex 13 4.0251 7.6
      vertex 13 6.65 7.6
    endloop
  endfacet
  facet normal -0.900969 -0.433884 0
    outer loop
      vertex 8.55418 7.16 7.6
      vertex 9.28136 5.65 0
      vertex 9.28136 5.65 7.6
    endloop
  endfacet
  facet normal 0 0 1
    outer loop
      vertex 8.55418 7.16 7.6
      vertex 9.28136 5.65 7.6
      vertex 13 4.0251 7.6
    endloop
  endfacet
  facet normal -2.40841e-17 0.650791 0.759257
    outer loop
      vertex 8.995 -2.47833 4.8
      vertex 13 -2.819 5.092
      vertex 13 -2.441 4.768
    endloop
  endfacet
  facet normal -2.40841e-17 0.650791 0.759257
    outer loop
      vertex 8.995 -2.819 5.092
      vertex 13 -2.819 5.092
      vertex 8.995 -2.47833 4.8
    endloop
  endfacet
  facet normal 1.46827e-17 0.739396 0.673271
    outer loop
      vertex 8.995 -2.819 5.092
      vertex 13 -3.155 5.461
      vertex 13 -2.819 5.092
    endloop
  endfacet
  facet normal 1.46827e-17 0.739396 0.673271
    outer loop
      vertex 8.995 -3.155 5.461
      vertex 13 -3.155 5.461
      vertex 8.995 -2.819 5.092
    endloop
  endfacet
  facet normal 5.2996e-17 0.8163 0.577628
    outer loop
      vertex 8.995 -3.155 5.461
      vertex 13 -3.443 5.868
      vertex 13 -3.155 5.461
    endloop
  endfacet
  facet normal 5.2996e-17 0.8163 0.577628
    outer loop
      vertex 8.995 -3.443 5.868
      vertex 13 -3.443 5.868
      vertex 8.995 -3.155 5.461
    endloop
  endfacet
  facet normal 9.04369e-17 0.880793 0.473501
    outer loop
      vertex 8.995 -3.443 5.868
      vertex 13 -3.679 6.307
      vertex 13 -3.443 5.868
    endloop
  endfacet
  facet normal 9.04369e-17 0.880793 0.473501
    outer loop
      vertex 8.995 -3.679 6.307
      vertex 13 -3.679 6.307
      vertex 8.995 -3.443 5.868
    endloop
  endfacet
  facet normal 1.26915e-16 0.932568 0.360994
    outer loop
      vertex 8.995 -3.679 6.307
      vertex 13 -3.859 6.772
      vertex 13 -3.679 6.307
    endloop
  endfacet
  facet normal 1.26915e-16 0.932568 0.360994
    outer loop
      vertex 8.995 -3.859 6.772
      vertex 13 -3.859 6.772
      vertex 8.995 -3.679 6.307
    endloop
  endfacet
  facet normal 1.61038e-16 0.969669 0.244421
    outer loop
      vertex 8.995 -3.859 6.772
      vertex 13 -3.981 7.256
      vertex 13 -3.859 6.772
    endloop
  endfacet
  facet normal 1.61038e-16 0.969669 0.244421
    outer loop
      vertex 8.995 -3.981 7.256
      vertex 13 -3.981 7.256
      vertex 8.995 -3.859 6.772
    endloop
  endfacet
  facet normal 1.9322e-16 0.992492 0.122307
    outer loop
      vertex 8.995 -3.981 7.256
      vertex 13 -4.02339 7.6
      vertex 13 -3.981 7.256
    endloop
  endfacet
  facet normal 1.9322e-16 0.992492 0.122307
    outer loop
      vertex 8.995 -4.02339 7.6
      vertex 13 -4.02339 7.6
      vertex 8.995 -3.981 7.256
    endloop
  endfacet
  facet normal 0 0 1
    outer loop
      vertex 8.995 -4.02339 7.6
      vertex 13 -9.65 7.6
      vertex 13 -4.02339 7.6
    endloop
  endfacet
  facet normal -1 0 0
    outer loop
      vertex 8.995 -5.05536 4.8
      vertex 8.995 -2.819 5.092
      vertex 8.995 -2.47833 4.8
    endloop
  endfacet
  facet normal -1 0 0
    outer loop
      vertex 8.995 -5.05536 4.8
      vertex 8.995 -3.155 5.461
      vertex 8.995 -2.819 5.092
    endloop
  endfacet
  facet normal -1 0 0
    outer loop
      vertex 8.995 -5.05536 4.8
      vertex 8.995 -5.05536 7.6
      vertex 8.995 -3.155 5.461
    endloop
  endfacet
  facet normal -0.900969 -0.433884 0
    outer loop
      vertex 8.995 -5.05536 4.8
      vertex 9.28136 -5.65 0
      vertex 8.995 -5.05536 7.6
    endloop
  endfacet
  facet normal 0 0 1
    outer loop
      vertex 8.995 -5.05536 7.6
      vertex 13 -9.65 7.6
      vertex 8.995 -4.02339 7.6
    endloop
  endfacet
  facet normal -1 0 0
    outer loop
      vertex 8.995 -5.05536 7.6
      vertex 8.995 -3.443 5.868
      vertex 8.995 -3.155 5.461
    endloop
  endfacet
  facet normal -1 0 0
    outer loop
      vertex 8.995 -5.05536 7.6
      vertex 8.995 -3.679 6.307
      vertex 8.995 -3.443 5.868
    endloop
  endfacet
  facet normal -1 0 0
    outer loop
      vertex 8.995 -5.05536 7.6
      vertex 8.995 -3.859 6.772
      vertex 8.995 -3.679 6.307
    endloop
  endfacet
  facet normal -1 0 0
    outer loop
      vertex 8.995 -5.05536 7.6
      vertex 8.995 -3.981 7.256
      vertex 8.995 -3.859 6.772
    endloop
  endfacet
  facet normal -1 0 0
    outer loop
      vertex 8.995 -5.05536 7.6
      vertex 8.995 -4.02339 7.6
      vertex 8.995 -3.981 7.256
    endloop
  endfacet
  facet normal -0.900969 -0.433884 0
    outer loop
      vertex 8.995 -5.05536 7.6
      vertex 9.28136 -5.65 0
      vertex 9.28136 -5.65 7.6
    endloop
  endfacet
  facet normal 0 0 1
    outer loop
      vertex 8.995 -5.05536 7.6
      vertex 9.28136 -5.65 7.6
      vertex 13 -9.65 7.6
    endloop
  endfacet
  facet normal -3.10968e-16 -0.601924 0.798553
    outer loop
      vertex 8.995 2.47049 4.8
      vertex 13 2.237 4.624
      vertex 8.995 2.635 4.924
    endloop
  endfacet
  facet normal -1 0 0
    outer loop
      vertex 8.995 2.47049 4.8
      vertex 8.995 2.635 4.924
      vertex 8.995 5.05536 4.8
    endloop
  endfacet
  facet normal -3.10968e-16 -0.601924 0.798553
    outer loop
      vertex 8.995 2.635 4.924
      vertex 13 2.237 4.624
      vertex 13 2.635 4.924
    endloop
  endfacet
  facet normal -3.13987e-16 -0.697021 0.717051
    outer loop
      vertex 8.995 2.635 4.924
      vertex 13 2.635 4.924
      vertex 8.995 2.993 5.272
    endloop
  endfacet
  facet normal -1 0 0
    outer loop
      vertex 8.995 2.635 4.924
      vertex 8.995 2.993 5.272
      vertex 8.995 5.05536 4.8
    endloop
  endfacet
  facet normal -3.13987e-16 -0.697021 0.717051
    outer loop
      vertex 8.995 2.993 5.272
      vertex 13 2.635 4.924
      vertex 13 2.993 5.272
    endloop
  endfacet
  facet normal -3.12237e-16 -0.778318 0.62787
    outer loop
      vertex 8.995 2.993 5.272
      vertex 13 2.993 5.272
      vertex 8.995 3.306 5.66
    endloop
  endfacet
  facet normal -1 0 0
    outer loop
      vertex 8.995 2.993 5.272
      vertex 8.995 3.306 5.66
      vertex 8.995 5.05536 7.6
    endloop
  endfacet
  facet normal -1 0 0
    outer loop
      vertex 8.995 2.993 5.272
      vertex 8.995 5.05536 7.6
      vertex 8.995 5.05536 4.8
    endloop
  endfacet
  facet normal -3.12237e-16 -0.778318 0.62787
    outer loop
      vertex 8.995 3.306 5.66
      vertex 13 2.993 5.272
      vertex 13 3.306 5.66
    endloop
  endfacet
  facet normal -3.05612e-16 -0.850692 0.525664
    outer loop
      vertex 8.995 3.306 5.66
      vertex 13 3.306 5.66
      vertex 8.995 3.568 6.084
    endloop
  endfacet
  facet normal -1 0 0
    outer loop
      vertex 8.995 3.306 5.66
      vertex 8.995 3.568 6.084
      vertex 8.995 5.05536 7.6
    endloop
  endfacet
  facet normal -3.05612e-16 -0.850692 0.525664
    outer loop
      vertex 8.995 3.568 6.084
      vertex 13 3.306 5.66
      vertex 13 3.568 6.084
    endloop
  endfacet
  facet normal -2.94642e-16 -0.908018 0.418931
    outer loop
      vertex 8.995 3.568 6.084
      vertex 13 3.568 6.084
      vertex 8.995 3.777 6.537
    endloop
  endfacet
  facet normal -1 0 0
    outer loop
      vertex 8.995 3.568 6.084
      vertex 8.995 3.777 6.537
      vertex 8.995 5.05536 7.6
    endloop
  endfacet
  facet normal -2.94642e-16 -0.908018 0.418931
    outer loop
      vertex 8.995 3.777 6.537
      vertex 13 3.568 6.084
      vertex 13 3.777 6.537
    endloop
  endfacet
  facet normal -2.78879e-16 -0.953005 0.302955
    outer loop
      vertex 8.995 3.777 6.537
      vertex 13 3.777 6.537
      vertex 8.995 3.928 7.012
    endloop
  endfacet
  facet normal -1 0 0
    outer loop
      vertex 8.995 3.777 6.537
      vertex 8.995 3.928 7.012
      vertex 8.995 5.05536 7.6
    endloop
  endfacet
  facet normal -2.78879e-16 -0.953005 0.302955
    outer loop
      vertex 8.995 3.928 7.012
      vertex 13 3.777 6.537
      vertex 13 3.928 7.012
    endloop
  endfacet
  facet normal -2.58855e-16 -0.983189 0.182592
    outer loop
      vertex 8.995 3.928 7.012
      vertex 13 3.928 7.012
      vertex 8.995 4.019 7.502
    endloop
  endfacet
  facet normal -1 0 0
    outer loop
      vertex 8.995 3.928 7.012
      vertex 8.995 4.019 7.502
      vertex 8.995 5.05536 7.6
    endloop
  endfacet
  facet normal -2.58855e-16 -0.983189 0.182592
    outer loop
      vertex 8.995 4.019 7.502
      vertex 13 3.928 7.012
      vertex 13 4.019 7.502
    endloop
  endfacet
  facet normal -2.35411e-16 -0.998068 0.0621287
    outer loop
      vertex 8.995 4.019 7.502
      vertex 13 4.019 7.502
      vertex 8.995 4.0251 7.6
    endloop
  endfacet
  facet normal -1 0 0
    outer loop
      vertex 8.995 4.019 7.502
      vertex 8.995 4.0251 7.6
      vertex 8.995 5.05536 7.6
    endloop
  endfacet
  facet normal -2.35411e-16 -0.998068 0.0621287
    outer loop
      vertex 8.995 4.0251 7.6
      vertex 13 4.019 7.502
      vertex 13 4.0251 7.6
    endloop
  endfacet
  facet normal 0 0 1
    outer loop
      vertex 8.995 4.0251 7.6
      vertex 13 4.0251 7.6
      vertex 9.28136 5.65 7.6
    endloop
  endfacet
  facet normal 0 0 1
    outer loop
      vertex 8.995 4.0251 7.6
      vertex 9.28136 5.65 7.6
      vertex 8.995 5.05536 7.6
    endloop
  endfacet
  facet normal -0.900969 0.433884 0
    outer loop
      vertex 8.995 5.05536 4.8
      vertex 8.995 5.05536 7.6
      vertex 9.28136 5.65 7.6
    endloop
  endfacet
  facet normal -0.900969 0.433884 0
    outer loop
      vertex 8.995 5.05536 4.8
      vertex 9.28136 5.65 7.6
      vertex 9.28136 5.65 0
    endloop
  endfacet
  facet normal 0 0 -1
    outer loop
      vertex 9.28136 -5.65 0
      vertex 10.2477 9.63975 0
      vertex 13 -9.65 0
    endloop
  endfacet
endsolid OpenSCAD_Model
