solid OpenSCAD_Model
  facet normal -0.222522 0.974928 0
    outer loop
      vertex -0.429768 -1.88294 0
      vertex -0.429768 -1.88294 6.4
      vertex 1.20418 -1.51 0
    endloop
  endfacet
  facet normal -0.222522 0.974928 0
    outer loop
      vertex -0.429768 -1.88294 6.4
      vertex 1.20418 -1.51 6.4
      vertex 1.20418 -1.51 0
    endloop
  endfacet
  facet normal 0 0 1
    outer loop
      vertex -0.429768 -1.88294 6.4
      vertex 12.8903 -4.9 6.4
      vertex 1.20418 -1.51 6.4
    endloop
  endfacet
  facet normal -0.222522 -0.974928 0
    outer loop
      vertex -0.429768 1.88294 0
      vertex 1.20418 1.51 0
      vertex -0.429768 1.88294 6.4
    endloop
  endfacet
  facet normal -0.222522 -0.974928 0
    outer loop
      vertex -0.429768 1.88294 6.4
      vertex 1.20418 1.51 0
      vertex 1.20418 1.51 6.4
    endloop
  endfacet
  facet normal 0 0 -1
    outer loop
      vertex -0.607785 -2.66288 0
      vertex -0.429768 -1.88294 0
      vertex 1.20418 -1.51 0
    endloop
  endfacet
  facet normal 0 0 -1
    outer loop
      vertex -0.607785 -2.66288 0
      vertex 1.20418 -1.51 0
      vertex 1.70298 -2.13546 0
    endloop
  endfacet
  facet normal 0.222521 -0.974928 0
    outer loop
      vertex -0.607785 -2.66288 0
      vertex 1.70298 -2.13546 0
      vertex -0.607785 -2.66288 4
    endloop
  endfacet
  facet normal 0 0 -1
    outer loop
      vertex -0.607785 -2.66288 4
      vertex 1.59899 -3.86031 4
      vertex 0 -4.17836 4
    endloop
  endfacet
  facet normal 0.222521 -0.974928 0
    outer loop
      vertex -0.607785 -2.66288 4
      vertex 1.70298 -2.13546 0
      vertex 1.70298 -2.13546 4
    endloop
  endfacet
  facet normal 0 0 -1
    outer loop
      vertex -0.607785 -2.66288 4
      vertex 1.70298 -2.13546 4
      vertex 1.59899 -3.86031 4
    endloop
  endfacet
  facet normal 0.222521 0.974928 0
    outer loop
      vertex -0.607785 2.66288 0
      vertex -0.607785 2.66288 4
      vertex 1.70298 2.13546 0
    endloop
  endfacet
  facet normal 0 0 -1
    outer loop
      vertex -0.607785 2.66288 0
      vertex 1.20418 1.51 0
      vertex -0.429768 1.88294 0
    endloop
  endfacet
  facet normal 0 0 -1
    outer loop
      vertex -0.607785 2.66288 0
      vertex 1.70298 2.13546 0
      vertex 1.20418 1.51 0
    endloop
  endfacet
  facet normal 0 0 -1
    outer loop
      vertex -0.607785 2.66288 4
      vertex 1.59899 3.86031 4
      vertex 2.95455 2.95455 4
    endloop
  endfacet
  facet normal 0.222521 0.974928 0
    outer loop
      vertex -0.607785 2.66288 4
      vertex 1.70298 2.13546 4
      vertex 1.70298 2.13546 0
    endloop
  endfacet
  facet normal 0 0 -1
    outer loop
      vertex -0.607785 2.66288 4
      vertex 2.95455 2.95455 4
      vertex 1.70298 2.13546 4
    endloop
  endfacet
  facet normal 0.19509 0.980785 0
    outer loop
      vertex -1.59899 -3.86031 0
      vertex -1.59899 -3.86031 4
      vertex 0 -4.17836 0
    endloop
  endfacet
  facet normal 0.19509 0.980785 0
    outer loop
      vertex -1.59899 -3.86031 4
      vertex 0 -4.17836 4
      vertex 0 -4.17836 0
    endloop
  endfacet
  facet normal 0.19509 -0.980785 0
    outer loop
      vertex -1.59899 3.86031 0
      vertex 0 4.17836 0
      vertex -1.59899 3.86031 4
    endloop
  endfacet
  facet normal 0.19509 -0.980785 0
    outer loop
      vertex -1.59899 3.86031 4
      vertex 0 4.17836 0
      vertex 0 4.17836 4
    endloop
  endfacet
  facet normal 0 0 -1
    outer loop
      vertex -1.7401 -0.837986 0
      vertex -0.429768 -1.88294 0
      vertex -0.607785 -2.66288 0
    endloop
  endfacet
  facet normal 0.62349 0.781831 0
    outer loop
      vertex -1.7401 -0.837986 0
      vertex -1.7401 -0.837986 6.4
      vertex -0.429768 -1.88294 0
    endloop
  endfacet
  facet normal 1 0 0
    outer loop
      vertex -1.7401 -0.837986 0
      vertex -1.7401 0.837986 0
      vertex -1.7401 -0.837986 6.4
    endloop
  endfacet
  facet normal 0.62349 0.781831 0
    outer loop
      vertex -1.7401 -0.837986 6.4
      vertex -0.429768 -1.88294 6.4
      vertex -0.429768 -1.88294 0
    endloop
  endfacet
  facet normal 1 0 0
    outer loop
      vertex -1.7401 -0.837986 6.4
      vertex -1.7401 0.837986 0
      vertex -1.7401 0.837986 6.4
    endloop
  endfacet
  facet normal 0.62349 -0.781831 0
    outer loop
      vertex -1.7401 0.837986 0
      vertex -0.429768 1.88294 0
      vertex -1.7401 0.837986 6.4
    endloop
  endfacet
  facet normal 0 0 -1
    outer loop
      vertex -1.7401 0.837986 0
      vertex -0.607785 2.66288 0
      vertex -0.429768 1.88294 0
    endloop
  endfacet
  facet normal 0.62349 -0.781831 0
    outer loop
      vertex -1.7401 0.837986 6.4
      vertex -0.429768 1.88294 0
      vertex -0.429768 1.88294 6.4
    endloop
  endfacet
  facet normal 0 0 1
    outer loop
      vertex -12.8903 -4.9 10.9
      vertex -3.09031 4.9 10.9
      vertex -5.93288 4.9 10.9
    endloop
  endfacet
  facet normal 0.707107 -0.707107 0
    outer loop
      vertex -12.8903 -4.9 10.9
      vertex -3.09031 4.9 6.4
      vertex -3.09031 4.9 10.9
    endloop
  endfacet
  facet normal 0 0 1
    outer loop
      vertex -12.8903 -4.9 6.4
      vertex -0.429768 -1.88294 6.4
      vertex -1.7401 -0.837986 6.4
    endloop
  endfacet
  facet normal 0 0 1
    outer loop
      vertex -12.8903 -4.9 6.4
      vertex -1.7401 -0.837986 6.4
      vertex -3.09031 4.9 6.4
    endloop
  endfacet
  facet normal 0.707107 -0.707107 0
    outer loop
      vertex -12.8903 -4.9 6.4
      vertex -3.09031 4.9 6.4
      vertex -12.8903 -4.9 10.9
    endloop
  endfacet
  facet normal 0 0 1
    outer loop
      vertex -12.8903 -4.9 6.4
      vertex 12.8903 -4.9 6.4
      vertex -0.429768 -1.88294 6.4
    endloop
  endfacet
  facet normal 0 0 1
    outer loop
      vertex -12.8903 -4.9 6.4
      vertex 16.85 -5.4 6.4
      vertex 12.8903 -4.9 6.4
    endloop
  endfacet
  facet normal 0 0 -1
    outer loop
      vertex -14.9186 0 0
      vertex -3.86031 -1.59899 0
      vertex -2.95455 -2.95455 0
    endloop
  endfacet
  facet normal 0 0 -1
    outer loop
      vertex -14.9186 0 0
      vertex -4.17836 0 0
      vertex -3.86031 -1.59899 0
    endloop
  endfacet
  facet normal -0.866025 0.5 0
    outer loop
      vertex -15.25 -2.77128 3.4
      vertex -15.25 -2.77128 6.4
      vertex -13.65 0 3.4
    endloop
  endfacet
  facet normal -0.866025 0.5 0
    outer loop
      vertex -15.25 -2.77128 6.4
      vertex -13.65 0 6.4
      vertex -13.65 0 3.4
    endloop
  endfacet
  facet normal -0.866025 -0.5 0
    outer loop
      vertex -15.25 2.77128 3.4
      vertex -13.65 0 3.4
      vertex -15.25 2.77128 6.4
    endloop
  endfacet
  facet normal -0.866025 -0.5 0
    outer loop
      vertex -15.25 2.77128 6.4
      vertex -13.65 0 3.4
      vertex -13.65 0 6.4
    endloop
  endfacet
  facet normal 0 0 1
    outer loop
      vertex -15.25 2.77128 6.4
      vertex -13.65 0 6.4
      vertex -5.93288 4.9 6.4
    endloop
  endfacet
  facet normal 0 0 -1
    outer loop
      vertex -15.6458 -1.51 0
      vertex -14.9186 0 0
      vertex -2.95455 -2.95455 0
    endloop
  endfacet
  facet normal -0.900969 0.433884 0
    outer loop
      vertex -15.6458 -1.51 0
      vertex -15.6458 -1.51 3.4
      vertex -14.9186 0 0
    endloop
  endfacet
  facet normal 0 0 -1
    outer loop
      vertex -15.6458 -1.51 0
      vertex -2.95455 -2.95455 0
      vertex -1.59899 -3.86031 0
    endloop
  endfacet
  facet normal 0 0 1
    outer loop
      vertex -15.6458 -1.51 3.4
      vertex -13.65 0 3.4
      vertex -14.9186 0 3.4
    endloop
  endfacet
  facet normal -0.900969 0.433884 0
    outer loop
      vertex -15.6458 -1.51 3.4
      vertex -14.9186 0 3.4
      vertex -14.9186 0 0
    endloop
  endfacet
  facet normal 0 0 1
    outer loop
      vertex -15.6458 -1.51 3.4
      vertex -15.25 -2.77128 3.4
      vertex -13.65 0 3.4
    endloop
  endfacet
  facet normal 0 0 -1
    outer loop
      vertex -15.6458 1.51 0
      vertex -1.59899 3.86031 0
      vertex -2.95455 2.95455 0
    endloop
  endfacet
  facet normal -0.900969 -0.433884 0
    outer loop
      vertex -15.6458 1.51 0
      vertex -14.9186 0 0
      vertex -15.6458 1.51 3.4
    endloop
  endfacet
  facet normal 0 0 -1
    outer loop
      vertex -15.6458 1.51 0
      vertex -2.95455 2.95455 0
      vertex -3.86031 1.59899 0
    endloop
  endfacet
  facet normal 0 0 -1
    outer loop
      vertex -15.6458 1.51 0
      vertex -3.86031 1.59899 0
      vertex -4.17836 0 0
    endloop
  endfacet
  facet normal 0 0 -1
    outer loop
      vertex -15.6458 1.51 0
      vertex -4.17836 0 0
      vertex -14.9186 0 0
    endloop
  endfacet
  facet normal 0 0 1
    outer loop
      vertex -15.6458 1.51 3.4
      vertex -13.65 0 3.4
      vertex -15.25 2.77128 3.4
    endloop
  endfacet
  facet normal -0.900969 -0.433884 0
    outer loop
      vertex -15.6458 1.51 3.4
      vertex -14.9186 0 0
      vertex -14.9186 0 3.4
    endloop
  endfacet
  facet normal 0 0 1
    outer loop
      vertex -15.6458 1.51 3.4
      vertex -14.9186 0 3.4
      vertex -13.65 0 3.4
    endloop
  endfacet
  facet normal 0 0 1
    outer loop
      vertex -15.7329 -4.9 10.9
      vertex -12.8903 -4.9 10.9
      vertex -5.93288 4.9 10.9
    endloop
  endfacet
  facet normal 0 -1 0
    outer loop
      vertex -15.7329 -4.9 10.9
      vertex -12.8903 -4.9 6.4
      vertex -12.8903 -4.9 10.9
    endloop
  endfacet
  facet normal -0.707107 0.707107 0
    outer loop
      vertex -15.7329 -4.9 10.9
      vertex -5.93288 4.9 10.9
      vertex -5.93288 4.9 6.4
    endloop
  endfacet
  facet normal 0 -1 0
    outer loop
      vertex -15.7329 -4.9 6.4
      vertex -12.8903 -4.9 6.4
      vertex -15.7329 -4.9 10.9
    endloop
  endfacet
  facet normal 0 0 1
    outer loop
      vertex -15.7329 -4.9 6.4
      vertex -13.65 0 6.4
      vertex -15.25 -2.77128 6.4
    endloop
  endfacet
  facet normal -0.707107 0.707107 0
    outer loop
      vertex -15.7329 -4.9 6.4
      vertex -15.7329 -4.9 10.9
      vertex -5.93288 4.9 6.4
    endloop
  endfacet
  facet normal 0 0 1
    outer loop
      vertex -15.7329 -4.9 6.4
      vertex -5.93288 4.9 6.4
      vertex -13.65 0 6.4
    endloop
  endfacet
  facet normal 0 0 -1
    outer loop
      vertex -16.85 -5.4 0
      vertex -1.59899 -3.86031 0
      vertex 0 -4.17836 0
    endloop
  endfacet
  facet normal 0 0 -1
    outer loop
      vertex -16.85 -5.4 0
      vertex 0 -4.17836 0
      vertex 16.85 -5.4 0
    endloop
  endfacet
  facet normal 0 -1 0
    outer loop
      vertex -16.85 -5.4 0
      vertex 16.85 -5.4 0
      vertex -16.85 -5.4 6.4
    endloop
  endfacet
  facet normal 0 0 1
    outer loop
      vertex -16.85 -5.4 6.4
      vertex -12.8903 -4.9 6.4
      vertex -15.7329 -4.9 6.4
    endloop
  endfacet
  facet normal 0 -1 0
    outer loop
      vertex -16.85 -5.4 6.4
      vertex 16.85 -5.4 0
      vertex 16.85 -5.4 6.4
    endloop
  endfacet
  facet normal 0 0 1
    outer loop
      vertex -16.85 -5.4 6.4
      vertex 16.85 -5.4 6.4
      vertex -12.8903 -4.9 6.4
    endloop
  endfacet
  facet normal 0 0 -1
    outer loop
      vertex -16.85 5.4 0
      vertex -1.59899 3.86031 0
      vertex -15.6458 1.51 0
    endloop
  endfacet
  facet normal 0 1 0
    outer loop
      vertex -16.85 5.4 0
      vertex -16.85 5.4 6.4
      vertex 16.85 5.4 0
    endloop
  endfacet
  facet normal 0 0 -1
    outer loop
      vertex -16.85 5.4 0
      vertex 0 4.17836 0
      vertex -1.59899 3.86031 0
    endloop
  endfacet
  facet normal 0 0 -1
    outer loop
      vertex -16.85 5.4 0
      vertex 16.85 5.4 0
      vertex 0 4.17836 0
    endloop
  endfacet
  facet normal 0 0 1
    outer loop
      vertex -16.85 5.4 6.4
      vertex -5.93288 4.9 6.4
      vertex 16.85 5.4 6.4
    endloop
  endfacet
  facet normal 0 1 0
    outer loop
      vertex -16.85 5.4 6.4
      vertex 16.85 5.4 6.4
      vertex 16.85 5.4 0
    endloop
  endfacet
  facet normal 0 0 -1
    outer loop
      vertex -17.2798 -1.88294 0
      vertex -1.59899 -3.86031 0
      vertex -16.85 -5.4 0
    endloop
  endfacet
  facet normal 0 0 -1
    outer loop
      vertex -17.2798 -1.88294 0
      vertex -15.6458 -1.51 0
      vertex -1.59899 -3.86031 0
    endloop
  endfacet
  facet normal -0.222522 0.974928 0
    outer loop
      vertex -17.2798 -1.88294 0
      vertex -17.2798 -1.88294 3.4
      vertex -15.6458 -1.51 0
    endloop
  endfacet
  facet normal -0.222522 0.974928 0
    outer loop
      vertex -17.2798 -1.88294 3.4
      vertex -15.6458 -1.51 3.4
      vertex -15.6458 -1.51 0
    endloop
  endfacet
  facet normal -0.222522 -0.974928 0
    outer loop
      vertex -17.2798 1.88294 0
      vertex -15.6458 1.51 0
      vertex -17.2798 1.88294 3.4
    endloop
  endfacet
  facet normal 0 0 -1
    outer loop
      vertex -17.2798 1.88294 0
      vertex -16.85 5.4 0
      vertex -15.6458 1.51 0
    endloop
  endfacet
  facet normal -0.222522 -0.974928 0
    outer loop
      vertex -17.2798 1.88294 3.4
      vertex -15.6458 1.51 0
      vertex -15.6458 1.51 3.4
    endloop
  endfacet
  facet normal 0 0 1
    outer loop
      vertex -17.2798 1.88294 3.4
      vertex -15.6458 1.51 3.4
      vertex -15.25 2.77128 3.4
    endloop
  endfacet
  facet normal -0.0461826 -0.998933 0
    outer loop
      vertex -17.3482 -5.37696 0
      vertex -16.85 -5.4 0
      vertex -17.3482 -5.37696 6.4
    endloop
  endfacet
  facet normal -0.0461826 -0.998933 0
    outer loop
      vertex -17.3482 -5.37696 6.4
      vertex -16.85 -5.4 0
      vertex -16.85 -5.4 6.4
    endloop
  endfacet
  facet normal -0.0461826 0.998933 0
    outer loop
      vertex -17.3482 5.37696 0
      vertex -17.3482 5.37696 6.4
      vertex -16.85 5.4 0
    endloop
  endfacet
  facet normal -0.0461826 0.998933 0
    outer loop
      vertex -17.3482 5.37696 6.4
      vertex -16.85 5.4 6.4
      vertex -16.85 5.4 0
    endloop
  endfacet
  facet normal -0.138157 -0.99041 0
    outer loop
      vertex -17.8422 -5.30805 0
      vertex -17.3482 -5.37696 0
      vertex -17.8422 -5.30805 6.4
    endloop
  endfacet
  facet normal -0.138157 -0.99041 0
    outer loop
      vertex -17.8422 -5.30805 6.4
      vertex -17.3482 -5.37696 0
      vertex -17.3482 -5.37696 6.4
    endloop
  endfacet
  facet normal -0.138157 0.99041 0
    outer loop
      vertex -17.8422 5.30805 0
      vertex -17.8422 5.30805 6.4
      vertex -17.3482 5.37696 0
    endloop
  endfacet
  facet normal -0.138157 0.99041 0
    outer loop
      vertex -17.8422 5.30805 6.4
      vertex -17.3482 5.37696 6.4
      vertex -17.3482 5.37696 0
    endloop
  endfacet
  facet normal -0.228952 -0.973438 0
    outer loop
      vertex -18.3278 -5.19386 0
      vertex -17.8422 -5.30805 0
      vertex -18.3278 -5.19386 6.4
    endloop
  endfacet
  facet normal -0.228952 -0.973438 0
    outer loop
      vertex -18.3278 -5.19386 6.4
      vertex -17.8422 -5.30805 0
      vertex -17.8422 -5.30805 6.4
    endloop
  endfacet
  facet normal -0.228952 0.973438 0
    outer loop
      vertex -18.3278 5.19386 0
      vertex -18.3278 5.19386 6.4
      vertex -17.8422 5.30805 0
    endloop
  endfacet
  facet normal -0.228952 0.973438 0
    outer loop
      vertex -18.3278 5.19386 6.4
      vertex -17.8422 5.30805 6.4
      vertex -17.8422 5.30805 0
    endloop
  endfacet
  facet normal 0 0 1
    outer loop
      vertex -18.45 -2.77128 3.4
      vertex -15.25 -2.77128 3.4
      vertex -15.6458 -1.51 3.4
    endloop
  endfacet
  facet normal 0 0 1
    outer loop
      vertex -18.45 -2.77128 3.4
      vertex -15.6458 -1.51 3.4
      vertex -17.2798 -1.88294 3.4
    endloop
  endfacet
  facet normal 0 1 0
    outer loop
      vertex -18.45 -2.77128 3.4
      vertex -18.45 -2.77128 6.4
      vertex -15.25 -2.77128 3.4
    endloop
  endfacet
  facet normal 0 1 0
    outer loop
      vertex -18.45 -2.77128 6.4
      vertex -15.25 -2.77128 6.4
      vertex -15.25 -2.77128 3.4
    endloop
  endfacet
  facet normal 0 0 1
    outer loop
      vertex -18.45 -2.77128 6.4
      vertex -15.7329 -4.9 6.4
      vertex -15.25 -2.77128 6.4
    endloop
  endfacet
  facet normal 0 0 1
    outer loop
      vertex -18.45 -2.77128 6.4
      vertex -16.85 -5.4 6.4
      vertex -15.7329 -4.9 6.4
    endloop
  endfacet
  facet normal 0 -1 0
    outer loop
      vertex -18.45 2.77128 3.4
      vertex -15.25 2.77128 3.4
      vertex -18.45 2.77128 6.4
    endloop
  endfacet
  facet normal 0 0 1
    outer loop
      vertex -18.45 2.77128 3.4
      vertex -17.2798 1.88294 3.4
      vertex -15.25 2.77128 3.4
    endloop
  endfacet
  facet normal 0 -1 0
    outer loop
      vertex -18.45 2.77128 6.4
      vertex -15.25 2.77128 3.4
      vertex -15.25 2.77128 6.4
    endloop
  endfacet
  facet normal 0 0 1
    outer loop
      vertex -18.45 2.77128 6.4
      vertex -15.25 2.77128 6.4
      vertex -5.93288 4.9 6.4
    endloop
  endfacet
  facet normal 0 0 1
    outer loop
      vertex -18.45 2.77128 6.4
      vertex -5.93288 4.9 6.4
      vertex -16.85 5.4 6.4
    endloop
  endfacet
  facet normal 0.62349 0.781831 0
    outer loop
      vertex -18.5901 -0.837986 0
      vertex -18.5901 -0.837986 3.4
      vertex -17.2798 -1.88294 0
    endloop
  endfacet
  facet normal 1 0 0
    outer loop
      vertex -18.5901 -0.837986 0
      vertex -18.5901 0.837986 0
      vertex -18.5901 -0.837986 3.4
    endloop
  endfacet
  facet normal 0.62349 0.781831 0
    outer loop
      vertex -18.5901 -0.837986 3.4
      vertex -17.2798 -1.88294 3.4
      vertex -17.2798 -1.88294 0
    endloop
  endfacet
  facet normal 0 0 1
    outer loop
      vertex -18.5901 -0.837986 3.4
      vertex -18.45 -2.77128 3.4
      vertex -17.2798 -1.88294 3.4
    endloop
  endfacet
  facet normal 1 0 0
    outer loop
      vertex -18.5901 -0.837986 3.4
      vertex -18.5901 0.837986 0
      vertex -18.5901 0.837986 3.4
    endloop
  endfacet
  facet normal 0 0 -1
    outer loop
      vertex -18.5901 0.837986 0
      vertex -16.85 5.4 0
      vertex -17.2798 1.88294 0
    endloop
  endfacet
  facet normal 0.62349 -0.781831 0
    outer loop
      vertex -18.5901 0.837986 0
      vertex -17.2798 1.88294 0
      vertex -18.5901 0.837986 3.4
    endloop
  endfacet
  facet normal 0.62349 -0.781831 0
    outer loop
      vertex -18.5901 0.837986 3.4
      vertex -17.2798 1.88294 0
      vertex -17.2798 1.88294 3.4
    endloop
  endfacet
  facet normal 0 0 1
    outer loop
      vertex -18.5901 0.837986 3.4
      vertex -17.2798 1.88294 3.4
      vertex -18.45 2.77128 3.4
    endloop
  endfacet
  facet normal -0.317791 -0.948161 0
    outer loop
      vertex -18.8007 -5.03535 0
      vertex -18.3278 -5.19386 0
      vertex -18.8007 -5.03535 6.4
    endloop
  endfacet
  facet normal -0.317791 -0.948161 0
    outer loop
      vertex -18.8007 -5.03535 6.4
      vertex -18.3278 -5.19386 0
      vertex -18.3278 -5.19386 6.4
    endloop
  endfacet
  facet normal -0.317791 0.948161 0
    outer loop
      vertex -18.8007 5.03535 0
      vertex -18.8007 5.03535 6.4
      vertex -18.3278 5.19386 0
    endloop
  endfacet
  facet normal -0.317791 0.948161 0
    outer loop
      vertex -18.8007 5.03535 6.4
      vertex -18.3278 5.19386 6.4
      vertex -18.3278 5.19386 0
    endloop
  endfacet
  facet normal -0.403921 -0.914794 0
    outer loop
      vertex -19.257 -4.83388 0
      vertex -18.8007 -5.03535 0
      vertex -19.257 -4.83388 6.4
    endloop
  endfacet
  facet normal -0.403921 -0.914794 0
    outer loop
      vertex -19.257 -4.83388 6.4
      vertex -18.8007 -5.03535 0
      vertex -18.8007 -5.03535 6.4
    endloop
  endfacet
  facet normal -0.403921 0.914794 0
    outer loop
      vertex -19.257 4.83388 0
      vertex -19.257 4.83388 6.4
      vertex -18.8007 5.03535 0
    endloop
  endfacet
  facet normal -0.403921 0.914794 0
    outer loop
      vertex -19.257 4.83388 6.4
      vertex -18.8007 5.03535 6.4
      vertex -18.8007 5.03535 0
    endloop
  endfacet
  facet normal -0.486604 -0.873623 0
    outer loop
      vertex -19.6927 -4.59117 0
      vertex -19.257 -4.83388 0
      vertex -19.6927 -4.59117 6.4
    endloop
  endfacet
  facet normal -0.486604 -0.873623 0
    outer loop
      vertex -19.6927 -4.59117 6.4
      vertex -19.257 -4.83388 0
      vertex -19.257 -4.83388 6.4
    endloop
  endfacet
  facet normal -0.486604 0.873623 0
    outer loop
      vertex -19.6927 4.59117 0
      vertex -19.6927 4.59117 6.4
      vertex -19.257 4.83388 0
    endloop
  endfacet
  facet normal -0.486604 0.873623 0
    outer loop
      vertex -19.6927 4.59117 6.4
      vertex -19.257 4.83388 6.4
      vertex -19.257 4.83388 0
    endloop
  endfacet
  facet normal -0.62349 -0.781831 0
    outer loop
      vertex -2.46087 -1.18509 0
      vertex -0.607785 -2.66288 0
      vertex -2.46087 -1.18509 4
    endloop
  endfacet
  facet normal 0 0 -1
    outer loop
      vertex -2.46087 -1.18509 0
      vertex -1.7401 -0.837986 0
      vertex -0.607785 -2.66288 0
    endloop
  endfacet
  facet normal -1 0 0
    outer loop
      vertex -2.46087 -1.18509 0
      vertex -2.46087 -1.18509 4
      vertex -2.46087 1.18509 0
    endloop
  endfacet
  facet normal 0 0 -1
    outer loop
      vertex -2.46087 -1.18509 0
      vertex -2.46087 1.18509 0
      vertex -1.7401 -0.837986 0
    endloop
  endfacet
  facet normal -0.62349 -0.781831 0
    outer loop
      vertex -2.46087 -1.18509 4
      vertex -0.607785 -2.66288 0
      vertex -0.607785 -2.66288 4
    endloop
  endfacet
  facet normal 0 0 -1
    outer loop
      vertex -2.46087 -1.18509 4
      vertex -0.607785 -2.66288 4
      vertex 0 -4.17836 4
    endloop
  endfacet
  facet normal -1 0 0
    outer loop
      vertex -2.46087 -1.18509 4
      vertex -2.46087 1.18509 4
      vertex -2.46087 1.18509 0
    endloop
  endfacet
  facet normal 0 0 -1
    outer loop
      vertex -2.46087 -1.18509 4
      vertex 0 -4.17836 4
      vertex -1.59899 -3.86031 4
    endloop
  endfacet
  facet normal 0 0 -1
    outer loop
      vertex -2.46087 1.18509 0
      vertex -0.607785 2.66288 0
      vertex -1.7401 0.837986 0
    endloop
  endfacet
  facet normal 0 0 -1
    outer loop
      vertex -2.46087 1.18509 0
      vertex -1.7401 0.837986 0
      vertex -1.7401 -0.837986 0
    endloop
  endfacet
  facet normal -0.62349 0.781831 0
    outer loop
      vertex -2.46087 1.18509 0
      vertex -2.46087 1.18509 4
      vertex -0.607785 2.66288 0
    endloop
  endfacet
  facet normal -0.62349 0.781831 0
    outer loop
      vertex -2.46087 1.18509 4
      vertex -0.607785 2.66288 4
      vertex -0.607785 2.66288 0
    endloop
  endfacet
  facet normal 0.55557 0.831469 0
    outer loop
      vertex -2.95455 -2.95455 0
      vertex -2.95455 -2.95455 4
      vertex -1.59899 -3.86031 0
    endloop
  endfacet
  facet normal 0.55557 0.831469 0
    outer loop
      vertex -2.95455 -2.95455 4
      vertex -1.59899 -3.86031 4
      vertex -1.59899 -3.86031 0
    endloop
  endfacet
  facet normal 0.55557 -0.831469 0
    outer loop
      vertex -2.95455 2.95455 0
      vertex -1.59899 3.86031 0
      vertex -2.95455 2.95455 4
    endloop
  endfacet
  facet normal 0.55557 -0.831469 0
    outer loop
      vertex -2.95455 2.95455 4
      vertex -1.59899 3.86031 0
      vertex -1.59899 3.86031 4
    endloop
  endfacet
  facet normal 0 0 1
    outer loop
      vertex -20.05 0 3.4
      vertex -18.45 -2.77128 3.4
      vertex -18.5901 -0.837986 3.4
    endloop
  endfacet
  facet normal 0.866025 -0.5 0
    outer loop
      vertex -20.05 0 3.4
      vertex -18.45 2.77128 3.4
      vertex -20.05 0 6.4
    endloop
  endfacet
  facet normal 0 0 1
    outer loop
      vertex -20.05 0 3.4
      vertex -18.5901 -0.837986 3.4
      vertex -18.5901 0.837986 3.4
    endloop
  endfacet
  facet normal 0 0 1
    outer loop
      vertex -20.05 0 3.4
      vertex -18.5901 0.837986 3.4
      vertex -18.45 2.77128 3.4
    endloop
  endfacet
  facet normal 0.866025 0.5 0
    outer loop
      vertex -20.05 0 3.4
      vertex -20.05 0 6.4
      vertex -18.45 -2.77128 3.4
    endloop
  endfacet
  facet normal 0.866025 0.5 0
    outer loop
      vertex -20.05 0 6.4
      vertex -18.45 -2.77128 6.4
      vertex -18.45 -2.77128 3.4
    endloop
  endfacet
  facet normal 0.866025 -0.5 0
    outer loop
      vertex -20.05 0 6.4
      vertex -18.45 2.77128 3.4
      vertex -18.45 2.77128 6.4
    endloop
  endfacet
  facet normal -0.565137 -0.824997 0
    outer loop
      vertex -20.1042 -4.30929 0
      vertex -19.6927 -4.59117 0
      vertex -20.1042 -4.30929 6.4
    endloop
  endfacet
  facet normal -0.565137 -0.824997 0
    outer loop
      vertex -20.1042 -4.30929 6.4
      vertex -19.6927 -4.59117 0
      vertex -19.6927 -4.59117 6.4
    endloop
  endfacet
  facet normal -0.565137 0.824997 0
    outer loop
      vertex -20.1042 4.30929 0
      vertex -20.1042 4.30929 6.4
      vertex -19.6927 4.59117 0
    endloop
  endfacet
  facet normal -0.565137 0.824997 0
    outer loop
      vertex -20.1042 4.30929 6.4
      vertex -19.6927 4.59117 6.4
      vertex -19.6927 4.59117 0
    endloop
  endfacet
  facet normal -0.638847 -0.769333 0
    outer loop
      vertex -20.488 -3.99065 0
      vertex -20.1042 -4.30929 0
      vertex -20.488 -3.99065 6.4
    endloop
  endfacet
  facet normal -0.638847 -0.769333 0
    outer loop
      vertex -20.488 -3.99065 6.4
      vertex -20.1042 -4.30929 0
      vertex -20.1042 -4.30929 6.4
    endloop
  endfacet
  facet normal -0.638847 0.769333 0
    outer loop
      vertex -20.488 3.99065 0
      vertex -20.488 3.99065 6.4
      vertex -20.1042 4.30929 0
    endloop
  endfacet
  facet normal -0.638847 0.769333 0
    outer loop
      vertex -20.488 3.99065 6.4
      vertex -20.1042 4.30929 6.4
      vertex -20.1042 4.30929 0
    endloop
  endfacet
  facet normal -0.707107 -0.707107 0
    outer loop
      vertex -20.8406 -3.63796 0
      vertex -20.488 -3.99065 0
      vertex -20.8406 -3.63796 6.4
    endloop
  endfacet
  facet normal -0.707107 -0.707107 0
    outer loop
      vertex -20.8406 -3.63796 6.4
      vertex -20.488 -3.99065 0
      vertex -20.488 -3.99065 6.4
    endloop
  endfacet
  facet normal -0.707107 0.707107 0
    outer loop
      vertex -20.8406 3.63796 0
      vertex -20.8406 3.63796 6.4
      vertex -20.488 3.99065 0
    endloop
  endfacet
  facet normal -0.707107 0.707107 0
    outer loop
      vertex -20.8406 3.63796 6.4
      vertex -20.488 3.99065 6.4
      vertex -20.488 3.99065 0
    endloop
  endfacet
  facet normal -0.769333 -0.638847 0
    outer loop
      vertex -21.1593 -3.25423 0
      vertex -20.8406 -3.63796 0
      vertex -21.1593 -3.25423 6.4
    endloop
  endfacet
  facet normal -0.769333 -0.638847 0
    outer loop
      vertex -21.1593 -3.25423 6.4
      vertex -20.8406 -3.63796 0
      vertex -20.8406 -3.63796 6.4
    endloop
  endfacet
  facet normal -0.769333 0.638847 0
    outer loop
      vertex -21.1593 3.25423 0
      vertex -21.1593 3.25423 6.4
      vertex -20.8406 3.63796 0
    endloop
  endfacet
  facet normal -0.769333 0.638847 0
    outer loop
      vertex -21.1593 3.25423 6.4
      vertex -20.8406 3.63796 6.4
      vertex -20.8406 3.63796 0
    endloop
  endfacet
  facet normal -0.824997 -0.565137 0
    outer loop
      vertex -21.4412 -2.84273 0
      vertex -21.1593 -3.25423 0
      vertex -21.4412 -2.84273 6.4
    endloop
  endfacet
  facet normal -0.824997 -0.565137 0
    outer loop
      vertex -21.4412 -2.84273 6.4
      vertex -21.1593 -3.25423 0
      vertex -21.1593 -3.25423 6.4
    endloop
  endfacet
  facet normal -0.824997 0.565137 0
    outer loop
      vertex -21.4412 2.84273 0
      vertex -21.4412 2.84273 6.4
      vertex -21.1593 3.25423 0
    endloop
  endfacet
  facet normal -0.824997 0.565137 0
    outer loop
      vertex -21.4412 2.84273 6.4
      vertex -21.1593 3.25423 6.4
      vertex -21.1593 3.25423 0
    endloop
  endfacet
  facet normal -0.873623 -0.486604 0
    outer loop
      vertex -21.6839 -2.40699 0
      vertex -21.4412 -2.84273 0
      vertex -21.6839 -2.40699 6.4
    endloop
  endfacet
  facet normal -0.873623 -0.486604 0
    outer loop
      vertex -21.6839 -2.40699 6.4
      vertex -21.4412 -2.84273 0
      vertex -21.4412 -2.84273 6.4
    endloop
  endfacet
  facet normal -0.873623 0.486604 0
    outer loop
      vertex -21.6839 2.40699 0
      vertex -21.6839 2.40699 6.4
      vertex -21.4412 2.84273 0
    endloop
  endfacet
  facet normal -0.873623 0.486604 0
    outer loop
      vertex -21.6839 2.40699 6.4
      vertex -21.4412 2.84273 6.4
      vertex -21.4412 2.84273 0
    endloop
  endfacet
  facet normal -0.914794 -0.403921 0
    outer loop
      vertex -21.8853 -1.9507 0
      vertex -21.6839 -2.40699 0
      vertex -21.8853 -1.9507 6.4
    endloop
  endfacet
  facet normal -0.914794 -0.403921 0
    outer loop
      vertex -21.8853 -1.9507 6.4
      vertex -21.6839 -2.40699 0
      vertex -21.6839 -2.40699 6.4
    endloop
  endfacet
  facet normal -0.914794 0.403921 0
    outer loop
      vertex -21.8853 1.9507 0
      vertex -21.8853 1.9507 6.4
      vertex -21.6839 2.40699 0
    endloop
  endfacet
  facet normal -0.914794 0.403921 0
    outer loop
      vertex -21.8853 1.9507 6.4
      vertex -21.6839 2.40699 6.4
      vertex -21.6839 2.40699 0
    endloop
  endfacet
  facet normal -0.948161 -0.317791 0
    outer loop
      vertex -22.0439 -1.47778 0
      vertex -21.8853 -1.9507 0
      vertex -22.0439 -1.47778 6.4
    endloop
  endfacet
  facet normal -0.948161 -0.317791 0
    outer loop
      vertex -22.0439 -1.47778 6.4
      vertex -21.8853 -1.9507 0
      vertex -21.8853 -1.9507 6.4
    endloop
  endfacet
  facet normal -0.948161 0.317791 0
    outer loop
      vertex -22.0439 1.47778 0
      vertex -22.0439 1.47778 6.4
      vertex -21.8853 1.9507 0
    endloop
  endfacet
  facet normal -0.948161 0.317791 0
    outer loop
      vertex -22.0439 1.47778 6.4
      vertex -21.8853 1.9507 6.4
      vertex -21.8853 1.9507 0
    endloop
  endfacet
  facet normal -0.973438 -0.228952 0
    outer loop
      vertex -22.1581 -0.992247 0
      vertex -22.0439 -1.47778 0
      vertex -22.1581 -0.992247 6.4
    endloop
  endfacet
  facet normal -0.973438 -0.228952 0
    outer loop
      vertex -22.1581 -0.992247 6.4
      vertex -22.0439 -1.47778 0
      vertex -22.0439 -1.47778 6.4
    endloop
  endfacet
  facet normal -0.973438 0.228952 0
    outer loop
      vertex -22.1581 0.992247 0
      vertex -22.1581 0.992247 6.4
      vertex -22.0439 1.47778 0
    endloop
  endfacet
  facet normal -0.973438 0.228952 0
    outer loop
      vertex -22.1581 0.992247 6.4
      vertex -22.0439 1.47778 6.4
      vertex -22.0439 1.47778 0
    endloop
  endfacet
  facet normal 0 0 -1
    outer loop
      vertex -22.227 -0.498249 0
      vertex -16.85 -5.4 0
      vertex -17.3482 -5.37696 0
    endloop
  endfacet
  facet normal 0 0 -1
    outer loop
      vertex -22.227 -0.498249 0
      vertex -16.85 5.4 0
      vertex -18.5901 0.837986 0
    endloop
  endfacet
  facet normal 0 0 -1
    outer loop
      vertex -22.227 -0.498249 0
      vertex -17.2798 -1.88294 0
      vertex -16.85 -5.4 0
    endloop
  endfacet
  facet normal 0 0 -1
    outer loop
      vertex -22.227 -0.498249 0
      vertex -17.3482 -5.37696 0
      vertex -17.8422 -5.30805 0
    endloop
  endfacet
  facet normal 0 0 -1
    outer loop
      vertex -22.227 -0.498249 0
      vertex -17.3482 5.37696 0
      vertex -16.85 5.4 0
    endloop
  endfacet
  facet normal 0 0 -1
    outer loop
      vertex -22.227 -0.498249 0
      vertex -17.8422 -5.30805 0
      vertex -18.3278 -5.19386 0
    endloop
  endfacet
  facet normal 0 0 -1
    outer loop
      vertex -22.227 -0.498249 0
      vertex -17.8422 5.30805 0
      vertex -17.3482 5.37696 0
    endloop
  endfacet
  facet normal 0 0 -1
    outer loop
      vertex -22.227 -0.498249 0
      vertex -18.3278 -5.19386 0
      vertex -18.8007 -5.03535 0
    endloop
  endfacet
  facet normal 0 0 -1
    outer loop
      vertex -22.227 -0.498249 0
      vertex -18.3278 5.19386 0
      vertex -17.8422 5.30805 0
    endloop
  endfacet
  facet normal 0 0 -1
    outer loop
      vertex -22.227 -0.498249 0
      vertex -18.5901 -0.837986 0
      vertex -17.2798 -1.88294 0
    endloop
  endfacet
  facet normal 0 0 -1
    outer loop
      vertex -22.227 -0.498249 0
      vertex -18.5901 0.837986 0
      vertex -18.5901 -0.837986 0
    endloop
  endfacet
  facet normal 0 0 -1
    outer loop
      vertex -22.227 -0.498249 0
      vertex -18.8007 -5.03535 0
      vertex -19.257 -4.83388 0
    endloop
  endfacet
  facet normal 0 0 -1
    outer loop
      vertex -22.227 -0.498249 0
      vertex -18.8007 5.03535 0
      vertex -18.3278 5.19386 0
    endloop
  endfacet
  facet normal 0 0 -1
    outer loop
      vertex -22.227 -0.498249 0
      vertex -19.257 -4.83388 0
      vertex -19.6927 -4.59117 0
    endloop
  endfacet
  facet normal 0 0 -1
    outer loop
      vertex -22.227 -0.498249 0
      vertex -19.257 4.83388 0
      vertex -18.8007 5.03535 0
    endloop
  endfacet
  facet normal 0 0 -1
    outer loop
      vertex -22.227 -0.498249 0
      vertex -19.6927 -4.59117 0
      vertex -20.1042 -4.30929 0
    endloop
  endfacet
  facet normal 0 0 -1
    outer loop
      vertex -22.227 -0.498249 0
      vertex -19.6927 4.59117 0
      vertex -19.257 4.83388 0
    endloop
  endfacet
  facet normal 0 0 -1
    outer loop
      vertex -22.227 -0.498249 0
      vertex -20.1042 -4.30929 0
      vertex -20.488 -3.99065 0
    endloop
  endfacet
  facet normal 0 0 -1
    outer loop
      vertex -22.227 -0.498249 0
      vertex -20.1042 4.30929 0
      vertex -19.6927 4.59117 0
    endloop
  endfacet
  facet normal 0 0 -1
    outer loop
      vertex -22.227 -0.498249 0
      vertex -20.488 -3.99065 0
      vertex -20.8406 -3.63796 0
    endloop
  endfacet
  facet normal 0 0 -1
    outer loop
      vertex -22.227 -0.498249 0
      vertex -20.488 3.99065 0
      vertex -20.1042 4.30929 0
    endloop
  endfacet
  facet normal 0 0 -1
    outer loop
      vertex -22.227 -0.498249 0
      vertex -20.8406 -3.63796 0
      vertex -21.1593 -3.25423 0
    endloop
  endfacet
  facet normal 0 0 -1
    outer loop
      vertex -22.227 -0.498249 0
      vertex -20.8406 3.63796 0
      vertex -20.488 3.99065 0
    endloop
  endfacet
  facet normal 0 0 -1
    outer loop
      vertex -22.227 -0.498249 0
      vertex -21.1593 -3.25423 0
      vertex -21.4412 -2.84273 0
    endloop
  endfacet
  facet normal 0 0 -1
    outer loop
      vertex -22.227 -0.498249 0
      vertex -21.1593 3.25423 0
      vertex -20.8406 3.63796 0
    endloop
  endfacet
  facet normal 0 0 -1
    outer loop
      vertex -22.227 -0.498249 0
      vertex -21.4412 -2.84273 0
      vertex -21.6839 -2.40699 0
    endloop
  endfacet
  facet normal 0 0 -1
    outer loop
      vertex -22.227 -0.498249 0
      vertex -21.4412 2.84273 0
      vertex -21.1593 3.25423 0
    endloop
  endfacet
  facet normal 0 0 -1
    outer loop
      vertex -22.227 -0.498249 0
      vertex -21.6839 -2.40699 0
      vertex -21.8853 -1.9507 0
    endloop
  endfacet
  facet normal 0 0 -1
    outer loop
      vertex -22.227 -0.498249 0
      vertex -21.6839 2.40699 0
      vertex -21.4412 2.84273 0
    endloop
  endfacet
  facet normal 0 0 -1
    outer loop
      vertex -22.227 -0.498249 0
      vertex -21.8853 -1.9507 0
      vertex -22.0439 -1.47778 0
    endloop
  endfacet
  facet normal 0 0 -1
    outer loop
      vertex -22.227 -0.498249 0
      vertex -21.8853 1.9507 0
      vertex -21.6839 2.40699 0
    endloop
  endfacet
  facet normal 0 0 -1
    outer loop
      vertex -22.227 -0.498249 0
      vertex -22.0439 -1.47778 0
      vertex -22.1581 -0.992247 0
    endloop
  endfacet
  facet normal 0 0 -1
    outer loop
      vertex -22.227 -0.498249 0
      vertex -22.0439 1.47778 0
      vertex -21.8853 1.9507 0
    endloop
  endfacet
  facet normal -0.99041 -0.138157 0
    outer loop
      vertex -22.227 -0.498249 0
      vertex -22.1581 -0.992247 0
      vertex -22.227 -0.498249 6.4
    endloop
  endfacet
  facet normal 0 0 -1
    outer loop
      vertex -22.227 -0.498249 0
      vertex -22.1581 0.992247 0
      vertex -22.0439 1.47778 0
    endloop
  endfacet
  facet normal 0 0 -1
    outer loop
      vertex -22.227 -0.498249 0
      vertex -22.227 0.498249 0
      vertex -22.1581 0.992247 0
    endloop
  endfacet
  facet normal -0.99041 -0.138157 0
    outer loop
      vertex -22.227 -0.498249 6.4
      vertex -22.1581 -0.992247 0
      vertex -22.1581 -0.992247 6.4
    endloop
  endfacet
  facet normal 0 0 1
    outer loop
      vertex -22.227 -0.498249 6.4
      vertex -22.1581 -0.992247 6.4
      vertex -22.227 0.498249 6.4
    endloop
  endfacet
  facet normal -0.99041 0.138157 0
    outer loop
      vertex -22.227 0.498249 0
      vertex -22.227 0.498249 6.4
      vertex -22.1581 0.992247 0
    endloop
  endfacet
  facet normal 0 0 1
    outer loop
      vertex -22.227 0.498249 6.4
      vertex -16.85 -5.4 6.4
      vertex -18.45 -2.77128 6.4
    endloop
  endfacet
  facet normal 0 0 1
    outer loop
      vertex -22.227 0.498249 6.4
      vertex -16.85 5.4 6.4
      vertex -17.3482 5.37696 6.4
    endloop
  endfacet
  facet normal 0 0 1
    outer loop
      vertex -22.227 0.498249 6.4
      vertex -17.3482 -5.37696 6.4
      vertex -16.85 -5.4 6.4
    endloop
  endfacet
  facet normal 0 0 1
    outer loop
      vertex -22.227 0.498249 6.4
      vertex -17.3482 5.37696 6.4
      vertex -17.8422 5.30805 6.4
    endloop
  endfacet
  facet normal 0 0 1
    outer loop
      vertex -22.227 0.498249 6.4
      vertex -17.8422 -5.30805 6.4
      vertex -17.3482 -5.37696 6.4
    endloop
  endfacet
  facet normal 0 0 1
    outer loop
      vertex -22.227 0.498249 6.4
      vertex -17.8422 5.30805 6.4
      vertex -18.3278 5.19386 6.4
    endloop
  endfacet
  facet normal 0 0 1
    outer loop
      vertex -22.227 0.498249 6.4
      vertex -18.3278 -5.19386 6.4
      vertex -17.8422 -5.30805 6.4
    endloop
  endfacet
  facet normal 0 0 1
    outer loop
      vertex -22.227 0.498249 6.4
      vertex -18.3278 5.19386 6.4
      vertex -18.8007 5.03535 6.4
    endloop
  endfacet
  facet normal 0 0 1
    outer loop
      vertex -22.227 0.498249 6.4
      vertex -18.45 -2.77128 6.4
      vertex -20.05 0 6.4
    endloop
  endfacet
  facet normal 0 0 1
    outer loop
      vertex -22.227 0.498249 6.4
      vertex -18.45 2.77128 6.4
      vertex -16.85 5.4 6.4
    endloop
  endfacet
  facet normal 0 0 1
    outer loop
      vertex -22.227 0.498249 6.4
      vertex -18.8007 -5.03535 6.4
      vertex -18.3278 -5.19386 6.4
    endloop
  endfacet
  facet normal 0 0 1
    outer loop
      vertex -22.227 0.498249 6.4
      vertex -18.8007 5.03535 6.4
      vertex -19.257 4.83388 6.4
    endloop
  endfacet
  facet normal 0 0 1
    outer loop
      vertex -22.227 0.498249 6.4
      vertex -19.257 -4.83388 6.4
      vertex -18.8007 -5.03535 6.4
    endloop
  endfacet
  facet normal 0 0 1
    outer loop
      vertex -22.227 0.498249 6.4
      vertex -19.257 4.83388 6.4
      vertex -19.6927 4.59117 6.4
    endloop
  endfacet
  facet normal 0 0 1
    outer loop
      vertex -22.227 0.498249 6.4
      vertex -19.6927 -4.59117 6.4
      vertex -19.257 -4.83388 6.4
    endloop
  endfacet
  facet normal 0 0 1
    outer loop
      vertex -22.227 0.498249 6.4
      vertex -19.6927 4.59117 6.4
      vertex -20.1042 4.30929 6.4
    endloop
  endfacet
  facet normal 0 0 1
    outer loop
      vertex -22.227 0.498249 6.4
      vertex -20.05 0 6.4
      vertex -18.45 2.77128 6.4
    endloop
  endfacet
  facet normal 0 0 1
    outer loop
      vertex -22.227 0.498249 6.4
      vertex -20.1042 -4.30929 6.4
      vertex -19.6927 -4.59117 6.4
    endloop
  endfacet
  facet normal 0 0 1
    outer loop
      vertex -22.227 0.498249 6.4
      vertex -20.1042 4.30929 6.4
      vertex -20.488 3.99065 6.4
    endloop
  endfacet
  facet normal 0 0 1
    outer loop
      vertex -22.227 0.498249 6.4
      vertex -20.488 -3.99065 6.4
      vertex -20.1042 -4.30929 6.4
    endloop
  endfacet
  facet normal 0 0 1
    outer loop
      vertex -22.227 0.498249 6.4
      vertex -20.488 3.99065 6.4
      vertex -20.8406 3.63796 6.4
    endloop
  endfacet
  facet normal 0 0 1
    outer loop
      vertex -22.227 0.498249 6.4
      vertex -20.8406 -3.63796 6.4
      vertex -20.488 -3.99065 6.4
    endloop
  endfacet
  facet normal 0 0 1
    outer loop
      vertex -22.227 0.498249 6.4
      vertex -20.8406 3.63796 6.4
      vertex -21.1593 3.25423 6.4
    endloop
  endfacet
  facet normal 0 0 1
    outer loop
      vertex -22.227 0.498249 6.4
      vertex -21.1593 -3.25423 6.4
      vertex -20.8406 -3.63796 6.4
    endloop
  endfacet
  facet normal 0 0 1
    outer loop
      vertex -22.227 0.498249 6.4
      vertex -21.1593 3.25423 6.4
      vertex -21.4412 2.84273 6.4
    endloop
  endfacet
  facet normal 0 0 1
    outer loop
      vertex -22.227 0.498249 6.4
      vertex -21.4412 -2.84273 6.4
      vertex -21.1593 -3.25423 6.4
    endloop
  endfacet
  facet normal 0 0 1
    outer loop
      vertex -22.227 0.498249 6.4
      vertex -21.4412 2.84273 6.4
      vertex -21.6839 2.40699 6.4
    endloop
  endfacet
  facet normal 0 0 1
    outer loop
      vertex -22.227 0.498249 6.4
      vertex -21.6839 -2.40699 6.4
      vertex -21.4412 -2.84273 6.4
    endloop
  endfacet
  facet normal 0 0 1
    outer loop
      vertex -22.227 0.498249 6.4
      vertex -21.6839 2.40699 6.4
      vertex -21.8853 1.9507 6.4
    endloop
  endfacet
  facet normal 0 0 1
    outer loop
      vertex -22.227 0.498249 6.4
      vertex -21.8853 -1.9507 6.4
      vertex -21.6839 -2.40699 6.4
    endloop
  endfacet
  facet normal 0 0 1
    outer loop
      vertex -22.227 0.498249 6.4
      vertex -21.8853 1.9507 6.4
      vertex -22.0439 1.47778 6.4
    endloop
  endfacet
  facet normal 0 0 1
    outer loop
      vertex -22.227 0.498249 6.4
      vertex -22.0439 -1.47778 6.4
      vertex -21.8853 -1.9507 6.4
    endloop
  endfacet
  facet normal 0 0 1
    outer loop
      vertex -22.227 0.498249 6.4
      vertex -22.0439 1.47778 6.4
      vertex -22.1581 0.992247 6.4
    endloop
  endfacet
  facet normal 0 0 1
    outer loop
      vertex -22.227 0.498249 6.4
      vertex -22.1581 -0.992247 6.4
      vertex -22.0439 -1.47778 6.4
    endloop
  endfacet
  facet normal -0.99041 0.138157 0
    outer loop
      vertex -22.227 0.498249 6.4
      vertex -22.1581 0.992247 6.4
      vertex -22.1581 0.992247 0
    endloop
  endfacet
  facet normal -0.998933 -0.0461826 0
    outer loop
      vertex -22.25 0 0
      vertex -22.227 -0.498249 0
      vertex -22.25 0 6.4
    endloop
  endfacet
  facet normal 0 0 -1
    outer loop
      vertex -22.25 0 0
      vertex -22.227 0.498249 0
      vertex -22.227 -0.498249 0
    endloop
  endfacet
  facet normal -0.998933 0.0461826 0
    outer loop
      vertex -22.25 0 0
      vertex -22.25 0 6.4
      vertex -22.227 0.498249 0
    endloop
  endfacet
  facet normal -0.998933 -0.0461826 0
    outer loop
      vertex -22.25 0 6.4
      vertex -22.227 -0.498249 0
      vertex -22.227 -0.498249 6.4
    endloop
  endfacet
  facet normal 0 0 1
    outer loop
      vertex -22.25 0 6.4
      vertex -22.227 -0.498249 6.4
      vertex -22.227 0.498249 6.4
    endloop
  endfacet
  facet normal -0.998933 0.0461826 0
    outer loop
      vertex -22.25 0 6.4
      vertex -22.227 0.498249 6.4
      vertex -22.227 0.498249 0
    endloop
  endfacet
  facet normal 0 0 1
    outer loop
      vertex -3.09031 4.9 6.4
      vertex -0.429768 1.88294 6.4
      vertex 1.20418 1.51 6.4
    endloop
  endfacet
  facet normal 0 0 1
    outer loop
      vertex -3.09031 4.9 6.4
      vertex -1.7401 -0.837986 6.4
      vertex -1.7401 0.837986 6.4
    endloop
  endfacet
  facet normal 0 0 1
    outer loop
      vertex -3.09031 4.9 6.4
      vertex -1.7401 0.837986 6.4
      vertex -0.429768 1.88294 6.4
    endloop
  endfacet
  facet normal 0 0 1
    outer loop
      vertex -3.09031 4.9 6.4
      vertex 1.20418 1.51 6.4
      vertex 12.8903 -4.9 6.4
    endloop
  endfacet
  facet normal 0 0 1
    outer loop
      vertex -3.09031 4.9 6.4
      vertex 12.8903 -4.9 6.4
      vertex 3.09031 4.9 6.4
    endloop
  endfacet
  facet normal 0 0 1
    outer loop
      vertex -3.09031 4.9 6.4
      vertex 3.09031 4.9 6.4
      vertex 16.85 5.4 6.4
    endloop
  endfacet
  facet normal 0.831469 0.55557 0
    outer loop
      vertex -3.86031 -1.59899 0
      vertex -3.86031 -1.59899 4
      vertex -2.95455 -2.95455 0
    endloop
  endfacet
  facet normal 0.831469 0.55557 0
    outer loop
      vertex -3.86031 -1.59899 4
      vertex -2.95455 -2.95455 4
      vertex -2.95455 -2.95455 0
    endloop
  endfacet
  facet normal 0 0 -1
    outer loop
      vertex -3.86031 -1.59899 4
      vertex -3.86031 1.59899 4
      vertex -2.95455 -2.95455 4
    endloop
  endfacet
  facet normal 0.831469 -0.55557 0
    outer loop
      vertex -3.86031 1.59899 0
      vertex -2.95455 2.95455 0
      vertex -3.86031 1.59899 4
    endloop
  endfacet
  facet normal 0 0 -1
    outer loop
      vertex -3.86031 1.59899 4
      vertex -0.607785 2.66288 4
      vertex -2.46087 1.18509 4
    endloop
  endfacet
  facet normal 0 0 -1
    outer loop
      vertex -3.86031 1.59899 4
      vertex -1.59899 -3.86031 4
      vertex -2.95455 -2.95455 4
    endloop
  endfacet
  facet normal 0 0 -1
    outer loop
      vertex -3.86031 1.59899 4
      vertex -1.59899 3.86031 4
      vertex 0 4.17836 4
    endloop
  endfacet
  facet normal 0 0 -1
    outer loop
      vertex -3.86031 1.59899 4
      vertex -2.46087 -1.18509 4
      vertex -1.59899 -3.86031 4
    endloop
  endfacet
  facet normal 0 0 -1
    outer loop
      vertex -3.86031 1.59899 4
      vertex -2.46087 1.18509 4
      vertex -2.46087 -1.18509 4
    endloop
  endfacet
  facet normal 0.831469 -0.55557 0
    outer loop
      vertex -3.86031 1.59899 4
      vertex -2.95455 2.95455 0
      vertex -2.95455 2.95455 4
    endloop
  endfacet
  facet normal 0 0 -1
    outer loop
      vertex -3.86031 1.59899 4
      vertex -2.95455 2.95455 4
      vertex -1.59899 3.86031 4
    endloop
  endfacet
  facet normal 0 0 -1
    outer loop
      vertex -3.86031 1.59899 4
      vertex 0 4.17836 4
      vertex 1.59899 3.86031 4
    endloop
  endfacet
  facet normal 0 0 -1
    outer loop
      vertex -3.86031 1.59899 4
      vertex 1.59899 3.86031 4
      vertex -0.607785 2.66288 4
    endloop
  endfacet
  facet normal 0.980785 -0.19509 0
    outer loop
      vertex -4.17836 0 0
      vertex -3.86031 1.59899 0
      vertex -4.17836 0 4
    endloop
  endfacet
  facet normal 0.980785 0.19509 0
    outer loop
      vertex -4.17836 0 0
      vertex -4.17836 0 4
      vertex -3.86031 -1.59899 0
    endloop
  endfacet
  facet normal 0.980785 0.19509 0
    outer loop
      vertex -4.17836 0 4
      vertex -3.86031 -1.59899 4
      vertex -3.86031 -1.59899 0
    endloop
  endfacet
  facet normal 0.980785 -0.19509 0
    outer loop
      vertex -4.17836 0 4
      vertex -3.86031 1.59899 0
      vertex -3.86031 1.59899 4
    endloop
  endfacet
  facet normal 0 0 -1
    outer loop
      vertex -4.17836 0 4
      vertex -3.86031 1.59899 4
      vertex -3.86031 -1.59899 4
    endloop
  endfacet
  facet normal 0 1 0
    outer loop
      vertex -5.93288 4.9 10.9
      vertex -3.09031 4.9 10.9
      vertex -3.09031 4.9 6.4
    endloop
  endfacet
  facet normal 0 0 1
    outer loop
      vertex -5.93288 4.9 6.4
      vertex -3.09031 4.9 6.4
      vertex 16.85 5.4 6.4
    endloop
  endfacet
  facet normal 0 1 0
    outer loop
      vertex -5.93288 4.9 6.4
      vertex -5.93288 4.9 10.9
      vertex -3.09031 4.9 6.4
    endloop
  endfacet
  facet normal -0.19509 0.980785 0
    outer loop
      vertex 0 -4.17836 0
      vertex 0 -4.17836 4
      vertex 1.59899 -3.86031 0
    endloop
  endfacet
  facet normal 0 0 -1
    outer loop
      vertex 0 -4.17836 0
      vertex 1.59899 -3.86031 0
      vertex 16.85 -5.4 0
    endloop
  endfacet
  facet normal -0.19509 0.980785 0
    outer loop
      vertex 0 -4.17836 4
      vertex 1.59899 -3.86031 4
      vertex 1.59899 -3.86031 0
    endloop
  endfacet
  facet normal -0.19509 -0.980785 0
    outer loop
      vertex 0 4.17836 0
      vertex 1.59899 3.86031 0
      vertex 0 4.17836 4
    endloop
  endfacet
  facet normal 0 0 -1
    outer loop
      vertex 0 4.17836 0
      vertex 16.85 5.4 0
      vertex 1.59899 3.86031 0
    endloop
  endfacet
  facet normal -0.19509 -0.980785 0
    outer loop
      vertex 0 4.17836 4
      vertex 1.59899 3.86031 0
      vertex 1.59899 3.86031 4
    endloop
  endfacet
  facet normal -0.900969 0.433884 0
    outer loop
      vertex 1.20418 -1.51 0
      vertex 1.20418 -1.51 6.4
      vertex 1.93136 0 0
    endloop
  endfacet
  facet normal 0 0 -1
    outer loop
      vertex 1.20418 -1.51 0
      vertex 1.93136 0 0
      vertex 2.73136 0 0
    endloop
  endfacet
  facet normal 0 0 -1
    outer loop
      vertex 1.20418 -1.51 0
      vertex 2.73136 0 0
      vertex 1.70298 -2.13546 0
    endloop
  endfacet
  facet normal -0.900969 0.433884 0
    outer loop
      vertex 1.20418 -1.51 6.4
      vertex 1.93136 0 6.4
      vertex 1.93136 0 0
    endloop
  endfacet
  facet normal 0 0 1
    outer loop
      vertex 1.20418 -1.51 6.4
      vertex 12.8903 -4.9 6.4
      vertex 1.93136 0 6.4
    endloop
  endfacet
  facet normal 0 0 -1
    outer loop
      vertex 1.20418 1.51 0
      vertex 1.70298 2.13546 0
      vertex 1.93136 0 0
    endloop
  endfacet
  facet normal -0.900969 -0.433884 0
    outer loop
      vertex 1.20418 1.51 0
      vertex 1.93136 0 0
      vertex 1.20418 1.51 6.4
    endloop
  endfacet
  facet normal -0.900969 -0.433884 0
    outer loop
      vertex 1.20418 1.51 6.4
      vertex 1.93136 0 0
      vertex 1.93136 0 6.4
    endloop
  endfacet
  facet normal 0 0 1
    outer loop
      vertex 1.20418 1.51 6.4
      vertex 1.93136 0 6.4
      vertex 12.8903 -4.9 6.4
    endloop
  endfacet
  facet normal -0.55557 0.831469 0
    outer loop
      vertex 1.59899 -3.86031 0
      vertex 1.59899 -3.86031 4
      vertex 2.95455 -2.95455 0
    endloop
  endfacet
  facet normal 0 0 -1
    outer loop
      vertex 1.59899 -3.86031 0
      vertex 2.95455 -2.95455 0
      vertex 16.85 -5.4 0
    endloop
  endfacet
  facet normal 0 0 -1
    outer loop
      vertex 1.59899 -3.86031 4
      vertex 1.70298 -2.13546 4
      vertex 2.95455 -2.95455 4
    endloop
  endfacet
  facet normal -0.55557 0.831469 0
    outer loop
      vertex 1.59899 -3.86031 4
      vertex 2.95455 -2.95455 4
      vertex 2.95455 -2.95455 0
    endloop
  endfacet
  facet normal 0 0 -1
    outer loop
      vertex 1.59899 3.86031 0
      vertex 16.85 5.4 0
      vertex 17.3482 5.37696 0
    endloop
  endfacet
  facet normal 0 0 -1
    outer loop
      vertex 1.59899 3.86031 0
      vertex 17.3482 5.37696 0
      vertex 17.8422 5.30805 0
    endloop
  endfacet
  facet normal 0 0 -1
    outer loop
      vertex 1.59899 3.86031 0
      vertex 17.8422 5.30805 0
      vertex 18.3278 5.19386 0
    endloop
  endfacet
  facet normal 0 0 -1
    outer loop
      vertex 1.59899 3.86031 0
      vertex 18.3278 5.19386 0
      vertex 2.95455 2.95455 0
    endloop
  endfacet
  facet normal -0.55557 -0.831469 0
    outer loop
      vertex 1.59899 3.86031 0
      vertex 2.95455 2.95455 0
      vertex 1.59899 3.86031 4
    endloop
  endfacet
  facet normal -0.55557 -0.831469 0
    outer loop
      vertex 1.59899 3.86031 4
      vertex 2.95455 2.95455 0
      vertex 2.95455 2.95455 4
    endloop
  endfacet
  facet normal 0.900969 -0.433884 0
    outer loop
      vertex 1.70298 -2.13546 0
      vertex 2.73136 0 0
      vertex 1.70298 -2.13546 4
    endloop
  endfacet
  facet normal 0.900969 -0.433884 0
    outer loop
      vertex 1.70298 -2.13546 4
      vertex 2.73136 0 0
      vertex 2.73136 0 4
    endloop
  endfacet
  facet normal 0 0 -1
    outer loop
      vertex 1.70298 -2.13546 4
      vertex 2.73136 0 4
      vertex 2.95455 -2.95455 4
    endloop
  endfacet
  facet normal 0.900969 0.433884 0
    outer loop
      vertex 1.70298 2.13546 0
      vertex 1.70298 2.13546 4
      vertex 2.73136 0 0
    endloop
  endfacet
  facet normal 0 0 -1
    outer loop
      vertex 1.70298 2.13546 0
      vertex 2.73136 0 0
      vertex 1.93136 0 0
    endloop
  endfacet
  facet normal 0.900969 0.433884 0
    outer loop
      vertex 1.70298 2.13546 4
      vertex 2.73136 0 4
      vertex 2.73136 0 0
    endloop
  endfacet
  facet normal 0 0 -1
    outer loop
      vertex 1.70298 2.13546 4
      vertex 2.95455 2.95455 4
      vertex 3.86031 1.59899 4
    endloop
  endfacet
  facet normal 0 0 -1
    outer loop
      vertex 1.70298 2.13546 4
      vertex 3.86031 1.59899 4
      vertex 4.17836 0 4
    endloop
  endfacet
  facet normal 0 0 -1
    outer loop
      vertex 1.70298 2.13546 4
      vertex 4.17836 0 4
      vertex 2.73136 0 4
    endloop
  endfacet
  facet normal 0 -1 0
    outer loop
      vertex 12.8903 -4.9 10.9
      vertex 15.7329 -4.9 6.4
      vertex 15.7329 -4.9 10.9
    endloop
  endfacet
  facet normal 0 -1 0
    outer loop
      vertex 12.8903 -4.9 6.4
      vertex 15.7329 -4.9 6.4
      vertex 12.8903 -4.9 10.9
    endloop
  endfacet
  facet normal 0 0 1
    outer loop
      vertex 12.8903 -4.9 6.4
      vertex 16.85 -5.4 6.4
      vertex 15.7329 -4.9 6.4
    endloop
  endfacet
  facet normal 0.866025 0.5 0
    outer loop
      vertex 13.65 0 3.4
      vertex 13.65 0 6.4
      vertex 15.25 -2.77128 3.4
    endloop
  endfacet
  facet normal 0 0 1
    outer loop
      vertex 13.65 0 3.4
      vertex 15.1099 -0.837986 3.4
      vertex 15.1099 0.837986 3.4
    endloop
  endfacet
  facet normal 0 0 1
    outer loop
      vertex 13.65 0 3.4
      vertex 15.1099 0.837986 3.4
      vertex 15.25 2.77128 3.4
    endloop
  endfacet
  facet normal 0 0 1
    outer loop
      vertex 13.65 0 3.4
      vertex 15.25 -2.77128 3.4
      vertex 15.1099 -0.837986 3.4
    endloop
  endfacet
  facet normal 0.866025 -0.5 0
    outer loop
      vertex 13.65 0 3.4
      vertex 15.25 2.77128 3.4
      vertex 13.65 0 6.4
    endloop
  endfacet
  facet normal 0.866025 0.5 0
    outer loop
      vertex 13.65 0 6.4
      vertex 15.25 -2.77128 6.4
      vertex 15.25 -2.77128 3.4
    endloop
  endfacet
  facet normal 0.866025 -0.5 0
    outer loop
      vertex 13.65 0 6.4
      vertex 15.25 2.77128 3.4
      vertex 15.25 2.77128 6.4
    endloop
  endfacet
  facet normal 0.62349 0.781831 0
    outer loop
      vertex 15.1099 -0.837986 0
      vertex 15.1099 -0.837986 3.4
      vertex 16.4202 -1.88294 0
    endloop
  endfacet
  facet normal 1 0 0
    outer loop
      vertex 15.1099 -0.837986 0
      vertex 15.1099 0.837986 0
      vertex 15.1099 -0.837986 3.4
    endloop
  endfacet
  facet normal 1 0 0
    outer loop
      vertex 15.1099 -0.837986 3.4
      vertex 15.1099 0.837986 0
      vertex 15.1099 0.837986 3.4
    endloop
  endfacet
  facet normal 0 0 1
    outer loop
      vertex 15.1099 -0.837986 3.4
      vertex 15.25 -2.77128 3.4
      vertex 16.4202 -1.88294 3.4
    endloop
  endfacet
  facet normal 0.62349 0.781831 0
    outer loop
      vertex 15.1099 -0.837986 3.4
      vertex 16.4202 -1.88294 3.4
      vertex 16.4202 -1.88294 0
    endloop
  endfacet
  facet normal 0.62349 -0.781831 0
    outer loop
      vertex 15.1099 0.837986 0
      vertex 16.4202 1.88294 0
      vertex 15.1099 0.837986 3.4
    endloop
  endfacet
  facet normal 0.62349 -0.781831 0
    outer loop
      vertex 15.1099 0.837986 3.4
      vertex 16.4202 1.88294 0
      vertex 16.4202 1.88294 3.4
    endloop
  endfacet
  facet normal 0 0 1
    outer loop
      vertex 15.1099 0.837986 3.4
      vertex 16.4202 1.88294 3.4
      vertex 15.25 2.77128 3.4
    endloop
  endfacet
  facet normal 0 1 0
    outer loop
      vertex 15.25 -2.77128 3.4
      vertex 15.25 -2.77128 6.4
      vertex 18.45 -2.77128 3.4
    endloop
  endfacet
  facet normal 0 0 1
    outer loop
      vertex 15.25 -2.77128 3.4
      vertex 18.0542 -1.51 3.4
      vertex 16.4202 -1.88294 3.4
    endloop
  endfacet
  facet normal 0 0 1
    outer loop
      vertex 15.25 -2.77128 3.4
      vertex 18.45 -2.77128 3.4
      vertex 18.0542 -1.51 3.4
    endloop
  endfacet
  facet normal 0 0 1
    outer loop
      vertex 15.25 -2.77128 6.4
      vertex 15.7329 -4.9 6.4
      vertex 18.3278 -5.19386 6.4
    endloop
  endfacet
  facet normal 0 0 1
    outer loop
      vertex 15.25 -2.77128 6.4
      vertex 18.3278 -5.19386 6.4
      vertex 18.8007 -5.03535 6.4
    endloop
  endfacet
  facet normal 0 1 0
    outer loop
      vertex 15.25 -2.77128 6.4
      vertex 18.45 -2.77128 6.4
      vertex 18.45 -2.77128 3.4
    endloop
  endfacet
  facet normal 0 0 1
    outer loop
      vertex 15.25 -2.77128 6.4
      vertex 18.8007 -5.03535 6.4
      vertex 19.257 -4.83388 6.4
    endloop
  endfacet
  facet normal 0 0 1
    outer loop
      vertex 15.25 -2.77128 6.4
      vertex 19.257 -4.83388 6.4
      vertex 19.6927 -4.59117 6.4
    endloop
  endfacet
  facet normal 0 0 1
    outer loop
      vertex 15.25 -2.77128 6.4
      vertex 19.6927 -4.59117 6.4
      vertex 20.1042 -4.30929 6.4
    endloop
  endfacet
  facet normal 0 0 1
    outer loop
      vertex 15.25 -2.77128 6.4
      vertex 20.1042 -4.30929 6.4
      vertex 20.488 -3.99065 6.4
    endloop
  endfacet
  facet normal 0 0 1
    outer loop
      vertex 15.25 -2.77128 6.4
      vertex 20.488 -3.99065 6.4
      vertex 20.8406 -3.63796 6.4
    endloop
  endfacet
  facet normal 0 0 1
    outer loop
      vertex 15.25 -2.77128 6.4
      vertex 20.8406 -3.63796 6.4
      vertex 21.1593 -3.25423 6.4
    endloop
  endfacet
  facet normal 0 0 1
    outer loop
      vertex 15.25 -2.77128 6.4
      vertex 21.1593 -3.25423 6.4
      vertex 18.45 -2.77128 6.4
    endloop
  endfacet
  facet normal 0 0 1
    outer loop
      vertex 15.25 2.77128 3.4
      vertex 16.4202 1.88294 3.4
      vertex 18.45 2.77128 3.4
    endloop
  endfacet
  facet normal 0 -1 0
    outer loop
      vertex 15.25 2.77128 3.4
      vertex 18.45 2.77128 3.4
      vertex 15.25 2.77128 6.4
    endloop
  endfacet
  facet normal 0 -1 0
    outer loop
      vertex 15.25 2.77128 6.4
      vertex 18.45 2.77128 3.4
      vertex 18.45 2.77128 6.4
    endloop
  endfacet
  facet normal 0 0 1
    outer loop
      vertex 15.25 2.77128 6.4
      vertex 18.45 2.77128 6.4
      vertex 21.4412 2.84273 6.4
    endloop
  endfacet
  facet normal 0 0 1
    outer loop
      vertex 15.25 2.77128 6.4
      vertex 21.4412 2.84273 6.4
      vertex 21.1593 3.25423 6.4
    endloop
  endfacet
  facet normal 0 0 1
    outer loop
      vertex 15.7329 -4.9 6.4
      vertex 16.85 -5.4 6.4
      vertex 17.3482 -5.37696 6.4
    endloop
  endfacet
  facet normal 0 0 1
    outer loop
      vertex 15.7329 -4.9 6.4
      vertex 17.3482 -5.37696 6.4
      vertex 17.8422 -5.30805 6.4
    endloop
  endfacet
  facet normal 0 0 1
    outer loop
      vertex 15.7329 -4.9 6.4
      vertex 17.8422 -5.30805 6.4
      vertex 18.3278 -5.19386 6.4
    endloop
  endfacet
  facet normal -0.222522 0.974928 0
    outer loop
      vertex 16.4202 -1.88294 0
      vertex 16.4202 -1.88294 3.4
      vertex 18.0542 -1.51 0
    endloop
  endfacet
  facet normal 0 0 -1
    outer loop
      vertex 16.4202 -1.88294 0
      vertex 18.0542 -1.51 0
      vertex 21.8853 -1.9507 0
    endloop
  endfacet
  facet normal 0 0 -1
    outer loop
      vertex 16.4202 -1.88294 0
      vertex 21.8853 -1.9507 0
      vertex 21.6839 -2.40699 0
    endloop
  endfacet
  facet normal -0.222522 0.974928 0
    outer loop
      vertex 16.4202 -1.88294 3.4
      vertex 18.0542 -1.51 3.4
      vertex 18.0542 -1.51 0
    endloop
  endfacet
  facet normal -0.222522 -0.974928 0
    outer loop
      vertex 16.4202 1.88294 0
      vertex 18.0542 1.51 0
      vertex 16.4202 1.88294 3.4
    endloop
  endfacet
  facet normal 0 0 -1
    outer loop
      vertex 16.4202 1.88294 0
      vertex 21.6839 2.40699 0
      vertex 21.8853 1.9507 0
    endloop
  endfacet
  facet normal 0 0 -1
    outer loop
      vertex 16.4202 1.88294 0
      vertex 21.8853 1.9507 0
      vertex 18.0542 1.51 0
    endloop
  endfacet
  facet normal -0.222522 -0.974928 0
    outer loop
      vertex 16.4202 1.88294 3.4
      vertex 18.0542 1.51 0
      vertex 18.0542 1.51 3.4
    endloop
  endfacet
  facet normal 0 0 1
    outer loop
      vertex 16.4202 1.88294 3.4
      vertex 18.0542 1.51 3.4
      vertex 18.45 2.77128 3.4
    endloop
  endfacet
  facet normal 0.0461826 -0.998933 0
    outer loop
      vertex 16.85 -5.4 0
      vertex 17.3482 -5.37696 0
      vertex 16.85 -5.4 6.4
    endloop
  endfacet
  facet normal 0.0461826 -0.998933 0
    outer loop
      vertex 16.85 -5.4 6.4
      vertex 17.3482 -5.37696 0
      vertex 17.3482 -5.37696 6.4
    endloop
  endfacet
  facet normal 0.0461826 0.998933 0
    outer loop
      vertex 16.85 5.4 0
      vertex 16.85 5.4 6.4
      vertex 17.3482 5.37696 0
    endloop
  endfacet
  facet normal 0.0461826 0.998933 0
    outer loop
      vertex 16.85 5.4 6.4
      vertex 17.3482 5.37696 6.4
      vertex 17.3482 5.37696 0
    endloop
  endfacet
  facet normal 0.138157 -0.99041 0
    outer loop
      vertex 17.3482 -5.37696 0
      vertex 17.8422 -5.30805 0
      vertex 17.3482 -5.37696 6.4
    endloop
  endfacet
  facet normal 0.138157 -0.99041 0
    outer loop
      vertex 17.3482 -5.37696 6.4
      vertex 17.8422 -5.30805 0
      vertex 17.8422 -5.30805 6.4
    endloop
  endfacet
  facet normal 0.138157 0.99041 0
    outer loop
      vertex 17.3482 5.37696 0
      vertex 17.3482 5.37696 6.4
      vertex 17.8422 5.30805 0
    endloop
  endfacet
  facet normal 0.138157 0.99041 0
    outer loop
      vertex 17.3482 5.37696 6.4
      vertex 17.8422 5.30805 6.4
      vertex 17.8422 5.30805 0
    endloop
  endfacet
  facet normal 0.228952 -0.973438 0
    outer loop
      vertex 17.8422 -5.30805 0
      vertex 18.3278 -5.19386 0
      vertex 17.8422 -5.30805 6.4
    endloop
  endfacet
  facet normal 0.228952 -0.973438 0
    outer loop
      vertex 17.8422 -5.30805 6.4
      vertex 18.3278 -5.19386 0
      vertex 18.3278 -5.19386 6.4
    endloop
  endfacet
  facet normal 0.228952 0.973438 0
    outer loop
      vertex 17.8422 5.30805 0
      vertex 17.8422 5.30805 6.4
      vertex 18.3278 5.19386 0
    endloop
  endfacet
  facet normal 0.228952 0.973438 0
    outer loop
      vertex 17.8422 5.30805 6.4
      vertex 18.3278 5.19386 6.4
      vertex 18.3278 5.19386 0
    endloop
  endfacet
  facet normal -0.900969 0.433884 0
    outer loop
      vertex 18.0542 -1.51 0
      vertex 18.0542 -1.51 3.4
      vertex 18.7814 0 0
    endloop
  endfacet
  facet normal 0 0 -1
    outer loop
      vertex 18.0542 -1.51 0
      vertex 18.7814 0 0
      vertex 22.0439 -1.47778 0
    endloop
  endfacet
  facet normal 0 0 -1
    outer loop
      vertex 18.0542 -1.51 0
      vertex 22.0439 -1.47778 0
      vertex 21.8853 -1.9507 0
    endloop
  endfacet
  facet normal 0 0 1
    outer loop
      vertex 18.0542 -1.51 3.4
      vertex 18.45 -2.77128 3.4
      vertex 20.05 0 3.4
    endloop
  endfacet
  facet normal -0.900969 0.433884 0
    outer loop
      vertex 18.0542 -1.51 3.4
      vertex 18.7814 0 3.4
      vertex 18.7814 0 0
    endloop
  endfacet
  facet normal 0 0 1
    outer loop
      vertex 18.0542 -1.51 3.4
      vertex 20.05 0 3.4
      vertex 18.7814 0 3.4
    endloop
  endfacet
  facet normal -0.900969 -0.433884 0
    outer loop
      vertex 18.0542 1.51 0
      vertex 18.7814 0 0
      vertex 18.0542 1.51 3.4
    endloop
  endfacet
  facet normal 0 0 -1
    outer loop
      vertex 18.0542 1.51 0
      vertex 21.8853 1.9507 0
      vertex 22.0439 1.47778 0
    endloop
  endfacet
  facet normal 0 0 -1
    outer loop
      vertex 18.0542 1.51 0
      vertex 22.0439 1.47778 0
      vertex 22.1581 0.992247 0
    endloop
  endfacet
  facet normal 0 0 -1
    outer loop
      vertex 18.0542 1.51 0
      vertex 22.1581 0.992247 0
      vertex 22.227 0.498249 0
    endloop
  endfacet
  facet normal 0 0 -1
    outer loop
      vertex 18.0542 1.51 0
      vertex 22.227 0.498249 0
      vertex 18.7814 0 0
    endloop
  endfacet
  facet normal -0.900969 -0.433884 0
    outer loop
      vertex 18.0542 1.51 3.4
      vertex 18.7814 0 0
      vertex 18.7814 0 3.4
    endloop
  endfacet
  facet normal 0 0 1
    outer loop
      vertex 18.0542 1.51 3.4
      vertex 18.7814 0 3.4
      vertex 20.05 0 3.4
    endloop
  endfacet
  facet normal 0 0 1
    outer loop
      vertex 18.0542 1.51 3.4
      vertex 20.05 0 3.4
      vertex 18.45 2.77128 3.4
    endloop
  endfacet
  facet normal 0.317791 -0.948161 0
    outer loop
      vertex 18.3278 -5.19386 0
      vertex 18.8007 -5.03535 0
      vertex 18.3278 -5.19386 6.4
    endloop
  endfacet
  facet normal 0.317791 -0.948161 0
    outer loop
      vertex 18.3278 -5.19386 6.4
      vertex 18.8007 -5.03535 0
      vertex 18.8007 -5.03535 6.4
    endloop
  endfacet
  facet normal 0.317791 0.948161 0
    outer loop
      vertex 18.3278 5.19386 0
      vertex 18.3278 5.19386 6.4
      vertex 18.8007 5.03535 0
    endloop
  endfacet
  facet normal 0.317791 0.948161 0
    outer loop
      vertex 18.3278 5.19386 6.4
      vertex 18.8007 5.03535 6.4
      vertex 18.8007 5.03535 0
    endloop
  endfacet
  facet normal -0.866025 0.5 0
    outer loop
      vertex 18.45 -2.77128 3.4
      vertex 18.45 -2.77128 6.4
      vertex 20.05 0 3.4
    endloop
  endfacet
  facet normal -0.866025 0.5 0
    outer loop
      vertex 18.45 -2.77128 6.4
      vertex 20.05 0 6.4
      vertex 20.05 0 3.4
    endloop
  endfacet
  facet normal 0 0 1
    outer loop
      vertex 18.45 -2.77128 6.4
      vertex 21.1593 -3.25423 6.4
      vertex 21.4412 -2.84273 6.4
    endloop
  endfacet
  facet normal 0 0 1
    outer loop
      vertex 18.45 -2.77128 6.4
      vertex 21.4412 -2.84273 6.4
      vertex 20.05 0 6.4
    endloop
  endfacet
  facet normal -0.866025 -0.5 0
    outer loop
      vertex 18.45 2.77128 3.4
      vertex 20.05 0 3.4
      vertex 18.45 2.77128 6.4
    endloop
  endfacet
  facet normal -0.866025 -0.5 0
    outer loop
      vertex 18.45 2.77128 6.4
      vertex 20.05 0 3.4
      vertex 20.05 0 6.4
    endloop
  endfacet
  facet normal 0 0 1
    outer loop
      vertex 18.45 2.77128 6.4
      vertex 20.05 0 6.4
      vertex 22.25 0 6.4
    endloop
  endfacet
  facet normal 0 0 1
    outer loop
      vertex 18.45 2.77128 6.4
      vertex 21.6839 2.40699 6.4
      vertex 21.4412 2.84273 6.4
    endloop
  endfacet
  facet normal 0 0 1
    outer loop
      vertex 18.45 2.77128 6.4
      vertex 21.8853 1.9507 6.4
      vertex 21.6839 2.40699 6.4
    endloop
  endfacet
  facet normal 0 0 1
    outer loop
      vertex 18.45 2.77128 6.4
      vertex 22.0439 1.47778 6.4
      vertex 21.8853 1.9507 6.4
    endloop
  endfacet
  facet normal 0 0 1
    outer loop
      vertex 18.45 2.77128 6.4
      vertex 22.1581 0.992247 6.4
      vertex 22.0439 1.47778 6.4
    endloop
  endfacet
  facet normal 0 0 1
    outer loop
      vertex 18.45 2.77128 6.4
      vertex 22.227 0.498249 6.4
      vertex 22.1581 0.992247 6.4
    endloop
  endfacet
  facet normal 0 0 1
    outer loop
      vertex 18.45 2.77128 6.4
      vertex 22.25 0 6.4
      vertex 22.227 0.498249 6.4
    endloop
  endfacet
  facet normal 0 0 -1
    outer loop
      vertex 18.7814 0 0
      vertex 22.1581 -0.992247 0
      vertex 22.0439 -1.47778 0
    endloop
  endfacet
  facet normal 0 0 -1
    outer loop
      vertex 18.7814 0 0
      vertex 22.227 -0.498249 0
      vertex 22.1581 -0.992247 0
    endloop
  endfacet
  facet normal 0 0 -1
    outer loop
      vertex 18.7814 0 0
      vertex 22.227 0.498249 0
      vertex 22.25 0 0
    endloop
  endfacet
  facet normal 0 0 -1
    outer loop
      vertex 18.7814 0 0
      vertex 22.25 0 0
      vertex 22.227 -0.498249 0
    endloop
  endfacet
  facet normal 0.403921 -0.914794 0
    outer loop
      vertex 18.8007 -5.03535 0
      vertex 19.257 -4.83388 0
      vertex 18.8007 -5.03535 6.4
    endloop
  endfacet
  facet normal 0.403921 -0.914794 0
    outer loop
      vertex 18.8007 -5.03535 6.4
      vertex 19.257 -4.83388 0
      vertex 19.257 -4.83388 6.4
    endloop
  endfacet
  facet normal 0.403921 0.914794 0
    outer loop
      vertex 18.8007 5.03535 0
      vertex 18.8007 5.03535 6.4
      vertex 19.257 4.83388 0
    endloop
  endfacet
  facet normal 0.403921 0.914794 0
    outer loop
      vertex 18.8007 5.03535 6.4
      vertex 19.257 4.83388 6.4
      vertex 19.257 4.83388 0
    endloop
  endfacet
  facet normal 0.486604 -0.873623 0
    outer loop
      vertex 19.257 -4.83388 0
      vertex 19.6927 -4.59117 0
      vertex 19.257 -4.83388 6.4
    endloop
  endfacet
  facet normal 0.486604 -0.873623 0
    outer loop
      vertex 19.257 -4.83388 6.4
      vertex 19.6927 -4.59117 0
      vertex 19.6927 -4.59117 6.4
    endloop
  endfacet
  facet normal 0.486604 0.873623 0
    outer loop
      vertex 19.257 4.83388 0
      vertex 19.257 4.83388 6.4
      vertex 19.6927 4.59117 0
    endloop
  endfacet
  facet normal 0.486604 0.873623 0
    outer loop
      vertex 19.257 4.83388 6.4
      vertex 19.6927 4.59117 6.4
      vertex 19.6927 4.59117 0
    endloop
  endfacet
  facet normal 0.565137 -0.824997 0
    outer loop
      vertex 19.6927 -4.59117 0
      vertex 20.1042 -4.30929 0
      vertex 19.6927 -4.59117 6.4
    endloop
  endfacet
  facet normal 0.565137 -0.824997 0
    outer loop
      vertex 19.6927 -4.59117 6.4
      vertex 20.1042 -4.30929 0
      vertex 20.1042 -4.30929 6.4
    endloop
  endfacet
  facet normal 0.565137 0.824997 0
    outer loop
      vertex 19.6927 4.59117 0
      vertex 19.6927 4.59117 6.4
      vertex 20.1042 4.30929 0
    endloop
  endfacet
  facet normal 0.565137 0.824997 0
    outer loop
      vertex 19.6927 4.59117 6.4
      vertex 20.1042 4.30929 6.4
      vertex 20.1042 4.30929 0
    endloop
  endfacet
  facet normal 0 0 -1
    outer loop
      vertex 2.73136 0 4
      vertex 3.86031 -1.59899 4
      vertex 2.95455 -2.95455 4
    endloop
  endfacet
  facet normal 0 0 -1
    outer loop
      vertex 2.73136 0 4
      vertex 4.17836 0 4
      vertex 3.86031 -1.59899 4
    endloop
  endfacet
  facet normal 0 0 -1
    outer loop
      vertex 2.95455 -2.95455 0
      vertex 17.3482 -5.37696 0
      vertex 16.85 -5.4 0
    endloop
  endfacet
  facet normal 0 0 -1
    outer loop
      vertex 2.95455 -2.95455 0
      vertex 17.8422 -5.30805 0
      vertex 17.3482 -5.37696 0
    endloop
  endfacet
  facet normal 0 0 -1
    outer loop
      vertex 2.95455 -2.95455 0
      vertex 18.3278 -5.19386 0
      vertex 17.8422 -5.30805 0
    endloop
  endfacet
  facet normal 0 0 -1
    outer loop
      vertex 2.95455 -2.95455 0
      vertex 18.8007 -5.03535 0
      vertex 18.3278 -5.19386 0
    endloop
  endfacet
  facet normal 0 0 -1
    outer loop
      vertex 2.95455 -2.95455 0
      vertex 19.257 -4.83388 0
      vertex 18.8007 -5.03535 0
    endloop
  endfacet
  facet normal 0 0 -1
    outer loop
      vertex 2.95455 -2.95455 0
      vertex 19.6927 -4.59117 0
      vertex 19.257 -4.83388 0
    endloop
  endfacet
  facet normal -0.831469 0.55557 0
    outer loop
      vertex 2.95455 -2.95455 0
      vertex 2.95455 -2.95455 4
      vertex 3.86031 -1.59899 0
    endloop
  endfacet
  facet normal 0 0 -1
    outer loop
      vertex 2.95455 -2.95455 0
      vertex 3.86031 -1.59899 0
      vertex 19.6927 -4.59117 0
    endloop
  endfacet
  facet normal -0.831469 0.55557 0
    outer loop
      vertex 2.95455 -2.95455 4
      vertex 3.86031 -1.59899 4
      vertex 3.86031 -1.59899 0
    endloop
  endfacet
  facet normal 0 0 -1
    outer loop
      vertex 2.95455 2.95455 0
      vertex 18.3278 5.19386 0
      vertex 18.8007 5.03535 0
    endloop
  endfacet
  facet normal 0 0 -1
    outer loop
      vertex 2.95455 2.95455 0
      vertex 18.8007 5.03535 0
      vertex 19.257 4.83388 0
    endloop
  endfacet
  facet normal 0 0 -1
    outer loop
      vertex 2.95455 2.95455 0
      vertex 19.257 4.83388 0
      vertex 19.6927 4.59117 0
    endloop
  endfacet
  facet normal 0 0 -1
    outer loop
      vertex 2.95455 2.95455 0
      vertex 19.6927 4.59117 0
      vertex 20.1042 4.30929 0
    endloop
  endfacet
  facet normal 0 0 -1
    outer loop
      vertex 2.95455 2.95455 0
      vertex 20.1042 4.30929 0
      vertex 20.488 3.99065 0
    endloop
  endfacet
  facet normal 0 0 -1
    outer loop
      vertex 2.95455 2.95455 0
      vertex 20.488 3.99065 0
      vertex 20.8406 3.63796 0
    endloop
  endfacet
  facet normal 0 0 -1
    outer loop
      vertex 2.95455 2.95455 0
      vertex 20.8406 3.63796 0
      vertex 21.1593 3.25423 0
    endloop
  endfacet
  facet normal 0 0 -1
    outer loop
      vertex 2.95455 2.95455 0
      vertex 21.1593 3.25423 0
      vertex 3.86031 1.59899 0
    endloop
  endfacet
  facet normal -0.831469 -0.55557 0
    outer loop
      vertex 2.95455 2.95455 0
      vertex 3.86031 1.59899 0
      vertex 2.95455 2.95455 4
    endloop
  endfacet
  facet normal -0.831469 -0.55557 0
    outer loop
      vertex 2.95455 2.95455 4
      vertex 3.86031 1.59899 0
      vertex 3.86031 1.59899 4
    endloop
  endfacet
  facet normal 0 0 1
    outer loop
      vertex 20.05 0 6.4
      vertex 21.4412 -2.84273 6.4
      vertex 21.6839 -2.40699 6.4
    endloop
  endfacet
  facet normal 0 0 1
    outer loop
      vertex 20.05 0 6.4
      vertex 21.6839 -2.40699 6.4
      vertex 21.8853 -1.9507 6.4
    endloop
  endfacet
  facet normal 0 0 1
    outer loop
      vertex 20.05 0 6.4
      vertex 21.8853 -1.9507 6.4
      vertex 22.0439 -1.47778 6.4
    endloop
  endfacet
  facet normal 0 0 1
    outer loop
      vertex 20.05 0 6.4
      vertex 22.0439 -1.47778 6.4
      vertex 22.1581 -0.992247 6.4
    endloop
  endfacet
  facet normal 0 0 1
    outer loop
      vertex 20.05 0 6.4
      vertex 22.1581 -0.992247 6.4
      vertex 22.227 -0.498249 6.4
    endloop
  endfacet
  facet normal 0 0 1
    outer loop
      vertex 20.05 0 6.4
      vertex 22.227 -0.498249 6.4
      vertex 22.25 0 6.4
    endloop
  endfacet
  facet normal 0.638847 -0.769333 0
    outer loop
      vertex 20.1042 -4.30929 0
      vertex 20.488 -3.99065 0
      vertex 20.1042 -4.30929 6.4
    endloop
  endfacet
  facet normal 0.638847 -0.769333 0
    outer loop
      vertex 20.1042 -4.30929 6.4
      vertex 20.488 -3.99065 0
      vertex 20.488 -3.99065 6.4
    endloop
  endfacet
  facet normal 0.638847 0.769333 0
    outer loop
      vertex 20.1042 4.30929 0
      vertex 20.1042 4.30929 6.4
      vertex 20.488 3.99065 0
    endloop
  endfacet
  facet normal 0.638847 0.769333 0
    outer loop
      vertex 20.1042 4.30929 6.4
      vertex 20.488 3.99065 6.4
      vertex 20.488 3.99065 0
    endloop
  endfacet
  facet normal 0.707107 -0.707107 0
    outer loop
      vertex 20.488 -3.99065 0
      vertex 20.8406 -3.63796 0
      vertex 20.488 -3.99065 6.4
    endloop
  endfacet
  facet normal 0.707107 -0.707107 0
    outer loop
      vertex 20.488 -3.99065 6.4
      vertex 20.8406 -3.63796 0
      vertex 20.8406 -3.63796 6.4
    endloop
  endfacet
  facet normal 0.707107 0.707107 0
    outer loop
      vertex 20.488 3.99065 0
      vertex 20.488 3.99065 6.4
      vertex 20.8406 3.63796 0
    endloop
  endfacet
  facet normal 0.707107 0.707107 0
    outer loop
      vertex 20.488 3.99065 6.4
      vertex 20.8406 3.63796 6.4
      vertex 20.8406 3.63796 0
    endloop
  endfacet
  facet normal 0.769333 -0.638847 0
    outer loop
      vertex 20.8406 -3.63796 0
      vertex 21.1593 -3.25423 0
      vertex 20.8406 -3.63796 6.4
    endloop
  endfacet
  facet normal 0.769333 -0.638847 0
    outer loop
      vertex 20.8406 -3.63796 6.4
      vertex 21.1593 -3.25423 0
      vertex 21.1593 -3.25423 6.4
    endloop
  endfacet
  facet normal 0.769333 0.638847 0
    outer loop
      vertex 20.8406 3.63796 0
      vertex 20.8406 3.63796 6.4
      vertex 21.1593 3.25423 0
    endloop
  endfacet
  facet normal 0.769333 0.638847 0
    outer loop
      vertex 20.8406 3.63796 6.4
      vertex 21.1593 3.25423 6.4
      vertex 21.1593 3.25423 0
    endloop
  endfacet
  facet normal 0.824997 -0.565137 0
    outer loop
      vertex 21.1593 -3.25423 0
      vertex 21.4412 -2.84273 0
      vertex 21.1593 -3.25423 6.4
    endloop
  endfacet
  facet normal 0.824997 -0.565137 0
    outer loop
      vertex 21.1593 -3.25423 6.4
      vertex 21.4412 -2.84273 0
      vertex 21.4412 -2.84273 6.4
    endloop
  endfacet
  facet normal 0.824997 0.565137 0
    outer loop
      vertex 21.1593 3.25423 0
      vertex 21.1593 3.25423 6.4
      vertex 21.4412 2.84273 0
    endloop
  endfacet
  facet normal 0.824997 0.565137 0
    outer loop
      vertex 21.1593 3.25423 6.4
      vertex 21.4412 2.84273 6.4
      vertex 21.4412 2.84273 0
    endloop
  endfacet
  facet normal 0.873623 -0.486604 0
    outer loop
      vertex 21.4412 -2.84273 0
      vertex 21.6839 -2.40699 0
      vertex 21.4412 -2.84273 6.4
    endloop
  endfacet
  facet normal 0.873623 -0.486604 0
    outer loop
      vertex 21.4412 -2.84273 6.4
      vertex 21.6839 -2.40699 0
      vertex 21.6839 -2.40699 6.4
    endloop
  endfacet
  facet normal 0.873623 0.486604 0
    outer loop
      vertex 21.4412 2.84273 0
      vertex 21.4412 2.84273 6.4
      vertex 21.6839 2.40699 0
    endloop
  endfacet
  facet normal 0.873623 0.486604 0
    outer loop
      vertex 21.4412 2.84273 6.4
      vertex 21.6839 2.40699 6.4
      vertex 21.6839 2.40699 0
    endloop
  endfacet
  facet normal 0.914794 -0.403921 0
    outer loop
      vertex 21.6839 -2.40699 0
      vertex 21.8853 -1.9507 0
      vertex 21.6839 -2.40699 6.4
    endloop
  endfacet
  facet normal 0.914794 -0.403921 0
    outer loop
      vertex 21.6839 -2.40699 6.4
      vertex 21.8853 -1.9507 0
      vertex 21.8853 -1.9507 6.4
    endloop
  endfacet
  facet normal 0.914794 0.403921 0
    outer loop
      vertex 21.6839 2.40699 0
      vertex 21.6839 2.40699 6.4
      vertex 21.8853 1.9507 0
    endloop
  endfacet
  facet normal 0.914794 0.403921 0
    outer loop
      vertex 21.6839 2.40699 6.4
      vertex 21.8853 1.9507 6.4
      vertex 21.8853 1.9507 0
    endloop
  endfacet
  facet normal 0.948161 -0.317791 0
    outer loop
      vertex 21.8853 -1.9507 0
      vertex 22.0439 -1.47778 0
      vertex 21.8853 -1.9507 6.4
    endloop
  endfacet
  facet normal 0.948161 -0.317791 0
    outer loop
      vertex 21.8853 -1.9507 6.4
      vertex 22.0439 -1.47778 0
      vertex 22.0439 -1.47778 6.4
    endloop
  endfacet
  facet normal 0.948161 0.317791 0
    outer loop
      vertex 21.8853 1.9507 0
      vertex 21.8853 1.9507 6.4
      vertex 22.0439 1.47778 0
    endloop
  endfacet
  facet normal 0.948161 0.317791 0
    outer loop
      vertex 21.8853 1.9507 6.4
      vertex 22.0439 1.47778 6.4
      vertex 22.0439 1.47778 0
    endloop
  endfacet
  facet normal 0.973438 -0.228952 0
    outer loop
      vertex 22.0439 -1.47778 0
      vertex 22.1581 -0.992247 0
      vertex 22.0439 -1.47778 6.4
    endloop
  endfacet
  facet normal 0.973438 -0.228952 0
    outer loop
      vertex 22.0439 -1.47778 6.4
      vertex 22.1581 -0.992247 0
      vertex 22.1581 -0.992247 6.4
    endloop
  endfacet
  facet normal 0.973438 0.228952 0
    outer loop
      vertex 22.0439 1.47778 0
      vertex 22.0439 1.47778 6.4
      vertex 22.1581 0.992247 0
    endloop
  endfacet
  facet normal 0.973438 0.228952 0
    outer loop
      vertex 22.0439 1.47778 6.4
      vertex 22.1581 0.992247 6.4
      vertex 22.1581 0.992247 0
    endloop
  endfacet
  facet normal 0.99041 -0.138157 0
    outer loop
      vertex 22.1581 -0.992247 0
      vertex 22.227 -0.498249 0
      vertex 22.1581 -0.992247 6.4
    endloop
  endfacet
  facet normal 0.99041 -0.138157 0
    outer loop
      vertex 22.1581 -0.992247 6.4
      vertex 22.227 -0.498249 0
      vertex 22.227 -0.498249 6.4
    endloop
  endfacet
  facet normal 0.99041 0.138157 0
    outer loop
      vertex 22.1581 0.992247 0
      vertex 22.1581 0.992247 6.4
      vertex 22.227 0.498249 0
    endloop
  endfacet
  facet normal 0.99041 0.138157 0
    outer loop
      vertex 22.1581 0.992247 6.4
      vertex 22.227 0.498249 6.4
      vertex 22.227 0.498249 0
    endloop
  endfacet
  facet normal 0.998933 -0.0461826 0
    outer loop
      vertex 22.227 -0.498249 0
      vertex 22.25 0 0
      vertex 22.227 -0.498249 6.4
    endloop
  endfacet
  facet normal 0.998933 -0.0461826 0
    outer loop
      vertex 22.227 -0.498249 6.4
      vertex 22.25 0 0
      vertex 22.25 0 6.4
    endloop
  endfacet
  facet normal 0.998933 0.0461826 0
    outer loop
      vertex 22.227 0.498249 0
      vertex 22.227 0.498249 6.4
      vertex 22.25 0 0
    endloop
  endfacet
  facet normal 0.998933 0.0461826 0
    outer loop
      vertex 22.227 0.498249 6.4
      vertex 22.25 0 6.4
      vertex 22.25 0 0
    endloop
  endfacet
  facet normal 0 0 1
    outer loop
      vertex 3.09031 4.9 10.9
      vertex 12.8903 -4.9 10.9
      vertex 5.93288 4.9 10.9
    endloop
  endfacet
  facet normal -0.707107 -0.707107 0
    outer loop
      vertex 3.09031 4.9 10.9
      vertex 12.8903 -4.9 6.4
      vertex 12.8903 -4.9 10.9
    endloop
  endfacet
  facet normal 0 1 0
    outer loop
      vertex 3.09031 4.9 10.9
      vertex 5.93288 4.9 10.9
      vertex 5.93288 4.9 6.4
    endloop
  endfacet
  facet normal -0.707107 -0.707107 0
    outer loop
      vertex 3.09031 4.9 6.4
      vertex 12.8903 -4.9 6.4
      vertex 3.09031 4.9 10.9
    endloop
  endfacet
  facet normal 0 1 0
    outer loop
      vertex 3.09031 4.9 6.4
      vertex 3.09031 4.9 10.9
      vertex 5.93288 4.9 6.4
    endloop
  endfacet
  facet normal 0 0 1
    outer loop
      vertex 3.09031 4.9 6.4
      vertex 5.93288 4.9 6.4
      vertex 16.85 5.4 6.4
    endloop
  endfacet
  facet normal 0 0 -1
    outer loop
      vertex 3.86031 -1.59899 0
      vertex 16.4202 -1.88294 0
      vertex 21.6839 -2.40699 0
    endloop
  endfacet
  facet normal 0 0 -1
    outer loop
      vertex 3.86031 -1.59899 0
      vertex 20.1042 -4.30929 0
      vertex 19.6927 -4.59117 0
    endloop
  endfacet
  facet normal 0 0 -1
    outer loop
      vertex 3.86031 -1.59899 0
      vertex 20.488 -3.99065 0
      vertex 20.1042 -4.30929 0
    endloop
  endfacet
  facet normal 0 0 -1
    outer loop
      vertex 3.86031 -1.59899 0
      vertex 20.8406 -3.63796 0
      vertex 20.488 -3.99065 0
    endloop
  endfacet
  facet normal 0 0 -1
    outer loop
      vertex 3.86031 -1.59899 0
      vertex 21.1593 -3.25423 0
      vertex 20.8406 -3.63796 0
    endloop
  endfacet
  facet normal 0 0 -1
    outer loop
      vertex 3.86031 -1.59899 0
      vertex 21.4412 -2.84273 0
      vertex 21.1593 -3.25423 0
    endloop
  endfacet
  facet normal 0 0 -1
    outer loop
      vertex 3.86031 -1.59899 0
      vertex 21.6839 -2.40699 0
      vertex 21.4412 -2.84273 0
    endloop
  endfacet
  facet normal -0.980785 0.19509 0
    outer loop
      vertex 3.86031 -1.59899 0
      vertex 3.86031 -1.59899 4
      vertex 4.17836 0 0
    endloop
  endfacet
  facet normal 0 0 -1
    outer loop
      vertex 3.86031 -1.59899 0
      vertex 4.17836 0 0
      vertex 16.4202 -1.88294 0
    endloop
  endfacet
  facet normal -0.980785 0.19509 0
    outer loop
      vertex 3.86031 -1.59899 4
      vertex 4.17836 0 4
      vertex 4.17836 0 0
    endloop
  endfacet
  facet normal 0 0 -1
    outer loop
      vertex 3.86031 1.59899 0
      vertex 15.1099 0.837986 0
      vertex 4.17836 0 0
    endloop
  endfacet
  facet normal 0 0 -1
    outer loop
      vertex 3.86031 1.59899 0
      vertex 16.4202 1.88294 0
      vertex 15.1099 0.837986 0
    endloop
  endfacet
  facet normal 0 0 -1
    outer loop
      vertex 3.86031 1.59899 0
      vertex 21.1593 3.25423 0
      vertex 21.4412 2.84273 0
    endloop
  endfacet
  facet normal 0 0 -1
    outer loop
      vertex 3.86031 1.59899 0
      vertex 21.4412 2.84273 0
      vertex 21.6839 2.40699 0
    endloop
  endfacet
  facet normal 0 0 -1
    outer loop
      vertex 3.86031 1.59899 0
      vertex 21.6839 2.40699 0
      vertex 16.4202 1.88294 0
    endloop
  endfacet
  facet normal -0.980785 -0.19509 0
    outer loop
      vertex 3.86031 1.59899 0
      vertex 4.17836 0 0
      vertex 3.86031 1.59899 4
    endloop
  endfacet
  facet normal -0.980785 -0.19509 0
    outer loop
      vertex 3.86031 1.59899 4
      vertex 4.17836 0 0
      vertex 4.17836 0 4
    endloop
  endfacet
  facet normal 0 0 -1
    outer loop
      vertex 4.17836 0 0
      vertex 15.1099 -0.837986 0
      vertex 16.4202 -1.88294 0
    endloop
  endfacet
  facet normal 0 0 -1
    outer loop
      vertex 4.17836 0 0
      vertex 15.1099 0.837986 0
      vertex 15.1099 -0.837986 0
    endloop
  endfacet
  facet normal 0 0 1
    outer loop
      vertex 5.93288 4.9 10.9
      vertex 12.8903 -4.9 10.9
      vertex 15.7329 -4.9 10.9
    endloop
  endfacet
  facet normal 0.707107 0.707107 0
    outer loop
      vertex 5.93288 4.9 10.9
      vertex 15.7329 -4.9 10.9
      vertex 15.7329 -4.9 6.4
    endloop
  endfacet
  facet normal 0 0 1
    outer loop
      vertex 5.93288 4.9 6.4
      vertex 13.65 0 6.4
      vertex 15.25 2.77128 6.4
    endloop
  endfacet
  facet normal 0 0 1
    outer loop
      vertex 5.93288 4.9 6.4
      vertex 15.25 -2.77128 6.4
      vertex 13.65 0 6.4
    endloop
  endfacet
  facet normal 0 0 1
    outer loop
      vertex 5.93288 4.9 6.4
      vertex 15.25 2.77128 6.4
      vertex 21.1593 3.25423 6.4
    endloop
  endfacet
  facet normal 0 0 1
    outer loop
      vertex 5.93288 4.9 6.4
      vertex 15.7329 -4.9 6.4
      vertex 15.25 -2.77128 6.4
    endloop
  endfacet
  facet normal 0 0 1
    outer loop
      vertex 5.93288 4.9 6.4
      vertex 17.3482 5.37696 6.4
      vertex 16.85 5.4 6.4
    endloop
  endfacet
  facet normal 0 0 1
    outer loop
      vertex 5.93288 4.9 6.4
      vertex 17.8422 5.30805 6.4
      vertex 17.3482 5.37696 6.4
    endloop
  endfacet
  facet normal 0 0 1
    outer loop
      vertex 5.93288 4.9 6.4
      vertex 18.3278 5.19386 6.4
      vertex 17.8422 5.30805 6.4
    endloop
  endfacet
  facet normal 0 0 1
    outer loop
      vertex 5.93288 4.9 6.4
      vertex 18.8007 5.03535 6.4
      vertex 18.3278 5.19386 6.4
    endloop
  endfacet
  facet normal 0 0 1
    outer loop
      vertex 5.93288 4.9 6.4
      vertex 19.257 4.83388 6.4
      vertex 18.8007 5.03535 6.4
    endloop
  endfacet
  facet normal 0 0 1
    outer loop
      vertex 5.93288 4.9 6.4
      vertex 19.6927 4.59117 6.4
      vertex 19.257 4.83388 6.4
    endloop
  endfacet
  facet normal 0 0 1
    outer loop
      vertex 5.93288 4.9 6.4
      vertex 20.1042 4.30929 6.4
      vertex 19.6927 4.59117 6.4
    endloop
  endfacet
  facet normal 0 0 1
    outer loop
      vertex 5.93288 4.9 6.4
      vertex 20.488 3.99065 6.4
      vertex 20.1042 4.30929 6.4
    endloop
  endfacet
  facet normal 0 0 1
    outer loop
      vertex 5.93288 4.9 6.4
      vertex 20.8406 3.63796 6.4
      vertex 20.488 3.99065 6.4
    endloop
  endfacet
  facet normal 0 0 1
    outer loop
      vertex 5.93288 4.9 6.4
      vertex 21.1593 3.25423 6.4
      vertex 20.8406 3.63796 6.4
    endloop
  endfacet
  facet normal 0.707107 0.707107 0
    outer loop
      vertex 5.93288 4.9 6.4
      vertex 5.93288 4.9 10.9
      vertex 15.7329 -4.9 6.4
    endloop
  endfacet
endsolid OpenSCAD_Model
